%TF.GenerationSoftware,KiCad,Pcbnew,7.0.9*%
%TF.CreationDate,2024-02-25T16:41:41-05:00*%
%TF.ProjectId,payload24,7061796c-6f61-4643-9234-2e6b69636164,2*%
%TF.SameCoordinates,Original*%
%TF.FileFunction,Soldermask,Bot*%
%TF.FilePolarity,Negative*%
%FSLAX46Y46*%
G04 Gerber Fmt 4.6, Leading zero omitted, Abs format (unit mm)*
G04 Created by KiCad (PCBNEW 7.0.9) date 2024-02-25 16:41:41*
%MOMM*%
%LPD*%
G01*
G04 APERTURE LIST*
G04 Aperture macros list*
%AMRoundRect*
0 Rectangle with rounded corners*
0 $1 Rounding radius*
0 $2 $3 $4 $5 $6 $7 $8 $9 X,Y pos of 4 corners*
0 Add a 4 corners polygon primitive as box body*
4,1,4,$2,$3,$4,$5,$6,$7,$8,$9,$2,$3,0*
0 Add four circle primitives for the rounded corners*
1,1,$1+$1,$2,$3*
1,1,$1+$1,$4,$5*
1,1,$1+$1,$6,$7*
1,1,$1+$1,$8,$9*
0 Add four rect primitives between the rounded corners*
20,1,$1+$1,$2,$3,$4,$5,0*
20,1,$1+$1,$4,$5,$6,$7,0*
20,1,$1+$1,$6,$7,$8,$9,0*
20,1,$1+$1,$8,$9,$2,$3,0*%
G04 Aperture macros list end*
%ADD10C,1.879600*%
%ADD11C,1.905000*%
%ADD12RoundRect,0.875000X1.697579X1.549024X-2.296114X0.095438X-1.697579X-1.549024X2.296114X-0.095438X0*%
%ADD13C,2.032000*%
%ADD14C,4.101600*%
%ADD15C,3.301600*%
%ADD16C,1.300000*%
%ADD17R,1.574800X1.574800*%
%ADD18C,1.574800*%
%ADD19C,1.959000*%
%ADD20RoundRect,0.102000X0.877500X0.877500X-0.877500X0.877500X-0.877500X-0.877500X0.877500X-0.877500X0*%
%ADD21RoundRect,0.102000X0.615000X0.885000X-0.615000X0.885000X-0.615000X-0.885000X0.615000X-0.885000X0*%
%ADD22C,6.204000*%
%ADD23RoundRect,0.102000X3.000000X3.000000X-3.000000X3.000000X-3.000000X-3.000000X3.000000X-3.000000X0*%
%ADD24RoundRect,0.102000X0.877500X-0.877500X0.877500X0.877500X-0.877500X0.877500X-0.877500X-0.877500X0*%
%ADD25RoundRect,0.102000X-0.877500X-0.877500X0.877500X-0.877500X0.877500X0.877500X-0.877500X0.877500X0*%
%ADD26RoundRect,0.102000X0.580000X0.910000X-0.580000X0.910000X-0.580000X-0.910000X0.580000X-0.910000X0*%
%ADD27C,1.665000*%
%ADD28RoundRect,0.102000X-0.877500X0.877500X-0.877500X-0.877500X0.877500X-0.877500X0.877500X0.877500X0*%
G04 APERTURE END LIST*
D10*
%TO.C,U3*%
X49305000Y-49935000D03*
X49305000Y-47395000D03*
X49305000Y-44855000D03*
X49305000Y-42315000D03*
X49305000Y-39775000D03*
X49305000Y-37235000D03*
X49305000Y-34695000D03*
X49305000Y-32155000D03*
X49305000Y-29615000D03*
%TD*%
D11*
%TO.C,J2*%
X59950000Y-57785800D03*
X62450000Y-57785800D03*
%TD*%
%TO.C,J1*%
X71600000Y-57785800D03*
X74100000Y-57785800D03*
X76600000Y-57785800D03*
%TD*%
D12*
%TO.C,SW1*%
X78748599Y-98457885D03*
X76698663Y-92825731D03*
%TD*%
D13*
%TO.C,U14*%
X26800000Y-55445000D03*
X26800000Y-57985000D03*
X26800000Y-60525000D03*
X26800000Y-63065000D03*
X26800000Y-65605000D03*
X26800000Y-68145000D03*
X44580000Y-57985000D03*
X44580000Y-60525000D03*
X44580000Y-63065000D03*
X44580000Y-65605000D03*
D14*
X28070000Y-51000000D03*
X43310000Y-72590000D03*
%TD*%
D11*
%TO.C,J3*%
X71600000Y-64085800D03*
X74100000Y-64085800D03*
X76600000Y-64085800D03*
X79100000Y-64085800D03*
%TD*%
D10*
%TO.C,U8*%
X76460000Y-85500000D03*
X79000000Y-85500000D03*
X81540000Y-85500000D03*
X84080000Y-85500000D03*
X86620000Y-85500000D03*
X89160000Y-85500000D03*
X91700000Y-85500000D03*
X94240000Y-85500000D03*
D15*
X75190000Y-72800000D03*
X95510000Y-72800000D03*
%TD*%
D16*
%TO.C,U5*%
X50460000Y-86050000D03*
X47920000Y-86050000D03*
X50460000Y-83510000D03*
X47920000Y-83510000D03*
X50460000Y-80970000D03*
X47920000Y-80970000D03*
X50460000Y-75890000D03*
X47920000Y-75890000D03*
X50460000Y-78430000D03*
X47920000Y-78430000D03*
X50460000Y-73350000D03*
X47920000Y-73350000D03*
%TD*%
D17*
%TO.C,LS1*%
X96170000Y-60420000D03*
D18*
X101170000Y-60420000D03*
%TD*%
D11*
%TO.C,J4*%
X54900000Y-64085800D03*
X57400000Y-64085800D03*
X59900000Y-64085800D03*
X62400000Y-64085800D03*
%TD*%
D19*
%TO.C,Q1*%
X59620000Y-74630000D03*
D20*
X62160000Y-74630000D03*
D19*
X57080000Y-74630000D03*
%TD*%
D21*
%TO.C,R2*%
X41722000Y-34070000D03*
X38790000Y-34070000D03*
%TD*%
D22*
%TO.C,U6*%
X60800000Y-99125000D03*
D23*
X68000000Y-99125000D03*
%TD*%
D19*
%TO.C,Q3*%
X67450000Y-76900000D03*
D24*
X67450000Y-79440000D03*
D19*
X67450000Y-74360000D03*
%TD*%
D21*
%TO.C,R5*%
X41712000Y-41300000D03*
X38780000Y-41300000D03*
%TD*%
%TO.C,R3*%
X41698000Y-37680000D03*
X38766000Y-37680000D03*
%TD*%
D25*
%TO.C,U2*%
X62660000Y-84780000D03*
D19*
X65200000Y-84780000D03*
X67740000Y-84780000D03*
%TD*%
D26*
%TO.C,C1*%
X88050000Y-73390000D03*
X85100000Y-73390000D03*
%TD*%
D27*
%TO.C,U1*%
X47150000Y-52800000D03*
X49690000Y-52800000D03*
X52230000Y-52800000D03*
X54770000Y-52800000D03*
X80170000Y-52800000D03*
X49690000Y-68040000D03*
X57310000Y-52800000D03*
X59850000Y-52800000D03*
X62390000Y-52800000D03*
X64930000Y-52800000D03*
X67470000Y-52800000D03*
X70010000Y-52800000D03*
X72550000Y-52800000D03*
X75090000Y-52800000D03*
X77630000Y-52800000D03*
X77630000Y-68040000D03*
X75090000Y-68040000D03*
X72550000Y-68040000D03*
X70010000Y-68040000D03*
X67470000Y-68040000D03*
X64930000Y-68040000D03*
X62390000Y-68040000D03*
X59850000Y-68040000D03*
X57310000Y-68040000D03*
X54770000Y-68040000D03*
X52230000Y-68040000D03*
X82710000Y-52800000D03*
X85250000Y-52800000D03*
X87790000Y-52800000D03*
X90330000Y-52800000D03*
X92870000Y-52800000D03*
X95410000Y-52800000D03*
X97950000Y-52800000D03*
X100490000Y-52800000D03*
X103030000Y-52800000D03*
X103030000Y-68040000D03*
X100490000Y-68040000D03*
X97950000Y-68040000D03*
X95410000Y-68040000D03*
X92870000Y-68040000D03*
X90330000Y-68040000D03*
X87790000Y-68040000D03*
X85250000Y-68040000D03*
X82710000Y-68040000D03*
X44610000Y-52800000D03*
X80170000Y-68040000D03*
X47150000Y-68040000D03*
X44610000Y-68040000D03*
%TD*%
D28*
%TO.C,U7*%
X57290000Y-79950000D03*
D19*
X57290000Y-82490000D03*
X57290000Y-85030000D03*
%TD*%
D26*
%TO.C,C2*%
X87980000Y-77050000D03*
X85030000Y-77050000D03*
%TD*%
D10*
%TO.C,U4*%
X74230000Y-45940000D03*
X71690000Y-45940000D03*
X69150000Y-45940000D03*
X66610000Y-45940000D03*
X64070000Y-45940000D03*
X61530000Y-45940000D03*
X58990000Y-45940000D03*
X56450000Y-45940000D03*
X53910000Y-45940000D03*
X74230000Y-20540000D03*
X71690000Y-20540000D03*
X69150000Y-20540000D03*
X66610000Y-20540000D03*
X64070000Y-20540000D03*
%TD*%
D21*
%TO.C,R6*%
X41784000Y-44920000D03*
X38852000Y-44920000D03*
%TD*%
D26*
%TO.C,C3*%
X88000000Y-80680000D03*
X85050000Y-80680000D03*
%TD*%
M02*
