%TF.GenerationSoftware,KiCad,Pcbnew,7.0.9*%
%TF.CreationDate,2024-01-17T22:54:14-05:00*%
%TF.ProjectId,payload24,7061796c-6f61-4643-9234-2e6b69636164,2*%
%TF.SameCoordinates,Original*%
%TF.FileFunction,Soldermask,Bot*%
%TF.FilePolarity,Negative*%
%FSLAX46Y46*%
G04 Gerber Fmt 4.6, Leading zero omitted, Abs format (unit mm)*
G04 Created by KiCad (PCBNEW 7.0.9) date 2024-01-17 22:54:14*
%MOMM*%
%LPD*%
G01*
G04 APERTURE LIST*
G04 Aperture macros list*
%AMRoundRect*
0 Rectangle with rounded corners*
0 $1 Rounding radius*
0 $2 $3 $4 $5 $6 $7 $8 $9 X,Y pos of 4 corners*
0 Add a 4 corners polygon primitive as box body*
4,1,4,$2,$3,$4,$5,$6,$7,$8,$9,$2,$3,0*
0 Add four circle primitives for the rounded corners*
1,1,$1+$1,$2,$3*
1,1,$1+$1,$4,$5*
1,1,$1+$1,$6,$7*
1,1,$1+$1,$8,$9*
0 Add four rect primitives between the rounded corners*
20,1,$1+$1,$2,$3,$4,$5,0*
20,1,$1+$1,$4,$5,$6,$7,0*
20,1,$1+$1,$6,$7,$8,$9,0*
20,1,$1+$1,$8,$9,$2,$3,0*%
G04 Aperture macros list end*
%ADD10C,1.879600*%
%ADD11C,3.101600*%
%ADD12C,1.905000*%
%ADD13RoundRect,0.875000X0.875000X-2.125000X0.875000X2.125000X-0.875000X2.125000X-0.875000X-2.125000X0*%
%ADD14C,6.204000*%
%ADD15RoundRect,0.102000X1.381269X4.011496X-4.011496X1.381269X-1.381269X-4.011496X4.011496X-1.381269X0*%
%ADD16RoundRect,0.102000X-0.754000X0.754000X-0.754000X-0.754000X0.754000X-0.754000X0.754000X0.754000X0*%
%ADD17C,1.712000*%
%ADD18C,2.032000*%
%ADD19RoundRect,0.102000X0.885000X-0.615000X0.885000X0.615000X-0.885000X0.615000X-0.885000X-0.615000X0*%
%ADD20C,1.300000*%
%ADD21RoundRect,0.102000X-3.152896X-2.838881X2.838881X-3.152896X3.152896X2.838881X-2.838881X3.152896X0*%
%ADD22RoundRect,0.102000X0.129717X-1.234174X1.234174X0.129717X-0.129717X1.234174X-1.234174X-0.129717X0*%
%ADD23C,1.959000*%
%ADD24C,1.665000*%
%ADD25RoundRect,0.102000X0.877500X-0.877500X0.877500X0.877500X-0.877500X0.877500X-0.877500X-0.877500X0*%
%ADD26RoundRect,0.102000X0.885000X-0.565000X0.885000X0.565000X-0.885000X0.565000X-0.885000X-0.565000X0*%
G04 APERTURE END LIST*
D10*
%TO.C,U8*%
X54344518Y-77134565D03*
X51804518Y-77134565D03*
X49264518Y-77134565D03*
X46724518Y-77134565D03*
X44184518Y-77134565D03*
X41644518Y-77134565D03*
X39104518Y-77134565D03*
X36564518Y-77134565D03*
D11*
X37199518Y-88564565D03*
%TD*%
D12*
%TO.C,J4*%
X51770372Y-62293844D03*
X54270372Y-62293844D03*
X56770372Y-62293844D03*
%TD*%
D10*
%TO.C,U2*%
X61159000Y-89914000D03*
X63699000Y-89914000D03*
X66239000Y-89914000D03*
X68779000Y-89914000D03*
X71319000Y-89914000D03*
X73859000Y-89914000D03*
X76399000Y-89914000D03*
X78939000Y-89914000D03*
D11*
X78304000Y-78484000D03*
%TD*%
D13*
%TO.C,SW1*%
X32532800Y-53950000D03*
X38526413Y-53950000D03*
%TD*%
D14*
%TO.C,U7*%
X65320253Y-60498163D03*
D15*
X71791571Y-57341891D03*
%TD*%
D16*
%TO.C,U13*%
X29699294Y-71810130D03*
D17*
X32239294Y-71810130D03*
X34779294Y-71810130D03*
X37319294Y-71810130D03*
X39859294Y-71810130D03*
X29699294Y-59135130D03*
X32239294Y-59135130D03*
X34779294Y-59135130D03*
X37319294Y-59135130D03*
D16*
X39859294Y-59135130D03*
%TD*%
D12*
%TO.C,J3*%
X72610880Y-71074127D03*
X75110880Y-71074127D03*
%TD*%
D10*
%TO.C,U3*%
X72577881Y-40236034D03*
X74860817Y-39122571D03*
X77143754Y-38009108D03*
X79426691Y-36895646D03*
X81709628Y-35782183D03*
X83992565Y-34668720D03*
X86275502Y-33555258D03*
X88558439Y-32441795D03*
X90841376Y-31328332D03*
%TD*%
%TO.C,U14*%
X62259239Y-39521461D03*
X62259239Y-36981461D03*
X62259239Y-34441461D03*
X62259239Y-31901461D03*
X62259239Y-29361461D03*
X62259239Y-26821461D03*
D18*
X47019239Y-36981461D03*
X47019239Y-34441461D03*
X47019239Y-31901461D03*
X47019239Y-29361461D03*
%TD*%
D12*
%TO.C,J1*%
X56826723Y-54902201D03*
X54326723Y-54902201D03*
X51826723Y-54902201D03*
%TD*%
%TO.C,J2*%
X62148487Y-71024550D03*
X64648487Y-71024550D03*
X67148487Y-71024550D03*
%TD*%
D19*
%TO.C,R3*%
X85745768Y-45368260D03*
X85745768Y-42436260D03*
%TD*%
D10*
%TO.C,U4*%
X83252577Y-71461024D03*
X83252577Y-74001024D03*
X83252577Y-76541024D03*
X83252577Y-79081024D03*
X83252577Y-81621024D03*
X83252577Y-84161024D03*
X83252577Y-86701024D03*
X83252577Y-89241024D03*
X83252577Y-91781024D03*
X57852577Y-71461024D03*
X57852577Y-74001024D03*
X57852577Y-76541024D03*
X57852577Y-79081024D03*
X57852577Y-81621024D03*
%TD*%
D20*
%TO.C,U5*%
X62029875Y-43918660D03*
X62029875Y-46458660D03*
X59489875Y-46458660D03*
X59489875Y-43918660D03*
X56949875Y-46458660D03*
X56949875Y-43918660D03*
X54409875Y-46458660D03*
X54409875Y-43918660D03*
X51869875Y-46458660D03*
X51869875Y-43918660D03*
X49329875Y-46458660D03*
X49329875Y-43918660D03*
%TD*%
D19*
%TO.C,R4*%
X81169488Y-45389675D03*
X81169488Y-42457675D03*
%TD*%
%TO.C,R2*%
X90297625Y-45366932D03*
X90297625Y-42434932D03*
%TD*%
D14*
%TO.C,U6*%
X66491412Y-99531528D03*
D21*
X59301280Y-99154710D03*
%TD*%
D22*
%TO.C,Q2*%
X33094386Y-35601866D03*
D23*
X34692860Y-33627915D03*
X36291334Y-31653964D03*
%TD*%
D24*
%TO.C,U1*%
X44517848Y-50719301D03*
X47057848Y-50719301D03*
X49597848Y-50719301D03*
X52137848Y-50719301D03*
X77537848Y-50719301D03*
X47057848Y-65959301D03*
X54677848Y-50719301D03*
X57217848Y-50719301D03*
X59757848Y-50719301D03*
X62297848Y-50719301D03*
X64837848Y-50719301D03*
X67377848Y-50719301D03*
X69917848Y-50719301D03*
X72457848Y-50719301D03*
X74997848Y-50719301D03*
X74997848Y-65959301D03*
X72457848Y-65959301D03*
X69917848Y-65959301D03*
X67377848Y-65959301D03*
X64837848Y-65959301D03*
X62297848Y-65959301D03*
X59757848Y-65959301D03*
X57217848Y-65959301D03*
X54677848Y-65959301D03*
X52137848Y-65959301D03*
X49597848Y-65959301D03*
X80077848Y-50719301D03*
X82617848Y-50719301D03*
X85157848Y-50719301D03*
X87697848Y-50719301D03*
X90237848Y-50719301D03*
X92777848Y-50719301D03*
X95317848Y-50719301D03*
X97857848Y-50719301D03*
X100397848Y-50719301D03*
X100397848Y-65959301D03*
X97857848Y-65959301D03*
X95317848Y-65959301D03*
X92777848Y-65959301D03*
X90237848Y-65959301D03*
X87697848Y-65959301D03*
X85157848Y-65959301D03*
X82617848Y-65959301D03*
X80077848Y-65959301D03*
X41977848Y-50719301D03*
X77537848Y-65959301D03*
X44517848Y-65959301D03*
X41977848Y-65959301D03*
%TD*%
D25*
%TO.C,Q1*%
X72010000Y-32190000D03*
D23*
X72010000Y-29650000D03*
X72010000Y-27110000D03*
%TD*%
D26*
%TO.C,R1*%
X94911910Y-45420621D03*
X94911910Y-42480621D03*
%TD*%
M02*
