M48
; DRILL file {KiCad 7.0.9} date Wed Jan 17 22:54:16 2024
; FORMAT={-:-/ absolute / metric / decimal}
; #@! TF.CreationDate,2024-01-17T22:54:16-05:00
; #@! TF.GenerationSoftware,Kicad,Pcbnew,7.0.9
; #@! TF.FileFunction,Plated,1,6,PTH
FMAT,2
METRIC
; #@! TA.AperFunction,Plated,PTH,ViaDrill
T1C0.400
; #@! TA.AperFunction,Plated,PTH,ComponentDrill
T2C1.000
; #@! TA.AperFunction,Plated,PTH,ComponentDrill
T3C1.020
; #@! TA.AperFunction,Plated,PTH,ComponentDrill
T4C1.110
; #@! TA.AperFunction,Plated,PTH,ComponentDrill
T5C1.170
; #@! TA.AperFunction,Plated,PTH,ComponentDrill
T6C1.750
; #@! TA.AperFunction,Plated,PTH,ComponentDrill
T7C2.200
; #@! TA.AperFunction,Plated,PTH,ComponentDrill
T8C4.550
%
G90
G05
T1
X36.39Y-40.42
X38.41Y-38.44
X48.426Y-70.214
X51.82Y-74.08
X54.1Y-72.01
X55.42Y-72.005
X58.082Y-85.318
X58.59Y-33.99
X58.604Y-70.176
X59.002Y-57.858
X61.13Y-57.89
X63.69Y-47.605
X66.31Y-41.16
X68.11Y-39.79
X73.02Y-47.23
X77.98Y-40.75
X78.69Y-42.242
X79.715Y-52.105
X80.0Y-57.2
X80.15Y-60.89
X80.99Y-37.91
X83.5Y-42.35
X86.34Y-39.14
X88.44Y-47.57
X88.47Y-45.41
X89.07Y-58.47
T2
X29.699Y-59.135
X29.699Y-71.81
X32.239Y-59.135
X32.239Y-71.81
X34.779Y-59.135
X34.779Y-71.81
X36.565Y-77.135
X37.319Y-59.135
X37.319Y-71.81
X39.105Y-77.135
X39.859Y-59.135
X39.859Y-71.81
X41.645Y-77.135
X44.185Y-77.135
X46.725Y-77.135
X47.019Y-29.361
X47.019Y-31.901
X47.019Y-34.441
X47.019Y-36.981
X49.265Y-77.135
X51.77Y-62.294
X51.805Y-77.135
X51.827Y-54.902
X54.27Y-62.294
X54.327Y-54.902
X54.345Y-77.135
X56.77Y-62.294
X56.827Y-54.902
X57.853Y-71.461
X57.853Y-74.001
X57.853Y-76.541
X57.853Y-79.081
X57.853Y-81.621
X61.159Y-89.914
X62.148Y-71.025
X62.259Y-26.821
X62.259Y-29.361
X62.259Y-31.901
X62.259Y-34.441
X62.259Y-36.981
X62.259Y-39.521
X63.699Y-89.914
X64.648Y-71.025
X66.239Y-89.914
X67.148Y-71.025
X68.779Y-89.914
X71.319Y-89.914
X72.578Y-40.236
X72.611Y-71.074
X73.859Y-89.914
X74.861Y-39.123
X75.111Y-71.074
X76.399Y-89.914
X77.144Y-38.009
X78.939Y-89.914
X79.427Y-36.896
X81.71Y-35.782
X83.253Y-71.461
X83.253Y-74.001
X83.253Y-76.541
X83.253Y-79.081
X83.253Y-81.621
X83.253Y-84.161
X83.253Y-86.701
X83.253Y-89.241
X83.253Y-91.781
X83.993Y-34.669
X86.276Y-33.555
X88.558Y-32.442
X90.841Y-31.328
T3
X49.33Y-43.919
X49.33Y-46.459
X51.87Y-43.919
X51.87Y-46.459
X54.41Y-43.919
X54.41Y-46.459
X56.95Y-43.919
X56.95Y-46.459
X59.49Y-43.919
X59.49Y-46.459
X62.03Y-43.919
X62.03Y-46.459
T4
X41.978Y-50.719
X41.978Y-65.959
X44.518Y-50.719
X44.518Y-65.959
X47.058Y-50.719
X47.058Y-65.959
X49.598Y-50.719
X49.598Y-65.959
X52.138Y-50.719
X52.138Y-65.959
X54.678Y-50.719
X54.678Y-65.959
X57.218Y-50.719
X57.218Y-65.959
X59.758Y-50.719
X59.758Y-65.959
X62.298Y-50.719
X62.298Y-65.959
X64.838Y-50.719
X64.838Y-65.959
X67.378Y-50.719
X67.378Y-65.959
X69.918Y-50.719
X69.918Y-65.959
X72.458Y-50.719
X72.458Y-65.959
X74.998Y-50.719
X74.998Y-65.959
X77.538Y-50.719
X77.538Y-65.959
X80.078Y-50.719
X80.078Y-65.959
X82.618Y-50.719
X82.618Y-65.959
X85.158Y-50.719
X85.158Y-65.959
X87.698Y-50.719
X87.698Y-65.959
X90.238Y-50.719
X90.238Y-65.959
X92.778Y-50.719
X92.778Y-65.959
X95.318Y-50.719
X95.318Y-65.959
X97.858Y-50.719
X97.858Y-65.959
X100.398Y-50.719
X100.398Y-65.959
T5
X33.094Y-35.602
X34.693Y-33.628
X36.291Y-31.654
X72.01Y-27.11
X72.01Y-29.65
X72.01Y-32.19
T7
X37.2Y-88.565
X78.304Y-78.484
T8
X59.301Y-99.155
X65.32Y-60.498
X66.491Y-99.532
X71.792Y-57.342
T6
X32.533Y-55.2G85X32.533Y-52.7
G05
X38.526Y-55.2G85X38.526Y-52.7
G05
T0
M30
