%TF.GenerationSoftware,KiCad,Pcbnew,7.0.9*%
%TF.CreationDate,2024-01-17T22:54:14-05:00*%
%TF.ProjectId,payload24,7061796c-6f61-4643-9234-2e6b69636164,2*%
%TF.SameCoordinates,Original*%
%TF.FileFunction,Copper,L1,Top*%
%TF.FilePolarity,Positive*%
%FSLAX46Y46*%
G04 Gerber Fmt 4.6, Leading zero omitted, Abs format (unit mm)*
G04 Created by KiCad (PCBNEW 7.0.9) date 2024-01-17 22:54:14*
%MOMM*%
%LPD*%
G01*
G04 APERTURE LIST*
G04 Aperture macros list*
%AMRoundRect*
0 Rectangle with rounded corners*
0 $1 Rounding radius*
0 $2 $3 $4 $5 $6 $7 $8 $9 X,Y pos of 4 corners*
0 Add a 4 corners polygon primitive as box body*
4,1,4,$2,$3,$4,$5,$6,$7,$8,$9,$2,$3,0*
0 Add four circle primitives for the rounded corners*
1,1,$1+$1,$2,$3*
1,1,$1+$1,$4,$5*
1,1,$1+$1,$6,$7*
1,1,$1+$1,$8,$9*
0 Add four rect primitives between the rounded corners*
20,1,$1+$1,$2,$3,$4,$5,0*
20,1,$1+$1,$4,$5,$6,$7,0*
20,1,$1+$1,$6,$7,$8,$9,0*
20,1,$1+$1,$8,$9,$2,$3,0*%
%AMRotRect*
0 Rectangle, with rotation*
0 The origin of the aperture is its center*
0 $1 length*
0 $2 width*
0 $3 Rotation angle, in degrees counterclockwise*
0 Add horizontal line*
21,1,$1,$2,0,0,$3*%
G04 Aperture macros list end*
%TA.AperFunction,ComponentPad*%
%ADD10C,1.778000*%
%TD*%
%TA.AperFunction,ComponentPad*%
%ADD11C,3.000000*%
%TD*%
%TA.AperFunction,ComponentPad*%
%ADD12C,1.905000*%
%TD*%
%TA.AperFunction,ComponentPad*%
%ADD13RoundRect,0.875000X0.875000X-2.125000X0.875000X2.125000X-0.875000X2.125000X-0.875000X-2.125000X0*%
%TD*%
%TA.AperFunction,ComponentPad*%
%ADD14C,6.000000*%
%TD*%
%TA.AperFunction,ComponentPad*%
%ADD15RotRect,6.000000X6.000000X206.000000*%
%TD*%
%TA.AperFunction,ComponentPad*%
%ADD16R,1.508000X1.508000*%
%TD*%
%TA.AperFunction,ComponentPad*%
%ADD17C,1.508000*%
%TD*%
%TA.AperFunction,ComponentPad*%
%ADD18C,1.930400*%
%TD*%
%TA.AperFunction,ComponentPad*%
%ADD19C,1.300000*%
%TD*%
%TA.AperFunction,ComponentPad*%
%ADD20RotRect,6.000000X6.000000X357.000000*%
%TD*%
%TA.AperFunction,ComponentPad*%
%ADD21RotRect,1.755000X1.755000X51.000000*%
%TD*%
%TA.AperFunction,ComponentPad*%
%ADD22C,1.755000*%
%TD*%
%TA.AperFunction,ComponentPad*%
%ADD23C,1.665000*%
%TD*%
%TA.AperFunction,ComponentPad*%
%ADD24R,1.755000X1.755000*%
%TD*%
%TA.AperFunction,ViaPad*%
%ADD25C,0.800000*%
%TD*%
%TA.AperFunction,Conductor*%
%ADD26C,0.250000*%
%TD*%
%TA.AperFunction,Conductor*%
%ADD27C,2.540000*%
%TD*%
G04 APERTURE END LIST*
D10*
%TO.P,U8,1,Vin*%
%TO.N,3.3V-Teensy*%
X54344518Y-77134565D03*
%TO.P,U8,2,3Vo*%
%TO.N,unconnected-(U8-3Vo-Pad2)*%
X51804518Y-77134565D03*
%TO.P,U8,3,GND*%
%TO.N,GND - NMOS1*%
X49264518Y-77134565D03*
%TO.P,U8,4,SCL*%
%TO.N,SCL1*%
X46724518Y-77134565D03*
%TO.P,U8,5,SDO*%
%TO.N,unconnected-(U8-SDO-Pad5)*%
X44184518Y-77134565D03*
%TO.P,U8,6,SDA*%
%TO.N,SDA1*%
X41644518Y-77134565D03*
%TO.P,U8,7,CS*%
%TO.N,unconnected-(U8-CS-Pad7)*%
X39104518Y-77134565D03*
%TO.P,U8,8,INT*%
%TO.N,unconnected-(U8-INT-Pad8)*%
X36564518Y-77134565D03*
D11*
%TO.P,U8,P$1*%
%TO.N,N/C*%
X37199518Y-88564565D03*
%TD*%
D12*
%TO.P,J4,1,___PWM*%
%TO.N,/Open Signal*%
X51770372Y-62293844D03*
%TO.P,J4,2,___+*%
%TO.N,5V-Power Reg.*%
X54270372Y-62293844D03*
%TO.P,J4,3,___-*%
%TO.N,GND - NMOS1*%
X56770372Y-62293844D03*
%TD*%
D10*
%TO.P,U2,1,Vin*%
%TO.N,3.3V-Trinket*%
X61159000Y-89914000D03*
%TO.P,U2,2,3Vo*%
%TO.N,unconnected-(U2-3Vo-Pad2)*%
X63699000Y-89914000D03*
%TO.P,U2,3,GND*%
%TO.N,GND*%
X66239000Y-89914000D03*
%TO.P,U2,4,SCL*%
%TO.N,SCL3*%
X68779000Y-89914000D03*
%TO.P,U2,5,SDO*%
%TO.N,unconnected-(U2-SDO-Pad5)*%
X71319000Y-89914000D03*
%TO.P,U2,6,SDA*%
%TO.N,SDA3*%
X73859000Y-89914000D03*
%TO.P,U2,7,CS*%
%TO.N,unconnected-(U2-CS-Pad7)*%
X76399000Y-89914000D03*
%TO.P,U2,8,INT*%
%TO.N,unconnected-(U2-INT-Pad8)*%
X78939000Y-89914000D03*
D11*
%TO.P,U2,P$1*%
%TO.N,N/C*%
X78304000Y-78484000D03*
%TD*%
D13*
%TO.P,SW1,1,A*%
%TO.N,/.1in*%
X32532800Y-53950000D03*
%TO.P,SW1,2,B*%
%TO.N,/22.2V*%
X38526413Y-53950000D03*
%TD*%
D14*
%TO.P,U7,N,-*%
%TO.N,GND - NMOS1*%
X65320253Y-60498163D03*
D15*
%TO.P,U7,P,+*%
%TO.N,/22.2V*%
X71791571Y-57341891D03*
%TD*%
D16*
%TO.P,U13,1,BAT*%
%TO.N,5V-Power Reg.*%
X29699294Y-71810130D03*
D17*
%TO.P,U13,2,GND*%
%TO.N,GND*%
X32239294Y-71810130D03*
%TO.P,U13,3,4*%
%TO.N,unconnected-(U13-4-Pad3)*%
X34779294Y-71810130D03*
%TO.P,U13,4,3*%
%TO.N,unconnected-(U13-3-Pad4)*%
X37319294Y-71810130D03*
%TO.P,U13,5,RST*%
%TO.N,unconnected-(U13-RST-Pad5)*%
X39859294Y-71810130D03*
%TO.P,U13,6,USB*%
%TO.N,unconnected-(U13-USB-Pad6)*%
X29699294Y-59135130D03*
%TO.P,U13,7,0*%
%TO.N,SDA3*%
X32239294Y-59135130D03*
%TO.P,U13,8,1*%
%TO.N,SCL3*%
X34779294Y-59135130D03*
%TO.P,U13,9,2*%
%TO.N,Power Signal*%
X37319294Y-59135130D03*
D16*
%TO.P,U13,10,3V*%
%TO.N,3.3V-Trinket*%
X39859294Y-59135130D03*
%TD*%
D12*
%TO.P,J3,1,1*%
%TO.N,GND - NMOS2*%
X72610880Y-71074127D03*
%TO.P,J3,2,2*%
%TO.N,5V-Power Reg.*%
X75110880Y-71074127D03*
%TD*%
D10*
%TO.P,U3,1,PPS*%
%TO.N,unconnected-(U3-PPS-Pad1)*%
X72577881Y-40236034D03*
%TO.P,U3,2,VIN*%
%TO.N,3.3V-Teensy1*%
X74860817Y-39122571D03*
%TO.P,U3,3,GND*%
%TO.N,GND - NMOS1*%
X77143754Y-38009108D03*
%TO.P,U3,4,RX*%
%TO.N,RX1*%
X79426691Y-36895646D03*
%TO.P,U3,5,TX*%
%TO.N,TX1*%
X81709628Y-35782183D03*
%TO.P,U3,6,FIX*%
%TO.N,unconnected-(U3-FIX-Pad6)*%
X83992565Y-34668720D03*
%TO.P,U3,7,VBAT*%
%TO.N,unconnected-(U3-VBAT-Pad7)*%
X86275502Y-33555258D03*
%TO.P,U3,8,EN*%
%TO.N,EN1*%
X88558439Y-32441795D03*
%TO.P,U3,9,3.3V*%
%TO.N,unconnected-(U3-3.3V-Pad9)*%
X90841376Y-31328332D03*
%TD*%
%TO.P,U14,1,Vin*%
%TO.N,3.3V-Teensy*%
X62259239Y-39521461D03*
%TO.P,U14,2,3v*%
%TO.N,unconnected-(U14-3v-Pad2)*%
X62259239Y-36981461D03*
%TO.P,U14,3,GND*%
%TO.N,GND - NMOS1*%
X62259239Y-34441461D03*
%TO.P,U14,4,SCL*%
%TO.N,SCL2*%
X62259239Y-31901461D03*
%TO.P,U14,5,SDA*%
%TO.N,SDA2*%
X62259239Y-29361461D03*
%TO.P,U14,6,RST*%
%TO.N,RST2*%
X62259239Y-26821461D03*
D18*
%TO.P,U14,7,INT*%
%TO.N,unconnected-(U14-INT-Pad7)*%
X47019239Y-36981461D03*
%TO.P,U14,8,ADR*%
%TO.N,unconnected-(U14-ADR-Pad8)*%
X47019239Y-34441461D03*
%TO.P,U14,9,PS0*%
%TO.N,unconnected-(U14-PS0-Pad9)*%
X47019239Y-31901461D03*
%TO.P,U14,10,PS1*%
%TO.N,unconnected-(U14-PS1-Pad10)*%
X47019239Y-29361461D03*
%TD*%
D12*
%TO.P,J1,1,___PWM*%
%TO.N,/Retention  Signal*%
X56826723Y-54902201D03*
%TO.P,J1,2,___+*%
%TO.N,5V-Power Reg.*%
X54326723Y-54902201D03*
%TO.P,J1,3,___-*%
%TO.N,GND - NMOS1*%
X51826723Y-54902201D03*
%TD*%
%TO.P,J2,1,___PWM*%
%TO.N,/Open Signal*%
X62148487Y-71024550D03*
%TO.P,J2,2,___+*%
%TO.N,5V-Power Reg.*%
X64648487Y-71024550D03*
%TO.P,J2,3,___-*%
%TO.N,GND - NMOS1*%
X67148487Y-71024550D03*
%TD*%
D10*
%TO.P,U4,1,VIN*%
%TO.N,5V-Power Reg.*%
X83252577Y-71461024D03*
%TO.P,U4,2,GND*%
%TO.N,GND - NMOS1*%
X83252577Y-74001024D03*
%TO.P,U4,3,EN*%
%TO.N,EN2*%
X83252577Y-76541024D03*
%TO.P,U4,4,G0*%
%TO.N,G0*%
X83252577Y-79081024D03*
%TO.P,U4,5,SCK*%
%TO.N,SCK*%
X83252577Y-81621024D03*
%TO.P,U4,6,MISO*%
%TO.N,MISO*%
X83252577Y-84161024D03*
%TO.P,U4,7,MOSI*%
%TO.N,MOSI*%
X83252577Y-86701024D03*
%TO.P,U4,8,CS*%
%TO.N,CS*%
X83252577Y-89241024D03*
%TO.P,U4,9,RST*%
%TO.N,RST3*%
X83252577Y-91781024D03*
%TO.P,U4,10,G1*%
%TO.N,unconnected-(U4-G1-Pad10)*%
X57852577Y-71461024D03*
%TO.P,U4,11,G2*%
%TO.N,unconnected-(U4-G2-Pad11)*%
X57852577Y-74001024D03*
%TO.P,U4,12,G3*%
%TO.N,unconnected-(U4-G3-Pad12)*%
X57852577Y-76541024D03*
%TO.P,U4,13,G4*%
%TO.N,unconnected-(U4-G4-Pad13)*%
X57852577Y-79081024D03*
%TO.P,U4,14,G5*%
%TO.N,unconnected-(U4-G5-Pad14)*%
X57852577Y-81621024D03*
%TD*%
D19*
%TO.P,U5,1,PG*%
%TO.N,unconnected-(U5-PG-Pad1)*%
X62029875Y-43918660D03*
%TO.P,U5,2,EN*%
%TO.N,unconnected-(U5-EN-Pad2)*%
X62029875Y-46458660D03*
%TO.P,U5,3,VRP*%
%TO.N,unconnected-(U5-VRP-Pad3)*%
X59489875Y-46458660D03*
X59489875Y-43918660D03*
%TO.P,U5,4,VIN*%
%TO.N,/.1in*%
X56949875Y-46458660D03*
X56949875Y-43918660D03*
%TO.P,U5,5,GND*%
%TO.N,GND*%
X54409875Y-46458660D03*
X54409875Y-43918660D03*
X51869875Y-46458660D03*
X51869875Y-43918660D03*
%TO.P,U5,6,VOUT*%
%TO.N,5V-Power Reg.*%
X49329875Y-46458660D03*
X49329875Y-43918660D03*
%TD*%
D14*
%TO.P,U6,N,-*%
%TO.N,GND*%
X66491412Y-99531528D03*
D20*
%TO.P,U6,P,+*%
%TO.N,/22.2V*%
X59301280Y-99154710D03*
%TD*%
D21*
%TO.P,Q2,1*%
%TO.N,Net-(Q2-Pad1)*%
X33094386Y-35601866D03*
D22*
%TO.P,Q2,2*%
%TO.N,GND - NMOS2*%
X34692860Y-33627915D03*
%TO.P,Q2,3*%
%TO.N,GND*%
X36291334Y-31653964D03*
%TD*%
D23*
%TO.P,U1,0,PWM|CRX2|CS1|RX1*%
%TO.N,RX1*%
X44517848Y-50719301D03*
%TO.P,U1,1,PWM|CTX2|MISO1|TX1*%
%TO.N,TX1*%
X47057848Y-50719301D03*
%TO.P,U1,2,PWM|OUT2*%
%TO.N,RST3*%
X49597848Y-50719301D03*
%TO.P,U1,3,PWM|LRCLK2*%
%TO.N,unconnected-(U1-PWM|LRCLK2-Pad3)*%
X52137848Y-50719301D03*
%TO.P,U1,3.3V1,3.3V*%
%TO.N,3.3V-Teensy*%
X77537848Y-50719301D03*
%TO.P,U1,3.3V2,3.3V(250mA_max)*%
%TO.N,3.3V-Teensy1*%
X47057848Y-65959301D03*
%TO.P,U1,4,PWM|BCLK2*%
%TO.N,unconnected-(U1-PWM|BCLK2-Pad4)*%
X54677848Y-50719301D03*
%TO.P,U1,5,PWM|IN2*%
%TO.N,unconnected-(U1-PWM|IN2-Pad5)*%
X57217848Y-50719301D03*
%TO.P,U1,6,PWM|OUT1D*%
%TO.N,unconnected-(U1-PWM|OUT1D-Pad6)*%
X59757848Y-50719301D03*
%TO.P,U1,7,PWM|OUT1A|RX2*%
%TO.N,unconnected-(U1-PWM|OUT1A|RX2-Pad7)*%
X62297848Y-50719301D03*
%TO.P,U1,8,PWM|IN1|TX2*%
%TO.N,unconnected-(U1-PWM|IN1|TX2-Pad8)*%
X64837848Y-50719301D03*
%TO.P,U1,9,PWM|OUT1C*%
%TO.N,unconnected-(U1-PWM|OUT1C-Pad9)*%
X67377848Y-50719301D03*
%TO.P,U1,10,PWM|MQSR|CS*%
%TO.N,EN2*%
X69917848Y-50719301D03*
%TO.P,U1,11,PWM|CTX1|MOSI*%
%TO.N,MOSI*%
X72457848Y-50719301D03*
%TO.P,U1,12,PWM|MQSL|MISO*%
%TO.N,MISO*%
X74997848Y-50719301D03*
%TO.P,U1,13,(LED)SCK*%
%TO.N,SCK*%
X74997848Y-65959301D03*
%TO.P,U1,14,A0|TX3|S/PDIF_OUT|PWM*%
%TO.N,/Open Signal*%
X72457848Y-65959301D03*
%TO.P,U1,15,A1|RX3|S/PDIF_IN|PWM*%
%TO.N,unconnected-(U1-A1|RX3|S{slash}PDIF_IN|PWM-Pad15)*%
X69917848Y-65959301D03*
%TO.P,U1,16,A2|RX4|SCL1*%
%TO.N,SCL1*%
X67377848Y-65959301D03*
%TO.P,U1,17,A3|TX4|SDA1*%
%TO.N,SDA1*%
X64837848Y-65959301D03*
%TO.P,U1,18,A4|SDA|PWM*%
%TO.N,unconnected-(U1-A4|SDA|PWM-Pad18)*%
X62297848Y-65959301D03*
%TO.P,U1,19,A5|SCL|PWM*%
%TO.N,unconnected-(U1-A5|SCL|PWM-Pad19)*%
X59757848Y-65959301D03*
%TO.P,U1,20,A6|TX5|LRCLK1*%
%TO.N,unconnected-(U1-A6|TX5|LRCLK1-Pad20)*%
X57217848Y-65959301D03*
%TO.P,U1,21,A7|RX5|BCLK1*%
%TO.N,unconnected-(U1-A7|RX5|BCLK1-Pad21)*%
X54677848Y-65959301D03*
%TO.P,U1,22,A8|CTX1|PWM*%
%TO.N,unconnected-(U1-A8|CTX1|PWM-Pad22)*%
X52137848Y-65959301D03*
%TO.P,U1,23,A9|CRX1|MCLK1|PWM*%
%TO.N,/Retention  Signal*%
X49597848Y-65959301D03*
%TO.P,U1,24,PWM|SCL2|TX6|A10*%
%TO.N,SCL2*%
X80077848Y-50719301D03*
%TO.P,U1,25,PWM|SDA2|RX6|A11*%
%TO.N,SDA2*%
X82617848Y-50719301D03*
%TO.P,U1,26,MOSI1|A12*%
%TO.N,unconnected-(U1-MOSI1|A12-Pad26)*%
X85157848Y-50719301D03*
%TO.P,U1,27,SCK1|A13*%
%TO.N,unconnected-(U1-SCK1|A13-Pad27)*%
X87697848Y-50719301D03*
%TO.P,U1,28,PWM|RX7*%
%TO.N,PixHawk Signal*%
X90237848Y-50719301D03*
%TO.P,U1,29,PWM|TX7*%
%TO.N,unconnected-(U1-PWM|TX7-Pad29)*%
X92777848Y-50719301D03*
%TO.P,U1,30,CRX3*%
%TO.N,G0*%
X95317848Y-50719301D03*
%TO.P,U1,31,CTX3*%
%TO.N,EN1*%
X97857848Y-50719301D03*
%TO.P,U1,32,OUT1B*%
%TO.N,unconnected-(U1-OUT1B-Pad32)*%
X100397848Y-50719301D03*
%TO.P,U1,33,MCLK2|PWM*%
%TO.N,unconnected-(U1-MCLK2|PWM-Pad33)*%
X100397848Y-65959301D03*
%TO.P,U1,34,RX8*%
%TO.N,unconnected-(U1-RX8-Pad34)*%
X97857848Y-65959301D03*
%TO.P,U1,35,TX8*%
%TO.N,unconnected-(U1-TX8-Pad35)*%
X95317848Y-65959301D03*
%TO.P,U1,36,CS|PWM*%
%TO.N,CS*%
X92777848Y-65959301D03*
%TO.P,U1,37,CS|PWM*%
%TO.N,unconnected-(U1-CS|PWM-Pad37)*%
X90237848Y-65959301D03*
%TO.P,U1,38,A14|CS1|IN1*%
%TO.N,unconnected-(U1-A14|CS1|IN1-Pad38)*%
X87697848Y-65959301D03*
%TO.P,U1,39,A15|MISO1|OUT1A*%
%TO.N,unconnected-(U1-A15|MISO1|OUT1A-Pad39)*%
X85157848Y-65959301D03*
%TO.P,U1,40,A16*%
%TO.N,unconnected-(U1-A16-Pad40)*%
X82617848Y-65959301D03*
%TO.P,U1,41,A17*%
%TO.N,RST2*%
X80077848Y-65959301D03*
%TO.P,U1,GND1,GND*%
%TO.N,GND - NMOS1*%
X41977848Y-50719301D03*
%TO.P,U1,GND2,GND*%
X77537848Y-65959301D03*
%TO.P,U1,GND3,GND*%
X44517848Y-65959301D03*
%TO.P,U1,Vin,Vin(3.6to5.5volts)*%
%TO.N,5V-Power Reg.*%
X41977848Y-65959301D03*
%TD*%
D24*
%TO.P,Q1,1*%
%TO.N,Net-(Q1-Pad1)*%
X72010000Y-32190000D03*
D22*
%TO.P,Q1,2*%
%TO.N,GND - NMOS1*%
X72010000Y-29650000D03*
%TO.P,Q1,3*%
%TO.N,GND*%
X72010000Y-27110000D03*
%TD*%
D25*
%TO.N,GND - NMOS1*%
X58082333Y-85317667D03*
%TO.N,Net-(Q1-Pad1)*%
X78690000Y-42242175D03*
X77980000Y-40750000D03*
%TO.N,Net-(Q2-Pad1)*%
X86340000Y-39140000D03*
X83500000Y-42350000D03*
%TO.N,PixHawk Signal*%
X88440000Y-47570000D03*
X88470000Y-45410000D03*
%TO.N,RX1*%
X38410000Y-38440000D03*
X36390000Y-40420000D03*
%TO.N,TX1*%
X80990000Y-37910000D03*
%TO.N,3.3V-Teensy*%
X61130000Y-57890000D03*
%TO.N,3.3V-Teensy1*%
X63690000Y-47605500D03*
X59002214Y-57857786D03*
%TO.N,MISO*%
X79714742Y-52104504D03*
X89070000Y-58470000D03*
%TO.N,SDA1*%
X48425998Y-70214002D03*
X58603707Y-70175940D03*
%TO.N,SCL1*%
X55420000Y-72005500D03*
X51820000Y-74080000D03*
%TO.N,SDA2*%
X73020000Y-47230000D03*
X66310000Y-41160000D03*
X58590000Y-33990000D03*
%TO.N,RST2*%
X68110000Y-39790000D03*
X80000000Y-57200000D03*
X80150000Y-60890000D03*
%TO.N,SCL3*%
X54100000Y-72010000D03*
%TD*%
D26*
%TO.N,/Retention  Signal*%
X56826723Y-54902201D02*
X49597848Y-62131076D01*
X49597848Y-62131076D02*
X49597848Y-65959301D01*
%TO.N,GND - NMOS1*%
X77143754Y-34783754D02*
X72010000Y-29650000D01*
X77143754Y-38009108D02*
X77143754Y-34783754D01*
X67148487Y-76251513D02*
X67148487Y-71024550D01*
X58082333Y-85317667D02*
X67148487Y-76251513D01*
%TO.N,/Open Signal*%
X59983937Y-68860000D02*
X62148487Y-71024550D01*
X53295348Y-63818820D02*
X53295348Y-66213754D01*
X51770372Y-62293844D02*
X53295348Y-63818820D01*
X53295348Y-66213754D02*
X55941594Y-68860000D01*
X55941594Y-68860000D02*
X59983937Y-68860000D01*
%TO.N,GND - NMOS2*%
X55221735Y-38271661D02*
X60480000Y-43529926D01*
X58104223Y-57984394D02*
X58104223Y-54590000D01*
X58375348Y-50239848D02*
X58375348Y-52664652D01*
X65995348Y-65328511D02*
X64490000Y-63823163D01*
X72610880Y-71074127D02*
X70855721Y-71074127D01*
X65995348Y-66213754D02*
X65995348Y-65328511D01*
X39336606Y-38271661D02*
X55221735Y-38271661D01*
X58110000Y-54584223D02*
X58104223Y-54590000D01*
X34692860Y-33627915D02*
X39336606Y-38271661D01*
X58375348Y-52664652D02*
X58110000Y-52930000D01*
X70855721Y-71074127D02*
X65995348Y-66213754D01*
X63942992Y-63823163D02*
X58104223Y-57984394D01*
X58110000Y-54584223D02*
X58110000Y-52930000D01*
X60480000Y-48135196D02*
X58375348Y-50239848D01*
X64490000Y-63823163D02*
X63942992Y-63823163D01*
X60480000Y-43529926D02*
X60480000Y-48135196D01*
%TO.N,Net-(Q1-Pad1)*%
X77980000Y-40750000D02*
X77980000Y-41532175D01*
X77980000Y-41532175D02*
X78690000Y-42242175D01*
%TO.N,Net-(Q2-Pad1)*%
X86340000Y-39510000D02*
X86340000Y-39140000D01*
X83500000Y-42350000D02*
X86340000Y-39510000D01*
%TO.N,PixHawk Signal*%
X88440000Y-45440000D02*
X88470000Y-45410000D01*
X88440000Y-47570000D02*
X88440000Y-45440000D01*
D27*
%TO.N,/.1in*%
X32532800Y-53950000D02*
X32532800Y-49897200D01*
X32532800Y-49897200D02*
X40631340Y-41798660D01*
X40631340Y-41798660D02*
X55728660Y-41798660D01*
X56949875Y-43019875D02*
X56949875Y-46458660D01*
X55728660Y-41798660D02*
X56949875Y-43019875D01*
D26*
%TO.N,RX1*%
X38410000Y-38440000D02*
X36430000Y-40420000D01*
X36430000Y-40420000D02*
X36390000Y-40420000D01*
%TO.N,TX1*%
X80990000Y-37910000D02*
X80990000Y-36501811D01*
X80990000Y-36501811D02*
X81709628Y-35782183D01*
%TO.N,RST3*%
X83252577Y-91781024D02*
X76549168Y-91781024D01*
X57782028Y-86042667D02*
X53130518Y-81391157D01*
X33700294Y-59986690D02*
X33700294Y-58688193D01*
X74007333Y-86042667D02*
X57782028Y-86042667D01*
X75185000Y-87220334D02*
X74007333Y-86042667D01*
X35113487Y-57275000D02*
X43042149Y-57275000D01*
X53130518Y-76631709D02*
X48958809Y-72460000D01*
X33700294Y-58688193D02*
X35113487Y-57275000D01*
X53130518Y-81391157D02*
X53130518Y-76631709D01*
X76549168Y-91781024D02*
X75185000Y-90416856D01*
X43042149Y-57275000D02*
X49597848Y-50719301D01*
X46173604Y-72460000D02*
X33700294Y-59986690D01*
X48958809Y-72460000D02*
X46173604Y-72460000D01*
X75185000Y-90416856D02*
X75185000Y-87220334D01*
%TO.N,3.3V-Teensy*%
X66220348Y-43482570D02*
X62259239Y-39521461D01*
X66220348Y-52799652D02*
X66220348Y-43482570D01*
X66340008Y-39521461D02*
X77537848Y-50719301D01*
X61130000Y-57890000D02*
X66220348Y-52799652D01*
X62259239Y-39521461D02*
X66340008Y-39521461D01*
%TO.N,3.3V-Teensy1*%
X61140348Y-50155152D02*
X61140348Y-55719652D01*
X63690000Y-47605500D02*
X61140348Y-50155152D01*
X61140348Y-55719652D02*
X59002214Y-57857786D01*
%TO.N,EN2*%
X78920348Y-58618282D02*
X72152066Y-51850000D01*
X83252577Y-76541024D02*
X78920348Y-72208795D01*
X71048547Y-51850000D02*
X69917848Y-50719301D01*
X78920348Y-72208795D02*
X78920348Y-58618282D01*
X72152066Y-51850000D02*
X71048547Y-51850000D01*
%TO.N,MOSI*%
X85640000Y-84313601D02*
X85640000Y-70618406D01*
X81235348Y-66213754D02*
X81235348Y-59496801D01*
X83252577Y-86701024D02*
X85640000Y-84313601D01*
X85640000Y-70618406D02*
X81235348Y-66213754D01*
X81235348Y-59496801D02*
X72457848Y-50719301D01*
%TO.N,MISO*%
X89070000Y-58470000D02*
X82704504Y-52104504D01*
X82704504Y-52104504D02*
X79714742Y-52104504D01*
%TO.N,SCK*%
X76388380Y-73987440D02*
X76388380Y-67349833D01*
X83252577Y-81621024D02*
X83252577Y-80851637D01*
X74997848Y-65959301D02*
X76388380Y-67349833D01*
X83252577Y-80851637D02*
X76388380Y-73987440D01*
%TO.N,SDA1*%
X53392473Y-70175940D02*
X58603707Y-70175940D01*
X53354411Y-70214002D02*
X53392473Y-70175940D01*
X48425998Y-70214002D02*
X53354411Y-70214002D01*
%TO.N,SCL1*%
X53345500Y-74080000D02*
X51820000Y-74080000D01*
X55420000Y-72005500D02*
X53345500Y-74080000D01*
%TO.N,SCL2*%
X62259239Y-31901461D02*
X80077848Y-49720070D01*
X80077848Y-49720070D02*
X80077848Y-50719301D01*
%TO.N,SDA2*%
X58590000Y-33030700D02*
X62259239Y-29361461D01*
X58590000Y-33990000D02*
X58590000Y-33030700D01*
X66310000Y-41160000D02*
X72380000Y-47230000D01*
X72380000Y-47230000D02*
X73020000Y-47230000D01*
%TO.N,EN1*%
X88558439Y-32441795D02*
X88558439Y-41419892D01*
X88558439Y-41419892D02*
X97857848Y-50719301D01*
%TO.N,RST2*%
X78920348Y-50464848D02*
X78920348Y-56120348D01*
X80077848Y-60962152D02*
X80077848Y-65959301D01*
X80150000Y-60890000D02*
X80077848Y-60962152D01*
X68110000Y-39790000D02*
X68245500Y-39790000D01*
X78920348Y-56120348D02*
X80000000Y-57200000D01*
X68245500Y-39790000D02*
X78920348Y-50464848D01*
%TO.N,SCL3*%
X34779294Y-60429294D02*
X34779294Y-59135130D01*
X46360000Y-72010000D02*
X34779294Y-60429294D01*
X54100000Y-72010000D02*
X46360000Y-72010000D01*
%TD*%
M02*
