%TF.GenerationSoftware,KiCad,Pcbnew,7.0.9*%
%TF.CreationDate,2024-02-14T22:00:58-05:00*%
%TF.ProjectId,payload24,7061796c-6f61-4643-9234-2e6b69636164,2*%
%TF.SameCoordinates,Original*%
%TF.FileFunction,Drillmap*%
%TF.FilePolarity,Positive*%
%FSLAX45Y45*%
G04 Gerber Fmt 4.5, Leading zero omitted, Abs format (unit mm)*
G04 Created by KiCad (PCBNEW 7.0.9) date 2024-02-14 22:00:58*
%MOMM*%
%LPD*%
G01*
G04 APERTURE LIST*
%ADD10C,0.100000*%
%ADD11C,0.200000*%
%ADD12C,0.102000*%
%ADD13C,0.106680*%
%ADD14C,0.111000*%
%ADD15C,0.117000*%
%ADD16C,0.175000*%
%ADD17C,0.250000*%
%ADD18C,0.455000*%
G04 APERTURE END LIST*
D10*
X7738120Y-1705877D02*
G75*
G03*
X4776263Y-1922329I-1173664J-4312728D01*
G01*
X10641813Y-4220491D02*
X10660884Y-4242145D01*
X3015108Y-3725986D02*
G75*
G03*
X3042287Y-3751059I143082J127826D01*
G01*
X8357350Y-10103344D02*
G75*
G03*
X8335500Y-10123294I154410J-191056D01*
G01*
X9557962Y-9161585D02*
G75*
G03*
X8436000Y-9854000I-487514J-465251D01*
G01*
X7844069Y-2038153D02*
G75*
G03*
X8022681Y-2649406I516471J-180807D01*
G01*
X5402100Y-10335316D02*
G75*
G03*
X8335500Y-10123294I1162356J4316720D01*
G01*
X2921074Y-3428325D02*
G75*
G03*
X3015108Y-3725985I190016J-103655D01*
G01*
X7856344Y-1982577D02*
G75*
G03*
X7848580Y-2014821I106886J-42793D01*
G01*
X7856340Y-1982576D02*
G75*
G03*
X7738120Y-1705877I-201680J77436D01*
G01*
X2468028Y-7795065D02*
X2469127Y-4981415D01*
X3573222Y-2877351D02*
G75*
G03*
X3363960Y-2897604I-86602J-196409D01*
G01*
X2468028Y-7795065D02*
X2476132Y-7803730D01*
X9557962Y-9161584D02*
G75*
G03*
X9762832Y-9141884I84328J198154D01*
G01*
X9762832Y-9141885D02*
G75*
G03*
X10201960Y-8617267I-3198462J3123345D01*
G01*
X5267038Y-10072255D02*
G75*
G03*
X5402100Y-10335316I207232J-59805D01*
G01*
X10201964Y-8617269D02*
G75*
G03*
X10123592Y-8317428I-184154J112029D01*
G01*
X9727638Y-4021414D02*
G75*
G03*
X10400556Y-4149030I445052J508804D01*
G01*
X10641816Y-4220489D02*
G75*
G03*
X10400556Y-4149030I-169446J-129081D01*
G01*
X10660884Y-4242145D02*
X10659786Y-7055795D01*
X3376000Y-7997000D02*
X5080000Y-9370000D01*
X4755720Y-1945952D02*
G75*
G03*
X4767222Y-1931050I-30810J35672D01*
G01*
X8023000Y-2649000D02*
X9728000Y-4021000D01*
X10439395Y-7273669D02*
G75*
G03*
X10659785Y-7055795I4395J215959D01*
G01*
X5275071Y-10021459D02*
G75*
G03*
X5080004Y-9369994I-506691J203219D01*
G01*
X2730424Y-4768294D02*
G75*
G03*
X2469127Y-4981415I-45303J-211198D01*
G01*
X3573223Y-2877349D02*
G75*
G03*
X4692492Y-2183361I485242J466974D01*
G01*
D11*
X4593270Y-4244340D02*
G75*
G03*
X4593270Y-4244340I-125410J0D01*
G01*
D10*
X10123593Y-8317428D02*
G75*
G03*
X10089408Y-8287231I-158313J-144772D01*
G01*
X10439392Y-7273851D02*
G75*
G03*
X10089674Y-8286772I-75294J-540836D01*
G01*
X3363960Y-2897605D02*
G75*
G03*
X2921070Y-3428323I3200700J-3121175D01*
G01*
X4776264Y-1922330D02*
G75*
G03*
X4767222Y-1931050I33317J-43590D01*
G01*
D11*
X8564410Y-4891000D02*
G75*
G03*
X8564410Y-4891000I-125410J0D01*
G01*
D10*
X2730381Y-4768492D02*
G75*
G03*
X3042287Y-3751060I34433J545969D01*
G01*
X2476134Y-7803729D02*
G75*
G03*
X2728871Y-7889617I180416J116099D01*
G01*
X8357348Y-10103341D02*
G75*
G03*
X8436744Y-9853734I-123868J176831D01*
G01*
X4755720Y-1945951D02*
G75*
G03*
X4692064Y-2183514I139707J-164745D01*
G01*
X3376148Y-7996814D02*
G75*
G03*
X2728871Y-7889617I-419922J-527783D01*
G01*
X5267037Y-10072254D02*
G75*
G03*
X5275072Y-10021460I-110137J43454D01*
G01*
X7844069Y-2038153D02*
G75*
G03*
X7848580Y-2014821I-101080J31643D01*
G01*
D11*
D10*
X3927610Y-3938890D02*
X3967610Y-3978890D01*
X3967610Y-3938890D02*
X3927610Y-3978890D01*
X4005060Y-4473000D02*
X4045060Y-4513000D01*
X4045060Y-4473000D02*
X4005060Y-4513000D01*
X4013000Y-3748000D02*
X4053000Y-3788000D01*
X4053000Y-3748000D02*
X4013000Y-3788000D01*
X5330010Y-5113040D02*
X5370010Y-5153040D01*
X5370010Y-5113040D02*
X5330010Y-5153040D01*
X5334000Y-7444000D02*
X5374000Y-7484000D01*
X5374000Y-7444000D02*
X5334000Y-7484000D01*
X5971000Y-7230000D02*
X6011000Y-7270000D01*
X6011000Y-7230000D02*
X5971000Y-7270000D01*
X6590000Y-5954000D02*
X6630000Y-5994000D01*
X6630000Y-5954000D02*
X6590000Y-5994000D01*
X7908000Y-5614000D02*
X7948000Y-5654000D01*
X7948000Y-5614000D02*
X7908000Y-5654000D01*
X8159000Y-5614000D02*
X8199000Y-5654000D01*
X8199000Y-5614000D02*
X8159000Y-5654000D01*
X8384265Y-5537735D02*
X8424266Y-5577735D01*
X8424266Y-5537735D02*
X8384265Y-5577735D01*
X8619240Y-8049220D02*
X8659240Y-8089220D01*
X8659240Y-8049220D02*
X8619240Y-8089220D01*
X8621740Y-7319000D02*
X8661740Y-7359000D01*
X8661740Y-7319000D02*
X8621740Y-7359000D01*
X8633000Y-7685000D02*
X8673000Y-7725000D01*
X8673000Y-7685000D02*
X8633000Y-7725000D01*
X8854000Y-6522000D02*
X8894000Y-6562000D01*
X8894000Y-6522000D02*
X8854000Y-6562000D01*
X9143000Y-6961000D02*
X9183000Y-7001000D01*
X9183000Y-6961000D02*
X9143000Y-7001000D01*
X2730000Y-5544500D02*
G75*
G03*
X2730000Y-5544500I-50000J0D01*
G01*
X2730000Y-5798500D02*
G75*
G03*
X2730000Y-5798500I-50000J0D01*
G01*
X2730000Y-6052500D02*
G75*
G03*
X2730000Y-6052500I-50000J0D01*
G01*
X2730000Y-6306500D02*
G75*
G03*
X2730000Y-6306500I-50000J0D01*
G01*
X2730000Y-6560500D02*
G75*
G03*
X2730000Y-6560500I-50000J0D01*
G01*
X2730000Y-6814500D02*
G75*
G03*
X2730000Y-6814500I-50000J0D01*
G01*
X4508000Y-5798500D02*
G75*
G03*
X4508000Y-5798500I-50000J0D01*
G01*
X4508000Y-6052500D02*
G75*
G03*
X4508000Y-6052500I-50000J0D01*
G01*
X4508000Y-6306500D02*
G75*
G03*
X4508000Y-6306500I-50000J0D01*
G01*
X4508000Y-6560500D02*
G75*
G03*
X4508000Y-6560500I-50000J0D01*
G01*
X4980500Y-2961500D02*
G75*
G03*
X4980500Y-2961500I-50000J0D01*
G01*
X4980500Y-3215500D02*
G75*
G03*
X4980500Y-3215500I-50000J0D01*
G01*
X4980500Y-3469500D02*
G75*
G03*
X4980500Y-3469500I-50000J0D01*
G01*
X4980500Y-3723500D02*
G75*
G03*
X4980500Y-3723500I-50000J0D01*
G01*
X4980500Y-3977500D02*
G75*
G03*
X4980500Y-3977500I-50000J0D01*
G01*
X4980500Y-4231500D02*
G75*
G03*
X4980500Y-4231500I-50000J0D01*
G01*
X4980500Y-4485500D02*
G75*
G03*
X4980500Y-4485500I-50000J0D01*
G01*
X4980500Y-4739500D02*
G75*
G03*
X4980500Y-4739500I-50000J0D01*
G01*
X4980500Y-4993500D02*
G75*
G03*
X4980500Y-4993500I-50000J0D01*
G01*
X5441000Y-4594000D02*
G75*
G03*
X5441000Y-4594000I-50000J0D01*
G01*
X5540000Y-6408580D02*
G75*
G03*
X5540000Y-6408580I-50000J0D01*
G01*
X5695000Y-4594000D02*
G75*
G03*
X5695000Y-4594000I-50000J0D01*
G01*
X5790000Y-6408580D02*
G75*
G03*
X5790000Y-6408580I-50000J0D01*
G01*
X5949000Y-4594000D02*
G75*
G03*
X5949000Y-4594000I-50000J0D01*
G01*
X6040000Y-6408580D02*
G75*
G03*
X6040000Y-6408580I-50000J0D01*
G01*
X6045000Y-5778580D02*
G75*
G03*
X6045000Y-5778580I-50000J0D01*
G01*
X6203000Y-4594000D02*
G75*
G03*
X6203000Y-4594000I-50000J0D01*
G01*
X6290000Y-6408580D02*
G75*
G03*
X6290000Y-6408580I-50000J0D01*
G01*
X6295000Y-5778580D02*
G75*
G03*
X6295000Y-5778580I-50000J0D01*
G01*
X6457000Y-2054000D02*
G75*
G03*
X6457000Y-2054000I-50000J0D01*
G01*
X6457000Y-4594000D02*
G75*
G03*
X6457000Y-4594000I-50000J0D01*
G01*
X6711000Y-2054000D02*
G75*
G03*
X6711000Y-2054000I-50000J0D01*
G01*
X6711000Y-4594000D02*
G75*
G03*
X6711000Y-4594000I-50000J0D01*
G01*
X6965000Y-2054000D02*
G75*
G03*
X6965000Y-2054000I-50000J0D01*
G01*
X6965000Y-4594000D02*
G75*
G03*
X6965000Y-4594000I-50000J0D01*
G01*
X7210000Y-5778580D02*
G75*
G03*
X7210000Y-5778580I-50000J0D01*
G01*
X7210000Y-6408580D02*
G75*
G03*
X7210000Y-6408580I-50000J0D01*
G01*
X7219000Y-2054000D02*
G75*
G03*
X7219000Y-2054000I-50000J0D01*
G01*
X7219000Y-4594000D02*
G75*
G03*
X7219000Y-4594000I-50000J0D01*
G01*
X7460000Y-5778580D02*
G75*
G03*
X7460000Y-5778580I-50000J0D01*
G01*
X7460000Y-6408580D02*
G75*
G03*
X7460000Y-6408580I-50000J0D01*
G01*
X7473000Y-2054000D02*
G75*
G03*
X7473000Y-2054000I-50000J0D01*
G01*
X7473000Y-4594000D02*
G75*
G03*
X7473000Y-4594000I-50000J0D01*
G01*
X7696000Y-8550000D02*
G75*
G03*
X7696000Y-8550000I-50000J0D01*
G01*
X7710000Y-5778580D02*
G75*
G03*
X7710000Y-5778580I-50000J0D01*
G01*
X7710000Y-6408580D02*
G75*
G03*
X7710000Y-6408580I-50000J0D01*
G01*
X7950000Y-8550000D02*
G75*
G03*
X7950000Y-8550000I-50000J0D01*
G01*
X7960000Y-6408580D02*
G75*
G03*
X7960000Y-6408580I-50000J0D01*
G01*
X8204000Y-8550000D02*
G75*
G03*
X8204000Y-8550000I-50000J0D01*
G01*
X8458000Y-8550000D02*
G75*
G03*
X8458000Y-8550000I-50000J0D01*
G01*
X8712000Y-8550000D02*
G75*
G03*
X8712000Y-8550000I-50000J0D01*
G01*
X8966000Y-8550000D02*
G75*
G03*
X8966000Y-8550000I-50000J0D01*
G01*
X9220000Y-8550000D02*
G75*
G03*
X9220000Y-8550000I-50000J0D01*
G01*
X9474000Y-8550000D02*
G75*
G03*
X9474000Y-8550000I-50000J0D01*
G01*
D12*
X4792000Y-7284000D02*
X4792000Y-7386000D01*
X4741000Y-7335000D02*
X4843000Y-7335000D01*
X4792000Y-7538000D02*
X4792000Y-7640000D01*
X4741000Y-7589000D02*
X4843000Y-7589000D01*
X4792000Y-7792000D02*
X4792000Y-7894000D01*
X4741000Y-7843000D02*
X4843000Y-7843000D01*
X4792000Y-8046000D02*
X4792000Y-8148000D01*
X4741000Y-8097000D02*
X4843000Y-8097000D01*
X4792000Y-8300000D02*
X4792000Y-8402000D01*
X4741000Y-8351000D02*
X4843000Y-8351000D01*
X4792000Y-8554000D02*
X4792000Y-8656000D01*
X4741000Y-8605000D02*
X4843000Y-8605000D01*
X5046000Y-7284000D02*
X5046000Y-7386000D01*
X4995000Y-7335000D02*
X5097000Y-7335000D01*
X5046000Y-7538000D02*
X5046000Y-7640000D01*
X4995000Y-7589000D02*
X5097000Y-7589000D01*
X5046000Y-7792000D02*
X5046000Y-7894000D01*
X4995000Y-7843000D02*
X5097000Y-7843000D01*
X5046000Y-8046000D02*
X5046000Y-8148000D01*
X4995000Y-8097000D02*
X5097000Y-8097000D01*
X5046000Y-8300000D02*
X5046000Y-8402000D01*
X4995000Y-8351000D02*
X5097000Y-8351000D01*
X5046000Y-8554000D02*
X5046000Y-8656000D01*
X4995000Y-8605000D02*
X5097000Y-8605000D01*
D13*
X9654717Y-6079717D02*
X9654717Y-6004283D01*
X9579283Y-6004283D01*
X9579283Y-6079717D01*
X9654717Y-6079717D01*
X10154717Y-6079717D02*
X10154717Y-6004283D01*
X10079283Y-6004283D01*
X10079283Y-6079717D01*
X10154717Y-6079717D01*
D14*
X4461000Y-5335500D02*
X4516500Y-5280000D01*
X4461000Y-5224500D01*
X4405500Y-5280000D01*
X4461000Y-5335500D01*
X4461000Y-6859500D02*
X4516500Y-6804000D01*
X4461000Y-6748500D01*
X4405500Y-6804000D01*
X4461000Y-6859500D01*
X4715000Y-5335500D02*
X4770500Y-5280000D01*
X4715000Y-5224500D01*
X4659500Y-5280000D01*
X4715000Y-5335500D01*
X4715000Y-6859500D02*
X4770500Y-6804000D01*
X4715000Y-6748500D01*
X4659500Y-6804000D01*
X4715000Y-6859500D01*
X4969000Y-5335500D02*
X5024500Y-5280000D01*
X4969000Y-5224500D01*
X4913500Y-5280000D01*
X4969000Y-5335500D01*
X4969000Y-6859500D02*
X5024500Y-6804000D01*
X4969000Y-6748500D01*
X4913500Y-6804000D01*
X4969000Y-6859500D01*
X5223000Y-5335500D02*
X5278500Y-5280000D01*
X5223000Y-5224500D01*
X5167500Y-5280000D01*
X5223000Y-5335500D01*
X5223000Y-6859500D02*
X5278500Y-6804000D01*
X5223000Y-6748500D01*
X5167500Y-6804000D01*
X5223000Y-6859500D01*
X5477000Y-5335500D02*
X5532500Y-5280000D01*
X5477000Y-5224500D01*
X5421500Y-5280000D01*
X5477000Y-5335500D01*
X5477000Y-6859500D02*
X5532500Y-6804000D01*
X5477000Y-6748500D01*
X5421500Y-6804000D01*
X5477000Y-6859500D01*
X5731000Y-5335500D02*
X5786500Y-5280000D01*
X5731000Y-5224500D01*
X5675500Y-5280000D01*
X5731000Y-5335500D01*
X5731000Y-6859500D02*
X5786500Y-6804000D01*
X5731000Y-6748500D01*
X5675500Y-6804000D01*
X5731000Y-6859500D01*
X5985000Y-5335500D02*
X6040500Y-5280000D01*
X5985000Y-5224500D01*
X5929500Y-5280000D01*
X5985000Y-5335500D01*
X5985000Y-6859500D02*
X6040500Y-6804000D01*
X5985000Y-6748500D01*
X5929500Y-6804000D01*
X5985000Y-6859500D01*
X6239000Y-5335500D02*
X6294500Y-5280000D01*
X6239000Y-5224500D01*
X6183500Y-5280000D01*
X6239000Y-5335500D01*
X6239000Y-6859500D02*
X6294500Y-6804000D01*
X6239000Y-6748500D01*
X6183500Y-6804000D01*
X6239000Y-6859500D01*
X6493000Y-5335500D02*
X6548500Y-5280000D01*
X6493000Y-5224500D01*
X6437500Y-5280000D01*
X6493000Y-5335500D01*
X6493000Y-6859500D02*
X6548500Y-6804000D01*
X6493000Y-6748500D01*
X6437500Y-6804000D01*
X6493000Y-6859500D01*
X6747000Y-5335500D02*
X6802500Y-5280000D01*
X6747000Y-5224500D01*
X6691500Y-5280000D01*
X6747000Y-5335500D01*
X6747000Y-6859500D02*
X6802500Y-6804000D01*
X6747000Y-6748500D01*
X6691500Y-6804000D01*
X6747000Y-6859500D01*
X7001000Y-5335500D02*
X7056500Y-5280000D01*
X7001000Y-5224500D01*
X6945500Y-5280000D01*
X7001000Y-5335500D01*
X7001000Y-6859500D02*
X7056500Y-6804000D01*
X7001000Y-6748500D01*
X6945500Y-6804000D01*
X7001000Y-6859500D01*
X7255000Y-5335500D02*
X7310500Y-5280000D01*
X7255000Y-5224500D01*
X7199500Y-5280000D01*
X7255000Y-5335500D01*
X7255000Y-6859500D02*
X7310500Y-6804000D01*
X7255000Y-6748500D01*
X7199500Y-6804000D01*
X7255000Y-6859500D01*
X7509000Y-5335500D02*
X7564500Y-5280000D01*
X7509000Y-5224500D01*
X7453500Y-5280000D01*
X7509000Y-5335500D01*
X7509000Y-6859500D02*
X7564500Y-6804000D01*
X7509000Y-6748500D01*
X7453500Y-6804000D01*
X7509000Y-6859500D01*
X7763000Y-5335500D02*
X7818500Y-5280000D01*
X7763000Y-5224500D01*
X7707500Y-5280000D01*
X7763000Y-5335500D01*
X7763000Y-6859500D02*
X7818500Y-6804000D01*
X7763000Y-6748500D01*
X7707500Y-6804000D01*
X7763000Y-6859500D01*
X8017000Y-5335500D02*
X8072500Y-5280000D01*
X8017000Y-5224500D01*
X7961500Y-5280000D01*
X8017000Y-5335500D01*
X8017000Y-6859500D02*
X8072500Y-6804000D01*
X8017000Y-6748500D01*
X7961500Y-6804000D01*
X8017000Y-6859500D01*
X8271000Y-5335500D02*
X8326500Y-5280000D01*
X8271000Y-5224500D01*
X8215500Y-5280000D01*
X8271000Y-5335500D01*
X8271000Y-6859500D02*
X8326500Y-6804000D01*
X8271000Y-6748500D01*
X8215500Y-6804000D01*
X8271000Y-6859500D01*
X8525000Y-5335500D02*
X8580500Y-5280000D01*
X8525000Y-5224500D01*
X8469500Y-5280000D01*
X8525000Y-5335500D01*
X8525000Y-6859500D02*
X8580500Y-6804000D01*
X8525000Y-6748500D01*
X8469500Y-6804000D01*
X8525000Y-6859500D01*
X8779000Y-5335500D02*
X8834500Y-5280000D01*
X8779000Y-5224500D01*
X8723500Y-5280000D01*
X8779000Y-5335500D01*
X8779000Y-6859500D02*
X8834500Y-6804000D01*
X8779000Y-6748500D01*
X8723500Y-6804000D01*
X8779000Y-6859500D01*
X9033000Y-5335500D02*
X9088500Y-5280000D01*
X9033000Y-5224500D01*
X8977500Y-5280000D01*
X9033000Y-5335500D01*
X9033000Y-6859500D02*
X9088500Y-6804000D01*
X9033000Y-6748500D01*
X8977500Y-6804000D01*
X9033000Y-6859500D01*
X9287000Y-5335500D02*
X9342500Y-5280000D01*
X9287000Y-5224500D01*
X9231500Y-5280000D01*
X9287000Y-5335500D01*
X9287000Y-6859500D02*
X9342500Y-6804000D01*
X9287000Y-6748500D01*
X9231500Y-6804000D01*
X9287000Y-6859500D01*
X9541000Y-5335500D02*
X9596500Y-5280000D01*
X9541000Y-5224500D01*
X9485500Y-5280000D01*
X9541000Y-5335500D01*
X9541000Y-6859500D02*
X9596500Y-6804000D01*
X9541000Y-6748500D01*
X9485500Y-6804000D01*
X9541000Y-6859500D01*
X9795000Y-5335500D02*
X9850500Y-5280000D01*
X9795000Y-5224500D01*
X9739500Y-5280000D01*
X9795000Y-5335500D01*
X9795000Y-6859500D02*
X9850500Y-6804000D01*
X9795000Y-6748500D01*
X9739500Y-6804000D01*
X9795000Y-6859500D01*
X10049000Y-5335500D02*
X10104500Y-5280000D01*
X10049000Y-5224500D01*
X9993500Y-5280000D01*
X10049000Y-5335500D01*
X10049000Y-6859500D02*
X10104500Y-6804000D01*
X10049000Y-6748500D01*
X9993500Y-6804000D01*
X10049000Y-6859500D01*
X10303000Y-5335500D02*
X10358500Y-5280000D01*
X10303000Y-5224500D01*
X10247500Y-5280000D01*
X10303000Y-5335500D01*
X10303000Y-6859500D02*
X10358500Y-6804000D01*
X10303000Y-6748500D01*
X10247500Y-6804000D01*
X10303000Y-6859500D01*
D15*
X5649500Y-7404500D02*
X5766500Y-7521500D01*
X5766500Y-7404500D02*
X5649500Y-7521500D01*
X5766500Y-7463000D02*
G75*
G03*
X5766500Y-7463000I-58500J0D01*
G01*
X5670500Y-7936500D02*
X5787500Y-8053500D01*
X5787500Y-7936500D02*
X5670500Y-8053500D01*
X5787500Y-7995000D02*
G75*
G03*
X5787500Y-7995000I-58500J0D01*
G01*
X5670500Y-8190500D02*
X5787500Y-8307500D01*
X5787500Y-8190500D02*
X5670500Y-8307500D01*
X5787500Y-8249000D02*
G75*
G03*
X5787500Y-8249000I-58500J0D01*
G01*
X5670500Y-8444500D02*
X5787500Y-8561500D01*
X5787500Y-8444500D02*
X5670500Y-8561500D01*
X5787500Y-8503000D02*
G75*
G03*
X5787500Y-8503000I-58500J0D01*
G01*
X5903500Y-7404500D02*
X6020500Y-7521500D01*
X6020500Y-7404500D02*
X5903500Y-7521500D01*
X6020500Y-7463000D02*
G75*
G03*
X6020500Y-7463000I-58500J0D01*
G01*
X6157500Y-7404500D02*
X6274500Y-7521500D01*
X6274500Y-7404500D02*
X6157500Y-7521500D01*
X6274500Y-7463000D02*
G75*
G03*
X6274500Y-7463000I-58500J0D01*
G01*
X6207500Y-8419500D02*
X6324500Y-8536500D01*
X6324500Y-8419500D02*
X6207500Y-8536500D01*
X6324500Y-8478000D02*
G75*
G03*
X6324500Y-8478000I-58500J0D01*
G01*
X6461500Y-8419500D02*
X6578500Y-8536500D01*
X6578500Y-8419500D02*
X6461500Y-8536500D01*
X6578500Y-8478000D02*
G75*
G03*
X6578500Y-8478000I-58500J0D01*
G01*
X6686500Y-7377500D02*
X6803500Y-7494500D01*
X6803500Y-7377500D02*
X6686500Y-7494500D01*
X6803500Y-7436000D02*
G75*
G03*
X6803500Y-7436000I-58500J0D01*
G01*
X6686500Y-7631500D02*
X6803500Y-7748500D01*
X6803500Y-7631500D02*
X6686500Y-7748500D01*
X6803500Y-7690000D02*
G75*
G03*
X6803500Y-7690000I-58500J0D01*
G01*
X6686500Y-7885500D02*
X6803500Y-8002500D01*
X6803500Y-7885500D02*
X6686500Y-8002500D01*
X6803500Y-7944000D02*
G75*
G03*
X6803500Y-7944000I-58500J0D01*
G01*
X6715500Y-8419500D02*
X6832500Y-8536500D01*
X6832500Y-8419500D02*
X6715500Y-8536500D01*
X6832500Y-8478000D02*
G75*
G03*
X6832500Y-8478000I-58500J0D01*
G01*
D16*
X7582366Y-9195073D02*
X7757366Y-9370073D01*
X7757366Y-9195073D02*
X7582366Y-9370073D01*
X7669866Y-9195073D02*
X7669866Y-9370073D01*
X7582366Y-9282573D02*
X7757366Y-9282573D01*
D10*
X7757401Y-9157598D02*
X7522478Y-9243103D01*
X7522478Y-9243103D02*
G75*
G03*
X7582331Y-9407549I29927J-82223D01*
G01*
X7582331Y-9407549D02*
X7817255Y-9322044D01*
X7817255Y-9322044D02*
G75*
G03*
X7757401Y-9157598I-29927J82223D01*
G01*
D16*
X7787360Y-9758289D02*
X7962360Y-9933289D01*
X7962360Y-9758289D02*
X7787360Y-9933289D01*
X7874860Y-9758289D02*
X7874860Y-9933289D01*
X7787360Y-9845789D02*
X7962360Y-9845789D01*
D10*
X7962395Y-9720813D02*
X7727472Y-9806318D01*
X7727471Y-9806318D02*
G75*
G03*
X7787325Y-9970764I29927J-82223D01*
G01*
X7787325Y-9970764D02*
X8022248Y-9885259D01*
X8022248Y-9885259D02*
G75*
G03*
X7962395Y-9720813I-29927J82223D01*
G01*
D17*
X2682000Y-4975000D02*
X2932000Y-5225000D01*
X2932000Y-4975000D02*
X2682000Y-5225000D01*
X2895389Y-5188389D02*
X2895389Y-5011611D01*
X2718611Y-5011611D01*
X2718611Y-5188389D01*
X2895389Y-5188389D01*
X4206000Y-7134000D02*
X4456000Y-7384000D01*
X4456000Y-7134000D02*
X4206000Y-7384000D01*
X4419389Y-7347389D02*
X4419389Y-7170611D01*
X4242611Y-7170611D01*
X4242611Y-7347389D01*
X4419389Y-7347389D01*
X7394000Y-7155000D02*
X7644000Y-7405000D01*
X7644000Y-7155000D02*
X7394000Y-7405000D01*
X7607389Y-7368389D02*
X7607389Y-7191611D01*
X7430611Y-7191611D01*
X7430611Y-7368389D01*
X7607389Y-7368389D01*
X9426000Y-7155000D02*
X9676000Y-7405000D01*
X9676000Y-7155000D02*
X9426000Y-7405000D01*
X9639389Y-7368389D02*
X9639389Y-7191611D01*
X9462611Y-7191611D01*
X9462611Y-7368389D01*
X9639389Y-7368389D01*
D18*
X5852500Y-9685000D02*
X6307500Y-10140000D01*
X6307500Y-9685000D02*
X5852500Y-10140000D01*
X6080000Y-10140000D02*
X6307500Y-9912500D01*
X6080000Y-9685000D01*
X5852500Y-9912500D01*
X6080000Y-10140000D01*
X6572500Y-9685000D02*
X7027500Y-10140000D01*
X7027500Y-9685000D02*
X6572500Y-10140000D01*
X6800000Y-10140000D02*
X7027500Y-9912500D01*
X6800000Y-9685000D01*
X6572500Y-9912500D01*
X6800000Y-10140000D01*
D11*
X2723805Y-10805554D02*
X2723805Y-10605554D01*
X2723805Y-10605554D02*
X2771424Y-10605554D01*
X2771424Y-10605554D02*
X2799996Y-10615078D01*
X2799996Y-10615078D02*
X2819043Y-10634126D01*
X2819043Y-10634126D02*
X2828567Y-10653173D01*
X2828567Y-10653173D02*
X2838091Y-10691269D01*
X2838091Y-10691269D02*
X2838091Y-10719840D01*
X2838091Y-10719840D02*
X2828567Y-10757935D01*
X2828567Y-10757935D02*
X2819043Y-10776983D01*
X2819043Y-10776983D02*
X2799996Y-10796031D01*
X2799996Y-10796031D02*
X2771424Y-10805554D01*
X2771424Y-10805554D02*
X2723805Y-10805554D01*
X2923805Y-10805554D02*
X2923805Y-10672221D01*
X2923805Y-10710316D02*
X2933329Y-10691269D01*
X2933329Y-10691269D02*
X2942853Y-10681745D01*
X2942853Y-10681745D02*
X2961900Y-10672221D01*
X2961900Y-10672221D02*
X2980948Y-10672221D01*
X3047615Y-10805554D02*
X3047615Y-10672221D01*
X3047615Y-10605554D02*
X3038091Y-10615078D01*
X3038091Y-10615078D02*
X3047615Y-10624602D01*
X3047615Y-10624602D02*
X3057138Y-10615078D01*
X3057138Y-10615078D02*
X3047615Y-10605554D01*
X3047615Y-10605554D02*
X3047615Y-10624602D01*
X3171424Y-10805554D02*
X3152377Y-10796031D01*
X3152377Y-10796031D02*
X3142853Y-10776983D01*
X3142853Y-10776983D02*
X3142853Y-10605554D01*
X3276186Y-10805554D02*
X3257138Y-10796031D01*
X3257138Y-10796031D02*
X3247615Y-10776983D01*
X3247615Y-10776983D02*
X3247615Y-10605554D01*
X3504758Y-10805554D02*
X3504758Y-10605554D01*
X3504758Y-10605554D02*
X3571424Y-10748412D01*
X3571424Y-10748412D02*
X3638091Y-10605554D01*
X3638091Y-10605554D02*
X3638091Y-10805554D01*
X3819043Y-10805554D02*
X3819043Y-10700793D01*
X3819043Y-10700793D02*
X3809519Y-10681745D01*
X3809519Y-10681745D02*
X3790472Y-10672221D01*
X3790472Y-10672221D02*
X3752377Y-10672221D01*
X3752377Y-10672221D02*
X3733329Y-10681745D01*
X3819043Y-10796031D02*
X3799996Y-10805554D01*
X3799996Y-10805554D02*
X3752377Y-10805554D01*
X3752377Y-10805554D02*
X3733329Y-10796031D01*
X3733329Y-10796031D02*
X3723805Y-10776983D01*
X3723805Y-10776983D02*
X3723805Y-10757935D01*
X3723805Y-10757935D02*
X3733329Y-10738888D01*
X3733329Y-10738888D02*
X3752377Y-10729364D01*
X3752377Y-10729364D02*
X3799996Y-10729364D01*
X3799996Y-10729364D02*
X3819043Y-10719840D01*
X3914281Y-10672221D02*
X3914281Y-10872221D01*
X3914281Y-10681745D02*
X3933329Y-10672221D01*
X3933329Y-10672221D02*
X3971424Y-10672221D01*
X3971424Y-10672221D02*
X3990472Y-10681745D01*
X3990472Y-10681745D02*
X3999996Y-10691269D01*
X3999996Y-10691269D02*
X4009519Y-10710316D01*
X4009519Y-10710316D02*
X4009519Y-10767459D01*
X4009519Y-10767459D02*
X3999996Y-10786507D01*
X3999996Y-10786507D02*
X3990472Y-10796031D01*
X3990472Y-10796031D02*
X3971424Y-10805554D01*
X3971424Y-10805554D02*
X3933329Y-10805554D01*
X3933329Y-10805554D02*
X3914281Y-10796031D01*
X4095234Y-10786507D02*
X4104758Y-10796031D01*
X4104758Y-10796031D02*
X4095234Y-10805554D01*
X4095234Y-10805554D02*
X4085710Y-10796031D01*
X4085710Y-10796031D02*
X4095234Y-10786507D01*
X4095234Y-10786507D02*
X4095234Y-10805554D01*
X4095234Y-10681745D02*
X4104758Y-10691269D01*
X4104758Y-10691269D02*
X4095234Y-10700793D01*
X4095234Y-10700793D02*
X4085710Y-10691269D01*
X4085710Y-10691269D02*
X4095234Y-10681745D01*
X4095234Y-10681745D02*
X4095234Y-10700793D01*
D10*
X2423028Y-11114071D02*
X2463028Y-11154071D01*
X2463028Y-11114071D02*
X2423028Y-11154071D01*
D11*
X2761900Y-11025554D02*
X2780948Y-11025554D01*
X2780948Y-11025554D02*
X2799996Y-11035078D01*
X2799996Y-11035078D02*
X2809519Y-11044602D01*
X2809519Y-11044602D02*
X2819043Y-11063650D01*
X2819043Y-11063650D02*
X2828567Y-11101745D01*
X2828567Y-11101745D02*
X2828567Y-11149364D01*
X2828567Y-11149364D02*
X2819043Y-11187459D01*
X2819043Y-11187459D02*
X2809519Y-11206507D01*
X2809519Y-11206507D02*
X2799996Y-11216031D01*
X2799996Y-11216031D02*
X2780948Y-11225554D01*
X2780948Y-11225554D02*
X2761900Y-11225554D01*
X2761900Y-11225554D02*
X2742853Y-11216031D01*
X2742853Y-11216031D02*
X2733329Y-11206507D01*
X2733329Y-11206507D02*
X2723805Y-11187459D01*
X2723805Y-11187459D02*
X2714281Y-11149364D01*
X2714281Y-11149364D02*
X2714281Y-11101745D01*
X2714281Y-11101745D02*
X2723805Y-11063650D01*
X2723805Y-11063650D02*
X2733329Y-11044602D01*
X2733329Y-11044602D02*
X2742853Y-11035078D01*
X2742853Y-11035078D02*
X2761900Y-11025554D01*
X2914281Y-11206507D02*
X2923805Y-11216031D01*
X2923805Y-11216031D02*
X2914281Y-11225554D01*
X2914281Y-11225554D02*
X2904758Y-11216031D01*
X2904758Y-11216031D02*
X2914281Y-11206507D01*
X2914281Y-11206507D02*
X2914281Y-11225554D01*
X3095234Y-11092221D02*
X3095234Y-11225554D01*
X3047615Y-11016031D02*
X2999996Y-11158888D01*
X2999996Y-11158888D02*
X3123805Y-11158888D01*
X3238091Y-11025554D02*
X3257139Y-11025554D01*
X3257139Y-11025554D02*
X3276186Y-11035078D01*
X3276186Y-11035078D02*
X3285710Y-11044602D01*
X3285710Y-11044602D02*
X3295234Y-11063650D01*
X3295234Y-11063650D02*
X3304758Y-11101745D01*
X3304758Y-11101745D02*
X3304758Y-11149364D01*
X3304758Y-11149364D02*
X3295234Y-11187459D01*
X3295234Y-11187459D02*
X3285710Y-11206507D01*
X3285710Y-11206507D02*
X3276186Y-11216031D01*
X3276186Y-11216031D02*
X3257139Y-11225554D01*
X3257139Y-11225554D02*
X3238091Y-11225554D01*
X3238091Y-11225554D02*
X3219043Y-11216031D01*
X3219043Y-11216031D02*
X3209519Y-11206507D01*
X3209519Y-11206507D02*
X3199996Y-11187459D01*
X3199996Y-11187459D02*
X3190472Y-11149364D01*
X3190472Y-11149364D02*
X3190472Y-11101745D01*
X3190472Y-11101745D02*
X3199996Y-11063650D01*
X3199996Y-11063650D02*
X3209519Y-11044602D01*
X3209519Y-11044602D02*
X3219043Y-11035078D01*
X3219043Y-11035078D02*
X3238091Y-11025554D01*
X3428567Y-11025554D02*
X3447615Y-11025554D01*
X3447615Y-11025554D02*
X3466662Y-11035078D01*
X3466662Y-11035078D02*
X3476186Y-11044602D01*
X3476186Y-11044602D02*
X3485710Y-11063650D01*
X3485710Y-11063650D02*
X3495234Y-11101745D01*
X3495234Y-11101745D02*
X3495234Y-11149364D01*
X3495234Y-11149364D02*
X3485710Y-11187459D01*
X3485710Y-11187459D02*
X3476186Y-11206507D01*
X3476186Y-11206507D02*
X3466662Y-11216031D01*
X3466662Y-11216031D02*
X3447615Y-11225554D01*
X3447615Y-11225554D02*
X3428567Y-11225554D01*
X3428567Y-11225554D02*
X3409519Y-11216031D01*
X3409519Y-11216031D02*
X3399996Y-11206507D01*
X3399996Y-11206507D02*
X3390472Y-11187459D01*
X3390472Y-11187459D02*
X3380948Y-11149364D01*
X3380948Y-11149364D02*
X3380948Y-11101745D01*
X3380948Y-11101745D02*
X3390472Y-11063650D01*
X3390472Y-11063650D02*
X3399996Y-11044602D01*
X3399996Y-11044602D02*
X3409519Y-11035078D01*
X3409519Y-11035078D02*
X3428567Y-11025554D01*
X3580948Y-11225554D02*
X3580948Y-11092221D01*
X3580948Y-11111269D02*
X3590472Y-11101745D01*
X3590472Y-11101745D02*
X3609519Y-11092221D01*
X3609519Y-11092221D02*
X3638091Y-11092221D01*
X3638091Y-11092221D02*
X3657139Y-11101745D01*
X3657139Y-11101745D02*
X3666662Y-11120793D01*
X3666662Y-11120793D02*
X3666662Y-11225554D01*
X3666662Y-11120793D02*
X3676186Y-11101745D01*
X3676186Y-11101745D02*
X3695234Y-11092221D01*
X3695234Y-11092221D02*
X3723805Y-11092221D01*
X3723805Y-11092221D02*
X3742853Y-11101745D01*
X3742853Y-11101745D02*
X3752377Y-11120793D01*
X3752377Y-11120793D02*
X3752377Y-11225554D01*
X3847615Y-11225554D02*
X3847615Y-11092221D01*
X3847615Y-11111269D02*
X3857139Y-11101745D01*
X3857139Y-11101745D02*
X3876186Y-11092221D01*
X3876186Y-11092221D02*
X3904758Y-11092221D01*
X3904758Y-11092221D02*
X3923805Y-11101745D01*
X3923805Y-11101745D02*
X3933329Y-11120793D01*
X3933329Y-11120793D02*
X3933329Y-11225554D01*
X3933329Y-11120793D02*
X3942853Y-11101745D01*
X3942853Y-11101745D02*
X3961900Y-11092221D01*
X3961900Y-11092221D02*
X3990472Y-11092221D01*
X3990472Y-11092221D02*
X4009520Y-11101745D01*
X4009520Y-11101745D02*
X4019043Y-11120793D01*
X4019043Y-11120793D02*
X4019043Y-11225554D01*
X4409520Y-11016031D02*
X4238091Y-11273173D01*
X4666663Y-11025554D02*
X4685710Y-11025554D01*
X4685710Y-11025554D02*
X4704758Y-11035078D01*
X4704758Y-11035078D02*
X4714282Y-11044602D01*
X4714282Y-11044602D02*
X4723805Y-11063650D01*
X4723805Y-11063650D02*
X4733329Y-11101745D01*
X4733329Y-11101745D02*
X4733329Y-11149364D01*
X4733329Y-11149364D02*
X4723805Y-11187459D01*
X4723805Y-11187459D02*
X4714282Y-11206507D01*
X4714282Y-11206507D02*
X4704758Y-11216031D01*
X4704758Y-11216031D02*
X4685710Y-11225554D01*
X4685710Y-11225554D02*
X4666663Y-11225554D01*
X4666663Y-11225554D02*
X4647615Y-11216031D01*
X4647615Y-11216031D02*
X4638091Y-11206507D01*
X4638091Y-11206507D02*
X4628567Y-11187459D01*
X4628567Y-11187459D02*
X4619044Y-11149364D01*
X4619044Y-11149364D02*
X4619044Y-11101745D01*
X4619044Y-11101745D02*
X4628567Y-11063650D01*
X4628567Y-11063650D02*
X4638091Y-11044602D01*
X4638091Y-11044602D02*
X4647615Y-11035078D01*
X4647615Y-11035078D02*
X4666663Y-11025554D01*
X4819044Y-11206507D02*
X4828567Y-11216031D01*
X4828567Y-11216031D02*
X4819044Y-11225554D01*
X4819044Y-11225554D02*
X4809520Y-11216031D01*
X4809520Y-11216031D02*
X4819044Y-11206507D01*
X4819044Y-11206507D02*
X4819044Y-11225554D01*
X4952377Y-11025554D02*
X4971425Y-11025554D01*
X4971425Y-11025554D02*
X4990472Y-11035078D01*
X4990472Y-11035078D02*
X4999996Y-11044602D01*
X4999996Y-11044602D02*
X5009520Y-11063650D01*
X5009520Y-11063650D02*
X5019044Y-11101745D01*
X5019044Y-11101745D02*
X5019044Y-11149364D01*
X5019044Y-11149364D02*
X5009520Y-11187459D01*
X5009520Y-11187459D02*
X4999996Y-11206507D01*
X4999996Y-11206507D02*
X4990472Y-11216031D01*
X4990472Y-11216031D02*
X4971425Y-11225554D01*
X4971425Y-11225554D02*
X4952377Y-11225554D01*
X4952377Y-11225554D02*
X4933329Y-11216031D01*
X4933329Y-11216031D02*
X4923805Y-11206507D01*
X4923805Y-11206507D02*
X4914282Y-11187459D01*
X4914282Y-11187459D02*
X4904758Y-11149364D01*
X4904758Y-11149364D02*
X4904758Y-11101745D01*
X4904758Y-11101745D02*
X4914282Y-11063650D01*
X4914282Y-11063650D02*
X4923805Y-11044602D01*
X4923805Y-11044602D02*
X4933329Y-11035078D01*
X4933329Y-11035078D02*
X4952377Y-11025554D01*
X5209520Y-11225554D02*
X5095234Y-11225554D01*
X5152377Y-11225554D02*
X5152377Y-11025554D01*
X5152377Y-11025554D02*
X5133329Y-11054126D01*
X5133329Y-11054126D02*
X5114282Y-11073173D01*
X5114282Y-11073173D02*
X5095234Y-11082697D01*
X5390472Y-11025554D02*
X5295234Y-11025554D01*
X5295234Y-11025554D02*
X5285710Y-11120793D01*
X5285710Y-11120793D02*
X5295234Y-11111269D01*
X5295234Y-11111269D02*
X5314282Y-11101745D01*
X5314282Y-11101745D02*
X5361901Y-11101745D01*
X5361901Y-11101745D02*
X5380948Y-11111269D01*
X5380948Y-11111269D02*
X5390472Y-11120793D01*
X5390472Y-11120793D02*
X5399996Y-11139840D01*
X5399996Y-11139840D02*
X5399996Y-11187459D01*
X5399996Y-11187459D02*
X5390472Y-11206507D01*
X5390472Y-11206507D02*
X5380948Y-11216031D01*
X5380948Y-11216031D02*
X5361901Y-11225554D01*
X5361901Y-11225554D02*
X5314282Y-11225554D01*
X5314282Y-11225554D02*
X5295234Y-11216031D01*
X5295234Y-11216031D02*
X5285710Y-11206507D01*
X5466663Y-11025554D02*
X5599996Y-11025554D01*
X5599996Y-11025554D02*
X5514282Y-11225554D01*
X5666663Y-11025554D02*
X5666663Y-11063650D01*
X5742853Y-11025554D02*
X5742853Y-11063650D01*
X6038091Y-11301745D02*
X6028567Y-11292221D01*
X6028567Y-11292221D02*
X6009520Y-11263650D01*
X6009520Y-11263650D02*
X5999996Y-11244602D01*
X5999996Y-11244602D02*
X5990472Y-11216031D01*
X5990472Y-11216031D02*
X5980948Y-11168412D01*
X5980948Y-11168412D02*
X5980948Y-11130316D01*
X5980948Y-11130316D02*
X5990472Y-11082697D01*
X5990472Y-11082697D02*
X5999996Y-11054126D01*
X5999996Y-11054126D02*
X6009520Y-11035078D01*
X6009520Y-11035078D02*
X6028567Y-11006507D01*
X6028567Y-11006507D02*
X6038091Y-10996983D01*
X6219044Y-11225554D02*
X6104758Y-11225554D01*
X6161901Y-11225554D02*
X6161901Y-11025554D01*
X6161901Y-11025554D02*
X6142853Y-11054126D01*
X6142853Y-11054126D02*
X6123805Y-11073173D01*
X6123805Y-11073173D02*
X6104758Y-11082697D01*
X6399996Y-11025554D02*
X6304758Y-11025554D01*
X6304758Y-11025554D02*
X6295234Y-11120793D01*
X6295234Y-11120793D02*
X6304758Y-11111269D01*
X6304758Y-11111269D02*
X6323805Y-11101745D01*
X6323805Y-11101745D02*
X6371425Y-11101745D01*
X6371425Y-11101745D02*
X6390472Y-11111269D01*
X6390472Y-11111269D02*
X6399996Y-11120793D01*
X6399996Y-11120793D02*
X6409520Y-11139840D01*
X6409520Y-11139840D02*
X6409520Y-11187459D01*
X6409520Y-11187459D02*
X6399996Y-11206507D01*
X6399996Y-11206507D02*
X6390472Y-11216031D01*
X6390472Y-11216031D02*
X6371425Y-11225554D01*
X6371425Y-11225554D02*
X6323805Y-11225554D01*
X6323805Y-11225554D02*
X6304758Y-11216031D01*
X6304758Y-11216031D02*
X6295234Y-11206507D01*
X6647615Y-11225554D02*
X6647615Y-11025554D01*
X6733329Y-11225554D02*
X6733329Y-11120793D01*
X6733329Y-11120793D02*
X6723806Y-11101745D01*
X6723806Y-11101745D02*
X6704758Y-11092221D01*
X6704758Y-11092221D02*
X6676186Y-11092221D01*
X6676186Y-11092221D02*
X6657139Y-11101745D01*
X6657139Y-11101745D02*
X6647615Y-11111269D01*
X6857139Y-11225554D02*
X6838091Y-11216031D01*
X6838091Y-11216031D02*
X6828567Y-11206507D01*
X6828567Y-11206507D02*
X6819044Y-11187459D01*
X6819044Y-11187459D02*
X6819044Y-11130316D01*
X6819044Y-11130316D02*
X6828567Y-11111269D01*
X6828567Y-11111269D02*
X6838091Y-11101745D01*
X6838091Y-11101745D02*
X6857139Y-11092221D01*
X6857139Y-11092221D02*
X6885710Y-11092221D01*
X6885710Y-11092221D02*
X6904758Y-11101745D01*
X6904758Y-11101745D02*
X6914282Y-11111269D01*
X6914282Y-11111269D02*
X6923806Y-11130316D01*
X6923806Y-11130316D02*
X6923806Y-11187459D01*
X6923806Y-11187459D02*
X6914282Y-11206507D01*
X6914282Y-11206507D02*
X6904758Y-11216031D01*
X6904758Y-11216031D02*
X6885710Y-11225554D01*
X6885710Y-11225554D02*
X6857139Y-11225554D01*
X7038091Y-11225554D02*
X7019044Y-11216031D01*
X7019044Y-11216031D02*
X7009520Y-11196983D01*
X7009520Y-11196983D02*
X7009520Y-11025554D01*
X7190472Y-11216031D02*
X7171425Y-11225554D01*
X7171425Y-11225554D02*
X7133329Y-11225554D01*
X7133329Y-11225554D02*
X7114282Y-11216031D01*
X7114282Y-11216031D02*
X7104758Y-11196983D01*
X7104758Y-11196983D02*
X7104758Y-11120793D01*
X7104758Y-11120793D02*
X7114282Y-11101745D01*
X7114282Y-11101745D02*
X7133329Y-11092221D01*
X7133329Y-11092221D02*
X7171425Y-11092221D01*
X7171425Y-11092221D02*
X7190472Y-11101745D01*
X7190472Y-11101745D02*
X7199996Y-11120793D01*
X7199996Y-11120793D02*
X7199996Y-11139840D01*
X7199996Y-11139840D02*
X7104758Y-11158888D01*
X7276187Y-11216031D02*
X7295234Y-11225554D01*
X7295234Y-11225554D02*
X7333329Y-11225554D01*
X7333329Y-11225554D02*
X7352377Y-11216031D01*
X7352377Y-11216031D02*
X7361901Y-11196983D01*
X7361901Y-11196983D02*
X7361901Y-11187459D01*
X7361901Y-11187459D02*
X7352377Y-11168412D01*
X7352377Y-11168412D02*
X7333329Y-11158888D01*
X7333329Y-11158888D02*
X7304758Y-11158888D01*
X7304758Y-11158888D02*
X7285710Y-11149364D01*
X7285710Y-11149364D02*
X7276187Y-11130316D01*
X7276187Y-11130316D02*
X7276187Y-11120793D01*
X7276187Y-11120793D02*
X7285710Y-11101745D01*
X7285710Y-11101745D02*
X7304758Y-11092221D01*
X7304758Y-11092221D02*
X7333329Y-11092221D01*
X7333329Y-11092221D02*
X7352377Y-11101745D01*
X7428568Y-11301745D02*
X7438091Y-11292221D01*
X7438091Y-11292221D02*
X7457139Y-11263650D01*
X7457139Y-11263650D02*
X7466663Y-11244602D01*
X7466663Y-11244602D02*
X7476187Y-11216031D01*
X7476187Y-11216031D02*
X7485710Y-11168412D01*
X7485710Y-11168412D02*
X7485710Y-11130316D01*
X7485710Y-11130316D02*
X7476187Y-11082697D01*
X7476187Y-11082697D02*
X7466663Y-11054126D01*
X7466663Y-11054126D02*
X7457139Y-11035078D01*
X7457139Y-11035078D02*
X7438091Y-11006507D01*
X7438091Y-11006507D02*
X7428568Y-10996983D01*
D10*
X2463028Y-11398071D02*
G75*
G03*
X2463028Y-11398071I-50000J0D01*
G01*
D11*
X2828567Y-11489554D02*
X2714281Y-11489554D01*
X2771424Y-11489554D02*
X2771424Y-11289554D01*
X2771424Y-11289554D02*
X2752377Y-11318126D01*
X2752377Y-11318126D02*
X2733329Y-11337173D01*
X2733329Y-11337173D02*
X2714281Y-11346697D01*
X2914281Y-11470507D02*
X2923805Y-11480031D01*
X2923805Y-11480031D02*
X2914281Y-11489554D01*
X2914281Y-11489554D02*
X2904758Y-11480031D01*
X2904758Y-11480031D02*
X2914281Y-11470507D01*
X2914281Y-11470507D02*
X2914281Y-11489554D01*
X3047615Y-11289554D02*
X3066662Y-11289554D01*
X3066662Y-11289554D02*
X3085710Y-11299078D01*
X3085710Y-11299078D02*
X3095234Y-11308602D01*
X3095234Y-11308602D02*
X3104758Y-11327650D01*
X3104758Y-11327650D02*
X3114281Y-11365745D01*
X3114281Y-11365745D02*
X3114281Y-11413364D01*
X3114281Y-11413364D02*
X3104758Y-11451459D01*
X3104758Y-11451459D02*
X3095234Y-11470507D01*
X3095234Y-11470507D02*
X3085710Y-11480031D01*
X3085710Y-11480031D02*
X3066662Y-11489554D01*
X3066662Y-11489554D02*
X3047615Y-11489554D01*
X3047615Y-11489554D02*
X3028567Y-11480031D01*
X3028567Y-11480031D02*
X3019043Y-11470507D01*
X3019043Y-11470507D02*
X3009519Y-11451459D01*
X3009519Y-11451459D02*
X2999996Y-11413364D01*
X2999996Y-11413364D02*
X2999996Y-11365745D01*
X2999996Y-11365745D02*
X3009519Y-11327650D01*
X3009519Y-11327650D02*
X3019043Y-11308602D01*
X3019043Y-11308602D02*
X3028567Y-11299078D01*
X3028567Y-11299078D02*
X3047615Y-11289554D01*
X3238091Y-11289554D02*
X3257139Y-11289554D01*
X3257139Y-11289554D02*
X3276186Y-11299078D01*
X3276186Y-11299078D02*
X3285710Y-11308602D01*
X3285710Y-11308602D02*
X3295234Y-11327650D01*
X3295234Y-11327650D02*
X3304758Y-11365745D01*
X3304758Y-11365745D02*
X3304758Y-11413364D01*
X3304758Y-11413364D02*
X3295234Y-11451459D01*
X3295234Y-11451459D02*
X3285710Y-11470507D01*
X3285710Y-11470507D02*
X3276186Y-11480031D01*
X3276186Y-11480031D02*
X3257139Y-11489554D01*
X3257139Y-11489554D02*
X3238091Y-11489554D01*
X3238091Y-11489554D02*
X3219043Y-11480031D01*
X3219043Y-11480031D02*
X3209519Y-11470507D01*
X3209519Y-11470507D02*
X3199996Y-11451459D01*
X3199996Y-11451459D02*
X3190472Y-11413364D01*
X3190472Y-11413364D02*
X3190472Y-11365745D01*
X3190472Y-11365745D02*
X3199996Y-11327650D01*
X3199996Y-11327650D02*
X3209519Y-11308602D01*
X3209519Y-11308602D02*
X3219043Y-11299078D01*
X3219043Y-11299078D02*
X3238091Y-11289554D01*
X3428567Y-11289554D02*
X3447615Y-11289554D01*
X3447615Y-11289554D02*
X3466662Y-11299078D01*
X3466662Y-11299078D02*
X3476186Y-11308602D01*
X3476186Y-11308602D02*
X3485710Y-11327650D01*
X3485710Y-11327650D02*
X3495234Y-11365745D01*
X3495234Y-11365745D02*
X3495234Y-11413364D01*
X3495234Y-11413364D02*
X3485710Y-11451459D01*
X3485710Y-11451459D02*
X3476186Y-11470507D01*
X3476186Y-11470507D02*
X3466662Y-11480031D01*
X3466662Y-11480031D02*
X3447615Y-11489554D01*
X3447615Y-11489554D02*
X3428567Y-11489554D01*
X3428567Y-11489554D02*
X3409519Y-11480031D01*
X3409519Y-11480031D02*
X3399996Y-11470507D01*
X3399996Y-11470507D02*
X3390472Y-11451459D01*
X3390472Y-11451459D02*
X3380948Y-11413364D01*
X3380948Y-11413364D02*
X3380948Y-11365745D01*
X3380948Y-11365745D02*
X3390472Y-11327650D01*
X3390472Y-11327650D02*
X3399996Y-11308602D01*
X3399996Y-11308602D02*
X3409519Y-11299078D01*
X3409519Y-11299078D02*
X3428567Y-11289554D01*
X3580948Y-11489554D02*
X3580948Y-11356221D01*
X3580948Y-11375269D02*
X3590472Y-11365745D01*
X3590472Y-11365745D02*
X3609519Y-11356221D01*
X3609519Y-11356221D02*
X3638091Y-11356221D01*
X3638091Y-11356221D02*
X3657139Y-11365745D01*
X3657139Y-11365745D02*
X3666662Y-11384792D01*
X3666662Y-11384792D02*
X3666662Y-11489554D01*
X3666662Y-11384792D02*
X3676186Y-11365745D01*
X3676186Y-11365745D02*
X3695234Y-11356221D01*
X3695234Y-11356221D02*
X3723805Y-11356221D01*
X3723805Y-11356221D02*
X3742853Y-11365745D01*
X3742853Y-11365745D02*
X3752377Y-11384792D01*
X3752377Y-11384792D02*
X3752377Y-11489554D01*
X3847615Y-11489554D02*
X3847615Y-11356221D01*
X3847615Y-11375269D02*
X3857139Y-11365745D01*
X3857139Y-11365745D02*
X3876186Y-11356221D01*
X3876186Y-11356221D02*
X3904758Y-11356221D01*
X3904758Y-11356221D02*
X3923805Y-11365745D01*
X3923805Y-11365745D02*
X3933329Y-11384792D01*
X3933329Y-11384792D02*
X3933329Y-11489554D01*
X3933329Y-11384792D02*
X3942853Y-11365745D01*
X3942853Y-11365745D02*
X3961900Y-11356221D01*
X3961900Y-11356221D02*
X3990472Y-11356221D01*
X3990472Y-11356221D02*
X4009520Y-11365745D01*
X4009520Y-11365745D02*
X4019043Y-11384792D01*
X4019043Y-11384792D02*
X4019043Y-11489554D01*
X4409520Y-11280031D02*
X4238091Y-11537173D01*
X4666663Y-11289554D02*
X4685710Y-11289554D01*
X4685710Y-11289554D02*
X4704758Y-11299078D01*
X4704758Y-11299078D02*
X4714282Y-11308602D01*
X4714282Y-11308602D02*
X4723805Y-11327650D01*
X4723805Y-11327650D02*
X4733329Y-11365745D01*
X4733329Y-11365745D02*
X4733329Y-11413364D01*
X4733329Y-11413364D02*
X4723805Y-11451459D01*
X4723805Y-11451459D02*
X4714282Y-11470507D01*
X4714282Y-11470507D02*
X4704758Y-11480031D01*
X4704758Y-11480031D02*
X4685710Y-11489554D01*
X4685710Y-11489554D02*
X4666663Y-11489554D01*
X4666663Y-11489554D02*
X4647615Y-11480031D01*
X4647615Y-11480031D02*
X4638091Y-11470507D01*
X4638091Y-11470507D02*
X4628567Y-11451459D01*
X4628567Y-11451459D02*
X4619044Y-11413364D01*
X4619044Y-11413364D02*
X4619044Y-11365745D01*
X4619044Y-11365745D02*
X4628567Y-11327650D01*
X4628567Y-11327650D02*
X4638091Y-11308602D01*
X4638091Y-11308602D02*
X4647615Y-11299078D01*
X4647615Y-11299078D02*
X4666663Y-11289554D01*
X4819044Y-11470507D02*
X4828567Y-11480031D01*
X4828567Y-11480031D02*
X4819044Y-11489554D01*
X4819044Y-11489554D02*
X4809520Y-11480031D01*
X4809520Y-11480031D02*
X4819044Y-11470507D01*
X4819044Y-11470507D02*
X4819044Y-11489554D01*
X4952377Y-11289554D02*
X4971425Y-11289554D01*
X4971425Y-11289554D02*
X4990472Y-11299078D01*
X4990472Y-11299078D02*
X4999996Y-11308602D01*
X4999996Y-11308602D02*
X5009520Y-11327650D01*
X5009520Y-11327650D02*
X5019044Y-11365745D01*
X5019044Y-11365745D02*
X5019044Y-11413364D01*
X5019044Y-11413364D02*
X5009520Y-11451459D01*
X5009520Y-11451459D02*
X4999996Y-11470507D01*
X4999996Y-11470507D02*
X4990472Y-11480031D01*
X4990472Y-11480031D02*
X4971425Y-11489554D01*
X4971425Y-11489554D02*
X4952377Y-11489554D01*
X4952377Y-11489554D02*
X4933329Y-11480031D01*
X4933329Y-11480031D02*
X4923805Y-11470507D01*
X4923805Y-11470507D02*
X4914282Y-11451459D01*
X4914282Y-11451459D02*
X4904758Y-11413364D01*
X4904758Y-11413364D02*
X4904758Y-11365745D01*
X4904758Y-11365745D02*
X4914282Y-11327650D01*
X4914282Y-11327650D02*
X4923805Y-11308602D01*
X4923805Y-11308602D02*
X4933329Y-11299078D01*
X4933329Y-11299078D02*
X4952377Y-11289554D01*
X5085710Y-11289554D02*
X5209520Y-11289554D01*
X5209520Y-11289554D02*
X5142853Y-11365745D01*
X5142853Y-11365745D02*
X5171425Y-11365745D01*
X5171425Y-11365745D02*
X5190472Y-11375269D01*
X5190472Y-11375269D02*
X5199996Y-11384792D01*
X5199996Y-11384792D02*
X5209520Y-11403840D01*
X5209520Y-11403840D02*
X5209520Y-11451459D01*
X5209520Y-11451459D02*
X5199996Y-11470507D01*
X5199996Y-11470507D02*
X5190472Y-11480031D01*
X5190472Y-11480031D02*
X5171425Y-11489554D01*
X5171425Y-11489554D02*
X5114282Y-11489554D01*
X5114282Y-11489554D02*
X5095234Y-11480031D01*
X5095234Y-11480031D02*
X5085710Y-11470507D01*
X5304758Y-11489554D02*
X5342853Y-11489554D01*
X5342853Y-11489554D02*
X5361901Y-11480031D01*
X5361901Y-11480031D02*
X5371425Y-11470507D01*
X5371425Y-11470507D02*
X5390472Y-11441935D01*
X5390472Y-11441935D02*
X5399996Y-11403840D01*
X5399996Y-11403840D02*
X5399996Y-11327650D01*
X5399996Y-11327650D02*
X5390472Y-11308602D01*
X5390472Y-11308602D02*
X5380948Y-11299078D01*
X5380948Y-11299078D02*
X5361901Y-11289554D01*
X5361901Y-11289554D02*
X5323805Y-11289554D01*
X5323805Y-11289554D02*
X5304758Y-11299078D01*
X5304758Y-11299078D02*
X5295234Y-11308602D01*
X5295234Y-11308602D02*
X5285710Y-11327650D01*
X5285710Y-11327650D02*
X5285710Y-11375269D01*
X5285710Y-11375269D02*
X5295234Y-11394316D01*
X5295234Y-11394316D02*
X5304758Y-11403840D01*
X5304758Y-11403840D02*
X5323805Y-11413364D01*
X5323805Y-11413364D02*
X5361901Y-11413364D01*
X5361901Y-11413364D02*
X5380948Y-11403840D01*
X5380948Y-11403840D02*
X5390472Y-11394316D01*
X5390472Y-11394316D02*
X5399996Y-11375269D01*
X5571425Y-11356221D02*
X5571425Y-11489554D01*
X5523805Y-11280031D02*
X5476186Y-11422888D01*
X5476186Y-11422888D02*
X5599996Y-11422888D01*
X5666663Y-11289554D02*
X5666663Y-11327650D01*
X5742853Y-11289554D02*
X5742853Y-11327650D01*
X6038091Y-11565745D02*
X6028567Y-11556221D01*
X6028567Y-11556221D02*
X6009520Y-11527650D01*
X6009520Y-11527650D02*
X5999996Y-11508602D01*
X5999996Y-11508602D02*
X5990472Y-11480031D01*
X5990472Y-11480031D02*
X5980948Y-11432411D01*
X5980948Y-11432411D02*
X5980948Y-11394316D01*
X5980948Y-11394316D02*
X5990472Y-11346697D01*
X5990472Y-11346697D02*
X5999996Y-11318126D01*
X5999996Y-11318126D02*
X6009520Y-11299078D01*
X6009520Y-11299078D02*
X6028567Y-11270507D01*
X6028567Y-11270507D02*
X6038091Y-11260983D01*
X6209520Y-11289554D02*
X6114282Y-11289554D01*
X6114282Y-11289554D02*
X6104758Y-11384792D01*
X6104758Y-11384792D02*
X6114282Y-11375269D01*
X6114282Y-11375269D02*
X6133329Y-11365745D01*
X6133329Y-11365745D02*
X6180948Y-11365745D01*
X6180948Y-11365745D02*
X6199996Y-11375269D01*
X6199996Y-11375269D02*
X6209520Y-11384792D01*
X6209520Y-11384792D02*
X6219044Y-11403840D01*
X6219044Y-11403840D02*
X6219044Y-11451459D01*
X6219044Y-11451459D02*
X6209520Y-11470507D01*
X6209520Y-11470507D02*
X6199996Y-11480031D01*
X6199996Y-11480031D02*
X6180948Y-11489554D01*
X6180948Y-11489554D02*
X6133329Y-11489554D01*
X6133329Y-11489554D02*
X6114282Y-11480031D01*
X6114282Y-11480031D02*
X6104758Y-11470507D01*
X6390472Y-11356221D02*
X6390472Y-11489554D01*
X6342853Y-11280031D02*
X6295234Y-11422888D01*
X6295234Y-11422888D02*
X6419044Y-11422888D01*
X6647615Y-11489554D02*
X6647615Y-11289554D01*
X6733329Y-11489554D02*
X6733329Y-11384792D01*
X6733329Y-11384792D02*
X6723806Y-11365745D01*
X6723806Y-11365745D02*
X6704758Y-11356221D01*
X6704758Y-11356221D02*
X6676186Y-11356221D01*
X6676186Y-11356221D02*
X6657139Y-11365745D01*
X6657139Y-11365745D02*
X6647615Y-11375269D01*
X6857139Y-11489554D02*
X6838091Y-11480031D01*
X6838091Y-11480031D02*
X6828567Y-11470507D01*
X6828567Y-11470507D02*
X6819044Y-11451459D01*
X6819044Y-11451459D02*
X6819044Y-11394316D01*
X6819044Y-11394316D02*
X6828567Y-11375269D01*
X6828567Y-11375269D02*
X6838091Y-11365745D01*
X6838091Y-11365745D02*
X6857139Y-11356221D01*
X6857139Y-11356221D02*
X6885710Y-11356221D01*
X6885710Y-11356221D02*
X6904758Y-11365745D01*
X6904758Y-11365745D02*
X6914282Y-11375269D01*
X6914282Y-11375269D02*
X6923806Y-11394316D01*
X6923806Y-11394316D02*
X6923806Y-11451459D01*
X6923806Y-11451459D02*
X6914282Y-11470507D01*
X6914282Y-11470507D02*
X6904758Y-11480031D01*
X6904758Y-11480031D02*
X6885710Y-11489554D01*
X6885710Y-11489554D02*
X6857139Y-11489554D01*
X7038091Y-11489554D02*
X7019044Y-11480031D01*
X7019044Y-11480031D02*
X7009520Y-11460983D01*
X7009520Y-11460983D02*
X7009520Y-11289554D01*
X7190472Y-11480031D02*
X7171425Y-11489554D01*
X7171425Y-11489554D02*
X7133329Y-11489554D01*
X7133329Y-11489554D02*
X7114282Y-11480031D01*
X7114282Y-11480031D02*
X7104758Y-11460983D01*
X7104758Y-11460983D02*
X7104758Y-11384792D01*
X7104758Y-11384792D02*
X7114282Y-11365745D01*
X7114282Y-11365745D02*
X7133329Y-11356221D01*
X7133329Y-11356221D02*
X7171425Y-11356221D01*
X7171425Y-11356221D02*
X7190472Y-11365745D01*
X7190472Y-11365745D02*
X7199996Y-11384792D01*
X7199996Y-11384792D02*
X7199996Y-11403840D01*
X7199996Y-11403840D02*
X7104758Y-11422888D01*
X7276187Y-11480031D02*
X7295234Y-11489554D01*
X7295234Y-11489554D02*
X7333329Y-11489554D01*
X7333329Y-11489554D02*
X7352377Y-11480031D01*
X7352377Y-11480031D02*
X7361901Y-11460983D01*
X7361901Y-11460983D02*
X7361901Y-11451459D01*
X7361901Y-11451459D02*
X7352377Y-11432411D01*
X7352377Y-11432411D02*
X7333329Y-11422888D01*
X7333329Y-11422888D02*
X7304758Y-11422888D01*
X7304758Y-11422888D02*
X7285710Y-11413364D01*
X7285710Y-11413364D02*
X7276187Y-11394316D01*
X7276187Y-11394316D02*
X7276187Y-11384792D01*
X7276187Y-11384792D02*
X7285710Y-11365745D01*
X7285710Y-11365745D02*
X7304758Y-11356221D01*
X7304758Y-11356221D02*
X7333329Y-11356221D01*
X7333329Y-11356221D02*
X7352377Y-11365745D01*
X7428568Y-11565745D02*
X7438091Y-11556221D01*
X7438091Y-11556221D02*
X7457139Y-11527650D01*
X7457139Y-11527650D02*
X7466663Y-11508602D01*
X7466663Y-11508602D02*
X7476187Y-11480031D01*
X7476187Y-11480031D02*
X7485710Y-11432411D01*
X7485710Y-11432411D02*
X7485710Y-11394316D01*
X7485710Y-11394316D02*
X7476187Y-11346697D01*
X7476187Y-11346697D02*
X7466663Y-11318126D01*
X7466663Y-11318126D02*
X7457139Y-11299078D01*
X7457139Y-11299078D02*
X7438091Y-11270507D01*
X7438091Y-11270507D02*
X7428568Y-11260983D01*
D12*
X2412028Y-11611071D02*
X2412028Y-11713071D01*
X2361028Y-11662071D02*
X2463028Y-11662071D01*
D11*
X2828567Y-11753554D02*
X2714281Y-11753554D01*
X2771424Y-11753554D02*
X2771424Y-11553554D01*
X2771424Y-11553554D02*
X2752377Y-11582126D01*
X2752377Y-11582126D02*
X2733329Y-11601173D01*
X2733329Y-11601173D02*
X2714281Y-11610697D01*
X2914281Y-11734507D02*
X2923805Y-11744031D01*
X2923805Y-11744031D02*
X2914281Y-11753554D01*
X2914281Y-11753554D02*
X2904758Y-11744031D01*
X2904758Y-11744031D02*
X2914281Y-11734507D01*
X2914281Y-11734507D02*
X2914281Y-11753554D01*
X3047615Y-11553554D02*
X3066662Y-11553554D01*
X3066662Y-11553554D02*
X3085710Y-11563078D01*
X3085710Y-11563078D02*
X3095234Y-11572602D01*
X3095234Y-11572602D02*
X3104758Y-11591650D01*
X3104758Y-11591650D02*
X3114281Y-11629745D01*
X3114281Y-11629745D02*
X3114281Y-11677364D01*
X3114281Y-11677364D02*
X3104758Y-11715459D01*
X3104758Y-11715459D02*
X3095234Y-11734507D01*
X3095234Y-11734507D02*
X3085710Y-11744031D01*
X3085710Y-11744031D02*
X3066662Y-11753554D01*
X3066662Y-11753554D02*
X3047615Y-11753554D01*
X3047615Y-11753554D02*
X3028567Y-11744031D01*
X3028567Y-11744031D02*
X3019043Y-11734507D01*
X3019043Y-11734507D02*
X3009519Y-11715459D01*
X3009519Y-11715459D02*
X2999996Y-11677364D01*
X2999996Y-11677364D02*
X2999996Y-11629745D01*
X2999996Y-11629745D02*
X3009519Y-11591650D01*
X3009519Y-11591650D02*
X3019043Y-11572602D01*
X3019043Y-11572602D02*
X3028567Y-11563078D01*
X3028567Y-11563078D02*
X3047615Y-11553554D01*
X3190472Y-11572602D02*
X3199996Y-11563078D01*
X3199996Y-11563078D02*
X3219043Y-11553554D01*
X3219043Y-11553554D02*
X3266662Y-11553554D01*
X3266662Y-11553554D02*
X3285710Y-11563078D01*
X3285710Y-11563078D02*
X3295234Y-11572602D01*
X3295234Y-11572602D02*
X3304758Y-11591650D01*
X3304758Y-11591650D02*
X3304758Y-11610697D01*
X3304758Y-11610697D02*
X3295234Y-11639269D01*
X3295234Y-11639269D02*
X3180948Y-11753554D01*
X3180948Y-11753554D02*
X3304758Y-11753554D01*
X3428567Y-11553554D02*
X3447615Y-11553554D01*
X3447615Y-11553554D02*
X3466662Y-11563078D01*
X3466662Y-11563078D02*
X3476186Y-11572602D01*
X3476186Y-11572602D02*
X3485710Y-11591650D01*
X3485710Y-11591650D02*
X3495234Y-11629745D01*
X3495234Y-11629745D02*
X3495234Y-11677364D01*
X3495234Y-11677364D02*
X3485710Y-11715459D01*
X3485710Y-11715459D02*
X3476186Y-11734507D01*
X3476186Y-11734507D02*
X3466662Y-11744031D01*
X3466662Y-11744031D02*
X3447615Y-11753554D01*
X3447615Y-11753554D02*
X3428567Y-11753554D01*
X3428567Y-11753554D02*
X3409519Y-11744031D01*
X3409519Y-11744031D02*
X3399996Y-11734507D01*
X3399996Y-11734507D02*
X3390472Y-11715459D01*
X3390472Y-11715459D02*
X3380948Y-11677364D01*
X3380948Y-11677364D02*
X3380948Y-11629745D01*
X3380948Y-11629745D02*
X3390472Y-11591650D01*
X3390472Y-11591650D02*
X3399996Y-11572602D01*
X3399996Y-11572602D02*
X3409519Y-11563078D01*
X3409519Y-11563078D02*
X3428567Y-11553554D01*
X3580948Y-11753554D02*
X3580948Y-11620221D01*
X3580948Y-11639269D02*
X3590472Y-11629745D01*
X3590472Y-11629745D02*
X3609519Y-11620221D01*
X3609519Y-11620221D02*
X3638091Y-11620221D01*
X3638091Y-11620221D02*
X3657139Y-11629745D01*
X3657139Y-11629745D02*
X3666662Y-11648792D01*
X3666662Y-11648792D02*
X3666662Y-11753554D01*
X3666662Y-11648792D02*
X3676186Y-11629745D01*
X3676186Y-11629745D02*
X3695234Y-11620221D01*
X3695234Y-11620221D02*
X3723805Y-11620221D01*
X3723805Y-11620221D02*
X3742853Y-11629745D01*
X3742853Y-11629745D02*
X3752377Y-11648792D01*
X3752377Y-11648792D02*
X3752377Y-11753554D01*
X3847615Y-11753554D02*
X3847615Y-11620221D01*
X3847615Y-11639269D02*
X3857139Y-11629745D01*
X3857139Y-11629745D02*
X3876186Y-11620221D01*
X3876186Y-11620221D02*
X3904758Y-11620221D01*
X3904758Y-11620221D02*
X3923805Y-11629745D01*
X3923805Y-11629745D02*
X3933329Y-11648792D01*
X3933329Y-11648792D02*
X3933329Y-11753554D01*
X3933329Y-11648792D02*
X3942853Y-11629745D01*
X3942853Y-11629745D02*
X3961900Y-11620221D01*
X3961900Y-11620221D02*
X3990472Y-11620221D01*
X3990472Y-11620221D02*
X4009520Y-11629745D01*
X4009520Y-11629745D02*
X4019043Y-11648792D01*
X4019043Y-11648792D02*
X4019043Y-11753554D01*
X4409520Y-11544031D02*
X4238091Y-11801173D01*
X4666663Y-11553554D02*
X4685710Y-11553554D01*
X4685710Y-11553554D02*
X4704758Y-11563078D01*
X4704758Y-11563078D02*
X4714282Y-11572602D01*
X4714282Y-11572602D02*
X4723805Y-11591650D01*
X4723805Y-11591650D02*
X4733329Y-11629745D01*
X4733329Y-11629745D02*
X4733329Y-11677364D01*
X4733329Y-11677364D02*
X4723805Y-11715459D01*
X4723805Y-11715459D02*
X4714282Y-11734507D01*
X4714282Y-11734507D02*
X4704758Y-11744031D01*
X4704758Y-11744031D02*
X4685710Y-11753554D01*
X4685710Y-11753554D02*
X4666663Y-11753554D01*
X4666663Y-11753554D02*
X4647615Y-11744031D01*
X4647615Y-11744031D02*
X4638091Y-11734507D01*
X4638091Y-11734507D02*
X4628567Y-11715459D01*
X4628567Y-11715459D02*
X4619044Y-11677364D01*
X4619044Y-11677364D02*
X4619044Y-11629745D01*
X4619044Y-11629745D02*
X4628567Y-11591650D01*
X4628567Y-11591650D02*
X4638091Y-11572602D01*
X4638091Y-11572602D02*
X4647615Y-11563078D01*
X4647615Y-11563078D02*
X4666663Y-11553554D01*
X4819044Y-11734507D02*
X4828567Y-11744031D01*
X4828567Y-11744031D02*
X4819044Y-11753554D01*
X4819044Y-11753554D02*
X4809520Y-11744031D01*
X4809520Y-11744031D02*
X4819044Y-11734507D01*
X4819044Y-11734507D02*
X4819044Y-11753554D01*
X4952377Y-11553554D02*
X4971425Y-11553554D01*
X4971425Y-11553554D02*
X4990472Y-11563078D01*
X4990472Y-11563078D02*
X4999996Y-11572602D01*
X4999996Y-11572602D02*
X5009520Y-11591650D01*
X5009520Y-11591650D02*
X5019044Y-11629745D01*
X5019044Y-11629745D02*
X5019044Y-11677364D01*
X5019044Y-11677364D02*
X5009520Y-11715459D01*
X5009520Y-11715459D02*
X4999996Y-11734507D01*
X4999996Y-11734507D02*
X4990472Y-11744031D01*
X4990472Y-11744031D02*
X4971425Y-11753554D01*
X4971425Y-11753554D02*
X4952377Y-11753554D01*
X4952377Y-11753554D02*
X4933329Y-11744031D01*
X4933329Y-11744031D02*
X4923805Y-11734507D01*
X4923805Y-11734507D02*
X4914282Y-11715459D01*
X4914282Y-11715459D02*
X4904758Y-11677364D01*
X4904758Y-11677364D02*
X4904758Y-11629745D01*
X4904758Y-11629745D02*
X4914282Y-11591650D01*
X4914282Y-11591650D02*
X4923805Y-11572602D01*
X4923805Y-11572602D02*
X4933329Y-11563078D01*
X4933329Y-11563078D02*
X4952377Y-11553554D01*
X5190472Y-11620221D02*
X5190472Y-11753554D01*
X5142853Y-11544031D02*
X5095234Y-11686888D01*
X5095234Y-11686888D02*
X5219044Y-11686888D01*
X5333329Y-11553554D02*
X5352377Y-11553554D01*
X5352377Y-11553554D02*
X5371425Y-11563078D01*
X5371425Y-11563078D02*
X5380948Y-11572602D01*
X5380948Y-11572602D02*
X5390472Y-11591650D01*
X5390472Y-11591650D02*
X5399996Y-11629745D01*
X5399996Y-11629745D02*
X5399996Y-11677364D01*
X5399996Y-11677364D02*
X5390472Y-11715459D01*
X5390472Y-11715459D02*
X5380948Y-11734507D01*
X5380948Y-11734507D02*
X5371425Y-11744031D01*
X5371425Y-11744031D02*
X5352377Y-11753554D01*
X5352377Y-11753554D02*
X5333329Y-11753554D01*
X5333329Y-11753554D02*
X5314282Y-11744031D01*
X5314282Y-11744031D02*
X5304758Y-11734507D01*
X5304758Y-11734507D02*
X5295234Y-11715459D01*
X5295234Y-11715459D02*
X5285710Y-11677364D01*
X5285710Y-11677364D02*
X5285710Y-11629745D01*
X5285710Y-11629745D02*
X5295234Y-11591650D01*
X5295234Y-11591650D02*
X5304758Y-11572602D01*
X5304758Y-11572602D02*
X5314282Y-11563078D01*
X5314282Y-11563078D02*
X5333329Y-11553554D01*
X5476186Y-11572602D02*
X5485710Y-11563078D01*
X5485710Y-11563078D02*
X5504758Y-11553554D01*
X5504758Y-11553554D02*
X5552377Y-11553554D01*
X5552377Y-11553554D02*
X5571425Y-11563078D01*
X5571425Y-11563078D02*
X5580948Y-11572602D01*
X5580948Y-11572602D02*
X5590472Y-11591650D01*
X5590472Y-11591650D02*
X5590472Y-11610697D01*
X5590472Y-11610697D02*
X5580948Y-11639269D01*
X5580948Y-11639269D02*
X5466663Y-11753554D01*
X5466663Y-11753554D02*
X5590472Y-11753554D01*
X5666663Y-11553554D02*
X5666663Y-11591650D01*
X5742853Y-11553554D02*
X5742853Y-11591650D01*
X6038091Y-11829745D02*
X6028567Y-11820221D01*
X6028567Y-11820221D02*
X6009520Y-11791650D01*
X6009520Y-11791650D02*
X5999996Y-11772602D01*
X5999996Y-11772602D02*
X5990472Y-11744031D01*
X5990472Y-11744031D02*
X5980948Y-11696411D01*
X5980948Y-11696411D02*
X5980948Y-11658316D01*
X5980948Y-11658316D02*
X5990472Y-11610697D01*
X5990472Y-11610697D02*
X5999996Y-11582126D01*
X5999996Y-11582126D02*
X6009520Y-11563078D01*
X6009520Y-11563078D02*
X6028567Y-11534507D01*
X6028567Y-11534507D02*
X6038091Y-11524983D01*
X6219044Y-11753554D02*
X6104758Y-11753554D01*
X6161901Y-11753554D02*
X6161901Y-11553554D01*
X6161901Y-11553554D02*
X6142853Y-11582126D01*
X6142853Y-11582126D02*
X6123805Y-11601173D01*
X6123805Y-11601173D02*
X6104758Y-11610697D01*
X6295234Y-11572602D02*
X6304758Y-11563078D01*
X6304758Y-11563078D02*
X6323805Y-11553554D01*
X6323805Y-11553554D02*
X6371425Y-11553554D01*
X6371425Y-11553554D02*
X6390472Y-11563078D01*
X6390472Y-11563078D02*
X6399996Y-11572602D01*
X6399996Y-11572602D02*
X6409520Y-11591650D01*
X6409520Y-11591650D02*
X6409520Y-11610697D01*
X6409520Y-11610697D02*
X6399996Y-11639269D01*
X6399996Y-11639269D02*
X6285710Y-11753554D01*
X6285710Y-11753554D02*
X6409520Y-11753554D01*
X6647615Y-11753554D02*
X6647615Y-11553554D01*
X6733329Y-11753554D02*
X6733329Y-11648792D01*
X6733329Y-11648792D02*
X6723806Y-11629745D01*
X6723806Y-11629745D02*
X6704758Y-11620221D01*
X6704758Y-11620221D02*
X6676186Y-11620221D01*
X6676186Y-11620221D02*
X6657139Y-11629745D01*
X6657139Y-11629745D02*
X6647615Y-11639269D01*
X6857139Y-11753554D02*
X6838091Y-11744031D01*
X6838091Y-11744031D02*
X6828567Y-11734507D01*
X6828567Y-11734507D02*
X6819044Y-11715459D01*
X6819044Y-11715459D02*
X6819044Y-11658316D01*
X6819044Y-11658316D02*
X6828567Y-11639269D01*
X6828567Y-11639269D02*
X6838091Y-11629745D01*
X6838091Y-11629745D02*
X6857139Y-11620221D01*
X6857139Y-11620221D02*
X6885710Y-11620221D01*
X6885710Y-11620221D02*
X6904758Y-11629745D01*
X6904758Y-11629745D02*
X6914282Y-11639269D01*
X6914282Y-11639269D02*
X6923806Y-11658316D01*
X6923806Y-11658316D02*
X6923806Y-11715459D01*
X6923806Y-11715459D02*
X6914282Y-11734507D01*
X6914282Y-11734507D02*
X6904758Y-11744031D01*
X6904758Y-11744031D02*
X6885710Y-11753554D01*
X6885710Y-11753554D02*
X6857139Y-11753554D01*
X7038091Y-11753554D02*
X7019044Y-11744031D01*
X7019044Y-11744031D02*
X7009520Y-11724983D01*
X7009520Y-11724983D02*
X7009520Y-11553554D01*
X7190472Y-11744031D02*
X7171425Y-11753554D01*
X7171425Y-11753554D02*
X7133329Y-11753554D01*
X7133329Y-11753554D02*
X7114282Y-11744031D01*
X7114282Y-11744031D02*
X7104758Y-11724983D01*
X7104758Y-11724983D02*
X7104758Y-11648792D01*
X7104758Y-11648792D02*
X7114282Y-11629745D01*
X7114282Y-11629745D02*
X7133329Y-11620221D01*
X7133329Y-11620221D02*
X7171425Y-11620221D01*
X7171425Y-11620221D02*
X7190472Y-11629745D01*
X7190472Y-11629745D02*
X7199996Y-11648792D01*
X7199996Y-11648792D02*
X7199996Y-11667840D01*
X7199996Y-11667840D02*
X7104758Y-11686888D01*
X7276187Y-11744031D02*
X7295234Y-11753554D01*
X7295234Y-11753554D02*
X7333329Y-11753554D01*
X7333329Y-11753554D02*
X7352377Y-11744031D01*
X7352377Y-11744031D02*
X7361901Y-11724983D01*
X7361901Y-11724983D02*
X7361901Y-11715459D01*
X7361901Y-11715459D02*
X7352377Y-11696411D01*
X7352377Y-11696411D02*
X7333329Y-11686888D01*
X7333329Y-11686888D02*
X7304758Y-11686888D01*
X7304758Y-11686888D02*
X7285710Y-11677364D01*
X7285710Y-11677364D02*
X7276187Y-11658316D01*
X7276187Y-11658316D02*
X7276187Y-11648792D01*
X7276187Y-11648792D02*
X7285710Y-11629745D01*
X7285710Y-11629745D02*
X7304758Y-11620221D01*
X7304758Y-11620221D02*
X7333329Y-11620221D01*
X7333329Y-11620221D02*
X7352377Y-11629745D01*
X7428568Y-11829745D02*
X7438091Y-11820221D01*
X7438091Y-11820221D02*
X7457139Y-11791650D01*
X7457139Y-11791650D02*
X7466663Y-11772602D01*
X7466663Y-11772602D02*
X7476187Y-11744031D01*
X7476187Y-11744031D02*
X7485710Y-11696411D01*
X7485710Y-11696411D02*
X7485710Y-11658316D01*
X7485710Y-11658316D02*
X7476187Y-11610697D01*
X7476187Y-11610697D02*
X7466663Y-11582126D01*
X7466663Y-11582126D02*
X7457139Y-11563078D01*
X7457139Y-11563078D02*
X7438091Y-11534507D01*
X7438091Y-11534507D02*
X7428568Y-11524983D01*
D13*
X2447406Y-11963788D02*
X2447406Y-11888353D01*
X2371971Y-11888353D01*
X2371971Y-11963788D01*
X2447406Y-11963788D01*
D11*
X2828567Y-12017554D02*
X2714281Y-12017554D01*
X2771424Y-12017554D02*
X2771424Y-11817554D01*
X2771424Y-11817554D02*
X2752377Y-11846126D01*
X2752377Y-11846126D02*
X2733329Y-11865173D01*
X2733329Y-11865173D02*
X2714281Y-11874697D01*
X2914281Y-11998507D02*
X2923805Y-12008031D01*
X2923805Y-12008031D02*
X2914281Y-12017554D01*
X2914281Y-12017554D02*
X2904758Y-12008031D01*
X2904758Y-12008031D02*
X2914281Y-11998507D01*
X2914281Y-11998507D02*
X2914281Y-12017554D01*
X3047615Y-11817554D02*
X3066662Y-11817554D01*
X3066662Y-11817554D02*
X3085710Y-11827078D01*
X3085710Y-11827078D02*
X3095234Y-11836602D01*
X3095234Y-11836602D02*
X3104758Y-11855650D01*
X3104758Y-11855650D02*
X3114281Y-11893745D01*
X3114281Y-11893745D02*
X3114281Y-11941364D01*
X3114281Y-11941364D02*
X3104758Y-11979459D01*
X3104758Y-11979459D02*
X3095234Y-11998507D01*
X3095234Y-11998507D02*
X3085710Y-12008031D01*
X3085710Y-12008031D02*
X3066662Y-12017554D01*
X3066662Y-12017554D02*
X3047615Y-12017554D01*
X3047615Y-12017554D02*
X3028567Y-12008031D01*
X3028567Y-12008031D02*
X3019043Y-11998507D01*
X3019043Y-11998507D02*
X3009519Y-11979459D01*
X3009519Y-11979459D02*
X2999996Y-11941364D01*
X2999996Y-11941364D02*
X2999996Y-11893745D01*
X2999996Y-11893745D02*
X3009519Y-11855650D01*
X3009519Y-11855650D02*
X3019043Y-11836602D01*
X3019043Y-11836602D02*
X3028567Y-11827078D01*
X3028567Y-11827078D02*
X3047615Y-11817554D01*
X3285710Y-11817554D02*
X3247615Y-11817554D01*
X3247615Y-11817554D02*
X3228567Y-11827078D01*
X3228567Y-11827078D02*
X3219043Y-11836602D01*
X3219043Y-11836602D02*
X3199996Y-11865173D01*
X3199996Y-11865173D02*
X3190472Y-11903269D01*
X3190472Y-11903269D02*
X3190472Y-11979459D01*
X3190472Y-11979459D02*
X3199996Y-11998507D01*
X3199996Y-11998507D02*
X3209519Y-12008031D01*
X3209519Y-12008031D02*
X3228567Y-12017554D01*
X3228567Y-12017554D02*
X3266662Y-12017554D01*
X3266662Y-12017554D02*
X3285710Y-12008031D01*
X3285710Y-12008031D02*
X3295234Y-11998507D01*
X3295234Y-11998507D02*
X3304758Y-11979459D01*
X3304758Y-11979459D02*
X3304758Y-11931840D01*
X3304758Y-11931840D02*
X3295234Y-11912792D01*
X3295234Y-11912792D02*
X3285710Y-11903269D01*
X3285710Y-11903269D02*
X3266662Y-11893745D01*
X3266662Y-11893745D02*
X3228567Y-11893745D01*
X3228567Y-11893745D02*
X3209519Y-11903269D01*
X3209519Y-11903269D02*
X3199996Y-11912792D01*
X3199996Y-11912792D02*
X3190472Y-11931840D01*
X3371424Y-11817554D02*
X3504758Y-11817554D01*
X3504758Y-11817554D02*
X3419043Y-12017554D01*
X3580948Y-12017554D02*
X3580948Y-11884221D01*
X3580948Y-11903269D02*
X3590472Y-11893745D01*
X3590472Y-11893745D02*
X3609519Y-11884221D01*
X3609519Y-11884221D02*
X3638091Y-11884221D01*
X3638091Y-11884221D02*
X3657139Y-11893745D01*
X3657139Y-11893745D02*
X3666662Y-11912792D01*
X3666662Y-11912792D02*
X3666662Y-12017554D01*
X3666662Y-11912792D02*
X3676186Y-11893745D01*
X3676186Y-11893745D02*
X3695234Y-11884221D01*
X3695234Y-11884221D02*
X3723805Y-11884221D01*
X3723805Y-11884221D02*
X3742853Y-11893745D01*
X3742853Y-11893745D02*
X3752377Y-11912792D01*
X3752377Y-11912792D02*
X3752377Y-12017554D01*
X3847615Y-12017554D02*
X3847615Y-11884221D01*
X3847615Y-11903269D02*
X3857139Y-11893745D01*
X3857139Y-11893745D02*
X3876186Y-11884221D01*
X3876186Y-11884221D02*
X3904758Y-11884221D01*
X3904758Y-11884221D02*
X3923805Y-11893745D01*
X3923805Y-11893745D02*
X3933329Y-11912792D01*
X3933329Y-11912792D02*
X3933329Y-12017554D01*
X3933329Y-11912792D02*
X3942853Y-11893745D01*
X3942853Y-11893745D02*
X3961900Y-11884221D01*
X3961900Y-11884221D02*
X3990472Y-11884221D01*
X3990472Y-11884221D02*
X4009520Y-11893745D01*
X4009520Y-11893745D02*
X4019043Y-11912792D01*
X4019043Y-11912792D02*
X4019043Y-12017554D01*
X4409520Y-11808031D02*
X4238091Y-12065173D01*
X4666663Y-11817554D02*
X4685710Y-11817554D01*
X4685710Y-11817554D02*
X4704758Y-11827078D01*
X4704758Y-11827078D02*
X4714282Y-11836602D01*
X4714282Y-11836602D02*
X4723805Y-11855650D01*
X4723805Y-11855650D02*
X4733329Y-11893745D01*
X4733329Y-11893745D02*
X4733329Y-11941364D01*
X4733329Y-11941364D02*
X4723805Y-11979459D01*
X4723805Y-11979459D02*
X4714282Y-11998507D01*
X4714282Y-11998507D02*
X4704758Y-12008031D01*
X4704758Y-12008031D02*
X4685710Y-12017554D01*
X4685710Y-12017554D02*
X4666663Y-12017554D01*
X4666663Y-12017554D02*
X4647615Y-12008031D01*
X4647615Y-12008031D02*
X4638091Y-11998507D01*
X4638091Y-11998507D02*
X4628567Y-11979459D01*
X4628567Y-11979459D02*
X4619044Y-11941364D01*
X4619044Y-11941364D02*
X4619044Y-11893745D01*
X4619044Y-11893745D02*
X4628567Y-11855650D01*
X4628567Y-11855650D02*
X4638091Y-11836602D01*
X4638091Y-11836602D02*
X4647615Y-11827078D01*
X4647615Y-11827078D02*
X4666663Y-11817554D01*
X4819044Y-11998507D02*
X4828567Y-12008031D01*
X4828567Y-12008031D02*
X4819044Y-12017554D01*
X4819044Y-12017554D02*
X4809520Y-12008031D01*
X4809520Y-12008031D02*
X4819044Y-11998507D01*
X4819044Y-11998507D02*
X4819044Y-12017554D01*
X4952377Y-11817554D02*
X4971425Y-11817554D01*
X4971425Y-11817554D02*
X4990472Y-11827078D01*
X4990472Y-11827078D02*
X4999996Y-11836602D01*
X4999996Y-11836602D02*
X5009520Y-11855650D01*
X5009520Y-11855650D02*
X5019044Y-11893745D01*
X5019044Y-11893745D02*
X5019044Y-11941364D01*
X5019044Y-11941364D02*
X5009520Y-11979459D01*
X5009520Y-11979459D02*
X4999996Y-11998507D01*
X4999996Y-11998507D02*
X4990472Y-12008031D01*
X4990472Y-12008031D02*
X4971425Y-12017554D01*
X4971425Y-12017554D02*
X4952377Y-12017554D01*
X4952377Y-12017554D02*
X4933329Y-12008031D01*
X4933329Y-12008031D02*
X4923805Y-11998507D01*
X4923805Y-11998507D02*
X4914282Y-11979459D01*
X4914282Y-11979459D02*
X4904758Y-11941364D01*
X4904758Y-11941364D02*
X4904758Y-11893745D01*
X4904758Y-11893745D02*
X4914282Y-11855650D01*
X4914282Y-11855650D02*
X4923805Y-11836602D01*
X4923805Y-11836602D02*
X4933329Y-11827078D01*
X4933329Y-11827078D02*
X4952377Y-11817554D01*
X5190472Y-11884221D02*
X5190472Y-12017554D01*
X5142853Y-11808031D02*
X5095234Y-11950888D01*
X5095234Y-11950888D02*
X5219044Y-11950888D01*
X5285710Y-11836602D02*
X5295234Y-11827078D01*
X5295234Y-11827078D02*
X5314282Y-11817554D01*
X5314282Y-11817554D02*
X5361901Y-11817554D01*
X5361901Y-11817554D02*
X5380948Y-11827078D01*
X5380948Y-11827078D02*
X5390472Y-11836602D01*
X5390472Y-11836602D02*
X5399996Y-11855650D01*
X5399996Y-11855650D02*
X5399996Y-11874697D01*
X5399996Y-11874697D02*
X5390472Y-11903269D01*
X5390472Y-11903269D02*
X5276186Y-12017554D01*
X5276186Y-12017554D02*
X5399996Y-12017554D01*
X5523805Y-11817554D02*
X5542853Y-11817554D01*
X5542853Y-11817554D02*
X5561901Y-11827078D01*
X5561901Y-11827078D02*
X5571425Y-11836602D01*
X5571425Y-11836602D02*
X5580948Y-11855650D01*
X5580948Y-11855650D02*
X5590472Y-11893745D01*
X5590472Y-11893745D02*
X5590472Y-11941364D01*
X5590472Y-11941364D02*
X5580948Y-11979459D01*
X5580948Y-11979459D02*
X5571425Y-11998507D01*
X5571425Y-11998507D02*
X5561901Y-12008031D01*
X5561901Y-12008031D02*
X5542853Y-12017554D01*
X5542853Y-12017554D02*
X5523805Y-12017554D01*
X5523805Y-12017554D02*
X5504758Y-12008031D01*
X5504758Y-12008031D02*
X5495234Y-11998507D01*
X5495234Y-11998507D02*
X5485710Y-11979459D01*
X5485710Y-11979459D02*
X5476186Y-11941364D01*
X5476186Y-11941364D02*
X5476186Y-11893745D01*
X5476186Y-11893745D02*
X5485710Y-11855650D01*
X5485710Y-11855650D02*
X5495234Y-11836602D01*
X5495234Y-11836602D02*
X5504758Y-11827078D01*
X5504758Y-11827078D02*
X5523805Y-11817554D01*
X5666663Y-11817554D02*
X5666663Y-11855650D01*
X5742853Y-11817554D02*
X5742853Y-11855650D01*
X6038091Y-12093745D02*
X6028567Y-12084221D01*
X6028567Y-12084221D02*
X6009520Y-12055650D01*
X6009520Y-12055650D02*
X5999996Y-12036602D01*
X5999996Y-12036602D02*
X5990472Y-12008031D01*
X5990472Y-12008031D02*
X5980948Y-11960411D01*
X5980948Y-11960411D02*
X5980948Y-11922316D01*
X5980948Y-11922316D02*
X5990472Y-11874697D01*
X5990472Y-11874697D02*
X5999996Y-11846126D01*
X5999996Y-11846126D02*
X6009520Y-11827078D01*
X6009520Y-11827078D02*
X6028567Y-11798507D01*
X6028567Y-11798507D02*
X6038091Y-11788983D01*
X6104758Y-11836602D02*
X6114282Y-11827078D01*
X6114282Y-11827078D02*
X6133329Y-11817554D01*
X6133329Y-11817554D02*
X6180948Y-11817554D01*
X6180948Y-11817554D02*
X6199996Y-11827078D01*
X6199996Y-11827078D02*
X6209520Y-11836602D01*
X6209520Y-11836602D02*
X6219044Y-11855650D01*
X6219044Y-11855650D02*
X6219044Y-11874697D01*
X6219044Y-11874697D02*
X6209520Y-11903269D01*
X6209520Y-11903269D02*
X6095234Y-12017554D01*
X6095234Y-12017554D02*
X6219044Y-12017554D01*
X6457139Y-12017554D02*
X6457139Y-11817554D01*
X6542853Y-12017554D02*
X6542853Y-11912792D01*
X6542853Y-11912792D02*
X6533329Y-11893745D01*
X6533329Y-11893745D02*
X6514282Y-11884221D01*
X6514282Y-11884221D02*
X6485710Y-11884221D01*
X6485710Y-11884221D02*
X6466663Y-11893745D01*
X6466663Y-11893745D02*
X6457139Y-11903269D01*
X6666663Y-12017554D02*
X6647615Y-12008031D01*
X6647615Y-12008031D02*
X6638091Y-11998507D01*
X6638091Y-11998507D02*
X6628567Y-11979459D01*
X6628567Y-11979459D02*
X6628567Y-11922316D01*
X6628567Y-11922316D02*
X6638091Y-11903269D01*
X6638091Y-11903269D02*
X6647615Y-11893745D01*
X6647615Y-11893745D02*
X6666663Y-11884221D01*
X6666663Y-11884221D02*
X6695234Y-11884221D01*
X6695234Y-11884221D02*
X6714282Y-11893745D01*
X6714282Y-11893745D02*
X6723806Y-11903269D01*
X6723806Y-11903269D02*
X6733329Y-11922316D01*
X6733329Y-11922316D02*
X6733329Y-11979459D01*
X6733329Y-11979459D02*
X6723806Y-11998507D01*
X6723806Y-11998507D02*
X6714282Y-12008031D01*
X6714282Y-12008031D02*
X6695234Y-12017554D01*
X6695234Y-12017554D02*
X6666663Y-12017554D01*
X6847615Y-12017554D02*
X6828567Y-12008031D01*
X6828567Y-12008031D02*
X6819044Y-11988983D01*
X6819044Y-11988983D02*
X6819044Y-11817554D01*
X6999996Y-12008031D02*
X6980948Y-12017554D01*
X6980948Y-12017554D02*
X6942853Y-12017554D01*
X6942853Y-12017554D02*
X6923806Y-12008031D01*
X6923806Y-12008031D02*
X6914282Y-11988983D01*
X6914282Y-11988983D02*
X6914282Y-11912792D01*
X6914282Y-11912792D02*
X6923806Y-11893745D01*
X6923806Y-11893745D02*
X6942853Y-11884221D01*
X6942853Y-11884221D02*
X6980948Y-11884221D01*
X6980948Y-11884221D02*
X6999996Y-11893745D01*
X6999996Y-11893745D02*
X7009520Y-11912792D01*
X7009520Y-11912792D02*
X7009520Y-11931840D01*
X7009520Y-11931840D02*
X6914282Y-11950888D01*
X7085710Y-12008031D02*
X7104758Y-12017554D01*
X7104758Y-12017554D02*
X7142853Y-12017554D01*
X7142853Y-12017554D02*
X7161901Y-12008031D01*
X7161901Y-12008031D02*
X7171425Y-11988983D01*
X7171425Y-11988983D02*
X7171425Y-11979459D01*
X7171425Y-11979459D02*
X7161901Y-11960411D01*
X7161901Y-11960411D02*
X7142853Y-11950888D01*
X7142853Y-11950888D02*
X7114282Y-11950888D01*
X7114282Y-11950888D02*
X7095234Y-11941364D01*
X7095234Y-11941364D02*
X7085710Y-11922316D01*
X7085710Y-11922316D02*
X7085710Y-11912792D01*
X7085710Y-11912792D02*
X7095234Y-11893745D01*
X7095234Y-11893745D02*
X7114282Y-11884221D01*
X7114282Y-11884221D02*
X7142853Y-11884221D01*
X7142853Y-11884221D02*
X7161901Y-11893745D01*
X7238091Y-12093745D02*
X7247615Y-12084221D01*
X7247615Y-12084221D02*
X7266663Y-12055650D01*
X7266663Y-12055650D02*
X7276187Y-12036602D01*
X7276187Y-12036602D02*
X7285710Y-12008031D01*
X7285710Y-12008031D02*
X7295234Y-11960411D01*
X7295234Y-11960411D02*
X7295234Y-11922316D01*
X7295234Y-11922316D02*
X7285710Y-11874697D01*
X7285710Y-11874697D02*
X7276187Y-11846126D01*
X7276187Y-11846126D02*
X7266663Y-11827078D01*
X7266663Y-11827078D02*
X7247615Y-11798507D01*
X7247615Y-11798507D02*
X7238091Y-11788983D01*
D14*
X2407528Y-12245571D02*
X2463028Y-12190071D01*
X2407528Y-12134571D01*
X2352028Y-12190071D01*
X2407528Y-12245571D01*
D11*
X2828567Y-12281554D02*
X2714281Y-12281554D01*
X2771424Y-12281554D02*
X2771424Y-12081554D01*
X2771424Y-12081554D02*
X2752377Y-12110126D01*
X2752377Y-12110126D02*
X2733329Y-12129173D01*
X2733329Y-12129173D02*
X2714281Y-12138697D01*
X2914281Y-12262507D02*
X2923805Y-12272031D01*
X2923805Y-12272031D02*
X2914281Y-12281554D01*
X2914281Y-12281554D02*
X2904758Y-12272031D01*
X2904758Y-12272031D02*
X2914281Y-12262507D01*
X2914281Y-12262507D02*
X2914281Y-12281554D01*
X3114281Y-12281554D02*
X2999996Y-12281554D01*
X3057138Y-12281554D02*
X3057138Y-12081554D01*
X3057138Y-12081554D02*
X3038091Y-12110126D01*
X3038091Y-12110126D02*
X3019043Y-12129173D01*
X3019043Y-12129173D02*
X2999996Y-12138697D01*
X3304758Y-12281554D02*
X3190472Y-12281554D01*
X3247615Y-12281554D02*
X3247615Y-12081554D01*
X3247615Y-12081554D02*
X3228567Y-12110126D01*
X3228567Y-12110126D02*
X3209519Y-12129173D01*
X3209519Y-12129173D02*
X3190472Y-12138697D01*
X3428567Y-12081554D02*
X3447615Y-12081554D01*
X3447615Y-12081554D02*
X3466662Y-12091078D01*
X3466662Y-12091078D02*
X3476186Y-12100602D01*
X3476186Y-12100602D02*
X3485710Y-12119650D01*
X3485710Y-12119650D02*
X3495234Y-12157745D01*
X3495234Y-12157745D02*
X3495234Y-12205364D01*
X3495234Y-12205364D02*
X3485710Y-12243459D01*
X3485710Y-12243459D02*
X3476186Y-12262507D01*
X3476186Y-12262507D02*
X3466662Y-12272031D01*
X3466662Y-12272031D02*
X3447615Y-12281554D01*
X3447615Y-12281554D02*
X3428567Y-12281554D01*
X3428567Y-12281554D02*
X3409519Y-12272031D01*
X3409519Y-12272031D02*
X3399996Y-12262507D01*
X3399996Y-12262507D02*
X3390472Y-12243459D01*
X3390472Y-12243459D02*
X3380948Y-12205364D01*
X3380948Y-12205364D02*
X3380948Y-12157745D01*
X3380948Y-12157745D02*
X3390472Y-12119650D01*
X3390472Y-12119650D02*
X3399996Y-12100602D01*
X3399996Y-12100602D02*
X3409519Y-12091078D01*
X3409519Y-12091078D02*
X3428567Y-12081554D01*
X3580948Y-12281554D02*
X3580948Y-12148221D01*
X3580948Y-12167269D02*
X3590472Y-12157745D01*
X3590472Y-12157745D02*
X3609519Y-12148221D01*
X3609519Y-12148221D02*
X3638091Y-12148221D01*
X3638091Y-12148221D02*
X3657139Y-12157745D01*
X3657139Y-12157745D02*
X3666662Y-12176792D01*
X3666662Y-12176792D02*
X3666662Y-12281554D01*
X3666662Y-12176792D02*
X3676186Y-12157745D01*
X3676186Y-12157745D02*
X3695234Y-12148221D01*
X3695234Y-12148221D02*
X3723805Y-12148221D01*
X3723805Y-12148221D02*
X3742853Y-12157745D01*
X3742853Y-12157745D02*
X3752377Y-12176792D01*
X3752377Y-12176792D02*
X3752377Y-12281554D01*
X3847615Y-12281554D02*
X3847615Y-12148221D01*
X3847615Y-12167269D02*
X3857139Y-12157745D01*
X3857139Y-12157745D02*
X3876186Y-12148221D01*
X3876186Y-12148221D02*
X3904758Y-12148221D01*
X3904758Y-12148221D02*
X3923805Y-12157745D01*
X3923805Y-12157745D02*
X3933329Y-12176792D01*
X3933329Y-12176792D02*
X3933329Y-12281554D01*
X3933329Y-12176792D02*
X3942853Y-12157745D01*
X3942853Y-12157745D02*
X3961900Y-12148221D01*
X3961900Y-12148221D02*
X3990472Y-12148221D01*
X3990472Y-12148221D02*
X4009520Y-12157745D01*
X4009520Y-12157745D02*
X4019043Y-12176792D01*
X4019043Y-12176792D02*
X4019043Y-12281554D01*
X4409520Y-12072031D02*
X4238091Y-12329173D01*
X4666663Y-12081554D02*
X4685710Y-12081554D01*
X4685710Y-12081554D02*
X4704758Y-12091078D01*
X4704758Y-12091078D02*
X4714282Y-12100602D01*
X4714282Y-12100602D02*
X4723805Y-12119650D01*
X4723805Y-12119650D02*
X4733329Y-12157745D01*
X4733329Y-12157745D02*
X4733329Y-12205364D01*
X4733329Y-12205364D02*
X4723805Y-12243459D01*
X4723805Y-12243459D02*
X4714282Y-12262507D01*
X4714282Y-12262507D02*
X4704758Y-12272031D01*
X4704758Y-12272031D02*
X4685710Y-12281554D01*
X4685710Y-12281554D02*
X4666663Y-12281554D01*
X4666663Y-12281554D02*
X4647615Y-12272031D01*
X4647615Y-12272031D02*
X4638091Y-12262507D01*
X4638091Y-12262507D02*
X4628567Y-12243459D01*
X4628567Y-12243459D02*
X4619044Y-12205364D01*
X4619044Y-12205364D02*
X4619044Y-12157745D01*
X4619044Y-12157745D02*
X4628567Y-12119650D01*
X4628567Y-12119650D02*
X4638091Y-12100602D01*
X4638091Y-12100602D02*
X4647615Y-12091078D01*
X4647615Y-12091078D02*
X4666663Y-12081554D01*
X4819044Y-12262507D02*
X4828567Y-12272031D01*
X4828567Y-12272031D02*
X4819044Y-12281554D01*
X4819044Y-12281554D02*
X4809520Y-12272031D01*
X4809520Y-12272031D02*
X4819044Y-12262507D01*
X4819044Y-12262507D02*
X4819044Y-12281554D01*
X4952377Y-12081554D02*
X4971425Y-12081554D01*
X4971425Y-12081554D02*
X4990472Y-12091078D01*
X4990472Y-12091078D02*
X4999996Y-12100602D01*
X4999996Y-12100602D02*
X5009520Y-12119650D01*
X5009520Y-12119650D02*
X5019044Y-12157745D01*
X5019044Y-12157745D02*
X5019044Y-12205364D01*
X5019044Y-12205364D02*
X5009520Y-12243459D01*
X5009520Y-12243459D02*
X4999996Y-12262507D01*
X4999996Y-12262507D02*
X4990472Y-12272031D01*
X4990472Y-12272031D02*
X4971425Y-12281554D01*
X4971425Y-12281554D02*
X4952377Y-12281554D01*
X4952377Y-12281554D02*
X4933329Y-12272031D01*
X4933329Y-12272031D02*
X4923805Y-12262507D01*
X4923805Y-12262507D02*
X4914282Y-12243459D01*
X4914282Y-12243459D02*
X4904758Y-12205364D01*
X4904758Y-12205364D02*
X4904758Y-12157745D01*
X4904758Y-12157745D02*
X4914282Y-12119650D01*
X4914282Y-12119650D02*
X4923805Y-12100602D01*
X4923805Y-12100602D02*
X4933329Y-12091078D01*
X4933329Y-12091078D02*
X4952377Y-12081554D01*
X5190472Y-12148221D02*
X5190472Y-12281554D01*
X5142853Y-12072031D02*
X5095234Y-12214888D01*
X5095234Y-12214888D02*
X5219044Y-12214888D01*
X5276186Y-12081554D02*
X5399996Y-12081554D01*
X5399996Y-12081554D02*
X5333329Y-12157745D01*
X5333329Y-12157745D02*
X5361901Y-12157745D01*
X5361901Y-12157745D02*
X5380948Y-12167269D01*
X5380948Y-12167269D02*
X5390472Y-12176792D01*
X5390472Y-12176792D02*
X5399996Y-12195840D01*
X5399996Y-12195840D02*
X5399996Y-12243459D01*
X5399996Y-12243459D02*
X5390472Y-12262507D01*
X5390472Y-12262507D02*
X5380948Y-12272031D01*
X5380948Y-12272031D02*
X5361901Y-12281554D01*
X5361901Y-12281554D02*
X5304758Y-12281554D01*
X5304758Y-12281554D02*
X5285710Y-12272031D01*
X5285710Y-12272031D02*
X5276186Y-12262507D01*
X5466663Y-12081554D02*
X5599996Y-12081554D01*
X5599996Y-12081554D02*
X5514282Y-12281554D01*
X5666663Y-12081554D02*
X5666663Y-12119650D01*
X5742853Y-12081554D02*
X5742853Y-12119650D01*
X6038091Y-12357745D02*
X6028567Y-12348221D01*
X6028567Y-12348221D02*
X6009520Y-12319650D01*
X6009520Y-12319650D02*
X5999996Y-12300602D01*
X5999996Y-12300602D02*
X5990472Y-12272031D01*
X5990472Y-12272031D02*
X5980948Y-12224411D01*
X5980948Y-12224411D02*
X5980948Y-12186316D01*
X5980948Y-12186316D02*
X5990472Y-12138697D01*
X5990472Y-12138697D02*
X5999996Y-12110126D01*
X5999996Y-12110126D02*
X6009520Y-12091078D01*
X6009520Y-12091078D02*
X6028567Y-12062507D01*
X6028567Y-12062507D02*
X6038091Y-12052983D01*
X6199996Y-12148221D02*
X6199996Y-12281554D01*
X6152377Y-12072031D02*
X6104758Y-12214888D01*
X6104758Y-12214888D02*
X6228567Y-12214888D01*
X6333329Y-12167269D02*
X6314282Y-12157745D01*
X6314282Y-12157745D02*
X6304758Y-12148221D01*
X6304758Y-12148221D02*
X6295234Y-12129173D01*
X6295234Y-12129173D02*
X6295234Y-12119650D01*
X6295234Y-12119650D02*
X6304758Y-12100602D01*
X6304758Y-12100602D02*
X6314282Y-12091078D01*
X6314282Y-12091078D02*
X6333329Y-12081554D01*
X6333329Y-12081554D02*
X6371425Y-12081554D01*
X6371425Y-12081554D02*
X6390472Y-12091078D01*
X6390472Y-12091078D02*
X6399996Y-12100602D01*
X6399996Y-12100602D02*
X6409520Y-12119650D01*
X6409520Y-12119650D02*
X6409520Y-12129173D01*
X6409520Y-12129173D02*
X6399996Y-12148221D01*
X6399996Y-12148221D02*
X6390472Y-12157745D01*
X6390472Y-12157745D02*
X6371425Y-12167269D01*
X6371425Y-12167269D02*
X6333329Y-12167269D01*
X6333329Y-12167269D02*
X6314282Y-12176792D01*
X6314282Y-12176792D02*
X6304758Y-12186316D01*
X6304758Y-12186316D02*
X6295234Y-12205364D01*
X6295234Y-12205364D02*
X6295234Y-12243459D01*
X6295234Y-12243459D02*
X6304758Y-12262507D01*
X6304758Y-12262507D02*
X6314282Y-12272031D01*
X6314282Y-12272031D02*
X6333329Y-12281554D01*
X6333329Y-12281554D02*
X6371425Y-12281554D01*
X6371425Y-12281554D02*
X6390472Y-12272031D01*
X6390472Y-12272031D02*
X6399996Y-12262507D01*
X6399996Y-12262507D02*
X6409520Y-12243459D01*
X6409520Y-12243459D02*
X6409520Y-12205364D01*
X6409520Y-12205364D02*
X6399996Y-12186316D01*
X6399996Y-12186316D02*
X6390472Y-12176792D01*
X6390472Y-12176792D02*
X6371425Y-12167269D01*
X6647615Y-12281554D02*
X6647615Y-12081554D01*
X6733329Y-12281554D02*
X6733329Y-12176792D01*
X6733329Y-12176792D02*
X6723806Y-12157745D01*
X6723806Y-12157745D02*
X6704758Y-12148221D01*
X6704758Y-12148221D02*
X6676186Y-12148221D01*
X6676186Y-12148221D02*
X6657139Y-12157745D01*
X6657139Y-12157745D02*
X6647615Y-12167269D01*
X6857139Y-12281554D02*
X6838091Y-12272031D01*
X6838091Y-12272031D02*
X6828567Y-12262507D01*
X6828567Y-12262507D02*
X6819044Y-12243459D01*
X6819044Y-12243459D02*
X6819044Y-12186316D01*
X6819044Y-12186316D02*
X6828567Y-12167269D01*
X6828567Y-12167269D02*
X6838091Y-12157745D01*
X6838091Y-12157745D02*
X6857139Y-12148221D01*
X6857139Y-12148221D02*
X6885710Y-12148221D01*
X6885710Y-12148221D02*
X6904758Y-12157745D01*
X6904758Y-12157745D02*
X6914282Y-12167269D01*
X6914282Y-12167269D02*
X6923806Y-12186316D01*
X6923806Y-12186316D02*
X6923806Y-12243459D01*
X6923806Y-12243459D02*
X6914282Y-12262507D01*
X6914282Y-12262507D02*
X6904758Y-12272031D01*
X6904758Y-12272031D02*
X6885710Y-12281554D01*
X6885710Y-12281554D02*
X6857139Y-12281554D01*
X7038091Y-12281554D02*
X7019044Y-12272031D01*
X7019044Y-12272031D02*
X7009520Y-12252983D01*
X7009520Y-12252983D02*
X7009520Y-12081554D01*
X7190472Y-12272031D02*
X7171425Y-12281554D01*
X7171425Y-12281554D02*
X7133329Y-12281554D01*
X7133329Y-12281554D02*
X7114282Y-12272031D01*
X7114282Y-12272031D02*
X7104758Y-12252983D01*
X7104758Y-12252983D02*
X7104758Y-12176792D01*
X7104758Y-12176792D02*
X7114282Y-12157745D01*
X7114282Y-12157745D02*
X7133329Y-12148221D01*
X7133329Y-12148221D02*
X7171425Y-12148221D01*
X7171425Y-12148221D02*
X7190472Y-12157745D01*
X7190472Y-12157745D02*
X7199996Y-12176792D01*
X7199996Y-12176792D02*
X7199996Y-12195840D01*
X7199996Y-12195840D02*
X7104758Y-12214888D01*
X7276187Y-12272031D02*
X7295234Y-12281554D01*
X7295234Y-12281554D02*
X7333329Y-12281554D01*
X7333329Y-12281554D02*
X7352377Y-12272031D01*
X7352377Y-12272031D02*
X7361901Y-12252983D01*
X7361901Y-12252983D02*
X7361901Y-12243459D01*
X7361901Y-12243459D02*
X7352377Y-12224411D01*
X7352377Y-12224411D02*
X7333329Y-12214888D01*
X7333329Y-12214888D02*
X7304758Y-12214888D01*
X7304758Y-12214888D02*
X7285710Y-12205364D01*
X7285710Y-12205364D02*
X7276187Y-12186316D01*
X7276187Y-12186316D02*
X7276187Y-12176792D01*
X7276187Y-12176792D02*
X7285710Y-12157745D01*
X7285710Y-12157745D02*
X7304758Y-12148221D01*
X7304758Y-12148221D02*
X7333329Y-12148221D01*
X7333329Y-12148221D02*
X7352377Y-12157745D01*
X7428568Y-12357745D02*
X7438091Y-12348221D01*
X7438091Y-12348221D02*
X7457139Y-12319650D01*
X7457139Y-12319650D02*
X7466663Y-12300602D01*
X7466663Y-12300602D02*
X7476187Y-12272031D01*
X7476187Y-12272031D02*
X7485710Y-12224411D01*
X7485710Y-12224411D02*
X7485710Y-12186316D01*
X7485710Y-12186316D02*
X7476187Y-12138697D01*
X7476187Y-12138697D02*
X7466663Y-12110126D01*
X7466663Y-12110126D02*
X7457139Y-12091078D01*
X7457139Y-12091078D02*
X7438091Y-12062507D01*
X7438091Y-12062507D02*
X7428568Y-12052983D01*
D15*
X2346028Y-12395571D02*
X2463028Y-12512571D01*
X2463028Y-12395571D02*
X2346028Y-12512571D01*
X2463028Y-12454071D02*
G75*
G03*
X2463028Y-12454071I-58500J0D01*
G01*
D11*
X2828567Y-12545554D02*
X2714281Y-12545554D01*
X2771424Y-12545554D02*
X2771424Y-12345554D01*
X2771424Y-12345554D02*
X2752377Y-12374126D01*
X2752377Y-12374126D02*
X2733329Y-12393173D01*
X2733329Y-12393173D02*
X2714281Y-12402697D01*
X2914281Y-12526507D02*
X2923805Y-12536031D01*
X2923805Y-12536031D02*
X2914281Y-12545554D01*
X2914281Y-12545554D02*
X2904758Y-12536031D01*
X2904758Y-12536031D02*
X2914281Y-12526507D01*
X2914281Y-12526507D02*
X2914281Y-12545554D01*
X3114281Y-12545554D02*
X2999996Y-12545554D01*
X3057138Y-12545554D02*
X3057138Y-12345554D01*
X3057138Y-12345554D02*
X3038091Y-12374126D01*
X3038091Y-12374126D02*
X3019043Y-12393173D01*
X3019043Y-12393173D02*
X2999996Y-12402697D01*
X3180948Y-12345554D02*
X3314281Y-12345554D01*
X3314281Y-12345554D02*
X3228567Y-12545554D01*
X3428567Y-12345554D02*
X3447615Y-12345554D01*
X3447615Y-12345554D02*
X3466662Y-12355078D01*
X3466662Y-12355078D02*
X3476186Y-12364602D01*
X3476186Y-12364602D02*
X3485710Y-12383650D01*
X3485710Y-12383650D02*
X3495234Y-12421745D01*
X3495234Y-12421745D02*
X3495234Y-12469364D01*
X3495234Y-12469364D02*
X3485710Y-12507459D01*
X3485710Y-12507459D02*
X3476186Y-12526507D01*
X3476186Y-12526507D02*
X3466662Y-12536031D01*
X3466662Y-12536031D02*
X3447615Y-12545554D01*
X3447615Y-12545554D02*
X3428567Y-12545554D01*
X3428567Y-12545554D02*
X3409519Y-12536031D01*
X3409519Y-12536031D02*
X3399996Y-12526507D01*
X3399996Y-12526507D02*
X3390472Y-12507459D01*
X3390472Y-12507459D02*
X3380948Y-12469364D01*
X3380948Y-12469364D02*
X3380948Y-12421745D01*
X3380948Y-12421745D02*
X3390472Y-12383650D01*
X3390472Y-12383650D02*
X3399996Y-12364602D01*
X3399996Y-12364602D02*
X3409519Y-12355078D01*
X3409519Y-12355078D02*
X3428567Y-12345554D01*
X3580948Y-12545554D02*
X3580948Y-12412221D01*
X3580948Y-12431269D02*
X3590472Y-12421745D01*
X3590472Y-12421745D02*
X3609519Y-12412221D01*
X3609519Y-12412221D02*
X3638091Y-12412221D01*
X3638091Y-12412221D02*
X3657139Y-12421745D01*
X3657139Y-12421745D02*
X3666662Y-12440792D01*
X3666662Y-12440792D02*
X3666662Y-12545554D01*
X3666662Y-12440792D02*
X3676186Y-12421745D01*
X3676186Y-12421745D02*
X3695234Y-12412221D01*
X3695234Y-12412221D02*
X3723805Y-12412221D01*
X3723805Y-12412221D02*
X3742853Y-12421745D01*
X3742853Y-12421745D02*
X3752377Y-12440792D01*
X3752377Y-12440792D02*
X3752377Y-12545554D01*
X3847615Y-12545554D02*
X3847615Y-12412221D01*
X3847615Y-12431269D02*
X3857139Y-12421745D01*
X3857139Y-12421745D02*
X3876186Y-12412221D01*
X3876186Y-12412221D02*
X3904758Y-12412221D01*
X3904758Y-12412221D02*
X3923805Y-12421745D01*
X3923805Y-12421745D02*
X3933329Y-12440792D01*
X3933329Y-12440792D02*
X3933329Y-12545554D01*
X3933329Y-12440792D02*
X3942853Y-12421745D01*
X3942853Y-12421745D02*
X3961900Y-12412221D01*
X3961900Y-12412221D02*
X3990472Y-12412221D01*
X3990472Y-12412221D02*
X4009520Y-12421745D01*
X4009520Y-12421745D02*
X4019043Y-12440792D01*
X4019043Y-12440792D02*
X4019043Y-12545554D01*
X4409520Y-12336031D02*
X4238091Y-12593173D01*
X4666663Y-12345554D02*
X4685710Y-12345554D01*
X4685710Y-12345554D02*
X4704758Y-12355078D01*
X4704758Y-12355078D02*
X4714282Y-12364602D01*
X4714282Y-12364602D02*
X4723805Y-12383650D01*
X4723805Y-12383650D02*
X4733329Y-12421745D01*
X4733329Y-12421745D02*
X4733329Y-12469364D01*
X4733329Y-12469364D02*
X4723805Y-12507459D01*
X4723805Y-12507459D02*
X4714282Y-12526507D01*
X4714282Y-12526507D02*
X4704758Y-12536031D01*
X4704758Y-12536031D02*
X4685710Y-12545554D01*
X4685710Y-12545554D02*
X4666663Y-12545554D01*
X4666663Y-12545554D02*
X4647615Y-12536031D01*
X4647615Y-12536031D02*
X4638091Y-12526507D01*
X4638091Y-12526507D02*
X4628567Y-12507459D01*
X4628567Y-12507459D02*
X4619044Y-12469364D01*
X4619044Y-12469364D02*
X4619044Y-12421745D01*
X4619044Y-12421745D02*
X4628567Y-12383650D01*
X4628567Y-12383650D02*
X4638091Y-12364602D01*
X4638091Y-12364602D02*
X4647615Y-12355078D01*
X4647615Y-12355078D02*
X4666663Y-12345554D01*
X4819044Y-12526507D02*
X4828567Y-12536031D01*
X4828567Y-12536031D02*
X4819044Y-12545554D01*
X4819044Y-12545554D02*
X4809520Y-12536031D01*
X4809520Y-12536031D02*
X4819044Y-12526507D01*
X4819044Y-12526507D02*
X4819044Y-12545554D01*
X4952377Y-12345554D02*
X4971425Y-12345554D01*
X4971425Y-12345554D02*
X4990472Y-12355078D01*
X4990472Y-12355078D02*
X4999996Y-12364602D01*
X4999996Y-12364602D02*
X5009520Y-12383650D01*
X5009520Y-12383650D02*
X5019044Y-12421745D01*
X5019044Y-12421745D02*
X5019044Y-12469364D01*
X5019044Y-12469364D02*
X5009520Y-12507459D01*
X5009520Y-12507459D02*
X4999996Y-12526507D01*
X4999996Y-12526507D02*
X4990472Y-12536031D01*
X4990472Y-12536031D02*
X4971425Y-12545554D01*
X4971425Y-12545554D02*
X4952377Y-12545554D01*
X4952377Y-12545554D02*
X4933329Y-12536031D01*
X4933329Y-12536031D02*
X4923805Y-12526507D01*
X4923805Y-12526507D02*
X4914282Y-12507459D01*
X4914282Y-12507459D02*
X4904758Y-12469364D01*
X4904758Y-12469364D02*
X4904758Y-12421745D01*
X4904758Y-12421745D02*
X4914282Y-12383650D01*
X4914282Y-12383650D02*
X4923805Y-12364602D01*
X4923805Y-12364602D02*
X4933329Y-12355078D01*
X4933329Y-12355078D02*
X4952377Y-12345554D01*
X5190472Y-12412221D02*
X5190472Y-12545554D01*
X5142853Y-12336031D02*
X5095234Y-12478888D01*
X5095234Y-12478888D02*
X5219044Y-12478888D01*
X5380948Y-12345554D02*
X5342853Y-12345554D01*
X5342853Y-12345554D02*
X5323805Y-12355078D01*
X5323805Y-12355078D02*
X5314282Y-12364602D01*
X5314282Y-12364602D02*
X5295234Y-12393173D01*
X5295234Y-12393173D02*
X5285710Y-12431269D01*
X5285710Y-12431269D02*
X5285710Y-12507459D01*
X5285710Y-12507459D02*
X5295234Y-12526507D01*
X5295234Y-12526507D02*
X5304758Y-12536031D01*
X5304758Y-12536031D02*
X5323805Y-12545554D01*
X5323805Y-12545554D02*
X5361901Y-12545554D01*
X5361901Y-12545554D02*
X5380948Y-12536031D01*
X5380948Y-12536031D02*
X5390472Y-12526507D01*
X5390472Y-12526507D02*
X5399996Y-12507459D01*
X5399996Y-12507459D02*
X5399996Y-12459840D01*
X5399996Y-12459840D02*
X5390472Y-12440792D01*
X5390472Y-12440792D02*
X5380948Y-12431269D01*
X5380948Y-12431269D02*
X5361901Y-12421745D01*
X5361901Y-12421745D02*
X5323805Y-12421745D01*
X5323805Y-12421745D02*
X5304758Y-12431269D01*
X5304758Y-12431269D02*
X5295234Y-12440792D01*
X5295234Y-12440792D02*
X5285710Y-12459840D01*
X5590472Y-12545554D02*
X5476186Y-12545554D01*
X5533329Y-12545554D02*
X5533329Y-12345554D01*
X5533329Y-12345554D02*
X5514282Y-12374126D01*
X5514282Y-12374126D02*
X5495234Y-12393173D01*
X5495234Y-12393173D02*
X5476186Y-12402697D01*
X5666663Y-12345554D02*
X5666663Y-12383650D01*
X5742853Y-12345554D02*
X5742853Y-12383650D01*
X6038091Y-12621745D02*
X6028567Y-12612221D01*
X6028567Y-12612221D02*
X6009520Y-12583650D01*
X6009520Y-12583650D02*
X5999996Y-12564602D01*
X5999996Y-12564602D02*
X5990472Y-12536031D01*
X5990472Y-12536031D02*
X5980948Y-12488411D01*
X5980948Y-12488411D02*
X5980948Y-12450316D01*
X5980948Y-12450316D02*
X5990472Y-12402697D01*
X5990472Y-12402697D02*
X5999996Y-12374126D01*
X5999996Y-12374126D02*
X6009520Y-12355078D01*
X6009520Y-12355078D02*
X6028567Y-12326507D01*
X6028567Y-12326507D02*
X6038091Y-12316983D01*
X6219044Y-12545554D02*
X6104758Y-12545554D01*
X6161901Y-12545554D02*
X6161901Y-12345554D01*
X6161901Y-12345554D02*
X6142853Y-12374126D01*
X6142853Y-12374126D02*
X6123805Y-12393173D01*
X6123805Y-12393173D02*
X6104758Y-12402697D01*
X6295234Y-12364602D02*
X6304758Y-12355078D01*
X6304758Y-12355078D02*
X6323805Y-12345554D01*
X6323805Y-12345554D02*
X6371425Y-12345554D01*
X6371425Y-12345554D02*
X6390472Y-12355078D01*
X6390472Y-12355078D02*
X6399996Y-12364602D01*
X6399996Y-12364602D02*
X6409520Y-12383650D01*
X6409520Y-12383650D02*
X6409520Y-12402697D01*
X6409520Y-12402697D02*
X6399996Y-12431269D01*
X6399996Y-12431269D02*
X6285710Y-12545554D01*
X6285710Y-12545554D02*
X6409520Y-12545554D01*
X6647615Y-12545554D02*
X6647615Y-12345554D01*
X6733329Y-12545554D02*
X6733329Y-12440792D01*
X6733329Y-12440792D02*
X6723806Y-12421745D01*
X6723806Y-12421745D02*
X6704758Y-12412221D01*
X6704758Y-12412221D02*
X6676186Y-12412221D01*
X6676186Y-12412221D02*
X6657139Y-12421745D01*
X6657139Y-12421745D02*
X6647615Y-12431269D01*
X6857139Y-12545554D02*
X6838091Y-12536031D01*
X6838091Y-12536031D02*
X6828567Y-12526507D01*
X6828567Y-12526507D02*
X6819044Y-12507459D01*
X6819044Y-12507459D02*
X6819044Y-12450316D01*
X6819044Y-12450316D02*
X6828567Y-12431269D01*
X6828567Y-12431269D02*
X6838091Y-12421745D01*
X6838091Y-12421745D02*
X6857139Y-12412221D01*
X6857139Y-12412221D02*
X6885710Y-12412221D01*
X6885710Y-12412221D02*
X6904758Y-12421745D01*
X6904758Y-12421745D02*
X6914282Y-12431269D01*
X6914282Y-12431269D02*
X6923806Y-12450316D01*
X6923806Y-12450316D02*
X6923806Y-12507459D01*
X6923806Y-12507459D02*
X6914282Y-12526507D01*
X6914282Y-12526507D02*
X6904758Y-12536031D01*
X6904758Y-12536031D02*
X6885710Y-12545554D01*
X6885710Y-12545554D02*
X6857139Y-12545554D01*
X7038091Y-12545554D02*
X7019044Y-12536031D01*
X7019044Y-12536031D02*
X7009520Y-12516983D01*
X7009520Y-12516983D02*
X7009520Y-12345554D01*
X7190472Y-12536031D02*
X7171425Y-12545554D01*
X7171425Y-12545554D02*
X7133329Y-12545554D01*
X7133329Y-12545554D02*
X7114282Y-12536031D01*
X7114282Y-12536031D02*
X7104758Y-12516983D01*
X7104758Y-12516983D02*
X7104758Y-12440792D01*
X7104758Y-12440792D02*
X7114282Y-12421745D01*
X7114282Y-12421745D02*
X7133329Y-12412221D01*
X7133329Y-12412221D02*
X7171425Y-12412221D01*
X7171425Y-12412221D02*
X7190472Y-12421745D01*
X7190472Y-12421745D02*
X7199996Y-12440792D01*
X7199996Y-12440792D02*
X7199996Y-12459840D01*
X7199996Y-12459840D02*
X7104758Y-12478888D01*
X7276187Y-12536031D02*
X7295234Y-12545554D01*
X7295234Y-12545554D02*
X7333329Y-12545554D01*
X7333329Y-12545554D02*
X7352377Y-12536031D01*
X7352377Y-12536031D02*
X7361901Y-12516983D01*
X7361901Y-12516983D02*
X7361901Y-12507459D01*
X7361901Y-12507459D02*
X7352377Y-12488411D01*
X7352377Y-12488411D02*
X7333329Y-12478888D01*
X7333329Y-12478888D02*
X7304758Y-12478888D01*
X7304758Y-12478888D02*
X7285710Y-12469364D01*
X7285710Y-12469364D02*
X7276187Y-12450316D01*
X7276187Y-12450316D02*
X7276187Y-12440792D01*
X7276187Y-12440792D02*
X7285710Y-12421745D01*
X7285710Y-12421745D02*
X7304758Y-12412221D01*
X7304758Y-12412221D02*
X7333329Y-12412221D01*
X7333329Y-12412221D02*
X7352377Y-12421745D01*
X7428568Y-12621745D02*
X7438091Y-12612221D01*
X7438091Y-12612221D02*
X7457139Y-12583650D01*
X7457139Y-12583650D02*
X7466663Y-12564602D01*
X7466663Y-12564602D02*
X7476187Y-12536031D01*
X7476187Y-12536031D02*
X7485710Y-12488411D01*
X7485710Y-12488411D02*
X7485710Y-12450316D01*
X7485710Y-12450316D02*
X7476187Y-12402697D01*
X7476187Y-12402697D02*
X7466663Y-12374126D01*
X7466663Y-12374126D02*
X7457139Y-12355078D01*
X7457139Y-12355078D02*
X7438091Y-12326507D01*
X7438091Y-12326507D02*
X7428568Y-12316983D01*
D16*
X2288028Y-12630571D02*
X2463028Y-12805571D01*
X2463028Y-12630571D02*
X2288028Y-12805571D01*
X2375528Y-12630571D02*
X2375528Y-12805571D01*
X2288028Y-12718071D02*
X2463028Y-12718071D01*
D11*
X2828567Y-12809554D02*
X2714281Y-12809554D01*
X2771424Y-12809554D02*
X2771424Y-12609554D01*
X2771424Y-12609554D02*
X2752377Y-12638126D01*
X2752377Y-12638126D02*
X2733329Y-12657173D01*
X2733329Y-12657173D02*
X2714281Y-12666697D01*
X2914281Y-12790507D02*
X2923805Y-12800031D01*
X2923805Y-12800031D02*
X2914281Y-12809554D01*
X2914281Y-12809554D02*
X2904758Y-12800031D01*
X2904758Y-12800031D02*
X2914281Y-12790507D01*
X2914281Y-12790507D02*
X2914281Y-12809554D01*
X2990472Y-12609554D02*
X3123805Y-12609554D01*
X3123805Y-12609554D02*
X3038091Y-12809554D01*
X3295234Y-12609554D02*
X3199996Y-12609554D01*
X3199996Y-12609554D02*
X3190472Y-12704792D01*
X3190472Y-12704792D02*
X3199996Y-12695269D01*
X3199996Y-12695269D02*
X3219043Y-12685745D01*
X3219043Y-12685745D02*
X3266662Y-12685745D01*
X3266662Y-12685745D02*
X3285710Y-12695269D01*
X3285710Y-12695269D02*
X3295234Y-12704792D01*
X3295234Y-12704792D02*
X3304758Y-12723840D01*
X3304758Y-12723840D02*
X3304758Y-12771459D01*
X3304758Y-12771459D02*
X3295234Y-12790507D01*
X3295234Y-12790507D02*
X3285710Y-12800031D01*
X3285710Y-12800031D02*
X3266662Y-12809554D01*
X3266662Y-12809554D02*
X3219043Y-12809554D01*
X3219043Y-12809554D02*
X3199996Y-12800031D01*
X3199996Y-12800031D02*
X3190472Y-12790507D01*
X3428567Y-12609554D02*
X3447615Y-12609554D01*
X3447615Y-12609554D02*
X3466662Y-12619078D01*
X3466662Y-12619078D02*
X3476186Y-12628602D01*
X3476186Y-12628602D02*
X3485710Y-12647650D01*
X3485710Y-12647650D02*
X3495234Y-12685745D01*
X3495234Y-12685745D02*
X3495234Y-12733364D01*
X3495234Y-12733364D02*
X3485710Y-12771459D01*
X3485710Y-12771459D02*
X3476186Y-12790507D01*
X3476186Y-12790507D02*
X3466662Y-12800031D01*
X3466662Y-12800031D02*
X3447615Y-12809554D01*
X3447615Y-12809554D02*
X3428567Y-12809554D01*
X3428567Y-12809554D02*
X3409519Y-12800031D01*
X3409519Y-12800031D02*
X3399996Y-12790507D01*
X3399996Y-12790507D02*
X3390472Y-12771459D01*
X3390472Y-12771459D02*
X3380948Y-12733364D01*
X3380948Y-12733364D02*
X3380948Y-12685745D01*
X3380948Y-12685745D02*
X3390472Y-12647650D01*
X3390472Y-12647650D02*
X3399996Y-12628602D01*
X3399996Y-12628602D02*
X3409519Y-12619078D01*
X3409519Y-12619078D02*
X3428567Y-12609554D01*
X3580948Y-12809554D02*
X3580948Y-12676221D01*
X3580948Y-12695269D02*
X3590472Y-12685745D01*
X3590472Y-12685745D02*
X3609519Y-12676221D01*
X3609519Y-12676221D02*
X3638091Y-12676221D01*
X3638091Y-12676221D02*
X3657139Y-12685745D01*
X3657139Y-12685745D02*
X3666662Y-12704792D01*
X3666662Y-12704792D02*
X3666662Y-12809554D01*
X3666662Y-12704792D02*
X3676186Y-12685745D01*
X3676186Y-12685745D02*
X3695234Y-12676221D01*
X3695234Y-12676221D02*
X3723805Y-12676221D01*
X3723805Y-12676221D02*
X3742853Y-12685745D01*
X3742853Y-12685745D02*
X3752377Y-12704792D01*
X3752377Y-12704792D02*
X3752377Y-12809554D01*
X3847615Y-12809554D02*
X3847615Y-12676221D01*
X3847615Y-12695269D02*
X3857139Y-12685745D01*
X3857139Y-12685745D02*
X3876186Y-12676221D01*
X3876186Y-12676221D02*
X3904758Y-12676221D01*
X3904758Y-12676221D02*
X3923805Y-12685745D01*
X3923805Y-12685745D02*
X3933329Y-12704792D01*
X3933329Y-12704792D02*
X3933329Y-12809554D01*
X3933329Y-12704792D02*
X3942853Y-12685745D01*
X3942853Y-12685745D02*
X3961900Y-12676221D01*
X3961900Y-12676221D02*
X3990472Y-12676221D01*
X3990472Y-12676221D02*
X4009520Y-12685745D01*
X4009520Y-12685745D02*
X4019043Y-12704792D01*
X4019043Y-12704792D02*
X4019043Y-12809554D01*
X4409520Y-12600031D02*
X4238091Y-12857173D01*
X4666663Y-12609554D02*
X4685710Y-12609554D01*
X4685710Y-12609554D02*
X4704758Y-12619078D01*
X4704758Y-12619078D02*
X4714282Y-12628602D01*
X4714282Y-12628602D02*
X4723805Y-12647650D01*
X4723805Y-12647650D02*
X4733329Y-12685745D01*
X4733329Y-12685745D02*
X4733329Y-12733364D01*
X4733329Y-12733364D02*
X4723805Y-12771459D01*
X4723805Y-12771459D02*
X4714282Y-12790507D01*
X4714282Y-12790507D02*
X4704758Y-12800031D01*
X4704758Y-12800031D02*
X4685710Y-12809554D01*
X4685710Y-12809554D02*
X4666663Y-12809554D01*
X4666663Y-12809554D02*
X4647615Y-12800031D01*
X4647615Y-12800031D02*
X4638091Y-12790507D01*
X4638091Y-12790507D02*
X4628567Y-12771459D01*
X4628567Y-12771459D02*
X4619044Y-12733364D01*
X4619044Y-12733364D02*
X4619044Y-12685745D01*
X4619044Y-12685745D02*
X4628567Y-12647650D01*
X4628567Y-12647650D02*
X4638091Y-12628602D01*
X4638091Y-12628602D02*
X4647615Y-12619078D01*
X4647615Y-12619078D02*
X4666663Y-12609554D01*
X4819044Y-12790507D02*
X4828567Y-12800031D01*
X4828567Y-12800031D02*
X4819044Y-12809554D01*
X4819044Y-12809554D02*
X4809520Y-12800031D01*
X4809520Y-12800031D02*
X4819044Y-12790507D01*
X4819044Y-12790507D02*
X4819044Y-12809554D01*
X4952377Y-12609554D02*
X4971425Y-12609554D01*
X4971425Y-12609554D02*
X4990472Y-12619078D01*
X4990472Y-12619078D02*
X4999996Y-12628602D01*
X4999996Y-12628602D02*
X5009520Y-12647650D01*
X5009520Y-12647650D02*
X5019044Y-12685745D01*
X5019044Y-12685745D02*
X5019044Y-12733364D01*
X5019044Y-12733364D02*
X5009520Y-12771459D01*
X5009520Y-12771459D02*
X4999996Y-12790507D01*
X4999996Y-12790507D02*
X4990472Y-12800031D01*
X4990472Y-12800031D02*
X4971425Y-12809554D01*
X4971425Y-12809554D02*
X4952377Y-12809554D01*
X4952377Y-12809554D02*
X4933329Y-12800031D01*
X4933329Y-12800031D02*
X4923805Y-12790507D01*
X4923805Y-12790507D02*
X4914282Y-12771459D01*
X4914282Y-12771459D02*
X4904758Y-12733364D01*
X4904758Y-12733364D02*
X4904758Y-12685745D01*
X4904758Y-12685745D02*
X4914282Y-12647650D01*
X4914282Y-12647650D02*
X4923805Y-12628602D01*
X4923805Y-12628602D02*
X4933329Y-12619078D01*
X4933329Y-12619078D02*
X4952377Y-12609554D01*
X5190472Y-12609554D02*
X5152377Y-12609554D01*
X5152377Y-12609554D02*
X5133329Y-12619078D01*
X5133329Y-12619078D02*
X5123805Y-12628602D01*
X5123805Y-12628602D02*
X5104758Y-12657173D01*
X5104758Y-12657173D02*
X5095234Y-12695269D01*
X5095234Y-12695269D02*
X5095234Y-12771459D01*
X5095234Y-12771459D02*
X5104758Y-12790507D01*
X5104758Y-12790507D02*
X5114282Y-12800031D01*
X5114282Y-12800031D02*
X5133329Y-12809554D01*
X5133329Y-12809554D02*
X5171425Y-12809554D01*
X5171425Y-12809554D02*
X5190472Y-12800031D01*
X5190472Y-12800031D02*
X5199996Y-12790507D01*
X5199996Y-12790507D02*
X5209520Y-12771459D01*
X5209520Y-12771459D02*
X5209520Y-12723840D01*
X5209520Y-12723840D02*
X5199996Y-12704792D01*
X5199996Y-12704792D02*
X5190472Y-12695269D01*
X5190472Y-12695269D02*
X5171425Y-12685745D01*
X5171425Y-12685745D02*
X5133329Y-12685745D01*
X5133329Y-12685745D02*
X5114282Y-12695269D01*
X5114282Y-12695269D02*
X5104758Y-12704792D01*
X5104758Y-12704792D02*
X5095234Y-12723840D01*
X5323805Y-12695269D02*
X5304758Y-12685745D01*
X5304758Y-12685745D02*
X5295234Y-12676221D01*
X5295234Y-12676221D02*
X5285710Y-12657173D01*
X5285710Y-12657173D02*
X5285710Y-12647650D01*
X5285710Y-12647650D02*
X5295234Y-12628602D01*
X5295234Y-12628602D02*
X5304758Y-12619078D01*
X5304758Y-12619078D02*
X5323805Y-12609554D01*
X5323805Y-12609554D02*
X5361901Y-12609554D01*
X5361901Y-12609554D02*
X5380948Y-12619078D01*
X5380948Y-12619078D02*
X5390472Y-12628602D01*
X5390472Y-12628602D02*
X5399996Y-12647650D01*
X5399996Y-12647650D02*
X5399996Y-12657173D01*
X5399996Y-12657173D02*
X5390472Y-12676221D01*
X5390472Y-12676221D02*
X5380948Y-12685745D01*
X5380948Y-12685745D02*
X5361901Y-12695269D01*
X5361901Y-12695269D02*
X5323805Y-12695269D01*
X5323805Y-12695269D02*
X5304758Y-12704792D01*
X5304758Y-12704792D02*
X5295234Y-12714316D01*
X5295234Y-12714316D02*
X5285710Y-12733364D01*
X5285710Y-12733364D02*
X5285710Y-12771459D01*
X5285710Y-12771459D02*
X5295234Y-12790507D01*
X5295234Y-12790507D02*
X5304758Y-12800031D01*
X5304758Y-12800031D02*
X5323805Y-12809554D01*
X5323805Y-12809554D02*
X5361901Y-12809554D01*
X5361901Y-12809554D02*
X5380948Y-12800031D01*
X5380948Y-12800031D02*
X5390472Y-12790507D01*
X5390472Y-12790507D02*
X5399996Y-12771459D01*
X5399996Y-12771459D02*
X5399996Y-12733364D01*
X5399996Y-12733364D02*
X5390472Y-12714316D01*
X5390472Y-12714316D02*
X5380948Y-12704792D01*
X5380948Y-12704792D02*
X5361901Y-12695269D01*
X5495234Y-12809554D02*
X5533329Y-12809554D01*
X5533329Y-12809554D02*
X5552377Y-12800031D01*
X5552377Y-12800031D02*
X5561901Y-12790507D01*
X5561901Y-12790507D02*
X5580948Y-12761935D01*
X5580948Y-12761935D02*
X5590472Y-12723840D01*
X5590472Y-12723840D02*
X5590472Y-12647650D01*
X5590472Y-12647650D02*
X5580948Y-12628602D01*
X5580948Y-12628602D02*
X5571425Y-12619078D01*
X5571425Y-12619078D02*
X5552377Y-12609554D01*
X5552377Y-12609554D02*
X5514282Y-12609554D01*
X5514282Y-12609554D02*
X5495234Y-12619078D01*
X5495234Y-12619078D02*
X5485710Y-12628602D01*
X5485710Y-12628602D02*
X5476186Y-12647650D01*
X5476186Y-12647650D02*
X5476186Y-12695269D01*
X5476186Y-12695269D02*
X5485710Y-12714316D01*
X5485710Y-12714316D02*
X5495234Y-12723840D01*
X5495234Y-12723840D02*
X5514282Y-12733364D01*
X5514282Y-12733364D02*
X5552377Y-12733364D01*
X5552377Y-12733364D02*
X5571425Y-12723840D01*
X5571425Y-12723840D02*
X5580948Y-12714316D01*
X5580948Y-12714316D02*
X5590472Y-12695269D01*
X5666663Y-12609554D02*
X5666663Y-12647650D01*
X5742853Y-12609554D02*
X5742853Y-12647650D01*
X6038091Y-12885745D02*
X6028567Y-12876221D01*
X6028567Y-12876221D02*
X6009520Y-12847650D01*
X6009520Y-12847650D02*
X5999996Y-12828602D01*
X5999996Y-12828602D02*
X5990472Y-12800031D01*
X5990472Y-12800031D02*
X5980948Y-12752411D01*
X5980948Y-12752411D02*
X5980948Y-12714316D01*
X5980948Y-12714316D02*
X5990472Y-12666697D01*
X5990472Y-12666697D02*
X5999996Y-12638126D01*
X5999996Y-12638126D02*
X6009520Y-12619078D01*
X6009520Y-12619078D02*
X6028567Y-12590507D01*
X6028567Y-12590507D02*
X6038091Y-12580983D01*
X6152377Y-12609554D02*
X6171425Y-12609554D01*
X6171425Y-12609554D02*
X6190472Y-12619078D01*
X6190472Y-12619078D02*
X6199996Y-12628602D01*
X6199996Y-12628602D02*
X6209520Y-12647650D01*
X6209520Y-12647650D02*
X6219044Y-12685745D01*
X6219044Y-12685745D02*
X6219044Y-12733364D01*
X6219044Y-12733364D02*
X6209520Y-12771459D01*
X6209520Y-12771459D02*
X6199996Y-12790507D01*
X6199996Y-12790507D02*
X6190472Y-12800031D01*
X6190472Y-12800031D02*
X6171425Y-12809554D01*
X6171425Y-12809554D02*
X6152377Y-12809554D01*
X6152377Y-12809554D02*
X6133329Y-12800031D01*
X6133329Y-12800031D02*
X6123805Y-12790507D01*
X6123805Y-12790507D02*
X6114282Y-12771459D01*
X6114282Y-12771459D02*
X6104758Y-12733364D01*
X6104758Y-12733364D02*
X6104758Y-12685745D01*
X6104758Y-12685745D02*
X6114282Y-12647650D01*
X6114282Y-12647650D02*
X6123805Y-12628602D01*
X6123805Y-12628602D02*
X6133329Y-12619078D01*
X6133329Y-12619078D02*
X6152377Y-12609554D01*
X6457139Y-12809554D02*
X6457139Y-12609554D01*
X6542853Y-12809554D02*
X6542853Y-12704792D01*
X6542853Y-12704792D02*
X6533329Y-12685745D01*
X6533329Y-12685745D02*
X6514282Y-12676221D01*
X6514282Y-12676221D02*
X6485710Y-12676221D01*
X6485710Y-12676221D02*
X6466663Y-12685745D01*
X6466663Y-12685745D02*
X6457139Y-12695269D01*
X6666663Y-12809554D02*
X6647615Y-12800031D01*
X6647615Y-12800031D02*
X6638091Y-12790507D01*
X6638091Y-12790507D02*
X6628567Y-12771459D01*
X6628567Y-12771459D02*
X6628567Y-12714316D01*
X6628567Y-12714316D02*
X6638091Y-12695269D01*
X6638091Y-12695269D02*
X6647615Y-12685745D01*
X6647615Y-12685745D02*
X6666663Y-12676221D01*
X6666663Y-12676221D02*
X6695234Y-12676221D01*
X6695234Y-12676221D02*
X6714282Y-12685745D01*
X6714282Y-12685745D02*
X6723806Y-12695269D01*
X6723806Y-12695269D02*
X6733329Y-12714316D01*
X6733329Y-12714316D02*
X6733329Y-12771459D01*
X6733329Y-12771459D02*
X6723806Y-12790507D01*
X6723806Y-12790507D02*
X6714282Y-12800031D01*
X6714282Y-12800031D02*
X6695234Y-12809554D01*
X6695234Y-12809554D02*
X6666663Y-12809554D01*
X6847615Y-12809554D02*
X6828567Y-12800031D01*
X6828567Y-12800031D02*
X6819044Y-12780983D01*
X6819044Y-12780983D02*
X6819044Y-12609554D01*
X6999996Y-12800031D02*
X6980948Y-12809554D01*
X6980948Y-12809554D02*
X6942853Y-12809554D01*
X6942853Y-12809554D02*
X6923806Y-12800031D01*
X6923806Y-12800031D02*
X6914282Y-12780983D01*
X6914282Y-12780983D02*
X6914282Y-12704792D01*
X6914282Y-12704792D02*
X6923806Y-12685745D01*
X6923806Y-12685745D02*
X6942853Y-12676221D01*
X6942853Y-12676221D02*
X6980948Y-12676221D01*
X6980948Y-12676221D02*
X6999996Y-12685745D01*
X6999996Y-12685745D02*
X7009520Y-12704792D01*
X7009520Y-12704792D02*
X7009520Y-12723840D01*
X7009520Y-12723840D02*
X6914282Y-12742888D01*
X7085710Y-12800031D02*
X7104758Y-12809554D01*
X7104758Y-12809554D02*
X7142853Y-12809554D01*
X7142853Y-12809554D02*
X7161901Y-12800031D01*
X7161901Y-12800031D02*
X7171425Y-12780983D01*
X7171425Y-12780983D02*
X7171425Y-12771459D01*
X7171425Y-12771459D02*
X7161901Y-12752411D01*
X7161901Y-12752411D02*
X7142853Y-12742888D01*
X7142853Y-12742888D02*
X7114282Y-12742888D01*
X7114282Y-12742888D02*
X7095234Y-12733364D01*
X7095234Y-12733364D02*
X7085710Y-12714316D01*
X7085710Y-12714316D02*
X7085710Y-12704792D01*
X7085710Y-12704792D02*
X7095234Y-12685745D01*
X7095234Y-12685745D02*
X7114282Y-12676221D01*
X7114282Y-12676221D02*
X7142853Y-12676221D01*
X7142853Y-12676221D02*
X7161901Y-12685745D01*
X7409520Y-12733364D02*
X7561901Y-12733364D01*
X7485710Y-12809554D02*
X7485710Y-12657173D01*
X7799996Y-12628602D02*
X7809520Y-12619078D01*
X7809520Y-12619078D02*
X7828568Y-12609554D01*
X7828568Y-12609554D02*
X7876187Y-12609554D01*
X7876187Y-12609554D02*
X7895234Y-12619078D01*
X7895234Y-12619078D02*
X7904758Y-12628602D01*
X7904758Y-12628602D02*
X7914282Y-12647650D01*
X7914282Y-12647650D02*
X7914282Y-12666697D01*
X7914282Y-12666697D02*
X7904758Y-12695269D01*
X7904758Y-12695269D02*
X7790472Y-12809554D01*
X7790472Y-12809554D02*
X7914282Y-12809554D01*
X8142853Y-12800031D02*
X8161901Y-12809554D01*
X8161901Y-12809554D02*
X8199996Y-12809554D01*
X8199996Y-12809554D02*
X8219044Y-12800031D01*
X8219044Y-12800031D02*
X8228568Y-12780983D01*
X8228568Y-12780983D02*
X8228568Y-12771459D01*
X8228568Y-12771459D02*
X8219044Y-12752411D01*
X8219044Y-12752411D02*
X8199996Y-12742888D01*
X8199996Y-12742888D02*
X8171425Y-12742888D01*
X8171425Y-12742888D02*
X8152377Y-12733364D01*
X8152377Y-12733364D02*
X8142853Y-12714316D01*
X8142853Y-12714316D02*
X8142853Y-12704792D01*
X8142853Y-12704792D02*
X8152377Y-12685745D01*
X8152377Y-12685745D02*
X8171425Y-12676221D01*
X8171425Y-12676221D02*
X8199996Y-12676221D01*
X8199996Y-12676221D02*
X8219044Y-12685745D01*
X8342853Y-12809554D02*
X8323806Y-12800031D01*
X8323806Y-12800031D02*
X8314282Y-12780983D01*
X8314282Y-12780983D02*
X8314282Y-12609554D01*
X8447615Y-12809554D02*
X8428568Y-12800031D01*
X8428568Y-12800031D02*
X8419044Y-12790507D01*
X8419044Y-12790507D02*
X8409520Y-12771459D01*
X8409520Y-12771459D02*
X8409520Y-12714316D01*
X8409520Y-12714316D02*
X8419044Y-12695269D01*
X8419044Y-12695269D02*
X8428568Y-12685745D01*
X8428568Y-12685745D02*
X8447615Y-12676221D01*
X8447615Y-12676221D02*
X8476187Y-12676221D01*
X8476187Y-12676221D02*
X8495234Y-12685745D01*
X8495234Y-12685745D02*
X8504758Y-12695269D01*
X8504758Y-12695269D02*
X8514282Y-12714316D01*
X8514282Y-12714316D02*
X8514282Y-12771459D01*
X8514282Y-12771459D02*
X8504758Y-12790507D01*
X8504758Y-12790507D02*
X8495234Y-12800031D01*
X8495234Y-12800031D02*
X8476187Y-12809554D01*
X8476187Y-12809554D02*
X8447615Y-12809554D01*
X8571425Y-12676221D02*
X8647615Y-12676221D01*
X8599996Y-12609554D02*
X8599996Y-12780983D01*
X8599996Y-12780983D02*
X8609520Y-12800031D01*
X8609520Y-12800031D02*
X8628568Y-12809554D01*
X8628568Y-12809554D02*
X8647615Y-12809554D01*
X8704758Y-12800031D02*
X8723806Y-12809554D01*
X8723806Y-12809554D02*
X8761901Y-12809554D01*
X8761901Y-12809554D02*
X8780949Y-12800031D01*
X8780949Y-12800031D02*
X8790473Y-12780983D01*
X8790473Y-12780983D02*
X8790473Y-12771459D01*
X8790473Y-12771459D02*
X8780949Y-12752411D01*
X8780949Y-12752411D02*
X8761901Y-12742888D01*
X8761901Y-12742888D02*
X8733330Y-12742888D01*
X8733330Y-12742888D02*
X8714282Y-12733364D01*
X8714282Y-12733364D02*
X8704758Y-12714316D01*
X8704758Y-12714316D02*
X8704758Y-12704792D01*
X8704758Y-12704792D02*
X8714282Y-12685745D01*
X8714282Y-12685745D02*
X8733330Y-12676221D01*
X8733330Y-12676221D02*
X8761901Y-12676221D01*
X8761901Y-12676221D02*
X8780949Y-12685745D01*
X8857139Y-12885745D02*
X8866663Y-12876221D01*
X8866663Y-12876221D02*
X8885711Y-12847650D01*
X8885711Y-12847650D02*
X8895234Y-12828602D01*
X8895234Y-12828602D02*
X8904758Y-12800031D01*
X8904758Y-12800031D02*
X8914282Y-12752411D01*
X8914282Y-12752411D02*
X8914282Y-12714316D01*
X8914282Y-12714316D02*
X8904758Y-12666697D01*
X8904758Y-12666697D02*
X8895234Y-12638126D01*
X8895234Y-12638126D02*
X8885711Y-12619078D01*
X8885711Y-12619078D02*
X8866663Y-12590507D01*
X8866663Y-12590507D02*
X8857139Y-12580983D01*
X2263028Y-12913071D02*
X2463028Y-13113071D01*
X2463028Y-12913071D02*
X2263028Y-13113071D01*
X2433740Y-13083782D02*
X2433740Y-12942359D01*
X2292317Y-12942359D01*
X2292317Y-13083782D01*
X2433740Y-13083782D01*
X2714281Y-12923602D02*
X2723805Y-12914078D01*
X2723805Y-12914078D02*
X2742853Y-12904554D01*
X2742853Y-12904554D02*
X2790472Y-12904554D01*
X2790472Y-12904554D02*
X2809519Y-12914078D01*
X2809519Y-12914078D02*
X2819043Y-12923602D01*
X2819043Y-12923602D02*
X2828567Y-12942650D01*
X2828567Y-12942650D02*
X2828567Y-12961697D01*
X2828567Y-12961697D02*
X2819043Y-12990269D01*
X2819043Y-12990269D02*
X2704758Y-13104554D01*
X2704758Y-13104554D02*
X2828567Y-13104554D01*
X2914281Y-13085507D02*
X2923805Y-13095031D01*
X2923805Y-13095031D02*
X2914281Y-13104554D01*
X2914281Y-13104554D02*
X2904758Y-13095031D01*
X2904758Y-13095031D02*
X2914281Y-13085507D01*
X2914281Y-13085507D02*
X2914281Y-13104554D01*
X3104758Y-12904554D02*
X3009519Y-12904554D01*
X3009519Y-12904554D02*
X2999996Y-12999792D01*
X2999996Y-12999792D02*
X3009519Y-12990269D01*
X3009519Y-12990269D02*
X3028567Y-12980745D01*
X3028567Y-12980745D02*
X3076186Y-12980745D01*
X3076186Y-12980745D02*
X3095234Y-12990269D01*
X3095234Y-12990269D02*
X3104758Y-12999792D01*
X3104758Y-12999792D02*
X3114281Y-13018840D01*
X3114281Y-13018840D02*
X3114281Y-13066459D01*
X3114281Y-13066459D02*
X3104758Y-13085507D01*
X3104758Y-13085507D02*
X3095234Y-13095031D01*
X3095234Y-13095031D02*
X3076186Y-13104554D01*
X3076186Y-13104554D02*
X3028567Y-13104554D01*
X3028567Y-13104554D02*
X3009519Y-13095031D01*
X3009519Y-13095031D02*
X2999996Y-13085507D01*
X3238091Y-12904554D02*
X3257139Y-12904554D01*
X3257139Y-12904554D02*
X3276186Y-12914078D01*
X3276186Y-12914078D02*
X3285710Y-12923602D01*
X3285710Y-12923602D02*
X3295234Y-12942650D01*
X3295234Y-12942650D02*
X3304758Y-12980745D01*
X3304758Y-12980745D02*
X3304758Y-13028364D01*
X3304758Y-13028364D02*
X3295234Y-13066459D01*
X3295234Y-13066459D02*
X3285710Y-13085507D01*
X3285710Y-13085507D02*
X3276186Y-13095031D01*
X3276186Y-13095031D02*
X3257139Y-13104554D01*
X3257139Y-13104554D02*
X3238091Y-13104554D01*
X3238091Y-13104554D02*
X3219043Y-13095031D01*
X3219043Y-13095031D02*
X3209519Y-13085507D01*
X3209519Y-13085507D02*
X3199996Y-13066459D01*
X3199996Y-13066459D02*
X3190472Y-13028364D01*
X3190472Y-13028364D02*
X3190472Y-12980745D01*
X3190472Y-12980745D02*
X3199996Y-12942650D01*
X3199996Y-12942650D02*
X3209519Y-12923602D01*
X3209519Y-12923602D02*
X3219043Y-12914078D01*
X3219043Y-12914078D02*
X3238091Y-12904554D01*
X3428567Y-12904554D02*
X3447615Y-12904554D01*
X3447615Y-12904554D02*
X3466662Y-12914078D01*
X3466662Y-12914078D02*
X3476186Y-12923602D01*
X3476186Y-12923602D02*
X3485710Y-12942650D01*
X3485710Y-12942650D02*
X3495234Y-12980745D01*
X3495234Y-12980745D02*
X3495234Y-13028364D01*
X3495234Y-13028364D02*
X3485710Y-13066459D01*
X3485710Y-13066459D02*
X3476186Y-13085507D01*
X3476186Y-13085507D02*
X3466662Y-13095031D01*
X3466662Y-13095031D02*
X3447615Y-13104554D01*
X3447615Y-13104554D02*
X3428567Y-13104554D01*
X3428567Y-13104554D02*
X3409519Y-13095031D01*
X3409519Y-13095031D02*
X3399996Y-13085507D01*
X3399996Y-13085507D02*
X3390472Y-13066459D01*
X3390472Y-13066459D02*
X3380948Y-13028364D01*
X3380948Y-13028364D02*
X3380948Y-12980745D01*
X3380948Y-12980745D02*
X3390472Y-12942650D01*
X3390472Y-12942650D02*
X3399996Y-12923602D01*
X3399996Y-12923602D02*
X3409519Y-12914078D01*
X3409519Y-12914078D02*
X3428567Y-12904554D01*
X3580948Y-13104554D02*
X3580948Y-12971221D01*
X3580948Y-12990269D02*
X3590472Y-12980745D01*
X3590472Y-12980745D02*
X3609519Y-12971221D01*
X3609519Y-12971221D02*
X3638091Y-12971221D01*
X3638091Y-12971221D02*
X3657139Y-12980745D01*
X3657139Y-12980745D02*
X3666662Y-12999792D01*
X3666662Y-12999792D02*
X3666662Y-13104554D01*
X3666662Y-12999792D02*
X3676186Y-12980745D01*
X3676186Y-12980745D02*
X3695234Y-12971221D01*
X3695234Y-12971221D02*
X3723805Y-12971221D01*
X3723805Y-12971221D02*
X3742853Y-12980745D01*
X3742853Y-12980745D02*
X3752377Y-12999792D01*
X3752377Y-12999792D02*
X3752377Y-13104554D01*
X3847615Y-13104554D02*
X3847615Y-12971221D01*
X3847615Y-12990269D02*
X3857139Y-12980745D01*
X3857139Y-12980745D02*
X3876186Y-12971221D01*
X3876186Y-12971221D02*
X3904758Y-12971221D01*
X3904758Y-12971221D02*
X3923805Y-12980745D01*
X3923805Y-12980745D02*
X3933329Y-12999792D01*
X3933329Y-12999792D02*
X3933329Y-13104554D01*
X3933329Y-12999792D02*
X3942853Y-12980745D01*
X3942853Y-12980745D02*
X3961900Y-12971221D01*
X3961900Y-12971221D02*
X3990472Y-12971221D01*
X3990472Y-12971221D02*
X4009520Y-12980745D01*
X4009520Y-12980745D02*
X4019043Y-12999792D01*
X4019043Y-12999792D02*
X4019043Y-13104554D01*
X4409520Y-12895031D02*
X4238091Y-13152173D01*
X4666663Y-12904554D02*
X4685710Y-12904554D01*
X4685710Y-12904554D02*
X4704758Y-12914078D01*
X4704758Y-12914078D02*
X4714282Y-12923602D01*
X4714282Y-12923602D02*
X4723805Y-12942650D01*
X4723805Y-12942650D02*
X4733329Y-12980745D01*
X4733329Y-12980745D02*
X4733329Y-13028364D01*
X4733329Y-13028364D02*
X4723805Y-13066459D01*
X4723805Y-13066459D02*
X4714282Y-13085507D01*
X4714282Y-13085507D02*
X4704758Y-13095031D01*
X4704758Y-13095031D02*
X4685710Y-13104554D01*
X4685710Y-13104554D02*
X4666663Y-13104554D01*
X4666663Y-13104554D02*
X4647615Y-13095031D01*
X4647615Y-13095031D02*
X4638091Y-13085507D01*
X4638091Y-13085507D02*
X4628567Y-13066459D01*
X4628567Y-13066459D02*
X4619044Y-13028364D01*
X4619044Y-13028364D02*
X4619044Y-12980745D01*
X4619044Y-12980745D02*
X4628567Y-12942650D01*
X4628567Y-12942650D02*
X4638091Y-12923602D01*
X4638091Y-12923602D02*
X4647615Y-12914078D01*
X4647615Y-12914078D02*
X4666663Y-12904554D01*
X4819044Y-13085507D02*
X4828567Y-13095031D01*
X4828567Y-13095031D02*
X4819044Y-13104554D01*
X4819044Y-13104554D02*
X4809520Y-13095031D01*
X4809520Y-13095031D02*
X4819044Y-13085507D01*
X4819044Y-13085507D02*
X4819044Y-13104554D01*
X4952377Y-12904554D02*
X4971425Y-12904554D01*
X4971425Y-12904554D02*
X4990472Y-12914078D01*
X4990472Y-12914078D02*
X4999996Y-12923602D01*
X4999996Y-12923602D02*
X5009520Y-12942650D01*
X5009520Y-12942650D02*
X5019044Y-12980745D01*
X5019044Y-12980745D02*
X5019044Y-13028364D01*
X5019044Y-13028364D02*
X5009520Y-13066459D01*
X5009520Y-13066459D02*
X4999996Y-13085507D01*
X4999996Y-13085507D02*
X4990472Y-13095031D01*
X4990472Y-13095031D02*
X4971425Y-13104554D01*
X4971425Y-13104554D02*
X4952377Y-13104554D01*
X4952377Y-13104554D02*
X4933329Y-13095031D01*
X4933329Y-13095031D02*
X4923805Y-13085507D01*
X4923805Y-13085507D02*
X4914282Y-13066459D01*
X4914282Y-13066459D02*
X4904758Y-13028364D01*
X4904758Y-13028364D02*
X4904758Y-12980745D01*
X4904758Y-12980745D02*
X4914282Y-12942650D01*
X4914282Y-12942650D02*
X4923805Y-12923602D01*
X4923805Y-12923602D02*
X4933329Y-12914078D01*
X4933329Y-12914078D02*
X4952377Y-12904554D01*
X5114282Y-13104554D02*
X5152377Y-13104554D01*
X5152377Y-13104554D02*
X5171425Y-13095031D01*
X5171425Y-13095031D02*
X5180948Y-13085507D01*
X5180948Y-13085507D02*
X5199996Y-13056935D01*
X5199996Y-13056935D02*
X5209520Y-13018840D01*
X5209520Y-13018840D02*
X5209520Y-12942650D01*
X5209520Y-12942650D02*
X5199996Y-12923602D01*
X5199996Y-12923602D02*
X5190472Y-12914078D01*
X5190472Y-12914078D02*
X5171425Y-12904554D01*
X5171425Y-12904554D02*
X5133329Y-12904554D01*
X5133329Y-12904554D02*
X5114282Y-12914078D01*
X5114282Y-12914078D02*
X5104758Y-12923602D01*
X5104758Y-12923602D02*
X5095234Y-12942650D01*
X5095234Y-12942650D02*
X5095234Y-12990269D01*
X5095234Y-12990269D02*
X5104758Y-13009316D01*
X5104758Y-13009316D02*
X5114282Y-13018840D01*
X5114282Y-13018840D02*
X5133329Y-13028364D01*
X5133329Y-13028364D02*
X5171425Y-13028364D01*
X5171425Y-13028364D02*
X5190472Y-13018840D01*
X5190472Y-13018840D02*
X5199996Y-13009316D01*
X5199996Y-13009316D02*
X5209520Y-12990269D01*
X5323805Y-12990269D02*
X5304758Y-12980745D01*
X5304758Y-12980745D02*
X5295234Y-12971221D01*
X5295234Y-12971221D02*
X5285710Y-12952173D01*
X5285710Y-12952173D02*
X5285710Y-12942650D01*
X5285710Y-12942650D02*
X5295234Y-12923602D01*
X5295234Y-12923602D02*
X5304758Y-12914078D01*
X5304758Y-12914078D02*
X5323805Y-12904554D01*
X5323805Y-12904554D02*
X5361901Y-12904554D01*
X5361901Y-12904554D02*
X5380948Y-12914078D01*
X5380948Y-12914078D02*
X5390472Y-12923602D01*
X5390472Y-12923602D02*
X5399996Y-12942650D01*
X5399996Y-12942650D02*
X5399996Y-12952173D01*
X5399996Y-12952173D02*
X5390472Y-12971221D01*
X5390472Y-12971221D02*
X5380948Y-12980745D01*
X5380948Y-12980745D02*
X5361901Y-12990269D01*
X5361901Y-12990269D02*
X5323805Y-12990269D01*
X5323805Y-12990269D02*
X5304758Y-12999792D01*
X5304758Y-12999792D02*
X5295234Y-13009316D01*
X5295234Y-13009316D02*
X5285710Y-13028364D01*
X5285710Y-13028364D02*
X5285710Y-13066459D01*
X5285710Y-13066459D02*
X5295234Y-13085507D01*
X5295234Y-13085507D02*
X5304758Y-13095031D01*
X5304758Y-13095031D02*
X5323805Y-13104554D01*
X5323805Y-13104554D02*
X5361901Y-13104554D01*
X5361901Y-13104554D02*
X5380948Y-13095031D01*
X5380948Y-13095031D02*
X5390472Y-13085507D01*
X5390472Y-13085507D02*
X5399996Y-13066459D01*
X5399996Y-13066459D02*
X5399996Y-13028364D01*
X5399996Y-13028364D02*
X5390472Y-13009316D01*
X5390472Y-13009316D02*
X5380948Y-12999792D01*
X5380948Y-12999792D02*
X5361901Y-12990269D01*
X5571425Y-12971221D02*
X5571425Y-13104554D01*
X5523805Y-12895031D02*
X5476186Y-13037888D01*
X5476186Y-13037888D02*
X5599996Y-13037888D01*
X5666663Y-12904554D02*
X5666663Y-12942650D01*
X5742853Y-12904554D02*
X5742853Y-12942650D01*
X6038091Y-13180745D02*
X6028567Y-13171221D01*
X6028567Y-13171221D02*
X6009520Y-13142650D01*
X6009520Y-13142650D02*
X5999996Y-13123602D01*
X5999996Y-13123602D02*
X5990472Y-13095031D01*
X5990472Y-13095031D02*
X5980948Y-13047411D01*
X5980948Y-13047411D02*
X5980948Y-13009316D01*
X5980948Y-13009316D02*
X5990472Y-12961697D01*
X5990472Y-12961697D02*
X5999996Y-12933126D01*
X5999996Y-12933126D02*
X6009520Y-12914078D01*
X6009520Y-12914078D02*
X6028567Y-12885507D01*
X6028567Y-12885507D02*
X6038091Y-12875983D01*
X6199996Y-12971221D02*
X6199996Y-13104554D01*
X6152377Y-12895031D02*
X6104758Y-13037888D01*
X6104758Y-13037888D02*
X6228567Y-13037888D01*
X6457139Y-13104554D02*
X6457139Y-12904554D01*
X6542853Y-13104554D02*
X6542853Y-12999792D01*
X6542853Y-12999792D02*
X6533329Y-12980745D01*
X6533329Y-12980745D02*
X6514282Y-12971221D01*
X6514282Y-12971221D02*
X6485710Y-12971221D01*
X6485710Y-12971221D02*
X6466663Y-12980745D01*
X6466663Y-12980745D02*
X6457139Y-12990269D01*
X6666663Y-13104554D02*
X6647615Y-13095031D01*
X6647615Y-13095031D02*
X6638091Y-13085507D01*
X6638091Y-13085507D02*
X6628567Y-13066459D01*
X6628567Y-13066459D02*
X6628567Y-13009316D01*
X6628567Y-13009316D02*
X6638091Y-12990269D01*
X6638091Y-12990269D02*
X6647615Y-12980745D01*
X6647615Y-12980745D02*
X6666663Y-12971221D01*
X6666663Y-12971221D02*
X6695234Y-12971221D01*
X6695234Y-12971221D02*
X6714282Y-12980745D01*
X6714282Y-12980745D02*
X6723806Y-12990269D01*
X6723806Y-12990269D02*
X6733329Y-13009316D01*
X6733329Y-13009316D02*
X6733329Y-13066459D01*
X6733329Y-13066459D02*
X6723806Y-13085507D01*
X6723806Y-13085507D02*
X6714282Y-13095031D01*
X6714282Y-13095031D02*
X6695234Y-13104554D01*
X6695234Y-13104554D02*
X6666663Y-13104554D01*
X6847615Y-13104554D02*
X6828567Y-13095031D01*
X6828567Y-13095031D02*
X6819044Y-13075983D01*
X6819044Y-13075983D02*
X6819044Y-12904554D01*
X6999996Y-13095031D02*
X6980948Y-13104554D01*
X6980948Y-13104554D02*
X6942853Y-13104554D01*
X6942853Y-13104554D02*
X6923806Y-13095031D01*
X6923806Y-13095031D02*
X6914282Y-13075983D01*
X6914282Y-13075983D02*
X6914282Y-12999792D01*
X6914282Y-12999792D02*
X6923806Y-12980745D01*
X6923806Y-12980745D02*
X6942853Y-12971221D01*
X6942853Y-12971221D02*
X6980948Y-12971221D01*
X6980948Y-12971221D02*
X6999996Y-12980745D01*
X6999996Y-12980745D02*
X7009520Y-12999792D01*
X7009520Y-12999792D02*
X7009520Y-13018840D01*
X7009520Y-13018840D02*
X6914282Y-13037888D01*
X7085710Y-13095031D02*
X7104758Y-13104554D01*
X7104758Y-13104554D02*
X7142853Y-13104554D01*
X7142853Y-13104554D02*
X7161901Y-13095031D01*
X7161901Y-13095031D02*
X7171425Y-13075983D01*
X7171425Y-13075983D02*
X7171425Y-13066459D01*
X7171425Y-13066459D02*
X7161901Y-13047411D01*
X7161901Y-13047411D02*
X7142853Y-13037888D01*
X7142853Y-13037888D02*
X7114282Y-13037888D01*
X7114282Y-13037888D02*
X7095234Y-13028364D01*
X7095234Y-13028364D02*
X7085710Y-13009316D01*
X7085710Y-13009316D02*
X7085710Y-12999792D01*
X7085710Y-12999792D02*
X7095234Y-12980745D01*
X7095234Y-12980745D02*
X7114282Y-12971221D01*
X7114282Y-12971221D02*
X7142853Y-12971221D01*
X7142853Y-12971221D02*
X7161901Y-12980745D01*
X7238091Y-13180745D02*
X7247615Y-13171221D01*
X7247615Y-13171221D02*
X7266663Y-13142650D01*
X7266663Y-13142650D02*
X7276187Y-13123602D01*
X7276187Y-13123602D02*
X7285710Y-13095031D01*
X7285710Y-13095031D02*
X7295234Y-13047411D01*
X7295234Y-13047411D02*
X7295234Y-13009316D01*
X7295234Y-13009316D02*
X7285710Y-12961697D01*
X7285710Y-12961697D02*
X7276187Y-12933126D01*
X7276187Y-12933126D02*
X7266663Y-12914078D01*
X7266663Y-12914078D02*
X7247615Y-12885507D01*
X7247615Y-12885507D02*
X7238091Y-12875983D01*
X2263028Y-13233071D02*
X2463028Y-13433071D01*
X2463028Y-13233071D02*
X2263028Y-13433071D01*
X2363028Y-13433071D02*
X2463028Y-13333071D01*
X2363028Y-13233071D01*
X2263028Y-13333071D01*
X2363028Y-13433071D01*
X2809519Y-13291221D02*
X2809519Y-13424554D01*
X2761900Y-13215031D02*
X2714281Y-13357888D01*
X2714281Y-13357888D02*
X2838091Y-13357888D01*
X2914281Y-13405507D02*
X2923805Y-13415031D01*
X2923805Y-13415031D02*
X2914281Y-13424554D01*
X2914281Y-13424554D02*
X2904758Y-13415031D01*
X2904758Y-13415031D02*
X2914281Y-13405507D01*
X2914281Y-13405507D02*
X2914281Y-13424554D01*
X3104758Y-13224554D02*
X3009519Y-13224554D01*
X3009519Y-13224554D02*
X2999996Y-13319792D01*
X2999996Y-13319792D02*
X3009519Y-13310269D01*
X3009519Y-13310269D02*
X3028567Y-13300745D01*
X3028567Y-13300745D02*
X3076186Y-13300745D01*
X3076186Y-13300745D02*
X3095234Y-13310269D01*
X3095234Y-13310269D02*
X3104758Y-13319792D01*
X3104758Y-13319792D02*
X3114281Y-13338840D01*
X3114281Y-13338840D02*
X3114281Y-13386459D01*
X3114281Y-13386459D02*
X3104758Y-13405507D01*
X3104758Y-13405507D02*
X3095234Y-13415031D01*
X3095234Y-13415031D02*
X3076186Y-13424554D01*
X3076186Y-13424554D02*
X3028567Y-13424554D01*
X3028567Y-13424554D02*
X3009519Y-13415031D01*
X3009519Y-13415031D02*
X2999996Y-13405507D01*
X3295234Y-13224554D02*
X3199996Y-13224554D01*
X3199996Y-13224554D02*
X3190472Y-13319792D01*
X3190472Y-13319792D02*
X3199996Y-13310269D01*
X3199996Y-13310269D02*
X3219043Y-13300745D01*
X3219043Y-13300745D02*
X3266662Y-13300745D01*
X3266662Y-13300745D02*
X3285710Y-13310269D01*
X3285710Y-13310269D02*
X3295234Y-13319792D01*
X3295234Y-13319792D02*
X3304758Y-13338840D01*
X3304758Y-13338840D02*
X3304758Y-13386459D01*
X3304758Y-13386459D02*
X3295234Y-13405507D01*
X3295234Y-13405507D02*
X3285710Y-13415031D01*
X3285710Y-13415031D02*
X3266662Y-13424554D01*
X3266662Y-13424554D02*
X3219043Y-13424554D01*
X3219043Y-13424554D02*
X3199996Y-13415031D01*
X3199996Y-13415031D02*
X3190472Y-13405507D01*
X3428567Y-13224554D02*
X3447615Y-13224554D01*
X3447615Y-13224554D02*
X3466662Y-13234078D01*
X3466662Y-13234078D02*
X3476186Y-13243602D01*
X3476186Y-13243602D02*
X3485710Y-13262650D01*
X3485710Y-13262650D02*
X3495234Y-13300745D01*
X3495234Y-13300745D02*
X3495234Y-13348364D01*
X3495234Y-13348364D02*
X3485710Y-13386459D01*
X3485710Y-13386459D02*
X3476186Y-13405507D01*
X3476186Y-13405507D02*
X3466662Y-13415031D01*
X3466662Y-13415031D02*
X3447615Y-13424554D01*
X3447615Y-13424554D02*
X3428567Y-13424554D01*
X3428567Y-13424554D02*
X3409519Y-13415031D01*
X3409519Y-13415031D02*
X3399996Y-13405507D01*
X3399996Y-13405507D02*
X3390472Y-13386459D01*
X3390472Y-13386459D02*
X3380948Y-13348364D01*
X3380948Y-13348364D02*
X3380948Y-13300745D01*
X3380948Y-13300745D02*
X3390472Y-13262650D01*
X3390472Y-13262650D02*
X3399996Y-13243602D01*
X3399996Y-13243602D02*
X3409519Y-13234078D01*
X3409519Y-13234078D02*
X3428567Y-13224554D01*
X3580948Y-13424554D02*
X3580948Y-13291221D01*
X3580948Y-13310269D02*
X3590472Y-13300745D01*
X3590472Y-13300745D02*
X3609519Y-13291221D01*
X3609519Y-13291221D02*
X3638091Y-13291221D01*
X3638091Y-13291221D02*
X3657139Y-13300745D01*
X3657139Y-13300745D02*
X3666662Y-13319792D01*
X3666662Y-13319792D02*
X3666662Y-13424554D01*
X3666662Y-13319792D02*
X3676186Y-13300745D01*
X3676186Y-13300745D02*
X3695234Y-13291221D01*
X3695234Y-13291221D02*
X3723805Y-13291221D01*
X3723805Y-13291221D02*
X3742853Y-13300745D01*
X3742853Y-13300745D02*
X3752377Y-13319792D01*
X3752377Y-13319792D02*
X3752377Y-13424554D01*
X3847615Y-13424554D02*
X3847615Y-13291221D01*
X3847615Y-13310269D02*
X3857139Y-13300745D01*
X3857139Y-13300745D02*
X3876186Y-13291221D01*
X3876186Y-13291221D02*
X3904758Y-13291221D01*
X3904758Y-13291221D02*
X3923805Y-13300745D01*
X3923805Y-13300745D02*
X3933329Y-13319792D01*
X3933329Y-13319792D02*
X3933329Y-13424554D01*
X3933329Y-13319792D02*
X3942853Y-13300745D01*
X3942853Y-13300745D02*
X3961900Y-13291221D01*
X3961900Y-13291221D02*
X3990472Y-13291221D01*
X3990472Y-13291221D02*
X4009520Y-13300745D01*
X4009520Y-13300745D02*
X4019043Y-13319792D01*
X4019043Y-13319792D02*
X4019043Y-13424554D01*
X4409520Y-13215031D02*
X4238091Y-13472173D01*
X4666663Y-13224554D02*
X4685710Y-13224554D01*
X4685710Y-13224554D02*
X4704758Y-13234078D01*
X4704758Y-13234078D02*
X4714282Y-13243602D01*
X4714282Y-13243602D02*
X4723805Y-13262650D01*
X4723805Y-13262650D02*
X4733329Y-13300745D01*
X4733329Y-13300745D02*
X4733329Y-13348364D01*
X4733329Y-13348364D02*
X4723805Y-13386459D01*
X4723805Y-13386459D02*
X4714282Y-13405507D01*
X4714282Y-13405507D02*
X4704758Y-13415031D01*
X4704758Y-13415031D02*
X4685710Y-13424554D01*
X4685710Y-13424554D02*
X4666663Y-13424554D01*
X4666663Y-13424554D02*
X4647615Y-13415031D01*
X4647615Y-13415031D02*
X4638091Y-13405507D01*
X4638091Y-13405507D02*
X4628567Y-13386459D01*
X4628567Y-13386459D02*
X4619044Y-13348364D01*
X4619044Y-13348364D02*
X4619044Y-13300745D01*
X4619044Y-13300745D02*
X4628567Y-13262650D01*
X4628567Y-13262650D02*
X4638091Y-13243602D01*
X4638091Y-13243602D02*
X4647615Y-13234078D01*
X4647615Y-13234078D02*
X4666663Y-13224554D01*
X4819044Y-13405507D02*
X4828567Y-13415031D01*
X4828567Y-13415031D02*
X4819044Y-13424554D01*
X4819044Y-13424554D02*
X4809520Y-13415031D01*
X4809520Y-13415031D02*
X4819044Y-13405507D01*
X4819044Y-13405507D02*
X4819044Y-13424554D01*
X5019044Y-13424554D02*
X4904758Y-13424554D01*
X4961901Y-13424554D02*
X4961901Y-13224554D01*
X4961901Y-13224554D02*
X4942853Y-13253126D01*
X4942853Y-13253126D02*
X4923805Y-13272173D01*
X4923805Y-13272173D02*
X4904758Y-13281697D01*
X5085710Y-13224554D02*
X5219044Y-13224554D01*
X5219044Y-13224554D02*
X5133329Y-13424554D01*
X5304758Y-13424554D02*
X5342853Y-13424554D01*
X5342853Y-13424554D02*
X5361901Y-13415031D01*
X5361901Y-13415031D02*
X5371425Y-13405507D01*
X5371425Y-13405507D02*
X5390472Y-13376935D01*
X5390472Y-13376935D02*
X5399996Y-13338840D01*
X5399996Y-13338840D02*
X5399996Y-13262650D01*
X5399996Y-13262650D02*
X5390472Y-13243602D01*
X5390472Y-13243602D02*
X5380948Y-13234078D01*
X5380948Y-13234078D02*
X5361901Y-13224554D01*
X5361901Y-13224554D02*
X5323805Y-13224554D01*
X5323805Y-13224554D02*
X5304758Y-13234078D01*
X5304758Y-13234078D02*
X5295234Y-13243602D01*
X5295234Y-13243602D02*
X5285710Y-13262650D01*
X5285710Y-13262650D02*
X5285710Y-13310269D01*
X5285710Y-13310269D02*
X5295234Y-13329316D01*
X5295234Y-13329316D02*
X5304758Y-13338840D01*
X5304758Y-13338840D02*
X5323805Y-13348364D01*
X5323805Y-13348364D02*
X5361901Y-13348364D01*
X5361901Y-13348364D02*
X5380948Y-13338840D01*
X5380948Y-13338840D02*
X5390472Y-13329316D01*
X5390472Y-13329316D02*
X5399996Y-13310269D01*
X5590472Y-13424554D02*
X5476186Y-13424554D01*
X5533329Y-13424554D02*
X5533329Y-13224554D01*
X5533329Y-13224554D02*
X5514282Y-13253126D01*
X5514282Y-13253126D02*
X5495234Y-13272173D01*
X5495234Y-13272173D02*
X5476186Y-13281697D01*
X5666663Y-13224554D02*
X5666663Y-13262650D01*
X5742853Y-13224554D02*
X5742853Y-13262650D01*
X6038091Y-13500745D02*
X6028567Y-13491221D01*
X6028567Y-13491221D02*
X6009520Y-13462650D01*
X6009520Y-13462650D02*
X5999996Y-13443602D01*
X5999996Y-13443602D02*
X5990472Y-13415031D01*
X5990472Y-13415031D02*
X5980948Y-13367411D01*
X5980948Y-13367411D02*
X5980948Y-13329316D01*
X5980948Y-13329316D02*
X5990472Y-13281697D01*
X5990472Y-13281697D02*
X5999996Y-13253126D01*
X5999996Y-13253126D02*
X6009520Y-13234078D01*
X6009520Y-13234078D02*
X6028567Y-13205507D01*
X6028567Y-13205507D02*
X6038091Y-13195983D01*
X6104758Y-13243602D02*
X6114282Y-13234078D01*
X6114282Y-13234078D02*
X6133329Y-13224554D01*
X6133329Y-13224554D02*
X6180948Y-13224554D01*
X6180948Y-13224554D02*
X6199996Y-13234078D01*
X6199996Y-13234078D02*
X6209520Y-13243602D01*
X6209520Y-13243602D02*
X6219044Y-13262650D01*
X6219044Y-13262650D02*
X6219044Y-13281697D01*
X6219044Y-13281697D02*
X6209520Y-13310269D01*
X6209520Y-13310269D02*
X6095234Y-13424554D01*
X6095234Y-13424554D02*
X6219044Y-13424554D01*
X6457139Y-13424554D02*
X6457139Y-13224554D01*
X6542853Y-13424554D02*
X6542853Y-13319792D01*
X6542853Y-13319792D02*
X6533329Y-13300745D01*
X6533329Y-13300745D02*
X6514282Y-13291221D01*
X6514282Y-13291221D02*
X6485710Y-13291221D01*
X6485710Y-13291221D02*
X6466663Y-13300745D01*
X6466663Y-13300745D02*
X6457139Y-13310269D01*
X6666663Y-13424554D02*
X6647615Y-13415031D01*
X6647615Y-13415031D02*
X6638091Y-13405507D01*
X6638091Y-13405507D02*
X6628567Y-13386459D01*
X6628567Y-13386459D02*
X6628567Y-13329316D01*
X6628567Y-13329316D02*
X6638091Y-13310269D01*
X6638091Y-13310269D02*
X6647615Y-13300745D01*
X6647615Y-13300745D02*
X6666663Y-13291221D01*
X6666663Y-13291221D02*
X6695234Y-13291221D01*
X6695234Y-13291221D02*
X6714282Y-13300745D01*
X6714282Y-13300745D02*
X6723806Y-13310269D01*
X6723806Y-13310269D02*
X6733329Y-13329316D01*
X6733329Y-13329316D02*
X6733329Y-13386459D01*
X6733329Y-13386459D02*
X6723806Y-13405507D01*
X6723806Y-13405507D02*
X6714282Y-13415031D01*
X6714282Y-13415031D02*
X6695234Y-13424554D01*
X6695234Y-13424554D02*
X6666663Y-13424554D01*
X6847615Y-13424554D02*
X6828567Y-13415031D01*
X6828567Y-13415031D02*
X6819044Y-13395983D01*
X6819044Y-13395983D02*
X6819044Y-13224554D01*
X6999996Y-13415031D02*
X6980948Y-13424554D01*
X6980948Y-13424554D02*
X6942853Y-13424554D01*
X6942853Y-13424554D02*
X6923806Y-13415031D01*
X6923806Y-13415031D02*
X6914282Y-13395983D01*
X6914282Y-13395983D02*
X6914282Y-13319792D01*
X6914282Y-13319792D02*
X6923806Y-13300745D01*
X6923806Y-13300745D02*
X6942853Y-13291221D01*
X6942853Y-13291221D02*
X6980948Y-13291221D01*
X6980948Y-13291221D02*
X6999996Y-13300745D01*
X6999996Y-13300745D02*
X7009520Y-13319792D01*
X7009520Y-13319792D02*
X7009520Y-13338840D01*
X7009520Y-13338840D02*
X6914282Y-13357888D01*
X7085710Y-13415031D02*
X7104758Y-13424554D01*
X7104758Y-13424554D02*
X7142853Y-13424554D01*
X7142853Y-13424554D02*
X7161901Y-13415031D01*
X7161901Y-13415031D02*
X7171425Y-13395983D01*
X7171425Y-13395983D02*
X7171425Y-13386459D01*
X7171425Y-13386459D02*
X7161901Y-13367411D01*
X7161901Y-13367411D02*
X7142853Y-13357888D01*
X7142853Y-13357888D02*
X7114282Y-13357888D01*
X7114282Y-13357888D02*
X7095234Y-13348364D01*
X7095234Y-13348364D02*
X7085710Y-13329316D01*
X7085710Y-13329316D02*
X7085710Y-13319792D01*
X7085710Y-13319792D02*
X7095234Y-13300745D01*
X7095234Y-13300745D02*
X7114282Y-13291221D01*
X7114282Y-13291221D02*
X7142853Y-13291221D01*
X7142853Y-13291221D02*
X7161901Y-13300745D01*
X7238091Y-13500745D02*
X7247615Y-13491221D01*
X7247615Y-13491221D02*
X7266663Y-13462650D01*
X7266663Y-13462650D02*
X7276187Y-13443602D01*
X7276187Y-13443602D02*
X7285710Y-13415031D01*
X7285710Y-13415031D02*
X7295234Y-13367411D01*
X7295234Y-13367411D02*
X7295234Y-13329316D01*
X7295234Y-13329316D02*
X7285710Y-13281697D01*
X7285710Y-13281697D02*
X7276187Y-13253126D01*
X7276187Y-13253126D02*
X7266663Y-13234078D01*
X7266663Y-13234078D02*
X7247615Y-13205507D01*
X7247615Y-13205507D02*
X7238091Y-13195983D01*
M02*
