%TF.GenerationSoftware,KiCad,Pcbnew,7.0.9*%
%TF.CreationDate,2024-02-25T16:41:41-05:00*%
%TF.ProjectId,payload24,7061796c-6f61-4643-9234-2e6b69636164,2*%
%TF.SameCoordinates,Original*%
%TF.FileFunction,Profile,NP*%
%FSLAX46Y46*%
G04 Gerber Fmt 4.6, Leading zero omitted, Abs format (unit mm)*
G04 Created by KiCad (PCBNEW 7.0.9) date 2024-02-25 16:41:41*
%MOMM*%
%LPD*%
G01*
G04 APERTURE LIST*
%TA.AperFunction,Profile*%
%ADD10C,0.100000*%
%TD*%
%TA.AperFunction,Profile*%
%ADD11C,0.200000*%
%TD*%
%TA.AperFunction,Profile*%
%ADD12C,0.203200*%
%TD*%
%TA.AperFunction,Profile*%
%ADD13C,0.050000*%
%TD*%
G04 APERTURE END LIST*
D10*
X77381196Y-17058769D02*
G75*
G03*
X47762630Y-19223292I-11736636J-43127281D01*
G01*
X106418128Y-42204913D02*
X106608841Y-42421446D01*
X30151080Y-37259856D02*
G75*
G03*
X30422867Y-37510595I1430820J1278256D01*
G01*
X83573499Y-101033442D02*
G75*
G03*
X83354999Y-101232943I1544101J-1910558D01*
G01*
X95579622Y-91615845D02*
G75*
G03*
X84360000Y-98540000I-4875142J-4652505D01*
G01*
X78440695Y-20381532D02*
G75*
G03*
X80226809Y-26494064I5164705J-1808068D01*
G01*
X54021004Y-103353161D02*
G75*
G03*
X83354998Y-101232942I11623556J43167201D01*
G01*
X29210738Y-34283250D02*
G75*
G03*
X30151083Y-37259852I1900162J-1036550D01*
G01*
X78563440Y-19825774D02*
G75*
G03*
X78485804Y-20148213I1068860J-427926D01*
G01*
X78563404Y-19825759D02*
G75*
G03*
X77381196Y-17058769I-2016804J774359D01*
G01*
X24680284Y-77950653D02*
X24691270Y-49814148D01*
X35732220Y-28773509D02*
G75*
G03*
X33639596Y-28976042I-866020J-1964091D01*
G01*
X24680284Y-77950653D02*
X24761319Y-78037303D01*
X95579624Y-91615841D02*
G75*
G03*
X97628317Y-91418842I843276J1981541D01*
G01*
X97628324Y-91418848D02*
G75*
G03*
X102019603Y-86172669I-31984624J31233448D01*
G01*
X52670384Y-100722546D02*
G75*
G03*
X54021003Y-103353164I2072316J-598054D01*
G01*
X102019639Y-86172691D02*
G75*
G03*
X101235923Y-83174281I-1841539J1120291D01*
G01*
X97276378Y-40214141D02*
G75*
G03*
X104005562Y-41490297I4450522J5088041D01*
G01*
X106418155Y-42204893D02*
G75*
G03*
X104005562Y-41490298I-1694455J-1290807D01*
G01*
X106608841Y-42421446D02*
X106597855Y-70557950D01*
X33760000Y-79970000D02*
X50800000Y-93700000D01*
X47557199Y-19459517D02*
G75*
G03*
X47672223Y-19310498I-308099J356717D01*
G01*
X80230000Y-26490000D02*
X97280000Y-40210000D01*
X104393954Y-72736692D02*
G75*
G03*
X106597854Y-70557950I43946J2159592D01*
G01*
X52750707Y-100214593D02*
G75*
G03*
X50800039Y-93699944I-5066907J2032193D01*
G01*
X27304237Y-47682936D02*
G75*
G03*
X24691271Y-49814148I-453027J-2111984D01*
G01*
X35732228Y-28773495D02*
G75*
G03*
X46924916Y-21833606I4852422J4669745D01*
G01*
D11*
X45932701Y-42443400D02*
G75*
G03*
X45932701Y-42443400I-1254101J0D01*
G01*
D10*
X101235927Y-83174277D02*
G75*
G03*
X100894076Y-82872307I-1583127J-1447723D01*
G01*
X104393919Y-72738508D02*
G75*
G03*
X100896740Y-82867723I-752939J-5408362D01*
G01*
X33639601Y-28976047D02*
G75*
G03*
X29210701Y-34283230I32006999J-31211753D01*
G01*
X47762635Y-19223298D02*
G75*
G03*
X47672224Y-19310498I333165J-435902D01*
G01*
D11*
X85644101Y-48910000D02*
G75*
G03*
X85644101Y-48910000I-1254101J0D01*
G01*
D10*
X27303813Y-47684917D02*
G75*
G03*
X30422866Y-37510596I344332J5459692D01*
G01*
X24761336Y-78037292D02*
G75*
G03*
X27288709Y-78896172I1804164J1160992D01*
G01*
X83573479Y-101033414D02*
G75*
G03*
X84367438Y-98537336I-1238679J1768314D01*
G01*
X47557197Y-19459514D02*
G75*
G03*
X46920640Y-21835137I1397073J-1647446D01*
G01*
X33761481Y-79968138D02*
G75*
G03*
X27288709Y-78896172I-4199221J-5277832D01*
G01*
X52670371Y-100722541D02*
G75*
G03*
X52750717Y-100214597I-1101371J434541D01*
G01*
X78440695Y-20381533D02*
G75*
G03*
X78485802Y-20148214I-1010795J316433D01*
G01*
D12*
%TO.C,U3*%
X80325000Y-29755000D02*
G75*
G03*
X80325000Y-29755000I-1250000J0D01*
G01*
D13*
%TO.C,U5*%
X70940000Y-90200000D02*
G75*
G03*
X70940000Y-90200000I-1090000J0D01*
G01*
%TD*%
M02*
