%TF.GenerationSoftware,KiCad,Pcbnew,7.0.9*%
%TF.CreationDate,2024-02-14T22:00:14-05:00*%
%TF.ProjectId,payload24,7061796c-6f61-4643-9234-2e6b69636164,2*%
%TF.SameCoordinates,Original*%
%TF.FileFunction,Copper,L2,Bot*%
%TF.FilePolarity,Positive*%
%FSLAX46Y46*%
G04 Gerber Fmt 4.6, Leading zero omitted, Abs format (unit mm)*
G04 Created by KiCad (PCBNEW 7.0.9) date 2024-02-14 22:00:14*
%MOMM*%
%LPD*%
G01*
G04 APERTURE LIST*
G04 Aperture macros list*
%AMRoundRect*
0 Rectangle with rounded corners*
0 $1 Rounding radius*
0 $2 $3 $4 $5 $6 $7 $8 $9 X,Y pos of 4 corners*
0 Add a 4 corners polygon primitive as box body*
4,1,4,$2,$3,$4,$5,$6,$7,$8,$9,$2,$3,0*
0 Add four circle primitives for the rounded corners*
1,1,$1+$1,$2,$3*
1,1,$1+$1,$4,$5*
1,1,$1+$1,$6,$7*
1,1,$1+$1,$8,$9*
0 Add four rect primitives between the rounded corners*
20,1,$1+$1,$2,$3,$4,$5,0*
20,1,$1+$1,$4,$5,$6,$7,0*
20,1,$1+$1,$6,$7,$8,$9,0*
20,1,$1+$1,$8,$9,$2,$3,0*%
G04 Aperture macros list end*
%TA.AperFunction,ComponentPad*%
%ADD10C,1.778000*%
%TD*%
%TA.AperFunction,ComponentPad*%
%ADD11C,1.905000*%
%TD*%
%TA.AperFunction,ComponentPad*%
%ADD12RoundRect,0.875000X1.697579X1.549024X-2.296114X0.095438X-1.697579X-1.549024X2.296114X-0.095438X0*%
%TD*%
%TA.AperFunction,ComponentPad*%
%ADD13C,1.930400*%
%TD*%
%TA.AperFunction,ComponentPad*%
%ADD14C,4.000000*%
%TD*%
%TA.AperFunction,ComponentPad*%
%ADD15C,3.200000*%
%TD*%
%TA.AperFunction,ComponentPad*%
%ADD16C,1.300000*%
%TD*%
%TA.AperFunction,ComponentPad*%
%ADD17R,1.574800X1.574800*%
%TD*%
%TA.AperFunction,ComponentPad*%
%ADD18C,1.574800*%
%TD*%
%TA.AperFunction,ComponentPad*%
%ADD19R,1.755000X1.755000*%
%TD*%
%TA.AperFunction,ComponentPad*%
%ADD20C,1.755000*%
%TD*%
%TA.AperFunction,SMDPad,CuDef*%
%ADD21R,1.230000X1.770000*%
%TD*%
%TA.AperFunction,ComponentPad*%
%ADD22C,6.000000*%
%TD*%
%TA.AperFunction,ComponentPad*%
%ADD23R,6.000000X6.000000*%
%TD*%
%TA.AperFunction,SMDPad,CuDef*%
%ADD24R,1.160000X1.820000*%
%TD*%
%TA.AperFunction,ComponentPad*%
%ADD25C,1.665000*%
%TD*%
%TA.AperFunction,ViaPad*%
%ADD26C,0.800000*%
%TD*%
%TA.AperFunction,Conductor*%
%ADD27C,0.250000*%
%TD*%
%TA.AperFunction,Conductor*%
%ADD28C,2.540000*%
%TD*%
G04 APERTURE END LIST*
D10*
%TO.P,U3,1,PPS*%
%TO.N,unconnected-(U3-PPS-Pad1)*%
X49305000Y-49935000D03*
%TO.P,U3,2,VIN*%
%TO.N,3.3V-Teensy1*%
X49305000Y-47395000D03*
%TO.P,U3,3,GND*%
%TO.N,GND*%
X49305000Y-44855000D03*
%TO.P,U3,4,RX*%
%TO.N,RX1*%
X49305000Y-42315000D03*
%TO.P,U3,5,TX*%
%TO.N,TX1*%
X49305000Y-39775000D03*
%TO.P,U3,6,FIX*%
%TO.N,unconnected-(U3-FIX-Pad6)*%
X49305000Y-37235000D03*
%TO.P,U3,7,VBAT*%
%TO.N,unconnected-(U3-VBAT-Pad7)*%
X49305000Y-34695000D03*
%TO.P,U3,8,EN*%
%TO.N,EN1*%
X49305000Y-32155000D03*
%TO.P,U3,9,3.3V*%
%TO.N,unconnected-(U3-3.3V-Pad9)*%
X49305000Y-29615000D03*
%TD*%
D11*
%TO.P,J2,1,+*%
%TO.N,5V-Power Reg.*%
X59950000Y-57785800D03*
%TO.P,J2,2,-*%
%TO.N,Net-(J2--)*%
X62450000Y-57785800D03*
%TD*%
%TO.P,J1,1,PWM*%
%TO.N,/Retention  Signal*%
X71600000Y-57785800D03*
%TO.P,J1,2,+*%
%TO.N,5V-Power Reg.*%
X74100000Y-57785800D03*
%TO.P,J1,3,-*%
%TO.N,GND*%
X76600000Y-57785800D03*
%TD*%
D12*
%TO.P,SW1,1,A*%
%TO.N,/22.2V*%
X78748599Y-98457885D03*
%TO.P,SW1,2,B*%
%TO.N,/.1in*%
X76698663Y-92825731D03*
%TD*%
D13*
%TO.P,U14,1,Vin*%
%TO.N,3.3V-Teensy*%
X26800000Y-55445000D03*
%TO.P,U14,2,3v*%
%TO.N,unconnected-(U14-3v-Pad2)*%
X26800000Y-57985000D03*
%TO.P,U14,3,GND*%
%TO.N,GND*%
X26800000Y-60525000D03*
%TO.P,U14,4,SCL*%
%TO.N,SCL2*%
X26800000Y-63065000D03*
%TO.P,U14,5,SDA*%
%TO.N,SDA2*%
X26800000Y-65605000D03*
%TO.P,U14,6,RST*%
%TO.N,RST2*%
X26800000Y-68145000D03*
%TO.P,U14,7,INT*%
%TO.N,unconnected-(U14-INT-Pad7)*%
X44580000Y-57985000D03*
%TO.P,U14,8,ADR*%
%TO.N,unconnected-(U14-ADR-Pad8)*%
X44580000Y-60525000D03*
%TO.P,U14,9,PS0*%
%TO.N,unconnected-(U14-PS0-Pad9)*%
X44580000Y-63065000D03*
%TO.P,U14,10,PS1*%
%TO.N,unconnected-(U14-PS1-Pad10)*%
X44580000Y-65605000D03*
D14*
%TO.P,U14,P$1*%
%TO.N,N/C*%
X28070000Y-51000000D03*
X43310000Y-72590000D03*
%TD*%
D11*
%TO.P,J3,1,+*%
%TO.N,Net-(U2-VO)*%
X71600000Y-64085800D03*
%TO.P,J3,2,+*%
X74100000Y-64085800D03*
%TO.P,J3,3,-*%
%TO.N,Net-(Q3-D)*%
X76600000Y-64085800D03*
%TO.P,J3,4,-*%
X79100000Y-64085800D03*
%TD*%
D10*
%TO.P,U8,1,Vin*%
%TO.N,3.3V-Teensy*%
X76460000Y-85500000D03*
%TO.P,U8,2,3Vo*%
%TO.N,unconnected-(U8-3Vo-Pad2)*%
X79000000Y-85500000D03*
%TO.P,U8,3,GND*%
%TO.N,GND*%
X81540000Y-85500000D03*
%TO.P,U8,4,SCL*%
%TO.N,SCL1*%
X84080000Y-85500000D03*
%TO.P,U8,5,SDO*%
%TO.N,unconnected-(U8-SDO-Pad5)*%
X86620000Y-85500000D03*
%TO.P,U8,6,SDA*%
%TO.N,SDA1*%
X89160000Y-85500000D03*
%TO.P,U8,7,CS*%
%TO.N,unconnected-(U8-CS-Pad7)*%
X91700000Y-85500000D03*
%TO.P,U8,8,INT*%
%TO.N,unconnected-(U8-INT-Pad8)*%
X94240000Y-85500000D03*
D15*
%TO.P,U8,P$1*%
%TO.N,N/C*%
X75190000Y-72800000D03*
X95510000Y-72800000D03*
%TD*%
D16*
%TO.P,U5,1,PG*%
%TO.N,unconnected-(U5-PG-Pad1)*%
X50460000Y-86050000D03*
%TO.P,U5,2,EN*%
%TO.N,unconnected-(U5-EN-Pad2)*%
X47920000Y-86050000D03*
%TO.P,U5,3,VRP*%
%TO.N,unconnected-(U5-VRP-Pad3)*%
X50460000Y-83510000D03*
X47920000Y-83510000D03*
%TO.P,U5,4,VIN*%
%TO.N,/.1in*%
X50460000Y-80970000D03*
X47920000Y-80970000D03*
%TO.P,U5,5,GND*%
%TO.N,GND*%
X50460000Y-75890000D03*
X47920000Y-75890000D03*
X50460000Y-78430000D03*
X47920000Y-78430000D03*
%TO.P,U5,6,VOUT*%
%TO.N,5V-Power Reg.*%
X50460000Y-73350000D03*
X47920000Y-73350000D03*
%TD*%
D17*
%TO.P,LS1,1,1*%
%TO.N,Net-(U1-A4|SDA|PWM)*%
X96170000Y-60420000D03*
D18*
%TO.P,LS1,2,2*%
%TO.N,GND*%
X101170000Y-60420000D03*
%TD*%
D11*
%TO.P,J4,1,+*%
%TO.N,Net-(U7-VO)*%
X54900000Y-64085800D03*
%TO.P,J4,2,+*%
X57400000Y-64085800D03*
%TO.P,J4,3,-*%
%TO.N,Net-(Q3-D)*%
X59900000Y-64085800D03*
%TO.P,J4,4,-*%
X62400000Y-64085800D03*
%TD*%
D19*
%TO.P,Q1,1,D*%
%TO.N,Net-(J2--)*%
X62160000Y-74630000D03*
D20*
%TO.P,Q1,2,G*%
%TO.N,Net-(Q1-G)*%
X59620000Y-74630000D03*
%TO.P,Q1,3,S*%
%TO.N,GND*%
X57080000Y-74630000D03*
%TD*%
D21*
%TO.P,R2,1*%
%TO.N,PixHawk Signal*%
X41722000Y-34070000D03*
%TO.P,R2,2*%
%TO.N,Net-(Q1-G)*%
X38790000Y-34070000D03*
%TD*%
D22*
%TO.P,U6,N,-*%
%TO.N,GND*%
X60800000Y-99125000D03*
D23*
%TO.P,U6,P,+*%
%TO.N,/22.2V*%
X68000000Y-99125000D03*
%TD*%
D19*
%TO.P,Q3,1,D*%
%TO.N,Net-(Q3-D)*%
X67450000Y-79440000D03*
D20*
%TO.P,Q3,2,G*%
%TO.N,Net-(Q3-G)*%
X67450000Y-76900000D03*
%TO.P,Q3,3,S*%
%TO.N,GND*%
X67450000Y-74360000D03*
%TD*%
D21*
%TO.P,R5,1*%
%TO.N,Open Signal*%
X41712000Y-41300000D03*
%TO.P,R5,2*%
%TO.N,Net-(Q3-G)*%
X38780000Y-41300000D03*
%TD*%
%TO.P,R3,1*%
%TO.N,GND*%
X41698000Y-37680000D03*
%TO.P,R3,2*%
%TO.N,Net-(Q1-G)*%
X38766000Y-37680000D03*
%TD*%
D19*
%TO.P,U2,1,GND*%
%TO.N,GND*%
X62660000Y-84780000D03*
D20*
%TO.P,U2,2,VO*%
%TO.N,Net-(U2-VO)*%
X65200000Y-84780000D03*
%TO.P,U2,3,VI*%
%TO.N,5V-Power Reg.*%
X67740000Y-84780000D03*
%TD*%
D24*
%TO.P,C1,1*%
%TO.N,Net-(U2-VO)*%
X88050000Y-73390000D03*
%TO.P,C1,2*%
%TO.N,GND*%
X85100000Y-73390000D03*
%TD*%
D25*
%TO.P,U1,0,PWM|CRX2|CS1|RX1*%
%TO.N,RX1*%
X47150000Y-52800000D03*
%TO.P,U1,1,PWM|CTX2|MISO1|TX1*%
%TO.N,TX1*%
X49690000Y-52800000D03*
%TO.P,U1,2,PWM|OUT2*%
%TO.N,unconnected-(U1-PWM|OUT2-Pad2)*%
X52230000Y-52800000D03*
%TO.P,U1,3,PWM|LRCLK2*%
%TO.N,unconnected-(U1-PWM|LRCLK2-Pad3)*%
X54770000Y-52800000D03*
%TO.P,U1,3.3V1,3.3V*%
%TO.N,3.3V-Teensy*%
X80170000Y-52800000D03*
%TO.P,U1,3.3V2,3.3V(250mA_max)*%
%TO.N,3.3V-Teensy1*%
X49690000Y-68040000D03*
%TO.P,U1,4,PWM|BCLK2*%
%TO.N,unconnected-(U1-PWM|BCLK2-Pad4)*%
X57310000Y-52800000D03*
%TO.P,U1,5,PWM|IN2*%
%TO.N,unconnected-(U1-PWM|IN2-Pad5)*%
X59850000Y-52800000D03*
%TO.P,U1,6,PWM|OUT1D*%
%TO.N,unconnected-(U1-PWM|OUT1D-Pad6)*%
X62390000Y-52800000D03*
%TO.P,U1,7,PWM|OUT1A|RX2*%
%TO.N,unconnected-(U1-PWM|OUT1A|RX2-Pad7)*%
X64930000Y-52800000D03*
%TO.P,U1,8,PWM|IN1|TX2*%
%TO.N,unconnected-(U1-PWM|IN1|TX2-Pad8)*%
X67470000Y-52800000D03*
%TO.P,U1,9,PWM|OUT1C*%
%TO.N,unconnected-(U1-PWM|OUT1C-Pad9)*%
X70010000Y-52800000D03*
%TO.P,U1,10,PWM|MQSR|CS*%
%TO.N,EN2*%
X72550000Y-52800000D03*
%TO.P,U1,11,PWM|CTX1|MOSI*%
%TO.N,MOSI*%
X75090000Y-52800000D03*
%TO.P,U1,12,PWM|MQSL|MISO*%
%TO.N,MISO*%
X77630000Y-52800000D03*
%TO.P,U1,13,(LED)SCK*%
%TO.N,SCK*%
X77630000Y-68040000D03*
%TO.P,U1,14,A0|TX3|S/PDIF_OUT|PWM*%
%TO.N,unconnected-(U1-A0|TX3|S{slash}PDIF_OUT|PWM-Pad14)*%
X75090000Y-68040000D03*
%TO.P,U1,15,A1|RX3|S/PDIF_IN|PWM*%
%TO.N,unconnected-(U1-A1|RX3|S{slash}PDIF_IN|PWM-Pad15)*%
X72550000Y-68040000D03*
%TO.P,U1,16,A2|RX4|SCL1*%
%TO.N,SCL1*%
X70010000Y-68040000D03*
%TO.P,U1,17,A3|TX4|SDA1*%
%TO.N,SDA1*%
X67470000Y-68040000D03*
%TO.P,U1,18,A4|SDA|PWM*%
%TO.N,Net-(U1-A4|SDA|PWM)*%
X64930000Y-68040000D03*
%TO.P,U1,19,A5|SCL|PWM*%
%TO.N,unconnected-(U1-A5|SCL|PWM-Pad19)*%
X62390000Y-68040000D03*
%TO.P,U1,20,A6|TX5|LRCLK1*%
%TO.N,unconnected-(U1-A6|TX5|LRCLK1-Pad20)*%
X59850000Y-68040000D03*
%TO.P,U1,21,A7|RX5|BCLK1*%
%TO.N,unconnected-(U1-A7|RX5|BCLK1-Pad21)*%
X57310000Y-68040000D03*
%TO.P,U1,22,A8|CTX1|PWM*%
%TO.N,unconnected-(U1-A8|CTX1|PWM-Pad22)*%
X54770000Y-68040000D03*
%TO.P,U1,23,A9|CRX1|MCLK1|PWM*%
%TO.N,/Retention  Signal*%
X52230000Y-68040000D03*
%TO.P,U1,24,PWM|SCL2|TX6|A10*%
%TO.N,SCL2*%
X82710000Y-52800000D03*
%TO.P,U1,25,PWM|SDA2|RX6|A11*%
%TO.N,SDA2*%
X85250000Y-52800000D03*
%TO.P,U1,26,MOSI1|A12*%
%TO.N,unconnected-(U1-MOSI1|A12-Pad26)*%
X87790000Y-52800000D03*
%TO.P,U1,27,SCK1|A13*%
%TO.N,Open Signal*%
X90330000Y-52800000D03*
%TO.P,U1,28,PWM|RX7*%
%TO.N,unconnected-(U1-PWM|RX7-Pad28)*%
X92870000Y-52800000D03*
%TO.P,U1,29,PWM|TX7*%
%TO.N,unconnected-(U1-PWM|TX7-Pad29)*%
X95410000Y-52800000D03*
%TO.P,U1,30,CRX3*%
%TO.N,G0*%
X97950000Y-52800000D03*
%TO.P,U1,31,CTX3*%
%TO.N,EN1*%
X100490000Y-52800000D03*
%TO.P,U1,32,OUT1B*%
%TO.N,unconnected-(U1-OUT1B-Pad32)*%
X103030000Y-52800000D03*
%TO.P,U1,33,MCLK2|PWM*%
%TO.N,unconnected-(U1-MCLK2|PWM-Pad33)*%
X103030000Y-68040000D03*
%TO.P,U1,34,RX8*%
%TO.N,unconnected-(U1-RX8-Pad34)*%
X100490000Y-68040000D03*
%TO.P,U1,35,TX8*%
%TO.N,unconnected-(U1-TX8-Pad35)*%
X97950000Y-68040000D03*
%TO.P,U1,36,CS|PWM*%
%TO.N,CS*%
X95410000Y-68040000D03*
%TO.P,U1,37,CS|PWM*%
%TO.N,unconnected-(U1-CS|PWM-Pad37)*%
X92870000Y-68040000D03*
%TO.P,U1,38,A14|CS1|IN1*%
%TO.N,unconnected-(U1-A14|CS1|IN1-Pad38)*%
X90330000Y-68040000D03*
%TO.P,U1,39,A15|MISO1|OUT1A*%
%TO.N,unconnected-(U1-A15|MISO1|OUT1A-Pad39)*%
X87790000Y-68040000D03*
%TO.P,U1,40,A16*%
%TO.N,unconnected-(U1-A16-Pad40)*%
X85250000Y-68040000D03*
%TO.P,U1,41,A17*%
%TO.N,RST2*%
X82710000Y-68040000D03*
%TO.P,U1,GND1,GND*%
%TO.N,GND*%
X44610000Y-52800000D03*
%TO.P,U1,GND2,GND*%
X80170000Y-68040000D03*
%TO.P,U1,GND3,GND*%
X47150000Y-68040000D03*
%TO.P,U1,Vin,Vin(3.6to5.5volts)*%
%TO.N,5V-Power Reg.*%
X44610000Y-68040000D03*
%TD*%
D19*
%TO.P,U7,1,GND*%
%TO.N,GND*%
X57290000Y-79950000D03*
D20*
%TO.P,U7,2,VO*%
%TO.N,Net-(U7-VO)*%
X57290000Y-82490000D03*
%TO.P,U7,3,VI*%
%TO.N,5V-Power Reg.*%
X57290000Y-85030000D03*
%TD*%
D24*
%TO.P,C2,1*%
%TO.N,Net-(U7-VO)*%
X87980000Y-77050000D03*
%TO.P,C2,2*%
%TO.N,GND*%
X85030000Y-77050000D03*
%TD*%
D10*
%TO.P,U4,1,VIN*%
%TO.N,5V-Power Reg.*%
X74230000Y-45940000D03*
%TO.P,U4,2,GND*%
%TO.N,GND*%
X71690000Y-45940000D03*
%TO.P,U4,3,EN*%
%TO.N,EN2*%
X69150000Y-45940000D03*
%TO.P,U4,4,G0*%
%TO.N,G0*%
X66610000Y-45940000D03*
%TO.P,U4,5,SCK*%
%TO.N,SCK*%
X64070000Y-45940000D03*
%TO.P,U4,6,MISO*%
%TO.N,MISO*%
X61530000Y-45940000D03*
%TO.P,U4,7,MOSI*%
%TO.N,MOSI*%
X58990000Y-45940000D03*
%TO.P,U4,8,CS*%
%TO.N,CS*%
X56450000Y-45940000D03*
%TO.P,U4,9,RST*%
%TO.N,unconnected-(U4-RST-Pad9)*%
X53910000Y-45940000D03*
%TO.P,U4,10,G1*%
%TO.N,unconnected-(U4-G1-Pad10)*%
X74230000Y-20540000D03*
%TO.P,U4,11,G2*%
%TO.N,unconnected-(U4-G2-Pad11)*%
X71690000Y-20540000D03*
%TO.P,U4,12,G3*%
%TO.N,unconnected-(U4-G3-Pad12)*%
X69150000Y-20540000D03*
%TO.P,U4,13,G4*%
%TO.N,unconnected-(U4-G4-Pad13)*%
X66610000Y-20540000D03*
%TO.P,U4,14,G5*%
%TO.N,unconnected-(U4-G5-Pad14)*%
X64070000Y-20540000D03*
%TD*%
D21*
%TO.P,R6,1*%
%TO.N,Net-(Q3-G)*%
X41784000Y-44920000D03*
%TO.P,R6,2*%
%TO.N,GND*%
X38852000Y-44920000D03*
%TD*%
D24*
%TO.P,C3,1*%
%TO.N,5V-Power Reg.*%
X88000000Y-80680000D03*
%TO.P,C3,2*%
%TO.N,GND*%
X85050000Y-80680000D03*
%TD*%
D26*
%TO.N,5V-Power Reg.*%
X84042655Y-55577345D03*
X66100000Y-59740000D03*
%TO.N,GND*%
X86530000Y-77050000D03*
X79280000Y-56340000D03*
X86417400Y-73390000D03*
X86392400Y-80692200D03*
X53540000Y-74640000D03*
X40250600Y-44930000D03*
X59910000Y-72500000D03*
X40330000Y-37680000D03*
X81790000Y-56340000D03*
%TO.N,Net-(U2-VO)*%
X91630000Y-69810000D03*
X88740000Y-65420000D03*
%TO.N,Net-(Q1-G)*%
X39476100Y-39588900D03*
%TO.N,Net-(Q3-G)*%
X53500100Y-51330400D03*
%TD*%
D27*
%TO.N,/Retention  Signal*%
X56241800Y-60834200D02*
X52230000Y-64846000D01*
X71600000Y-57785800D02*
X68551600Y-60834200D01*
X52230000Y-64846000D02*
X52230000Y-68040000D01*
X68551600Y-60834200D02*
X56241800Y-60834200D01*
%TO.N,5V-Power Reg.*%
X61904200Y-59740000D02*
X59950000Y-57785800D01*
X80506700Y-59113300D02*
X75427500Y-59113300D01*
X75427500Y-59113300D02*
X74100000Y-57785800D01*
X66100000Y-59740000D02*
X61904200Y-59740000D01*
X84042655Y-55577345D02*
X80506700Y-59113300D01*
%TO.N,GND*%
X53550000Y-74630000D02*
X57080000Y-74630000D01*
X53540000Y-74640000D02*
X53550000Y-74630000D01*
X59910000Y-72500000D02*
X65590000Y-72500000D01*
X40250600Y-44930000D02*
X40240600Y-44920000D01*
X86417400Y-73390000D02*
X85100000Y-73390000D01*
X86392400Y-80692200D02*
X86019100Y-80692200D01*
X40240600Y-44920000D02*
X38852000Y-44920000D01*
X65590000Y-72500000D02*
X67450000Y-74360000D01*
X40330000Y-37680000D02*
X41698000Y-37680000D01*
X86530000Y-77050000D02*
X85030000Y-77050000D01*
X86006900Y-80680000D02*
X85050000Y-80680000D01*
X79280000Y-56340000D02*
X81790000Y-56340000D01*
X86019100Y-80692200D02*
X86006900Y-80680000D01*
%TO.N,Net-(U2-VO)*%
X89830000Y-69810000D02*
X88050000Y-71590000D01*
X87530000Y-75300000D02*
X88050000Y-74780000D01*
X71600000Y-64085800D02*
X74100000Y-64085800D01*
X74100000Y-64085800D02*
X75574200Y-65560000D01*
X75574200Y-65560000D02*
X88600000Y-65560000D01*
X88600000Y-65560000D02*
X88740000Y-65420000D01*
X65200000Y-84780000D02*
X74680000Y-75300000D01*
X91630000Y-69810000D02*
X89830000Y-69810000D01*
X88050000Y-71590000D02*
X88050000Y-73390000D01*
X88050000Y-74780000D02*
X88050000Y-73390000D01*
X74680000Y-75300000D02*
X87530000Y-75300000D01*
%TO.N,Net-(Q3-D)*%
X75210000Y-62300000D02*
X76600000Y-63690000D01*
X62400000Y-64085800D02*
X59900000Y-64085800D01*
X62400000Y-64085800D02*
X64185800Y-62300000D01*
X76600000Y-63690000D02*
X76600000Y-64085800D01*
X64185800Y-62300000D02*
X75210000Y-62300000D01*
X79100000Y-64085800D02*
X76600000Y-64085800D01*
%TO.N,Net-(U7-VO)*%
X57865000Y-82490000D02*
X57290000Y-82490000D01*
X87980000Y-78440000D02*
X87400000Y-79020000D01*
X57400000Y-64085800D02*
X54900000Y-64085800D01*
X87980000Y-77050000D02*
X87980000Y-78440000D01*
X75427900Y-79020000D02*
X68385100Y-86062800D01*
X61437800Y-86062800D02*
X57865000Y-82490000D01*
X68385100Y-86062800D02*
X61437800Y-86062800D01*
X87400000Y-79020000D02*
X75427900Y-79020000D01*
%TO.N,Net-(Q1-G)*%
X39468900Y-39588900D02*
X38766000Y-38886000D01*
X38766000Y-38886000D02*
X38766000Y-37680000D01*
X38790000Y-37656000D02*
X38790000Y-34070000D01*
X38766000Y-37680000D02*
X38790000Y-37656000D01*
X39476100Y-39588900D02*
X39468900Y-39588900D01*
%TO.N,Net-(Q3-G)*%
X53500100Y-51330400D02*
X48912800Y-51330400D01*
X46630000Y-44920000D02*
X41784000Y-44920000D01*
X48912800Y-51330400D02*
X48041000Y-50458600D01*
X41784000Y-43499000D02*
X39585000Y-41300000D01*
X48041000Y-46331000D02*
X46630000Y-44920000D01*
X41784000Y-44920000D02*
X41784000Y-43499000D01*
X39585000Y-41300000D02*
X38780000Y-41300000D01*
X48041000Y-50458600D02*
X48041000Y-46331000D01*
%TO.N,Open Signal*%
X46459000Y-41039000D02*
X45520000Y-40100000D01*
X64263900Y-44280000D02*
X53057600Y-44280000D01*
X43980000Y-40100000D02*
X42780000Y-41300000D01*
X89025700Y-51495700D02*
X79894700Y-51495700D01*
X42780000Y-41300000D02*
X41712000Y-41300000D01*
X90330000Y-52800000D02*
X89025700Y-51495700D01*
X65340000Y-46490200D02*
X65340000Y-45356100D01*
X53057600Y-44280000D02*
X49816600Y-41039000D01*
X77239000Y-48840000D02*
X67689800Y-48840000D01*
X45520000Y-40100000D02*
X43980000Y-40100000D01*
X79894700Y-51495700D02*
X77239000Y-48840000D01*
X67689800Y-48840000D02*
X65340000Y-46490200D01*
X65340000Y-45356100D02*
X64263900Y-44280000D01*
X49816600Y-41039000D02*
X46459000Y-41039000D01*
D28*
%TO.N,/.1in*%
X54020000Y-88970000D02*
X54020000Y-82970000D01*
X50460000Y-80970000D02*
X47920000Y-80970000D01*
X54020000Y-82970000D02*
X52020000Y-80970000D01*
X52020000Y-80970000D02*
X50460000Y-80970000D01*
X57875700Y-92825700D02*
X54020000Y-88970000D01*
X76698700Y-92825700D02*
X57875700Y-92825700D01*
%TO.N,/22.2V*%
X78081500Y-99125000D02*
X78748600Y-98457900D01*
X68000000Y-99125000D02*
X78081500Y-99125000D01*
D27*
%TO.N,3.3V-Teensy*%
X80170000Y-52800000D02*
X78897400Y-54072600D01*
X78897400Y-54072600D02*
X35920300Y-54072600D01*
X29720000Y-58950000D02*
X26800000Y-56030000D01*
X31042900Y-58950000D02*
X29720000Y-58950000D01*
X35920300Y-54072600D02*
X31042900Y-58950000D01*
X26800000Y-56030000D02*
X26800000Y-55445000D01*
%TO.N,MOSI*%
X58990000Y-45940000D02*
X64135900Y-51085900D01*
X64135900Y-51085900D02*
X73375900Y-51085900D01*
X73375900Y-51085900D02*
X75090000Y-52800000D01*
%TO.N,MISO*%
X74530000Y-49700000D02*
X77630000Y-52800000D01*
X65290000Y-49700000D02*
X74530000Y-49700000D01*
X61530000Y-45940000D02*
X65290000Y-49700000D01*
%TO.N,Net-(U1-A4|SDA|PWM)*%
X66330000Y-66640000D02*
X64930000Y-68040000D01*
X88785700Y-66640000D02*
X66330000Y-66640000D01*
X96170000Y-60420000D02*
X95005700Y-60420000D01*
X95005700Y-60420000D02*
X88785700Y-66640000D01*
%TO.N,SCL2*%
X29515200Y-61724800D02*
X36390000Y-54850000D01*
X26800000Y-63065000D02*
X28140200Y-61724800D01*
X80660000Y-54850000D02*
X82710000Y-52800000D01*
X28140200Y-61724800D02*
X29515200Y-61724800D01*
X36390000Y-54850000D02*
X80660000Y-54850000D01*
%TO.N,SDA2*%
X26800000Y-65605000D02*
X28030000Y-64375000D01*
X36860000Y-55540000D02*
X82510000Y-55540000D01*
X28030000Y-64370000D02*
X36860000Y-55540000D01*
X26800000Y-65605000D02*
X26800000Y-64960000D01*
X82510000Y-55540000D02*
X85250000Y-52800000D01*
X28030000Y-64375000D02*
X28030000Y-64370000D01*
%TO.N,G0*%
X78019800Y-47779800D02*
X68449800Y-47779800D01*
X97950000Y-52800000D02*
X95695000Y-50545000D01*
X80785000Y-50545000D02*
X78019800Y-47779800D01*
X68449800Y-47779800D02*
X66610000Y-45940000D01*
X95695000Y-50545000D02*
X80785000Y-50545000D01*
%TO.N,EN1*%
X67965000Y-32155000D02*
X82840000Y-47030000D01*
X49305000Y-32155000D02*
X67965000Y-32155000D01*
X96970000Y-49280000D02*
X100490000Y-52800000D01*
X85580000Y-47030000D02*
X87830000Y-49280000D01*
X87830000Y-49280000D02*
X96970000Y-49280000D01*
X82840000Y-47030000D02*
X85580000Y-47030000D01*
%TO.N,RST2*%
X75949428Y-69247500D02*
X81502500Y-69247500D01*
X35570000Y-76915000D02*
X65675000Y-76915000D01*
X82710000Y-68040000D02*
X81410000Y-69340000D01*
X81502500Y-69247500D02*
X82710000Y-68040000D01*
X65675000Y-76915000D02*
X66947500Y-78187500D01*
X73215000Y-71981928D02*
X75949428Y-69247500D01*
X66947500Y-78187500D02*
X67933803Y-78187500D01*
X67933803Y-78187500D02*
X73215000Y-72906303D01*
X26800000Y-68145000D02*
X35570000Y-76915000D01*
X73215000Y-72906303D02*
X73215000Y-71981928D01*
%TO.N,unconnected-(U5-VRP-Pad3)*%
X47920000Y-83510000D02*
X50460000Y-83510000D01*
%TD*%
%TA.AperFunction,Conductor*%
%TO.N,5V-Power Reg.*%
G36*
X68277769Y-16009941D02*
G01*
X68282217Y-16010219D01*
X71827806Y-16359784D01*
X71832176Y-16360372D01*
X74517681Y-16819603D01*
X74522285Y-16820573D01*
X76979423Y-17437345D01*
X76999952Y-17444461D01*
X77547501Y-17689914D01*
X77586928Y-17717924D01*
X78054446Y-18212943D01*
X78086166Y-18275196D01*
X78086431Y-18276656D01*
X78178327Y-18800468D01*
X78180172Y-18819681D01*
X78189604Y-19347854D01*
X78182705Y-19390910D01*
X77890000Y-20230000D01*
X77760000Y-21480000D01*
X77649999Y-22389998D01*
X77869997Y-23669988D01*
X77870001Y-23670004D01*
X78120000Y-24490000D01*
X78119999Y-24490000D01*
X78849993Y-25699990D01*
X78849997Y-25699996D01*
X78850000Y-25700000D01*
X79910000Y-26870000D01*
X82174431Y-28603268D01*
X82340000Y-28730000D01*
X84550000Y-30510000D01*
X86920000Y-32400000D01*
X89780000Y-34700000D01*
X93480000Y-37660000D01*
X96500000Y-40140000D01*
X97769998Y-41149999D01*
X97770000Y-41150000D01*
X98850000Y-41700000D01*
X100009999Y-42110000D01*
X100229545Y-42140000D01*
X101620000Y-42330000D01*
X102960000Y-42190000D01*
X104280000Y-41900000D01*
X104893365Y-41784994D01*
X104946287Y-41786571D01*
X105239448Y-41859862D01*
X105501244Y-41925311D01*
X105536438Y-41940176D01*
X105929004Y-42183193D01*
X105949355Y-42198930D01*
X106121562Y-42363309D01*
X106156464Y-42423837D01*
X106159943Y-42453136D01*
X106130003Y-70716936D01*
X106129695Y-70723043D01*
X106101534Y-71004658D01*
X106094756Y-71034497D01*
X105936904Y-71470911D01*
X105917367Y-71505892D01*
X105631449Y-71865595D01*
X105604864Y-71890456D01*
X105091243Y-72245321D01*
X105044659Y-72264977D01*
X104524839Y-72367085D01*
X104494896Y-72369263D01*
X104100000Y-72350000D01*
X103510008Y-72320000D01*
X103510004Y-72320000D01*
X103510002Y-72320000D01*
X103510000Y-72320000D01*
X102590000Y-72400000D01*
X102589999Y-72400000D01*
X101820002Y-72599999D01*
X101819988Y-72600004D01*
X101250004Y-72829998D01*
X100659995Y-73120002D01*
X100659992Y-73120004D01*
X100079998Y-73500000D01*
X99489999Y-73980000D01*
X98949997Y-74620002D01*
X98949993Y-74620009D01*
X98440000Y-75379998D01*
X98439998Y-75380002D01*
X98070000Y-76179999D01*
X98069996Y-76180009D01*
X97810000Y-77099996D01*
X97809999Y-77100004D01*
X97742962Y-77912839D01*
X97730000Y-78070000D01*
X97730000Y-78970000D01*
X97792852Y-79276403D01*
X97890000Y-79750001D01*
X97890001Y-79750005D01*
X98146970Y-80365376D01*
X98270000Y-80660000D01*
X98690000Y-81480000D01*
X99270000Y-82230000D01*
X99270002Y-82230002D01*
X99270003Y-82230003D01*
X99315851Y-82271507D01*
X100220000Y-83090000D01*
X100220003Y-83090002D01*
X100220005Y-83090003D01*
X101306560Y-83657752D01*
X101346402Y-83690744D01*
X101662743Y-84090822D01*
X101675411Y-84110373D01*
X101895936Y-84533045D01*
X101910000Y-84590403D01*
X101910000Y-85198521D01*
X101902776Y-85240227D01*
X101616353Y-86042211D01*
X101598637Y-86075091D01*
X100970000Y-86910000D01*
X100061314Y-88128237D01*
X100058563Y-88131665D01*
X98930000Y-89440000D01*
X98041387Y-90488361D01*
X98038482Y-90491556D01*
X97291931Y-91257249D01*
X97231037Y-91291508D01*
X97214452Y-91294169D01*
X95891900Y-91415248D01*
X95823345Y-91401757D01*
X95800287Y-91386244D01*
X95440000Y-91080000D01*
X95405084Y-91055200D01*
X95012752Y-90776534D01*
X94370000Y-90320000D01*
X93080000Y-89620000D01*
X93079999Y-89619999D01*
X93079996Y-89619998D01*
X91389996Y-89209999D01*
X89290001Y-89299999D01*
X87470002Y-89919998D01*
X87469995Y-89920002D01*
X86982579Y-90298000D01*
X86977228Y-90301717D01*
X85640001Y-91129998D01*
X85639999Y-91130000D01*
X84540001Y-92689998D01*
X84540002Y-92689997D01*
X84080000Y-93419998D01*
X83700001Y-94649994D01*
X83699998Y-94650005D01*
X83500000Y-95949992D01*
X83500000Y-95950000D01*
X83559999Y-96969992D01*
X83559999Y-96969997D01*
X83560000Y-96970000D01*
X83602649Y-97282011D01*
X83750000Y-98360000D01*
X83750000Y-98359999D01*
X84002238Y-99689103D01*
X83995398Y-99758637D01*
X83991510Y-99767297D01*
X83448972Y-100861727D01*
X83401560Y-100913049D01*
X83391483Y-100918466D01*
X82703068Y-101248528D01*
X82696779Y-101251129D01*
X80021351Y-102189526D01*
X80018634Y-102190409D01*
X75058836Y-103677350D01*
X75040876Y-103681311D01*
X71990000Y-104120000D01*
X68691811Y-104469807D01*
X68688181Y-104470085D01*
X65713229Y-104609848D01*
X65706778Y-104609815D01*
X61162191Y-104350125D01*
X61157818Y-104349719D01*
X60818085Y-104306010D01*
X57742635Y-103910338D01*
X57737400Y-103909436D01*
X55850000Y-103500000D01*
X54332260Y-103142884D01*
X54308566Y-103134706D01*
X53794777Y-102896841D01*
X53767489Y-102879574D01*
X53462599Y-102625499D01*
X53256135Y-102453446D01*
X53229193Y-102421988D01*
X53073064Y-102161773D01*
X53056547Y-102114843D01*
X52990312Y-101632277D01*
X52989859Y-101627700D01*
X52961377Y-101162497D01*
X52966627Y-101118460D01*
X53120000Y-100620000D01*
X53120002Y-100619995D01*
X53120001Y-100619996D01*
X53370000Y-99450000D01*
X53407632Y-99125000D01*
X57294696Y-99125000D01*
X57313898Y-99491405D01*
X57347527Y-99703732D01*
X57371295Y-99853794D01*
X57421199Y-100040039D01*
X57466260Y-100208206D01*
X57597746Y-100550739D01*
X57764320Y-100877656D01*
X57964147Y-101185364D01*
X58088270Y-101338643D01*
X58195051Y-101470506D01*
X58454494Y-101729949D01*
X58454498Y-101729952D01*
X58739635Y-101960852D01*
X59047343Y-102160679D01*
X59047348Y-102160682D01*
X59374264Y-102327255D01*
X59716801Y-102458742D01*
X60071206Y-102553705D01*
X60433596Y-102611102D01*
X60779734Y-102629241D01*
X60799999Y-102630304D01*
X60800000Y-102630304D01*
X60800001Y-102630304D01*
X60819203Y-102629297D01*
X61166404Y-102611102D01*
X61528794Y-102553705D01*
X61883199Y-102458742D01*
X62225736Y-102327255D01*
X62552652Y-102160682D01*
X62860366Y-101960851D01*
X63145506Y-101729949D01*
X63404949Y-101470506D01*
X63635851Y-101185366D01*
X63835682Y-100877652D01*
X64002255Y-100550736D01*
X64133742Y-100208199D01*
X64228705Y-99853794D01*
X64253027Y-99700226D01*
X64282956Y-99637093D01*
X64342267Y-99600161D01*
X64412130Y-99601159D01*
X64470363Y-99639768D01*
X64498477Y-99703732D01*
X64499500Y-99719625D01*
X64499500Y-102172870D01*
X64499501Y-102172876D01*
X64505908Y-102232483D01*
X64556202Y-102367328D01*
X64556206Y-102367335D01*
X64642452Y-102482544D01*
X64642455Y-102482547D01*
X64757664Y-102568793D01*
X64757671Y-102568797D01*
X64892517Y-102619091D01*
X64892516Y-102619091D01*
X64899444Y-102619835D01*
X64952127Y-102625500D01*
X71047872Y-102625499D01*
X71107483Y-102619091D01*
X71242331Y-102568796D01*
X71357546Y-102482546D01*
X71443796Y-102367331D01*
X71494091Y-102232483D01*
X71500500Y-102172873D01*
X71500500Y-101019500D01*
X71520185Y-100952461D01*
X71572989Y-100906706D01*
X71624500Y-100895500D01*
X75944078Y-100895500D01*
X76011117Y-100915185D01*
X76038121Y-100938680D01*
X76049965Y-100952461D01*
X76080105Y-100987533D01*
X76084132Y-100992218D01*
X76264548Y-101141443D01*
X76264551Y-101141445D01*
X76264556Y-101141449D01*
X76467607Y-101258043D01*
X76687441Y-101338643D01*
X76917736Y-101380933D01*
X77151864Y-101383694D01*
X77383091Y-101346847D01*
X77433493Y-101331477D01*
X81603138Y-99813850D01*
X81651628Y-99793227D01*
X81852443Y-99672823D01*
X82030020Y-99520213D01*
X82179253Y-99339787D01*
X82295847Y-99136736D01*
X82376448Y-98916902D01*
X82418737Y-98686607D01*
X82421498Y-98452480D01*
X82384652Y-98221252D01*
X82369281Y-98170850D01*
X81706705Y-96350437D01*
X81686082Y-96301947D01*
X81565678Y-96101132D01*
X81413068Y-95923554D01*
X81413066Y-95923552D01*
X81413065Y-95923551D01*
X81232649Y-95774326D01*
X81232644Y-95774323D01*
X81232642Y-95774321D01*
X81096756Y-95696294D01*
X81029595Y-95657729D01*
X81029593Y-95657728D01*
X81029591Y-95657727D01*
X80809757Y-95577127D01*
X80579462Y-95534837D01*
X80579459Y-95534836D01*
X80579457Y-95534836D01*
X80348230Y-95532110D01*
X80345334Y-95532076D01*
X80345333Y-95532076D01*
X80114110Y-95568922D01*
X80114108Y-95568922D01*
X80063705Y-95584293D01*
X75894060Y-97101920D01*
X75879367Y-97108168D01*
X75845581Y-97122537D01*
X75845570Y-97122542D01*
X75644752Y-97242948D01*
X75549809Y-97324543D01*
X75486136Y-97353309D01*
X75468989Y-97354500D01*
X71624499Y-97354500D01*
X71557460Y-97334815D01*
X71511705Y-97282011D01*
X71500499Y-97230500D01*
X71500499Y-96077129D01*
X71500498Y-96077123D01*
X71500497Y-96077116D01*
X71494091Y-96017517D01*
X71490756Y-96008576D01*
X71443797Y-95882671D01*
X71443793Y-95882664D01*
X71357547Y-95767455D01*
X71357544Y-95767452D01*
X71242335Y-95681206D01*
X71242328Y-95681202D01*
X71107482Y-95630908D01*
X71107483Y-95630908D01*
X71047883Y-95624501D01*
X71047881Y-95624500D01*
X71047873Y-95624500D01*
X71047864Y-95624500D01*
X64952129Y-95624500D01*
X64952123Y-95624501D01*
X64892516Y-95630908D01*
X64757671Y-95681202D01*
X64757664Y-95681206D01*
X64642455Y-95767452D01*
X64642452Y-95767455D01*
X64556206Y-95882664D01*
X64556202Y-95882671D01*
X64505908Y-96017517D01*
X64503871Y-96036468D01*
X64499501Y-96077123D01*
X64499500Y-96077135D01*
X64499500Y-98530373D01*
X64479815Y-98597412D01*
X64427011Y-98643167D01*
X64357853Y-98653111D01*
X64294297Y-98624086D01*
X64256523Y-98565308D01*
X64253027Y-98549771D01*
X64251581Y-98540639D01*
X64228705Y-98396206D01*
X64133742Y-98041801D01*
X64002255Y-97699264D01*
X63835682Y-97372348D01*
X63835679Y-97372343D01*
X63635852Y-97064635D01*
X63404952Y-96779498D01*
X63404949Y-96779494D01*
X63145506Y-96520051D01*
X63010889Y-96411040D01*
X62860364Y-96289147D01*
X62552656Y-96089320D01*
X62225739Y-95922746D01*
X61883206Y-95791260D01*
X61883199Y-95791258D01*
X61528794Y-95696295D01*
X61528790Y-95696294D01*
X61528789Y-95696294D01*
X61166405Y-95638898D01*
X60800001Y-95619696D01*
X60799999Y-95619696D01*
X60433594Y-95638898D01*
X60071211Y-95696294D01*
X60071209Y-95696294D01*
X59716793Y-95791260D01*
X59374260Y-95922746D01*
X59047343Y-96089320D01*
X58739635Y-96289147D01*
X58454498Y-96520047D01*
X58454490Y-96520054D01*
X58195054Y-96779490D01*
X58195047Y-96779498D01*
X57964147Y-97064635D01*
X57764320Y-97372343D01*
X57597746Y-97699260D01*
X57466260Y-98041793D01*
X57371294Y-98396209D01*
X57371294Y-98396211D01*
X57313898Y-98758594D01*
X57294696Y-99124999D01*
X57294696Y-99125000D01*
X53407632Y-99125000D01*
X53480000Y-98500000D01*
X53440000Y-96810000D01*
X53080000Y-95980000D01*
X52220000Y-94430000D01*
X52193787Y-94407316D01*
X51180000Y-93530000D01*
X49680000Y-92330000D01*
X47220000Y-90320000D01*
X45540000Y-88950000D01*
X43220000Y-87140000D01*
X42664052Y-86676710D01*
X41660000Y-85840000D01*
X39541759Y-84311269D01*
X39538347Y-84308620D01*
X37180000Y-82340000D01*
X35260000Y-80700000D01*
X33350000Y-79220000D01*
X32200000Y-78620000D01*
X32199999Y-78619999D01*
X32199996Y-78619998D01*
X30700000Y-78100000D01*
X28429999Y-78140000D01*
X28191818Y-78202328D01*
X27360000Y-78420000D01*
X27359991Y-78420002D01*
X27359991Y-78420003D01*
X26792441Y-78612392D01*
X26746335Y-78618796D01*
X26189780Y-78590497D01*
X26170414Y-78587972D01*
X25690875Y-78486531D01*
X25636002Y-78459502D01*
X25626726Y-78451579D01*
X25214846Y-78099764D01*
X25176656Y-78041255D01*
X25172887Y-78024739D01*
X25071525Y-77379710D01*
X25070024Y-77360171D01*
X25092984Y-68291100D01*
X25112839Y-68224113D01*
X25165758Y-68178492D01*
X25234942Y-68168723D01*
X25298424Y-68197909D01*
X25336049Y-68256782D01*
X25340560Y-68281175D01*
X25349335Y-68387069D01*
X25408965Y-68622543D01*
X25506537Y-68844986D01*
X25639390Y-69048334D01*
X25639393Y-69048337D01*
X25803906Y-69227046D01*
X25803909Y-69227048D01*
X25803912Y-69227051D01*
X25995582Y-69376234D01*
X25995588Y-69376238D01*
X25995591Y-69376240D01*
X26209217Y-69491849D01*
X26438959Y-69570719D01*
X26678549Y-69610700D01*
X26678550Y-69610700D01*
X26921450Y-69610700D01*
X26921451Y-69610700D01*
X27161041Y-69570719D01*
X27221894Y-69549827D01*
X27291690Y-69546678D01*
X27349837Y-69579428D01*
X35069197Y-77298788D01*
X35079022Y-77311051D01*
X35079243Y-77310869D01*
X35084214Y-77316878D01*
X35110217Y-77341295D01*
X35134635Y-77364226D01*
X35155529Y-77385120D01*
X35161011Y-77389373D01*
X35165443Y-77393157D01*
X35199418Y-77425062D01*
X35216976Y-77434714D01*
X35233233Y-77445393D01*
X35249064Y-77457673D01*
X35268737Y-77466186D01*
X35291833Y-77476182D01*
X35297077Y-77478750D01*
X35337908Y-77501197D01*
X35350523Y-77504435D01*
X35357305Y-77506177D01*
X35375719Y-77512481D01*
X35394104Y-77520438D01*
X35440157Y-77527732D01*
X35445826Y-77528906D01*
X35490981Y-77540500D01*
X35511016Y-77540500D01*
X35530413Y-77542026D01*
X35550196Y-77545160D01*
X35596584Y-77540775D01*
X35602422Y-77540500D01*
X46900995Y-77540500D01*
X46968034Y-77560185D01*
X47013789Y-77612989D01*
X47023733Y-77682147D01*
X46999949Y-77739227D01*
X46937632Y-77821746D01*
X46842596Y-78012605D01*
X46842596Y-78012607D01*
X46784244Y-78217689D01*
X46764797Y-78427566D01*
X46764571Y-78430000D01*
X46784244Y-78642310D01*
X46837695Y-78830169D01*
X46842596Y-78847392D01*
X46842596Y-78847394D01*
X46937632Y-79038253D01*
X47004660Y-79127011D01*
X47056589Y-79195776D01*
X47066129Y-79208408D01*
X47081969Y-79222848D01*
X47118251Y-79282559D01*
X47116492Y-79352406D01*
X47077249Y-79410214D01*
X47060433Y-79421873D01*
X46976410Y-79470383D01*
X46930129Y-79497105D01*
X46919842Y-79503044D01*
X46712377Y-79668492D01*
X46712375Y-79668494D01*
X46531883Y-79863019D01*
X46382404Y-80082263D01*
X46382397Y-80082274D01*
X46267268Y-80321344D01*
X46267261Y-80321363D01*
X46189051Y-80574916D01*
X46189048Y-80574926D01*
X46149500Y-80837311D01*
X46149500Y-81102688D01*
X46189048Y-81365073D01*
X46189051Y-81365083D01*
X46267261Y-81618636D01*
X46267268Y-81618655D01*
X46382397Y-81857723D01*
X46382398Y-81857725D01*
X46382400Y-81857728D01*
X46382402Y-81857732D01*
X46531886Y-82076984D01*
X46712377Y-82271508D01*
X46919845Y-82436958D01*
X47015967Y-82492454D01*
X47060432Y-82518126D01*
X47108648Y-82568693D01*
X47121871Y-82637300D01*
X47095902Y-82702165D01*
X47081972Y-82717149D01*
X47066127Y-82731593D01*
X46937632Y-82901746D01*
X46842596Y-83092605D01*
X46842596Y-83092607D01*
X46784244Y-83297689D01*
X46764571Y-83509999D01*
X46764571Y-83510000D01*
X46784244Y-83722310D01*
X46842596Y-83927392D01*
X46842596Y-83927394D01*
X46937632Y-84118253D01*
X47066127Y-84288406D01*
X47066128Y-84288407D01*
X47223698Y-84432052D01*
X47404981Y-84544298D01*
X47603802Y-84621321D01*
X47800613Y-84658111D01*
X47862893Y-84689779D01*
X47898166Y-84750092D01*
X47895232Y-84819900D01*
X47855023Y-84877040D01*
X47800613Y-84901888D01*
X47603802Y-84938679D01*
X47603799Y-84938679D01*
X47603799Y-84938680D01*
X47404982Y-85015701D01*
X47404980Y-85015702D01*
X47223699Y-85127947D01*
X47066127Y-85271593D01*
X46937632Y-85441746D01*
X46842596Y-85632605D01*
X46842596Y-85632607D01*
X46815031Y-85729488D01*
X46784244Y-85837690D01*
X46764571Y-86050000D01*
X46784244Y-86262310D01*
X46841823Y-86464677D01*
X46842596Y-86467392D01*
X46842596Y-86467394D01*
X46937632Y-86658253D01*
X47066127Y-86828406D01*
X47066128Y-86828407D01*
X47223698Y-86972052D01*
X47404981Y-87084298D01*
X47603802Y-87161321D01*
X47813390Y-87200500D01*
X47813392Y-87200500D01*
X48026608Y-87200500D01*
X48026610Y-87200500D01*
X48236198Y-87161321D01*
X48435019Y-87084298D01*
X48616302Y-86972052D01*
X48773872Y-86828407D01*
X48902366Y-86658255D01*
X48964775Y-86532920D01*
X48997403Y-86467394D01*
X48997403Y-86467393D01*
X48997405Y-86467389D01*
X49055756Y-86262310D01*
X49066529Y-86146047D01*
X49092315Y-86081111D01*
X49136869Y-86049194D01*
X49100497Y-86028331D01*
X49068307Y-85966318D01*
X49066529Y-85953951D01*
X49064983Y-85937270D01*
X49055756Y-85837690D01*
X48997405Y-85632611D01*
X48997403Y-85632606D01*
X48997403Y-85632605D01*
X48902367Y-85441746D01*
X48773872Y-85271593D01*
X48758419Y-85257506D01*
X48616302Y-85127948D01*
X48435019Y-85015702D01*
X48435017Y-85015701D01*
X48335608Y-84977190D01*
X48236198Y-84938679D01*
X48039385Y-84901888D01*
X47977106Y-84870221D01*
X47941833Y-84809908D01*
X47944767Y-84740100D01*
X47984976Y-84682960D01*
X48039384Y-84658111D01*
X48236198Y-84621321D01*
X48435019Y-84544298D01*
X48616302Y-84432052D01*
X48773872Y-84288407D01*
X48852133Y-84184772D01*
X48908242Y-84143137D01*
X48951087Y-84135500D01*
X49428913Y-84135500D01*
X49495952Y-84155185D01*
X49527865Y-84184771D01*
X49606128Y-84288407D01*
X49763698Y-84432052D01*
X49944981Y-84544298D01*
X50143802Y-84621321D01*
X50340613Y-84658111D01*
X50402893Y-84689779D01*
X50438166Y-84750092D01*
X50435232Y-84819900D01*
X50395023Y-84877040D01*
X50340613Y-84901888D01*
X50143802Y-84938679D01*
X50143799Y-84938679D01*
X50143799Y-84938680D01*
X49944982Y-85015701D01*
X49944980Y-85015702D01*
X49763699Y-85127947D01*
X49606127Y-85271593D01*
X49477632Y-85441746D01*
X49382596Y-85632605D01*
X49382596Y-85632607D01*
X49324244Y-85837689D01*
X49313471Y-85953951D01*
X49287685Y-86018888D01*
X49243130Y-86050804D01*
X49279503Y-86071668D01*
X49311693Y-86133681D01*
X49313470Y-86146047D01*
X49324244Y-86262310D01*
X49381823Y-86464677D01*
X49382596Y-86467392D01*
X49382596Y-86467394D01*
X49477632Y-86658253D01*
X49606127Y-86828406D01*
X49606128Y-86828407D01*
X49763698Y-86972052D01*
X49944981Y-87084298D01*
X50143802Y-87161321D01*
X50353390Y-87200500D01*
X50353392Y-87200500D01*
X50566608Y-87200500D01*
X50566610Y-87200500D01*
X50776198Y-87161321D01*
X50975019Y-87084298D01*
X51156302Y-86972052D01*
X51313872Y-86828407D01*
X51442366Y-86658255D01*
X51504775Y-86532920D01*
X51537403Y-86467394D01*
X51537403Y-86467393D01*
X51537405Y-86467389D01*
X51595756Y-86262310D01*
X51615429Y-86050000D01*
X51595756Y-85837690D01*
X51537405Y-85632611D01*
X51537403Y-85632606D01*
X51537403Y-85632605D01*
X51442367Y-85441746D01*
X51313872Y-85271593D01*
X51298419Y-85257506D01*
X51156302Y-85127948D01*
X50975019Y-85015702D01*
X50975017Y-85015701D01*
X50875608Y-84977190D01*
X50776198Y-84938679D01*
X50579385Y-84901888D01*
X50517106Y-84870221D01*
X50481833Y-84809908D01*
X50484767Y-84740100D01*
X50524976Y-84682960D01*
X50579384Y-84658111D01*
X50776198Y-84621321D01*
X50975019Y-84544298D01*
X51156302Y-84432052D01*
X51313872Y-84288407D01*
X51442366Y-84118255D01*
X51442367Y-84118253D01*
X51537403Y-83927394D01*
X51537403Y-83927393D01*
X51537405Y-83927389D01*
X51595756Y-83722310D01*
X51615429Y-83510000D01*
X51602108Y-83366245D01*
X51615523Y-83297678D01*
X51663880Y-83247246D01*
X51731826Y-83230963D01*
X51797788Y-83254000D01*
X51813260Y-83267125D01*
X52213181Y-83667046D01*
X52246666Y-83728369D01*
X52249500Y-83754727D01*
X52249500Y-88936869D01*
X52245775Y-89036386D01*
X52256924Y-89135328D01*
X52264364Y-89234617D01*
X52270989Y-89263643D01*
X52272155Y-89270502D01*
X52275487Y-89300077D01*
X52282443Y-89326037D01*
X52301257Y-89396252D01*
X52323414Y-89493327D01*
X52323416Y-89493332D01*
X52334286Y-89521028D01*
X52336461Y-89527638D01*
X52341447Y-89546245D01*
X52344168Y-89556399D01*
X52383986Y-89647663D01*
X52420219Y-89739984D01*
X52420362Y-89740347D01*
X52435242Y-89766120D01*
X52438377Y-89772330D01*
X52450281Y-89799613D01*
X52450286Y-89799623D01*
X52488368Y-89860230D01*
X52503259Y-89883929D01*
X52550375Y-89965536D01*
X52553043Y-89970156D01*
X52571601Y-89993428D01*
X52575626Y-89999102D01*
X52591464Y-90024307D01*
X52592555Y-90025575D01*
X52656416Y-90099782D01*
X52718492Y-90177623D01*
X52791488Y-90245353D01*
X56600346Y-94054211D01*
X56639804Y-94096737D01*
X56668069Y-94127200D01*
X56668070Y-94127202D01*
X56668075Y-94127206D01*
X56668077Y-94127208D01*
X56710543Y-94161073D01*
X56745917Y-94189283D01*
X56821388Y-94254232D01*
X56821389Y-94254233D01*
X56821392Y-94254235D01*
X56846609Y-94270079D01*
X56852272Y-94274098D01*
X56875545Y-94292658D01*
X56961774Y-94342442D01*
X57046080Y-94395415D01*
X57073366Y-94407320D01*
X57079566Y-94410450D01*
X57105355Y-94425339D01*
X57198035Y-94461713D01*
X57289300Y-94501532D01*
X57318061Y-94509237D01*
X57324664Y-94511410D01*
X57352373Y-94522286D01*
X57352379Y-94522287D01*
X57352381Y-94522288D01*
X57373609Y-94527133D01*
X57449445Y-94544442D01*
X57545620Y-94570212D01*
X57575199Y-94573544D01*
X57582044Y-94574707D01*
X57611081Y-94581335D01*
X57611086Y-94581335D01*
X57611089Y-94581336D01*
X57710388Y-94588776D01*
X57809313Y-94599923D01*
X57908814Y-94596200D01*
X73531081Y-94596200D01*
X73598120Y-94615885D01*
X73643875Y-94668689D01*
X73647602Y-94677786D01*
X73740557Y-94933179D01*
X73748612Y-94952118D01*
X73761174Y-94981657D01*
X73761179Y-94981668D01*
X73881583Y-95182483D01*
X74034196Y-95360064D01*
X74214612Y-95509289D01*
X74214615Y-95509291D01*
X74214620Y-95509295D01*
X74417671Y-95625889D01*
X74637505Y-95706489D01*
X74867800Y-95748779D01*
X75101928Y-95751540D01*
X75333155Y-95714693D01*
X75383557Y-95699323D01*
X79553202Y-94181696D01*
X79601692Y-94161073D01*
X79802507Y-94040669D01*
X79980084Y-93888059D01*
X80129317Y-93707633D01*
X80245911Y-93504582D01*
X80326512Y-93284748D01*
X80368801Y-93054453D01*
X80371562Y-92820326D01*
X80334716Y-92589098D01*
X80319345Y-92538696D01*
X79656769Y-90718283D01*
X79636146Y-90669793D01*
X79515742Y-90468978D01*
X79363132Y-90291400D01*
X79363130Y-90291398D01*
X79363129Y-90291397D01*
X79182713Y-90142172D01*
X79182708Y-90142169D01*
X79182706Y-90142167D01*
X79062785Y-90073307D01*
X78979659Y-90025575D01*
X78979657Y-90025574D01*
X78979655Y-90025573D01*
X78759821Y-89944973D01*
X78529526Y-89902683D01*
X78529523Y-89902682D01*
X78529521Y-89902682D01*
X78298294Y-89899956D01*
X78295398Y-89899922D01*
X78295397Y-89899922D01*
X78064174Y-89936768D01*
X78064172Y-89936768D01*
X78021472Y-89949790D01*
X78013769Y-89952139D01*
X75161806Y-90990169D01*
X75003680Y-91047722D01*
X74961269Y-91055200D01*
X70820236Y-91055200D01*
X70753197Y-91035515D01*
X70707442Y-90982711D01*
X70697498Y-90913553D01*
X70715913Y-90864173D01*
X70720149Y-90857582D01*
X70722804Y-90853774D01*
X70781134Y-90776534D01*
X70810249Y-90718062D01*
X70813569Y-90712217D01*
X70821034Y-90700603D01*
X70828687Y-90681486D01*
X70830710Y-90676970D01*
X70871217Y-90595622D01*
X70890382Y-90528264D01*
X70892439Y-90522242D01*
X70898226Y-90507787D01*
X70901957Y-90488427D01*
X70903189Y-90483252D01*
X70926525Y-90401237D01*
X70933434Y-90326667D01*
X70934286Y-90320688D01*
X70937532Y-90303847D01*
X70938166Y-90277138D01*
X70938408Y-90272988D01*
X70945172Y-90200000D01*
X70938408Y-90127013D01*
X70938166Y-90122859D01*
X70937532Y-90096153D01*
X70934285Y-90079308D01*
X70933434Y-90073334D01*
X70926525Y-89998763D01*
X70903189Y-89916747D01*
X70901957Y-89911572D01*
X70898226Y-89892213D01*
X70892441Y-89877764D01*
X70890372Y-89871699D01*
X70871800Y-89806427D01*
X70871217Y-89804378D01*
X70868849Y-89799623D01*
X70855259Y-89772330D01*
X70830722Y-89723054D01*
X70828673Y-89718479D01*
X70821034Y-89699396D01*
X70817917Y-89694547D01*
X70813577Y-89687794D01*
X70810245Y-89681929D01*
X70781134Y-89623466D01*
X70722812Y-89546235D01*
X70720137Y-89542399D01*
X70708746Y-89524674D01*
X70700543Y-89516070D01*
X70695946Y-89510659D01*
X70659342Y-89462187D01*
X70659342Y-89462186D01*
X70583135Y-89392715D01*
X70580032Y-89389681D01*
X70565426Y-89374363D01*
X70565420Y-89374357D01*
X70557395Y-89368642D01*
X70551586Y-89363955D01*
X70514953Y-89330560D01*
X70509989Y-89326034D01*
X70416423Y-89268100D01*
X70413122Y-89265906D01*
X70396240Y-89253885D01*
X70396238Y-89253884D01*
X70389225Y-89250681D01*
X70382339Y-89246996D01*
X70338160Y-89219642D01*
X70338156Y-89219640D01*
X70228447Y-89177138D01*
X70225088Y-89175722D01*
X70207319Y-89167607D01*
X70207308Y-89167603D01*
X70201987Y-89166313D01*
X70194204Y-89163872D01*
X70149713Y-89146636D01*
X70025647Y-89123444D01*
X70022422Y-89122752D01*
X70005474Y-89118640D01*
X70002310Y-89118489D01*
X69993871Y-89117504D01*
X69951052Y-89109500D01*
X69951050Y-89109500D01*
X69815079Y-89109500D01*
X69812129Y-89109430D01*
X69798017Y-89108757D01*
X69792117Y-89109039D01*
X69792111Y-89108918D01*
X69783986Y-89109500D01*
X69748950Y-89109500D01*
X69700055Y-89118640D01*
X69602651Y-89136847D01*
X69592438Y-89138316D01*
X69592435Y-89138316D01*
X69592427Y-89138318D01*
X69586128Y-89139846D01*
X69582911Y-89140536D01*
X69550291Y-89146635D01*
X69398520Y-89205431D01*
X69396038Y-89206290D01*
X69393071Y-89207541D01*
X69361841Y-89219641D01*
X69361840Y-89219641D01*
X69190009Y-89326035D01*
X69040659Y-89462184D01*
X68918866Y-89623465D01*
X68828787Y-89804367D01*
X68828782Y-89804380D01*
X68773474Y-89998763D01*
X68754828Y-90199999D01*
X68754828Y-90200000D01*
X68773474Y-90401236D01*
X68792749Y-90468978D01*
X68828783Y-90595622D01*
X68828783Y-90595623D01*
X68828787Y-90595632D01*
X68918866Y-90776534D01*
X68979233Y-90856473D01*
X69003925Y-90921835D01*
X68989360Y-90990169D01*
X68940162Y-91039782D01*
X68880279Y-91055200D01*
X58660427Y-91055200D01*
X58593388Y-91035515D01*
X58572746Y-91018881D01*
X55826819Y-88272954D01*
X55793334Y-88211631D01*
X55790500Y-88185273D01*
X55790500Y-86378511D01*
X57002147Y-86378511D01*
X57175858Y-86407500D01*
X57404138Y-86407500D01*
X57404144Y-86407499D01*
X57577851Y-86378511D01*
X57290001Y-86090660D01*
X57290000Y-86090660D01*
X57002147Y-86378511D01*
X55790500Y-86378511D01*
X55790500Y-85438603D01*
X55810185Y-85371564D01*
X55862989Y-85325809D01*
X55932147Y-85315865D01*
X55941518Y-85317821D01*
X56229340Y-85030000D01*
X56699952Y-85030000D01*
X56720057Y-85182716D01*
X56779003Y-85325024D01*
X56872773Y-85447227D01*
X56994976Y-85540997D01*
X57137284Y-85599943D01*
X57251656Y-85615000D01*
X57328344Y-85615000D01*
X57442716Y-85599943D01*
X57585024Y-85540997D01*
X57707227Y-85447227D01*
X57800997Y-85325024D01*
X57859943Y-85182716D01*
X57880048Y-85030000D01*
X57859943Y-84877284D01*
X57800997Y-84734976D01*
X57707227Y-84612773D01*
X57585024Y-84519003D01*
X57442716Y-84460057D01*
X57328344Y-84445000D01*
X57251656Y-84445000D01*
X57137284Y-84460057D01*
X56994976Y-84519003D01*
X56872773Y-84612773D01*
X56779003Y-84734976D01*
X56720057Y-84877284D01*
X56699952Y-85030000D01*
X56229340Y-85030000D01*
X55940163Y-84740823D01*
X55877559Y-84739765D01*
X55819428Y-84701002D01*
X55791481Y-84636965D01*
X55790500Y-84621395D01*
X55790500Y-83093327D01*
X55810185Y-83026288D01*
X55862989Y-82980533D01*
X55932147Y-82970589D01*
X55995703Y-82999614D01*
X56028056Y-83043518D01*
X56073929Y-83148100D01*
X56198834Y-83339283D01*
X56198837Y-83339286D01*
X56353507Y-83507302D01*
X56533722Y-83647569D01*
X56734566Y-83756261D01*
X56950562Y-83830412D01*
X57152050Y-83864034D01*
X57214936Y-83894484D01*
X57219322Y-83898662D01*
X58638172Y-85317512D01*
X58653368Y-85257506D01*
X58653370Y-85257497D01*
X58672221Y-85030005D01*
X58672221Y-85029994D01*
X58653370Y-84802502D01*
X58653368Y-84802490D01*
X58597328Y-84581195D01*
X58505627Y-84372135D01*
X58486920Y-84343502D01*
X58466732Y-84276612D01*
X58485913Y-84209427D01*
X58538372Y-84163277D01*
X58607454Y-84152814D01*
X58671226Y-84181361D01*
X58678407Y-84187997D01*
X59807921Y-85317512D01*
X60936997Y-86446588D01*
X60946822Y-86458851D01*
X60947043Y-86458669D01*
X60952014Y-86464678D01*
X60972843Y-86484237D01*
X61002435Y-86512026D01*
X61023329Y-86532920D01*
X61028811Y-86537173D01*
X61033243Y-86540957D01*
X61067218Y-86572862D01*
X61084776Y-86582514D01*
X61101035Y-86593195D01*
X61116864Y-86605473D01*
X61159638Y-86623982D01*
X61164856Y-86626538D01*
X61205708Y-86648997D01*
X61225116Y-86653980D01*
X61243517Y-86660280D01*
X61261904Y-86668237D01*
X61305288Y-86675108D01*
X61307919Y-86675525D01*
X61313639Y-86676709D01*
X61358781Y-86688300D01*
X61378816Y-86688300D01*
X61398214Y-86689826D01*
X61417994Y-86692959D01*
X61417995Y-86692960D01*
X61417995Y-86692959D01*
X61417996Y-86692960D01*
X61464384Y-86688575D01*
X61470222Y-86688300D01*
X68302357Y-86688300D01*
X68317977Y-86690024D01*
X68318004Y-86689739D01*
X68325760Y-86690471D01*
X68325767Y-86690473D01*
X68394914Y-86688300D01*
X68424450Y-86688300D01*
X68431328Y-86687430D01*
X68437141Y-86686972D01*
X68483727Y-86685509D01*
X68502969Y-86679917D01*
X68522012Y-86675974D01*
X68541892Y-86673464D01*
X68585222Y-86656307D01*
X68590746Y-86654417D01*
X68594496Y-86653327D01*
X68635490Y-86641418D01*
X68652729Y-86631222D01*
X68670203Y-86622662D01*
X68688827Y-86615288D01*
X68688827Y-86615287D01*
X68688832Y-86615286D01*
X68726549Y-86587882D01*
X68731405Y-86584692D01*
X68771520Y-86560970D01*
X68785689Y-86546799D01*
X68800479Y-86534168D01*
X68816687Y-86522394D01*
X68846399Y-86486476D01*
X68850312Y-86482176D01*
X69832483Y-85500005D01*
X75065738Y-85500005D01*
X75084753Y-85729484D01*
X75141282Y-85952714D01*
X75233782Y-86163594D01*
X75359728Y-86356370D01*
X75359731Y-86356373D01*
X75515692Y-86525792D01*
X75595486Y-86587898D01*
X75685878Y-86658253D01*
X75697411Y-86667229D01*
X75899931Y-86776828D01*
X76013025Y-86815653D01*
X76117725Y-86851597D01*
X76117727Y-86851597D01*
X76117729Y-86851598D01*
X76344863Y-86889500D01*
X76344864Y-86889500D01*
X76575136Y-86889500D01*
X76575137Y-86889500D01*
X76802271Y-86851598D01*
X77020069Y-86776828D01*
X77222589Y-86667229D01*
X77404308Y-86525792D01*
X77560269Y-86356373D01*
X77560271Y-86356370D01*
X77626191Y-86255472D01*
X77679337Y-86210115D01*
X77748569Y-86200691D01*
X77811905Y-86230193D01*
X77833809Y-86255472D01*
X77899728Y-86356370D01*
X77899731Y-86356373D01*
X78055692Y-86525792D01*
X78135486Y-86587898D01*
X78225878Y-86658253D01*
X78237411Y-86667229D01*
X78439931Y-86776828D01*
X78553025Y-86815653D01*
X78657725Y-86851597D01*
X78657727Y-86851597D01*
X78657729Y-86851598D01*
X78884863Y-86889500D01*
X78884864Y-86889500D01*
X79115136Y-86889500D01*
X79115137Y-86889500D01*
X79342271Y-86851598D01*
X79560069Y-86776828D01*
X79762589Y-86667229D01*
X79944308Y-86525792D01*
X80100269Y-86356373D01*
X80100271Y-86356370D01*
X80166191Y-86255472D01*
X80219337Y-86210115D01*
X80288569Y-86200691D01*
X80351905Y-86230193D01*
X80373809Y-86255472D01*
X80439728Y-86356370D01*
X80439731Y-86356373D01*
X80595692Y-86525792D01*
X80675486Y-86587898D01*
X80765878Y-86658253D01*
X80777411Y-86667229D01*
X80979931Y-86776828D01*
X81093025Y-86815653D01*
X81197725Y-86851597D01*
X81197727Y-86851597D01*
X81197729Y-86851598D01*
X81424863Y-86889500D01*
X81424864Y-86889500D01*
X81655136Y-86889500D01*
X81655137Y-86889500D01*
X81882271Y-86851598D01*
X82100069Y-86776828D01*
X82302589Y-86667229D01*
X82484308Y-86525792D01*
X82640269Y-86356373D01*
X82640271Y-86356370D01*
X82706191Y-86255472D01*
X82759337Y-86210115D01*
X82828569Y-86200691D01*
X82891905Y-86230193D01*
X82913809Y-86255472D01*
X82979728Y-86356370D01*
X82979731Y-86356373D01*
X83135692Y-86525792D01*
X83215486Y-86587898D01*
X83305878Y-86658253D01*
X83317411Y-86667229D01*
X83519931Y-86776828D01*
X83633025Y-86815653D01*
X83737725Y-86851597D01*
X83737727Y-86851597D01*
X83737729Y-86851598D01*
X83964863Y-86889500D01*
X83964864Y-86889500D01*
X84195136Y-86889500D01*
X84195137Y-86889500D01*
X84422271Y-86851598D01*
X84640069Y-86776828D01*
X84842589Y-86667229D01*
X85024308Y-86525792D01*
X85180269Y-86356373D01*
X85180271Y-86356370D01*
X85246191Y-86255472D01*
X85299337Y-86210115D01*
X85368569Y-86200691D01*
X85431905Y-86230193D01*
X85453809Y-86255472D01*
X85519728Y-86356370D01*
X85519731Y-86356373D01*
X85675692Y-86525792D01*
X85755486Y-86587898D01*
X85845878Y-86658253D01*
X85857411Y-86667229D01*
X86059931Y-86776828D01*
X86173025Y-86815653D01*
X86277725Y-86851597D01*
X86277727Y-86851597D01*
X86277729Y-86851598D01*
X86504863Y-86889500D01*
X86504864Y-86889500D01*
X86735136Y-86889500D01*
X86735137Y-86889500D01*
X86962271Y-86851598D01*
X87180069Y-86776828D01*
X87382589Y-86667229D01*
X87564308Y-86525792D01*
X87720269Y-86356373D01*
X87720271Y-86356370D01*
X87786191Y-86255472D01*
X87839337Y-86210115D01*
X87908569Y-86200691D01*
X87971905Y-86230193D01*
X87993809Y-86255472D01*
X88059728Y-86356370D01*
X88059731Y-86356373D01*
X88215692Y-86525792D01*
X88295486Y-86587898D01*
X88385878Y-86658253D01*
X88397411Y-86667229D01*
X88599931Y-86776828D01*
X88713025Y-86815653D01*
X88817725Y-86851597D01*
X88817727Y-86851597D01*
X88817729Y-86851598D01*
X89044863Y-86889500D01*
X89044864Y-86889500D01*
X89275136Y-86889500D01*
X89275137Y-86889500D01*
X89502271Y-86851598D01*
X89720069Y-86776828D01*
X89922589Y-86667229D01*
X90104308Y-86525792D01*
X90260269Y-86356373D01*
X90260271Y-86356370D01*
X90326191Y-86255472D01*
X90379337Y-86210115D01*
X90448569Y-86200691D01*
X90511905Y-86230193D01*
X90533809Y-86255472D01*
X90599728Y-86356370D01*
X90599731Y-86356373D01*
X90755692Y-86525792D01*
X90835486Y-86587898D01*
X90925878Y-86658253D01*
X90937411Y-86667229D01*
X91139931Y-86776828D01*
X91253025Y-86815653D01*
X91357725Y-86851597D01*
X91357727Y-86851597D01*
X91357729Y-86851598D01*
X91584863Y-86889500D01*
X91584864Y-86889500D01*
X91815136Y-86889500D01*
X91815137Y-86889500D01*
X92042271Y-86851598D01*
X92260069Y-86776828D01*
X92462589Y-86667229D01*
X92644308Y-86525792D01*
X92800269Y-86356373D01*
X92800271Y-86356370D01*
X92866191Y-86255472D01*
X92919337Y-86210115D01*
X92988569Y-86200691D01*
X93051905Y-86230193D01*
X93073809Y-86255472D01*
X93139728Y-86356370D01*
X93139731Y-86356373D01*
X93295692Y-86525792D01*
X93375486Y-86587898D01*
X93465878Y-86658253D01*
X93477411Y-86667229D01*
X93679931Y-86776828D01*
X93793025Y-86815653D01*
X93897725Y-86851597D01*
X93897727Y-86851597D01*
X93897729Y-86851598D01*
X94124863Y-86889500D01*
X94124864Y-86889500D01*
X94355136Y-86889500D01*
X94355137Y-86889500D01*
X94582271Y-86851598D01*
X94800069Y-86776828D01*
X95002589Y-86667229D01*
X95184308Y-86525792D01*
X95340269Y-86356373D01*
X95466217Y-86163595D01*
X95558717Y-85952716D01*
X95615246Y-85729488D01*
X95624733Y-85615000D01*
X95634262Y-85500005D01*
X95634262Y-85499994D01*
X95619166Y-85317821D01*
X95615246Y-85270512D01*
X95558717Y-85047284D01*
X95466217Y-84836405D01*
X95435955Y-84790086D01*
X95340271Y-84643629D01*
X95238471Y-84533045D01*
X95184308Y-84474208D01*
X95116036Y-84421070D01*
X95002591Y-84332772D01*
X94800069Y-84223172D01*
X94800061Y-84223169D01*
X94582274Y-84148402D01*
X94401598Y-84118253D01*
X94355137Y-84110500D01*
X94124863Y-84110500D01*
X94079436Y-84118080D01*
X93897725Y-84148402D01*
X93679938Y-84223169D01*
X93679930Y-84223172D01*
X93477408Y-84332772D01*
X93295694Y-84474206D01*
X93295689Y-84474211D01*
X93139727Y-84643630D01*
X93073808Y-84744528D01*
X93020662Y-84789884D01*
X92951431Y-84799308D01*
X92888095Y-84769806D01*
X92866192Y-84744528D01*
X92800272Y-84643630D01*
X92698471Y-84533045D01*
X92644308Y-84474208D01*
X92576036Y-84421070D01*
X92462591Y-84332772D01*
X92260069Y-84223172D01*
X92260061Y-84223169D01*
X92042274Y-84148402D01*
X91861598Y-84118253D01*
X91815137Y-84110500D01*
X91584863Y-84110500D01*
X91539436Y-84118080D01*
X91357725Y-84148402D01*
X91139938Y-84223169D01*
X91139930Y-84223172D01*
X90937408Y-84332772D01*
X90755694Y-84474206D01*
X90755689Y-84474211D01*
X90599727Y-84643630D01*
X90533808Y-84744528D01*
X90480662Y-84789884D01*
X90411431Y-84799308D01*
X90348095Y-84769806D01*
X90326192Y-84744528D01*
X90260272Y-84643630D01*
X90158471Y-84533045D01*
X90104308Y-84474208D01*
X90036036Y-84421070D01*
X89922591Y-84332772D01*
X89720069Y-84223172D01*
X89720061Y-84223169D01*
X89502274Y-84148402D01*
X89321598Y-84118253D01*
X89275137Y-84110500D01*
X89044863Y-84110500D01*
X88999436Y-84118080D01*
X88817725Y-84148402D01*
X88599938Y-84223169D01*
X88599930Y-84223172D01*
X88397408Y-84332772D01*
X88215694Y-84474206D01*
X88215689Y-84474211D01*
X88059727Y-84643630D01*
X87993808Y-84744528D01*
X87940662Y-84789884D01*
X87871431Y-84799308D01*
X87808095Y-84769806D01*
X87786192Y-84744528D01*
X87720272Y-84643630D01*
X87618471Y-84533045D01*
X87564308Y-84474208D01*
X87496036Y-84421070D01*
X87382591Y-84332772D01*
X87180069Y-84223172D01*
X87180061Y-84223169D01*
X86962274Y-84148402D01*
X86781598Y-84118253D01*
X86735137Y-84110500D01*
X86504863Y-84110500D01*
X86459436Y-84118080D01*
X86277725Y-84148402D01*
X86059938Y-84223169D01*
X86059930Y-84223172D01*
X85857408Y-84332772D01*
X85675694Y-84474206D01*
X85675689Y-84474211D01*
X85519727Y-84643630D01*
X85453808Y-84744528D01*
X85400662Y-84789884D01*
X85331431Y-84799308D01*
X85268095Y-84769806D01*
X85246192Y-84744528D01*
X85180272Y-84643630D01*
X85078471Y-84533045D01*
X85024308Y-84474208D01*
X84956036Y-84421070D01*
X84842591Y-84332772D01*
X84640069Y-84223172D01*
X84640061Y-84223169D01*
X84422274Y-84148402D01*
X84241598Y-84118253D01*
X84195137Y-84110500D01*
X83964863Y-84110500D01*
X83919436Y-84118080D01*
X83737725Y-84148402D01*
X83519938Y-84223169D01*
X83519930Y-84223172D01*
X83317408Y-84332772D01*
X83135694Y-84474206D01*
X83135689Y-84474211D01*
X82979727Y-84643630D01*
X82913808Y-84744528D01*
X82860662Y-84789884D01*
X82791431Y-84799308D01*
X82728095Y-84769806D01*
X82706192Y-84744528D01*
X82640272Y-84643630D01*
X82538471Y-84533045D01*
X82484308Y-84474208D01*
X82416036Y-84421070D01*
X82302591Y-84332772D01*
X82100069Y-84223172D01*
X82100061Y-84223169D01*
X81882274Y-84148402D01*
X81701598Y-84118253D01*
X81655137Y-84110500D01*
X81424863Y-84110500D01*
X81379436Y-84118080D01*
X81197725Y-84148402D01*
X80979938Y-84223169D01*
X80979930Y-84223172D01*
X80777408Y-84332772D01*
X80595694Y-84474206D01*
X80595689Y-84474211D01*
X80439727Y-84643630D01*
X80373808Y-84744528D01*
X80320662Y-84789884D01*
X80251431Y-84799308D01*
X80188095Y-84769806D01*
X80166192Y-84744528D01*
X80100272Y-84643630D01*
X79998471Y-84533045D01*
X79944308Y-84474208D01*
X79876036Y-84421070D01*
X79762591Y-84332772D01*
X79560069Y-84223172D01*
X79560061Y-84223169D01*
X79342274Y-84148402D01*
X79161598Y-84118253D01*
X79115137Y-84110500D01*
X78884863Y-84110500D01*
X78839436Y-84118080D01*
X78657725Y-84148402D01*
X78439938Y-84223169D01*
X78439930Y-84223172D01*
X78237408Y-84332772D01*
X78055694Y-84474206D01*
X78055689Y-84474211D01*
X77899727Y-84643630D01*
X77833808Y-84744528D01*
X77780662Y-84789884D01*
X77711431Y-84799308D01*
X77648095Y-84769806D01*
X77626192Y-84744528D01*
X77560272Y-84643630D01*
X77458471Y-84533045D01*
X77404308Y-84474208D01*
X77336036Y-84421070D01*
X77222591Y-84332772D01*
X77020069Y-84223172D01*
X77020061Y-84223169D01*
X76802274Y-84148402D01*
X76621598Y-84118253D01*
X76575137Y-84110500D01*
X76344863Y-84110500D01*
X76299436Y-84118080D01*
X76117725Y-84148402D01*
X75899938Y-84223169D01*
X75899930Y-84223172D01*
X75697408Y-84332772D01*
X75515694Y-84474206D01*
X75515689Y-84474211D01*
X75359728Y-84643629D01*
X75233782Y-84836405D01*
X75141282Y-85047285D01*
X75084753Y-85270515D01*
X75065738Y-85499994D01*
X75065738Y-85500005D01*
X69832483Y-85500005D01*
X75650672Y-79681819D01*
X75711995Y-79648334D01*
X75738353Y-79645500D01*
X83845500Y-79645500D01*
X83912539Y-79665185D01*
X83958294Y-79717989D01*
X83969500Y-79769500D01*
X83969500Y-81637870D01*
X83969501Y-81637876D01*
X83975908Y-81697483D01*
X84026202Y-81832328D01*
X84026206Y-81832335D01*
X84112452Y-81947544D01*
X84112455Y-81947547D01*
X84227664Y-82033793D01*
X84227671Y-82033797D01*
X84362517Y-82084091D01*
X84362516Y-82084091D01*
X84369444Y-82084835D01*
X84422127Y-82090500D01*
X85677872Y-82090499D01*
X85737483Y-82084091D01*
X85872331Y-82033796D01*
X85987546Y-81947546D01*
X86073796Y-81832331D01*
X86124091Y-81697483D01*
X86124299Y-81695550D01*
X86124878Y-81694150D01*
X86125874Y-81689938D01*
X86126556Y-81690099D01*
X86151037Y-81630999D01*
X86208430Y-81591151D01*
X86273366Y-81587516D01*
X86297754Y-81592700D01*
X86297758Y-81592700D01*
X86487044Y-81592700D01*
X86487046Y-81592700D01*
X86672203Y-81553344D01*
X86745565Y-81520680D01*
X86814813Y-81511395D01*
X86878090Y-81541023D01*
X86915304Y-81600158D01*
X86920000Y-81633960D01*
X86920000Y-81637844D01*
X86926401Y-81697372D01*
X86926403Y-81697379D01*
X86976645Y-81832086D01*
X86976649Y-81832093D01*
X87062809Y-81947187D01*
X87062812Y-81947190D01*
X87177906Y-82033350D01*
X87177913Y-82033354D01*
X87312620Y-82083596D01*
X87312627Y-82083598D01*
X87372155Y-82089999D01*
X87372172Y-82090000D01*
X87420000Y-82090000D01*
X87420000Y-81260000D01*
X88580000Y-81260000D01*
X88580000Y-82090000D01*
X88627828Y-82090000D01*
X88627844Y-82089999D01*
X88687372Y-82083598D01*
X88687379Y-82083596D01*
X88822086Y-82033354D01*
X88822093Y-82033350D01*
X88937187Y-81947190D01*
X88937190Y-81947187D01*
X89023350Y-81832093D01*
X89023354Y-81832086D01*
X89073596Y-81697379D01*
X89073598Y-81697372D01*
X89079999Y-81637844D01*
X89080000Y-81637827D01*
X89080000Y-81260000D01*
X88580000Y-81260000D01*
X87420000Y-81260000D01*
X87420000Y-80224000D01*
X87439685Y-80156961D01*
X87492489Y-80111206D01*
X87544000Y-80100000D01*
X89080000Y-80100000D01*
X89080000Y-79722172D01*
X89079999Y-79722155D01*
X89073598Y-79662627D01*
X89073596Y-79662620D01*
X89023354Y-79527913D01*
X89023350Y-79527906D01*
X88937190Y-79412812D01*
X88937187Y-79412809D01*
X88822093Y-79326649D01*
X88822086Y-79326645D01*
X88687379Y-79276403D01*
X88687372Y-79276401D01*
X88627844Y-79270000D01*
X88333952Y-79270000D01*
X88266913Y-79250315D01*
X88221158Y-79197511D01*
X88211214Y-79128353D01*
X88240239Y-79064797D01*
X88246259Y-79058329D01*
X88363791Y-78940798D01*
X88376042Y-78930985D01*
X88375859Y-78930764D01*
X88381866Y-78925792D01*
X88381877Y-78925786D01*
X88412775Y-78892882D01*
X88429227Y-78875364D01*
X88439671Y-78864918D01*
X88450120Y-78854471D01*
X88454379Y-78848978D01*
X88458152Y-78844561D01*
X88490062Y-78810582D01*
X88499715Y-78793020D01*
X88510389Y-78776770D01*
X88522673Y-78760936D01*
X88541180Y-78718167D01*
X88543749Y-78712924D01*
X88559439Y-78684384D01*
X88566197Y-78672092D01*
X88571177Y-78652691D01*
X88577478Y-78634288D01*
X88585438Y-78615896D01*
X88592730Y-78569853D01*
X88593906Y-78564171D01*
X88601269Y-78535496D01*
X88637004Y-78475461D01*
X88678037Y-78450154D01*
X88775786Y-78413696D01*
X88802326Y-78403798D01*
X88802326Y-78403797D01*
X88802331Y-78403796D01*
X88917546Y-78317546D01*
X89003796Y-78202331D01*
X89054091Y-78067483D01*
X89060500Y-78007873D01*
X89060499Y-76092128D01*
X89054091Y-76032517D01*
X89044946Y-76007999D01*
X89003797Y-75897671D01*
X89003793Y-75897664D01*
X88917547Y-75782455D01*
X88917544Y-75782452D01*
X88802335Y-75696206D01*
X88802328Y-75696202D01*
X88667482Y-75645908D01*
X88667483Y-75645908D01*
X88607883Y-75639501D01*
X88607881Y-75639500D01*
X88607873Y-75639500D01*
X88607865Y-75639500D01*
X88374451Y-75639500D01*
X88307412Y-75619815D01*
X88261657Y-75567011D01*
X88251713Y-75497853D01*
X88280738Y-75434297D01*
X88286755Y-75427833D01*
X88433789Y-75280799D01*
X88446041Y-75270987D01*
X88445858Y-75270765D01*
X88451875Y-75265787D01*
X88451874Y-75265787D01*
X88451877Y-75265786D01*
X88476251Y-75239829D01*
X88499227Y-75215364D01*
X88509671Y-75204918D01*
X88520120Y-75194471D01*
X88524379Y-75188978D01*
X88528152Y-75184561D01*
X88560062Y-75150582D01*
X88569715Y-75133020D01*
X88580389Y-75116770D01*
X88592673Y-75100936D01*
X88611180Y-75058167D01*
X88613749Y-75052924D01*
X88636196Y-75012093D01*
X88636197Y-75012092D01*
X88641177Y-74992691D01*
X88647478Y-74974288D01*
X88655438Y-74955896D01*
X88662730Y-74909853D01*
X88663906Y-74904171D01*
X88671269Y-74875496D01*
X88707004Y-74815461D01*
X88748037Y-74790154D01*
X88872331Y-74743796D01*
X88987546Y-74657546D01*
X89073796Y-74542331D01*
X89124091Y-74407483D01*
X89130500Y-74347873D01*
X89130499Y-72800000D01*
X93404592Y-72800000D01*
X93424201Y-73086680D01*
X93482666Y-73368034D01*
X93482667Y-73368037D01*
X93578894Y-73638793D01*
X93578893Y-73638793D01*
X93711098Y-73893935D01*
X93876812Y-74128700D01*
X93950475Y-74207573D01*
X94072947Y-74338708D01*
X94295853Y-74520055D01*
X94530987Y-74663044D01*
X94541382Y-74669365D01*
X94721302Y-74747514D01*
X94804942Y-74783844D01*
X95081642Y-74861371D01*
X95331920Y-74895771D01*
X95366321Y-74900500D01*
X95366322Y-74900500D01*
X95653679Y-74900500D01*
X95684370Y-74896281D01*
X95938358Y-74861371D01*
X96215058Y-74783844D01*
X96395618Y-74705416D01*
X96478617Y-74669365D01*
X96478620Y-74669363D01*
X96478625Y-74669361D01*
X96724147Y-74520055D01*
X96947053Y-74338708D01*
X97143189Y-74128698D01*
X97308901Y-73893936D01*
X97441104Y-73638797D01*
X97537334Y-73368032D01*
X97595798Y-73086686D01*
X97615408Y-72800000D01*
X97595798Y-72513314D01*
X97537334Y-72231968D01*
X97441105Y-71961206D01*
X97441106Y-71961206D01*
X97308901Y-71706064D01*
X97143187Y-71471299D01*
X96999159Y-71317084D01*
X96947053Y-71261292D01*
X96753978Y-71104214D01*
X96724146Y-71079944D01*
X96478617Y-70930634D01*
X96215063Y-70816158D01*
X96215061Y-70816157D01*
X96215058Y-70816156D01*
X96085578Y-70779877D01*
X95938364Y-70738630D01*
X95938359Y-70738629D01*
X95938358Y-70738629D01*
X95693977Y-70705039D01*
X95653679Y-70699500D01*
X95653678Y-70699500D01*
X95366322Y-70699500D01*
X95366321Y-70699500D01*
X95081642Y-70738629D01*
X95081635Y-70738630D01*
X94873861Y-70796845D01*
X94804942Y-70816156D01*
X94804939Y-70816156D01*
X94804936Y-70816158D01*
X94804935Y-70816158D01*
X94541382Y-70930634D01*
X94295853Y-71079944D01*
X94072950Y-71261289D01*
X94072947Y-71261291D01*
X94072947Y-71261292D01*
X94065685Y-71269068D01*
X93876812Y-71471299D01*
X93711098Y-71706064D01*
X93578894Y-71961206D01*
X93482667Y-72231962D01*
X93482666Y-72231965D01*
X93424201Y-72513319D01*
X93404592Y-72800000D01*
X89130499Y-72800000D01*
X89130499Y-72432128D01*
X89124091Y-72372517D01*
X89122877Y-72369263D01*
X89073797Y-72237671D01*
X89073793Y-72237664D01*
X88987547Y-72122455D01*
X88987544Y-72122452D01*
X88872335Y-72036206D01*
X88872328Y-72036202D01*
X88773470Y-71999331D01*
X88717536Y-71957460D01*
X88693119Y-71891996D01*
X88707970Y-71823723D01*
X88729122Y-71795468D01*
X90052772Y-70471819D01*
X90114095Y-70438334D01*
X90140453Y-70435500D01*
X90926252Y-70435500D01*
X90993291Y-70455185D01*
X91018400Y-70476526D01*
X91024126Y-70482885D01*
X91024130Y-70482889D01*
X91177265Y-70594148D01*
X91177270Y-70594151D01*
X91350192Y-70671142D01*
X91350197Y-70671144D01*
X91535354Y-70710500D01*
X91535355Y-70710500D01*
X91724644Y-70710500D01*
X91724646Y-70710500D01*
X91909803Y-70671144D01*
X92082730Y-70594151D01*
X92235871Y-70482888D01*
X92362533Y-70342216D01*
X92457179Y-70178284D01*
X92515674Y-69998256D01*
X92535460Y-69810000D01*
X92515674Y-69621744D01*
X92480662Y-69513991D01*
X92478668Y-69444151D01*
X92514748Y-69384318D01*
X92577449Y-69353490D01*
X92630686Y-69355898D01*
X92637643Y-69357763D01*
X92823528Y-69374026D01*
X92869999Y-69378092D01*
X92870000Y-69378092D01*
X92870001Y-69378092D01*
X92908726Y-69374703D01*
X93102357Y-69357763D01*
X93327654Y-69297395D01*
X93539046Y-69198822D01*
X93730109Y-69065038D01*
X93895038Y-68900109D01*
X94028822Y-68709046D01*
X94028826Y-68709035D01*
X94031527Y-68704360D01*
X94033179Y-68705313D01*
X94073784Y-68659192D01*
X94140976Y-68640036D01*
X94207859Y-68660248D01*
X94246879Y-68705280D01*
X94248473Y-68704360D01*
X94251176Y-68709042D01*
X94251178Y-68709046D01*
X94384962Y-68900109D01*
X94549891Y-69065038D01*
X94740954Y-69198822D01*
X94801492Y-69227051D01*
X94952339Y-69297392D01*
X94952341Y-69297392D01*
X94952346Y-69297395D01*
X95177643Y-69357763D01*
X95363528Y-69374026D01*
X95409999Y-69378092D01*
X95410000Y-69378092D01*
X95410001Y-69378092D01*
X95448726Y-69374703D01*
X95642357Y-69357763D01*
X95867654Y-69297395D01*
X96079046Y-69198822D01*
X96270109Y-69065038D01*
X96435038Y-68900109D01*
X96568822Y-68709046D01*
X96568826Y-68709035D01*
X96571527Y-68704360D01*
X96573179Y-68705313D01*
X96613784Y-68659192D01*
X96680976Y-68640036D01*
X96747859Y-68660248D01*
X96786879Y-68705280D01*
X96788473Y-68704360D01*
X96791176Y-68709042D01*
X96791178Y-68709046D01*
X96924962Y-68900109D01*
X97089891Y-69065038D01*
X97280954Y-69198822D01*
X97341492Y-69227051D01*
X97492339Y-69297392D01*
X97492341Y-69297392D01*
X97492346Y-69297395D01*
X97717643Y-69357763D01*
X97903528Y-69374026D01*
X97949999Y-69378092D01*
X97950000Y-69378092D01*
X97950001Y-69378092D01*
X97988726Y-69374703D01*
X98182357Y-69357763D01*
X98407654Y-69297395D01*
X98619046Y-69198822D01*
X98810109Y-69065038D01*
X98975038Y-68900109D01*
X99108822Y-68709046D01*
X99108826Y-68709035D01*
X99111527Y-68704360D01*
X99113179Y-68705313D01*
X99153784Y-68659192D01*
X99220976Y-68640036D01*
X99287859Y-68660248D01*
X99326879Y-68705280D01*
X99328473Y-68704360D01*
X99331176Y-68709042D01*
X99331178Y-68709046D01*
X99464962Y-68900109D01*
X99629891Y-69065038D01*
X99820954Y-69198822D01*
X99881492Y-69227051D01*
X100032339Y-69297392D01*
X100032341Y-69297392D01*
X100032346Y-69297395D01*
X100257643Y-69357763D01*
X100443528Y-69374026D01*
X100489999Y-69378092D01*
X100490000Y-69378092D01*
X100490001Y-69378092D01*
X100528726Y-69374703D01*
X100722357Y-69357763D01*
X100947654Y-69297395D01*
X101159046Y-69198822D01*
X101350109Y-69065038D01*
X101515038Y-68900109D01*
X101648822Y-68709046D01*
X101648826Y-68709035D01*
X101651527Y-68704360D01*
X101653179Y-68705313D01*
X101693784Y-68659192D01*
X101760976Y-68640036D01*
X101827859Y-68660248D01*
X101866879Y-68705280D01*
X101868473Y-68704360D01*
X101871176Y-68709042D01*
X101871178Y-68709046D01*
X102004962Y-68900109D01*
X102169891Y-69065038D01*
X102360954Y-69198822D01*
X102421492Y-69227051D01*
X102572339Y-69297392D01*
X102572341Y-69297392D01*
X102572346Y-69297395D01*
X102797643Y-69357763D01*
X102983528Y-69374026D01*
X103029999Y-69378092D01*
X103030000Y-69378092D01*
X103030001Y-69378092D01*
X103068726Y-69374703D01*
X103262357Y-69357763D01*
X103487654Y-69297395D01*
X103699046Y-69198822D01*
X103890109Y-69065038D01*
X104055038Y-68900109D01*
X104188822Y-68709046D01*
X104287395Y-68497654D01*
X104347763Y-68272357D01*
X104368092Y-68040000D01*
X104347763Y-67807643D01*
X104287395Y-67582346D01*
X104277599Y-67561339D01*
X104188823Y-67370957D01*
X104188822Y-67370955D01*
X104188822Y-67370954D01*
X104055038Y-67179891D01*
X103890109Y-67014962D01*
X103699046Y-66881178D01*
X103699042Y-66881176D01*
X103487660Y-66782607D01*
X103487646Y-66782602D01*
X103262362Y-66722238D01*
X103262352Y-66722236D01*
X103030001Y-66701908D01*
X103029999Y-66701908D01*
X102797647Y-66722236D01*
X102797637Y-66722238D01*
X102572353Y-66782602D01*
X102572339Y-66782607D01*
X102360957Y-66881176D01*
X102360955Y-66881177D01*
X102360954Y-66881178D01*
X102169891Y-67014962D01*
X102169889Y-67014963D01*
X102169886Y-67014966D01*
X102004966Y-67179886D01*
X102004963Y-67179889D01*
X102004962Y-67179891D01*
X101955406Y-67250664D01*
X101871177Y-67370955D01*
X101868473Y-67375640D01*
X101866824Y-67374688D01*
X101826199Y-67420818D01*
X101759003Y-67439963D01*
X101692124Y-67419740D01*
X101653115Y-67374722D01*
X101651527Y-67375640D01*
X101648822Y-67370955D01*
X101648822Y-67370954D01*
X101515038Y-67179891D01*
X101350109Y-67014962D01*
X101159046Y-66881178D01*
X101159042Y-66881176D01*
X100947660Y-66782607D01*
X100947646Y-66782602D01*
X100722362Y-66722238D01*
X100722352Y-66722236D01*
X100490001Y-66701908D01*
X100489999Y-66701908D01*
X100257647Y-66722236D01*
X100257637Y-66722238D01*
X100032353Y-66782602D01*
X100032339Y-66782607D01*
X99820957Y-66881176D01*
X99820955Y-66881177D01*
X99820954Y-66881178D01*
X99629891Y-67014962D01*
X99629889Y-67014963D01*
X99629886Y-67014966D01*
X99464966Y-67179886D01*
X99464963Y-67179889D01*
X99464962Y-67179891D01*
X99415406Y-67250664D01*
X99331177Y-67370955D01*
X99328473Y-67375640D01*
X99326824Y-67374688D01*
X99286199Y-67420818D01*
X99219003Y-67439963D01*
X99152124Y-67419740D01*
X99113115Y-67374722D01*
X99111527Y-67375640D01*
X99108822Y-67370955D01*
X99108822Y-67370954D01*
X98975038Y-67179891D01*
X98810109Y-67014962D01*
X98619046Y-66881178D01*
X98619042Y-66881176D01*
X98407660Y-66782607D01*
X98407646Y-66782602D01*
X98182362Y-66722238D01*
X98182352Y-66722236D01*
X97950001Y-66701908D01*
X97949999Y-66701908D01*
X97717647Y-66722236D01*
X97717637Y-66722238D01*
X97492353Y-66782602D01*
X97492339Y-66782607D01*
X97280957Y-66881176D01*
X97280955Y-66881177D01*
X97280954Y-66881178D01*
X97089891Y-67014962D01*
X97089889Y-67014963D01*
X97089886Y-67014966D01*
X96924966Y-67179886D01*
X96924963Y-67179889D01*
X96924962Y-67179891D01*
X96875406Y-67250664D01*
X96791177Y-67370955D01*
X96788473Y-67375640D01*
X96786824Y-67374688D01*
X96746199Y-67420818D01*
X96679003Y-67439963D01*
X96612124Y-67419740D01*
X96573115Y-67374722D01*
X96571527Y-67375640D01*
X96568822Y-67370955D01*
X96568822Y-67370954D01*
X96435038Y-67179891D01*
X96270109Y-67014962D01*
X96079046Y-66881178D01*
X96079042Y-66881176D01*
X95867660Y-66782607D01*
X95867646Y-66782602D01*
X95642362Y-66722238D01*
X95642352Y-66722236D01*
X95410001Y-66701908D01*
X95409999Y-66701908D01*
X95177647Y-66722236D01*
X95177637Y-66722238D01*
X94952353Y-66782602D01*
X94952339Y-66782607D01*
X94740957Y-66881176D01*
X94740955Y-66881177D01*
X94740954Y-66881178D01*
X94549891Y-67014962D01*
X94549889Y-67014963D01*
X94549886Y-67014966D01*
X94384966Y-67179886D01*
X94384963Y-67179889D01*
X94384962Y-67179891D01*
X94335406Y-67250664D01*
X94251177Y-67370955D01*
X94248473Y-67375640D01*
X94246824Y-67374688D01*
X94206199Y-67420818D01*
X94139003Y-67439963D01*
X94072124Y-67419740D01*
X94033115Y-67374722D01*
X94031527Y-67375640D01*
X94028822Y-67370955D01*
X94028822Y-67370954D01*
X93895038Y-67179891D01*
X93730109Y-67014962D01*
X93539046Y-66881178D01*
X93539042Y-66881176D01*
X93327660Y-66782607D01*
X93327646Y-66782602D01*
X93102362Y-66722238D01*
X93102352Y-66722236D01*
X92870001Y-66701908D01*
X92869999Y-66701908D01*
X92637647Y-66722236D01*
X92637637Y-66722238D01*
X92412353Y-66782602D01*
X92412339Y-66782607D01*
X92200957Y-66881176D01*
X92200955Y-66881177D01*
X92200954Y-66881178D01*
X92009891Y-67014962D01*
X92009889Y-67014963D01*
X92009886Y-67014966D01*
X91844966Y-67179886D01*
X91844963Y-67179889D01*
X91844962Y-67179891D01*
X91795406Y-67250664D01*
X91711177Y-67370955D01*
X91708473Y-67375640D01*
X91706824Y-67374688D01*
X91666199Y-67420818D01*
X91599003Y-67439963D01*
X91532124Y-67419740D01*
X91493115Y-67374722D01*
X91491527Y-67375640D01*
X91488822Y-67370955D01*
X91488822Y-67370954D01*
X91355038Y-67179891D01*
X91190109Y-67014962D01*
X90999046Y-66881178D01*
X90999042Y-66881176D01*
X90787660Y-66782607D01*
X90787646Y-66782602D01*
X90562362Y-66722238D01*
X90562352Y-66722236D01*
X90330001Y-66701908D01*
X90329999Y-66701908D01*
X90097647Y-66722236D01*
X90097637Y-66722238D01*
X89872353Y-66782602D01*
X89872347Y-66782604D01*
X89863884Y-66786551D01*
X89794806Y-66797039D01*
X89731023Y-66768517D01*
X89692786Y-66710038D01*
X89692235Y-66640171D01*
X89723801Y-66586487D01*
X94804119Y-61506170D01*
X94865440Y-61472687D01*
X94935132Y-61477671D01*
X94991064Y-61519542D01*
X95025052Y-61564944D01*
X95025055Y-61564947D01*
X95140264Y-61651193D01*
X95140271Y-61651197D01*
X95275117Y-61701491D01*
X95275116Y-61701491D01*
X95282044Y-61702235D01*
X95334727Y-61707900D01*
X97005272Y-61707899D01*
X97064883Y-61701491D01*
X97199731Y-61651196D01*
X97314946Y-61564946D01*
X97401196Y-61449731D01*
X97451491Y-61314883D01*
X97457900Y-61255273D01*
X97457899Y-60420000D01*
X99877180Y-60420000D01*
X99896820Y-60644491D01*
X99896821Y-60644498D01*
X99955145Y-60862165D01*
X99955149Y-60862176D01*
X100050382Y-61066404D01*
X100050385Y-61066410D01*
X100179643Y-61251011D01*
X100338988Y-61410356D01*
X100364668Y-61428337D01*
X100523590Y-61539615D01*
X100577909Y-61564944D01*
X100727823Y-61634850D01*
X100727825Y-61634850D01*
X100727830Y-61634853D01*
X100945504Y-61693179D01*
X101097637Y-61706489D01*
X101169999Y-61712820D01*
X101170000Y-61712820D01*
X101170001Y-61712820D01*
X101226235Y-61707900D01*
X101394496Y-61693179D01*
X101612170Y-61634853D01*
X101816410Y-61539615D01*
X102001009Y-61410358D01*
X102160358Y-61251009D01*
X102289615Y-61066410D01*
X102384853Y-60862170D01*
X102443179Y-60644496D01*
X102462820Y-60420000D01*
X102443179Y-60195504D01*
X102384853Y-59977830D01*
X102365347Y-59936000D01*
X102313232Y-59824237D01*
X102289615Y-59773590D01*
X102192835Y-59635373D01*
X102160356Y-59588988D01*
X102001011Y-59429643D01*
X101816410Y-59300385D01*
X101816404Y-59300382D01*
X101612176Y-59205149D01*
X101612165Y-59205145D01*
X101394498Y-59146821D01*
X101394491Y-59146820D01*
X101170001Y-59127180D01*
X101169999Y-59127180D01*
X100945508Y-59146820D01*
X100945501Y-59146821D01*
X100727834Y-59205145D01*
X100727823Y-59205149D01*
X100523595Y-59300382D01*
X100523589Y-59300385D01*
X100338988Y-59429643D01*
X100179643Y-59588988D01*
X100050385Y-59773589D01*
X100050382Y-59773595D01*
X99955149Y-59977823D01*
X99955145Y-59977834D01*
X99896821Y-60195501D01*
X99896820Y-60195508D01*
X99877180Y-60419999D01*
X99877180Y-60420000D01*
X97457899Y-60420000D01*
X97457899Y-59584728D01*
X97451491Y-59525117D01*
X97447253Y-59513755D01*
X97401197Y-59390271D01*
X97401193Y-59390264D01*
X97314947Y-59275055D01*
X97314944Y-59275052D01*
X97199735Y-59188806D01*
X97199728Y-59188802D01*
X97064882Y-59138508D01*
X97064883Y-59138508D01*
X97005283Y-59132101D01*
X97005281Y-59132100D01*
X97005273Y-59132100D01*
X97005264Y-59132100D01*
X95334729Y-59132100D01*
X95334723Y-59132101D01*
X95275116Y-59138508D01*
X95140271Y-59188802D01*
X95140264Y-59188806D01*
X95025055Y-59275052D01*
X95025052Y-59275055D01*
X94938806Y-59390264D01*
X94938802Y-59390271D01*
X94888508Y-59525117D01*
X94884465Y-59562726D01*
X94882101Y-59584723D01*
X94882100Y-59584735D01*
X94882100Y-59711443D01*
X94862415Y-59778482D01*
X94809611Y-59824237D01*
X94792702Y-59830517D01*
X94755312Y-59841381D01*
X94755304Y-59841385D01*
X94738065Y-59851580D01*
X94720598Y-59860137D01*
X94701969Y-59867512D01*
X94701967Y-59867513D01*
X94664264Y-59894906D01*
X94659382Y-59898112D01*
X94619280Y-59921828D01*
X94605108Y-59936000D01*
X94590323Y-59948628D01*
X94574112Y-59960407D01*
X94544409Y-59996310D01*
X94540477Y-60000631D01*
X89650587Y-64890520D01*
X89589264Y-64924005D01*
X89519572Y-64919021D01*
X89470756Y-64885811D01*
X89461748Y-64875807D01*
X89345871Y-64747112D01*
X89345870Y-64747111D01*
X89192734Y-64635851D01*
X89192729Y-64635848D01*
X89019807Y-64558857D01*
X89019802Y-64558855D01*
X88874001Y-64527865D01*
X88834646Y-64519500D01*
X88645354Y-64519500D01*
X88612897Y-64526398D01*
X88460197Y-64558855D01*
X88460192Y-64558857D01*
X88287270Y-64635848D01*
X88287265Y-64635851D01*
X88134129Y-64747111D01*
X88003119Y-64892613D01*
X88001077Y-64890775D01*
X87955342Y-64926048D01*
X87910345Y-64934500D01*
X80504160Y-64934500D01*
X80437121Y-64914815D01*
X80391366Y-64862011D01*
X80381422Y-64792853D01*
X80390604Y-64760690D01*
X80438406Y-64651710D01*
X80478983Y-64559205D01*
X80538095Y-64325776D01*
X80557980Y-64085800D01*
X80548246Y-63968334D01*
X80538095Y-63845827D01*
X80538095Y-63845824D01*
X80478983Y-63612395D01*
X80382255Y-63391878D01*
X80250551Y-63190290D01*
X80087463Y-63013129D01*
X79911278Y-62875999D01*
X79897441Y-62865229D01*
X79685665Y-62750621D01*
X79685656Y-62750618D01*
X79457916Y-62672434D01*
X79260412Y-62639477D01*
X79220399Y-62632800D01*
X78979601Y-62632800D01*
X78939588Y-62639477D01*
X78742083Y-62672434D01*
X78514343Y-62750618D01*
X78514334Y-62750621D01*
X78302558Y-62865229D01*
X78178460Y-62961819D01*
X78112537Y-63013129D01*
X78112534Y-63013131D01*
X78112534Y-63013132D01*
X77949445Y-63190294D01*
X77947849Y-63192345D01*
X77946985Y-63192966D01*
X77945976Y-63194063D01*
X77945750Y-63193855D01*
X77891137Y-63233155D01*
X77821364Y-63236825D01*
X77760682Y-63202191D01*
X77752151Y-63192345D01*
X77750554Y-63190294D01*
X77750552Y-63190292D01*
X77750551Y-63190290D01*
X77587463Y-63013129D01*
X77411278Y-62875999D01*
X77397441Y-62865229D01*
X77185665Y-62750621D01*
X77185656Y-62750618D01*
X76957916Y-62672434D01*
X76760412Y-62639477D01*
X76720399Y-62632800D01*
X76479601Y-62632800D01*
X76478752Y-62632800D01*
X76411713Y-62613115D01*
X76391071Y-62596481D01*
X75710803Y-61916212D01*
X75700980Y-61903950D01*
X75700759Y-61904134D01*
X75695786Y-61898123D01*
X75677159Y-61880631D01*
X75645364Y-61850773D01*
X75630734Y-61836143D01*
X75624475Y-61829883D01*
X75618986Y-61825625D01*
X75614561Y-61821847D01*
X75580582Y-61789938D01*
X75580580Y-61789936D01*
X75580577Y-61789935D01*
X75563029Y-61780288D01*
X75546763Y-61769604D01*
X75530933Y-61757325D01*
X75488168Y-61738818D01*
X75482922Y-61736248D01*
X75442093Y-61713803D01*
X75442092Y-61713802D01*
X75422693Y-61708822D01*
X75404281Y-61702518D01*
X75385898Y-61694562D01*
X75385892Y-61694560D01*
X75339874Y-61687272D01*
X75334152Y-61686087D01*
X75289021Y-61674500D01*
X75289019Y-61674500D01*
X75268984Y-61674500D01*
X75249586Y-61672973D01*
X75242162Y-61671797D01*
X75229805Y-61669840D01*
X75229804Y-61669840D01*
X75183416Y-61674225D01*
X75177578Y-61674500D01*
X68778428Y-61674500D01*
X68711389Y-61654815D01*
X68665634Y-61602011D01*
X68655690Y-61532853D01*
X68684715Y-61469297D01*
X68732778Y-61435209D01*
X68751715Y-61427711D01*
X68757246Y-61425817D01*
X68760996Y-61424727D01*
X68801990Y-61412818D01*
X68819229Y-61402622D01*
X68836703Y-61394062D01*
X68855327Y-61386688D01*
X68855327Y-61386687D01*
X68855332Y-61386686D01*
X68893049Y-61359282D01*
X68897905Y-61356092D01*
X68938020Y-61332370D01*
X68952189Y-61318199D01*
X68966979Y-61305568D01*
X68983187Y-61293794D01*
X69012899Y-61257876D01*
X69016812Y-61253576D01*
X71060158Y-59210230D01*
X71121479Y-59176747D01*
X71188099Y-59180631D01*
X71242087Y-59199166D01*
X71479601Y-59238800D01*
X71479602Y-59238800D01*
X71720398Y-59238800D01*
X71720399Y-59238800D01*
X71956055Y-59199476D01*
X73746983Y-59199476D01*
X73979643Y-59238300D01*
X74220357Y-59238300D01*
X74453016Y-59199476D01*
X74100001Y-58846460D01*
X74100000Y-58846460D01*
X73746983Y-59199476D01*
X71956055Y-59199476D01*
X71957913Y-59199166D01*
X72185664Y-59120979D01*
X72397439Y-59006372D01*
X72587463Y-58858471D01*
X72750551Y-58681310D01*
X72882255Y-58479722D01*
X72978983Y-58259205D01*
X73038095Y-58025776D01*
X73052023Y-57857689D01*
X73600000Y-57857689D01*
X73640507Y-57995644D01*
X73718239Y-58116598D01*
X73826900Y-58210752D01*
X73957685Y-58270480D01*
X74064237Y-58285800D01*
X74135763Y-58285800D01*
X74242315Y-58270480D01*
X74373100Y-58210752D01*
X74481761Y-58116598D01*
X74559493Y-57995644D01*
X74600000Y-57857689D01*
X74600000Y-57713911D01*
X74559493Y-57575956D01*
X74481761Y-57455002D01*
X74373100Y-57360848D01*
X74242315Y-57301120D01*
X74135763Y-57285800D01*
X74064237Y-57285800D01*
X73957685Y-57301120D01*
X73826900Y-57360848D01*
X73718239Y-57455002D01*
X73640507Y-57575956D01*
X73600000Y-57713911D01*
X73600000Y-57857689D01*
X73052023Y-57857689D01*
X73057980Y-57785800D01*
X73054574Y-57744700D01*
X73038095Y-57545827D01*
X73038095Y-57545824D01*
X72978983Y-57312395D01*
X72882255Y-57091878D01*
X72750551Y-56890290D01*
X72587463Y-56713129D01*
X72453358Y-56608751D01*
X72397441Y-56565229D01*
X72185665Y-56450621D01*
X72185656Y-56450618D01*
X72057964Y-56406781D01*
X72000949Y-56366396D01*
X71974818Y-56301596D01*
X71987869Y-56232956D01*
X72035958Y-56182268D01*
X72098227Y-56165500D01*
X73643244Y-56165500D01*
X73710283Y-56185185D01*
X73756038Y-56237989D01*
X73765982Y-56307147D01*
X73761332Y-56327331D01*
X73746982Y-56372123D01*
X74100000Y-56725140D01*
X74100001Y-56725140D01*
X74453016Y-56372123D01*
X74438667Y-56327331D01*
X74436960Y-56257482D01*
X74473287Y-56197799D01*
X74536115Y-56167230D01*
X74556755Y-56165500D01*
X76101773Y-56165500D01*
X76168812Y-56185185D01*
X76214567Y-56237989D01*
X76224511Y-56307147D01*
X76195486Y-56370703D01*
X76142036Y-56406781D01*
X76014343Y-56450618D01*
X76014334Y-56450621D01*
X75802558Y-56565229D01*
X75708869Y-56638151D01*
X75612537Y-56713129D01*
X75612534Y-56713131D01*
X75612534Y-56713132D01*
X75449449Y-56890290D01*
X75317743Y-57091881D01*
X75221017Y-57312394D01*
X75161904Y-57545827D01*
X75142020Y-57785794D01*
X75142020Y-57785805D01*
X75161904Y-58025772D01*
X75221017Y-58259205D01*
X75310923Y-58464171D01*
X75317745Y-58479722D01*
X75449449Y-58681310D01*
X75612537Y-58858471D01*
X75802561Y-59006372D01*
X76014336Y-59120979D01*
X76119690Y-59157147D01*
X76242083Y-59199165D01*
X76242085Y-59199165D01*
X76242087Y-59199166D01*
X76479601Y-59238800D01*
X76479602Y-59238800D01*
X76720398Y-59238800D01*
X76720399Y-59238800D01*
X76957913Y-59199166D01*
X77185664Y-59120979D01*
X77397439Y-59006372D01*
X77587463Y-58858471D01*
X77750551Y-58681310D01*
X77882255Y-58479722D01*
X77978983Y-58259205D01*
X78038095Y-58025776D01*
X78057980Y-57785800D01*
X78054574Y-57744700D01*
X78038095Y-57545827D01*
X78038095Y-57545824D01*
X77978983Y-57312395D01*
X77882255Y-57091878D01*
X77750551Y-56890290D01*
X77587463Y-56713129D01*
X77453358Y-56608751D01*
X77397441Y-56565229D01*
X77185665Y-56450621D01*
X77185656Y-56450618D01*
X77057964Y-56406781D01*
X77000949Y-56366396D01*
X76974818Y-56301596D01*
X76987869Y-56232956D01*
X77035958Y-56182268D01*
X77098227Y-56165500D01*
X78255165Y-56165500D01*
X78322204Y-56185185D01*
X78367959Y-56237989D01*
X78378485Y-56302459D01*
X78374540Y-56340000D01*
X78394326Y-56528256D01*
X78394327Y-56528259D01*
X78452818Y-56708277D01*
X78452821Y-56708284D01*
X78547467Y-56872216D01*
X78649185Y-56985185D01*
X78674129Y-57012888D01*
X78827265Y-57124148D01*
X78827270Y-57124151D01*
X79000192Y-57201142D01*
X79000197Y-57201144D01*
X79185354Y-57240500D01*
X79185355Y-57240500D01*
X79374644Y-57240500D01*
X79374646Y-57240500D01*
X79559803Y-57201144D01*
X79732730Y-57124151D01*
X79885871Y-57012888D01*
X79888788Y-57009647D01*
X79891600Y-57006526D01*
X79951087Y-56969879D01*
X79983748Y-56965500D01*
X81086252Y-56965500D01*
X81153291Y-56985185D01*
X81178400Y-57006526D01*
X81184126Y-57012885D01*
X81184130Y-57012889D01*
X81337265Y-57124148D01*
X81337270Y-57124151D01*
X81510192Y-57201142D01*
X81510197Y-57201144D01*
X81695354Y-57240500D01*
X81695355Y-57240500D01*
X81884644Y-57240500D01*
X81884646Y-57240500D01*
X82069803Y-57201144D01*
X82242730Y-57124151D01*
X82395871Y-57012888D01*
X82522533Y-56872216D01*
X82617179Y-56708284D01*
X82675674Y-56528256D01*
X82695460Y-56340000D01*
X82685549Y-56245707D01*
X82698118Y-56176982D01*
X82745850Y-56125958D01*
X82759640Y-56118942D01*
X82760382Y-56118620D01*
X82760390Y-56118618D01*
X82777629Y-56108422D01*
X82795103Y-56099862D01*
X82813727Y-56092488D01*
X82813727Y-56092487D01*
X82813732Y-56092486D01*
X82851449Y-56065082D01*
X82856305Y-56061892D01*
X82896420Y-56038170D01*
X82910589Y-56023999D01*
X82925379Y-56011368D01*
X82941587Y-55999594D01*
X82971299Y-55963676D01*
X82975212Y-55959376D01*
X84808642Y-54125946D01*
X84869963Y-54092463D01*
X84928414Y-54093853D01*
X85017643Y-54117763D01*
X85203528Y-54134026D01*
X85249999Y-54138092D01*
X85250000Y-54138092D01*
X85250001Y-54138092D01*
X85288726Y-54134703D01*
X85482357Y-54117763D01*
X85707654Y-54057395D01*
X85919046Y-53958822D01*
X86110109Y-53825038D01*
X86275038Y-53660109D01*
X86408822Y-53469046D01*
X86408826Y-53469035D01*
X86411527Y-53464360D01*
X86413179Y-53465313D01*
X86453784Y-53419192D01*
X86520976Y-53400036D01*
X86587859Y-53420248D01*
X86626879Y-53465280D01*
X86628473Y-53464360D01*
X86631176Y-53469042D01*
X86631178Y-53469046D01*
X86764962Y-53660109D01*
X86929891Y-53825038D01*
X87120954Y-53958822D01*
X87164870Y-53979300D01*
X87332339Y-54057392D01*
X87332341Y-54057392D01*
X87332346Y-54057395D01*
X87557643Y-54117763D01*
X87743528Y-54134026D01*
X87789999Y-54138092D01*
X87790000Y-54138092D01*
X87790001Y-54138092D01*
X87828726Y-54134703D01*
X88022357Y-54117763D01*
X88247654Y-54057395D01*
X88459046Y-53958822D01*
X88650109Y-53825038D01*
X88815038Y-53660109D01*
X88948822Y-53469046D01*
X88948826Y-53469035D01*
X88951527Y-53464360D01*
X88953179Y-53465313D01*
X88993784Y-53419192D01*
X89060976Y-53400036D01*
X89127859Y-53420248D01*
X89166879Y-53465280D01*
X89168473Y-53464360D01*
X89171176Y-53469042D01*
X89171178Y-53469046D01*
X89304962Y-53660109D01*
X89469891Y-53825038D01*
X89660954Y-53958822D01*
X89704870Y-53979300D01*
X89872339Y-54057392D01*
X89872341Y-54057392D01*
X89872346Y-54057395D01*
X90097643Y-54117763D01*
X90283528Y-54134026D01*
X90329999Y-54138092D01*
X90330000Y-54138092D01*
X90330001Y-54138092D01*
X90368726Y-54134703D01*
X90562357Y-54117763D01*
X90787654Y-54057395D01*
X90999046Y-53958822D01*
X91190109Y-53825038D01*
X91355038Y-53660109D01*
X91488822Y-53469046D01*
X91488826Y-53469035D01*
X91491527Y-53464360D01*
X91493179Y-53465313D01*
X91533784Y-53419192D01*
X91600976Y-53400036D01*
X91667859Y-53420248D01*
X91706879Y-53465280D01*
X91708473Y-53464360D01*
X91711176Y-53469042D01*
X91711178Y-53469046D01*
X91844962Y-53660109D01*
X92009891Y-53825038D01*
X92200954Y-53958822D01*
X92244870Y-53979300D01*
X92412339Y-54057392D01*
X92412341Y-54057392D01*
X92412346Y-54057395D01*
X92637643Y-54117763D01*
X92823528Y-54134026D01*
X92869999Y-54138092D01*
X92870000Y-54138092D01*
X92870001Y-54138092D01*
X92908726Y-54134703D01*
X93102357Y-54117763D01*
X93327654Y-54057395D01*
X93539046Y-53958822D01*
X93730109Y-53825038D01*
X93895038Y-53660109D01*
X94028822Y-53469046D01*
X94028826Y-53469035D01*
X94031527Y-53464360D01*
X94033179Y-53465313D01*
X94073784Y-53419192D01*
X94140976Y-53400036D01*
X94207859Y-53420248D01*
X94246879Y-53465280D01*
X94248473Y-53464360D01*
X94251176Y-53469042D01*
X94251178Y-53469046D01*
X94384962Y-53660109D01*
X94549891Y-53825038D01*
X94740954Y-53958822D01*
X94784870Y-53979300D01*
X94952339Y-54057392D01*
X94952341Y-54057392D01*
X94952346Y-54057395D01*
X95177643Y-54117763D01*
X95363528Y-54134026D01*
X95409999Y-54138092D01*
X95410000Y-54138092D01*
X95410001Y-54138092D01*
X95448726Y-54134703D01*
X95642357Y-54117763D01*
X95867654Y-54057395D01*
X96079046Y-53958822D01*
X96270109Y-53825038D01*
X96435038Y-53660109D01*
X96568822Y-53469046D01*
X96568826Y-53469035D01*
X96571527Y-53464360D01*
X96573179Y-53465313D01*
X96613784Y-53419192D01*
X96680976Y-53400036D01*
X96747859Y-53420248D01*
X96786879Y-53465280D01*
X96788473Y-53464360D01*
X96791176Y-53469042D01*
X96791178Y-53469046D01*
X96924962Y-53660109D01*
X97089891Y-53825038D01*
X97280954Y-53958822D01*
X97324870Y-53979300D01*
X97492339Y-54057392D01*
X97492341Y-54057392D01*
X97492346Y-54057395D01*
X97717643Y-54117763D01*
X97903528Y-54134026D01*
X97949999Y-54138092D01*
X97950000Y-54138092D01*
X97950001Y-54138092D01*
X97988726Y-54134703D01*
X98182357Y-54117763D01*
X98407654Y-54057395D01*
X98619046Y-53958822D01*
X98810109Y-53825038D01*
X98975038Y-53660109D01*
X99108822Y-53469046D01*
X99108826Y-53469035D01*
X99111527Y-53464360D01*
X99113179Y-53465313D01*
X99153784Y-53419192D01*
X99220976Y-53400036D01*
X99287859Y-53420248D01*
X99326879Y-53465280D01*
X99328473Y-53464360D01*
X99331176Y-53469042D01*
X99331178Y-53469046D01*
X99464962Y-53660109D01*
X99629891Y-53825038D01*
X99820954Y-53958822D01*
X99864870Y-53979300D01*
X100032339Y-54057392D01*
X100032341Y-54057392D01*
X100032346Y-54057395D01*
X100257643Y-54117763D01*
X100443528Y-54134026D01*
X100489999Y-54138092D01*
X100490000Y-54138092D01*
X100490001Y-54138092D01*
X100528726Y-54134703D01*
X100722357Y-54117763D01*
X100947654Y-54057395D01*
X101159046Y-53958822D01*
X101350109Y-53825038D01*
X101515038Y-53660109D01*
X101648822Y-53469046D01*
X101648826Y-53469035D01*
X101651527Y-53464360D01*
X101653179Y-53465313D01*
X101693784Y-53419192D01*
X101760976Y-53400036D01*
X101827859Y-53420248D01*
X101866879Y-53465280D01*
X101868473Y-53464360D01*
X101871176Y-53469042D01*
X101871178Y-53469046D01*
X102004962Y-53660109D01*
X102169891Y-53825038D01*
X102360954Y-53958822D01*
X102404870Y-53979300D01*
X102572339Y-54057392D01*
X102572341Y-54057392D01*
X102572346Y-54057395D01*
X102797643Y-54117763D01*
X102983528Y-54134026D01*
X103029999Y-54138092D01*
X103030000Y-54138092D01*
X103030001Y-54138092D01*
X103068726Y-54134703D01*
X103262357Y-54117763D01*
X103487654Y-54057395D01*
X103699046Y-53958822D01*
X103890109Y-53825038D01*
X104055038Y-53660109D01*
X104188822Y-53469046D01*
X104287395Y-53257654D01*
X104347763Y-53032357D01*
X104368092Y-52800000D01*
X104347763Y-52567643D01*
X104287395Y-52342346D01*
X104188822Y-52130954D01*
X104055038Y-51939891D01*
X103890109Y-51774962D01*
X103699046Y-51641178D01*
X103699042Y-51641176D01*
X103487660Y-51542607D01*
X103487646Y-51542602D01*
X103262362Y-51482238D01*
X103262352Y-51482236D01*
X103030001Y-51461908D01*
X103029999Y-51461908D01*
X102797647Y-51482236D01*
X102797637Y-51482238D01*
X102572353Y-51542602D01*
X102572339Y-51542607D01*
X102360957Y-51641176D01*
X102360955Y-51641177D01*
X102316800Y-51672095D01*
X102169891Y-51774962D01*
X102169889Y-51774963D01*
X102169886Y-51774966D01*
X102004966Y-51939886D01*
X102004963Y-51939889D01*
X102004962Y-51939891D01*
X101921391Y-52059241D01*
X101871177Y-52130955D01*
X101868473Y-52135640D01*
X101866824Y-52134688D01*
X101826199Y-52180818D01*
X101759003Y-52199963D01*
X101692124Y-52179740D01*
X101653115Y-52134722D01*
X101651527Y-52135640D01*
X101648822Y-52130955D01*
X101648822Y-52130954D01*
X101515038Y-51939891D01*
X101350109Y-51774962D01*
X101159046Y-51641178D01*
X101159042Y-51641176D01*
X100947660Y-51542607D01*
X100947646Y-51542602D01*
X100722362Y-51482238D01*
X100722352Y-51482236D01*
X100490001Y-51461908D01*
X100489999Y-51461908D01*
X100257647Y-51482236D01*
X100257637Y-51482238D01*
X100168415Y-51506145D01*
X100098565Y-51504482D01*
X100048641Y-51474051D01*
X97470803Y-48896212D01*
X97460980Y-48883950D01*
X97460759Y-48884134D01*
X97455786Y-48878123D01*
X97439489Y-48862819D01*
X97405364Y-48830773D01*
X97394919Y-48820328D01*
X97384475Y-48809883D01*
X97378986Y-48805625D01*
X97374561Y-48801847D01*
X97340582Y-48769938D01*
X97340580Y-48769936D01*
X97340577Y-48769935D01*
X97323029Y-48760288D01*
X97306763Y-48749604D01*
X97290933Y-48737325D01*
X97248168Y-48718818D01*
X97242922Y-48716248D01*
X97202093Y-48693803D01*
X97202092Y-48693802D01*
X97182693Y-48688822D01*
X97164281Y-48682518D01*
X97145898Y-48674562D01*
X97145892Y-48674560D01*
X97099874Y-48667272D01*
X97094152Y-48666087D01*
X97049021Y-48654500D01*
X97049019Y-48654500D01*
X97028984Y-48654500D01*
X97009586Y-48652973D01*
X97002162Y-48651797D01*
X96989805Y-48649840D01*
X96989804Y-48649840D01*
X96943416Y-48654225D01*
X96937578Y-48654500D01*
X88140453Y-48654500D01*
X88073414Y-48634815D01*
X88052772Y-48618181D01*
X86080803Y-46646212D01*
X86070980Y-46633950D01*
X86070759Y-46634134D01*
X86065786Y-46628123D01*
X86015364Y-46580773D01*
X86000591Y-46566000D01*
X85994475Y-46559883D01*
X85988986Y-46555625D01*
X85984561Y-46551847D01*
X85950582Y-46519938D01*
X85950580Y-46519936D01*
X85950577Y-46519935D01*
X85933029Y-46510288D01*
X85916763Y-46499604D01*
X85900933Y-46487325D01*
X85858168Y-46468818D01*
X85852922Y-46466248D01*
X85812093Y-46443803D01*
X85812092Y-46443802D01*
X85792693Y-46438822D01*
X85774281Y-46432518D01*
X85755898Y-46424562D01*
X85755892Y-46424560D01*
X85709874Y-46417272D01*
X85704152Y-46416087D01*
X85659021Y-46404500D01*
X85659019Y-46404500D01*
X85638984Y-46404500D01*
X85619586Y-46402973D01*
X85612162Y-46401797D01*
X85599805Y-46399840D01*
X85599804Y-46399840D01*
X85553416Y-46404225D01*
X85547578Y-46404500D01*
X83150452Y-46404500D01*
X83083413Y-46384815D01*
X83062771Y-46368181D01*
X68465803Y-31771212D01*
X68455980Y-31758950D01*
X68455759Y-31759134D01*
X68450786Y-31753123D01*
X68400364Y-31705773D01*
X68389919Y-31695328D01*
X68379475Y-31684883D01*
X68373986Y-31680625D01*
X68369561Y-31676847D01*
X68335582Y-31644938D01*
X68335580Y-31644936D01*
X68335577Y-31644935D01*
X68318029Y-31635288D01*
X68301763Y-31624604D01*
X68285933Y-31612325D01*
X68243168Y-31593818D01*
X68237922Y-31591248D01*
X68197093Y-31568803D01*
X68197092Y-31568802D01*
X68177693Y-31563822D01*
X68159281Y-31557518D01*
X68140898Y-31549562D01*
X68140892Y-31549560D01*
X68094874Y-31542272D01*
X68089152Y-31541087D01*
X68044021Y-31529500D01*
X68044019Y-31529500D01*
X68023984Y-31529500D01*
X68004586Y-31527973D01*
X67997162Y-31526797D01*
X67984805Y-31524840D01*
X67984804Y-31524840D01*
X67938416Y-31529225D01*
X67932578Y-31529500D01*
X50623211Y-31529500D01*
X50556172Y-31509815D01*
X50519402Y-31473321D01*
X50405271Y-31298629D01*
X50351298Y-31239999D01*
X50249308Y-31129208D01*
X50096505Y-31010277D01*
X50063541Y-30984620D01*
X50064525Y-30983354D01*
X50023824Y-30935670D01*
X50014396Y-30866439D01*
X50043893Y-30803102D01*
X50063865Y-30785796D01*
X50063541Y-30785380D01*
X50103003Y-30754665D01*
X50249308Y-30640792D01*
X50405269Y-30471373D01*
X50531217Y-30278595D01*
X50623717Y-30067716D01*
X50680246Y-29844488D01*
X50687661Y-29755000D01*
X77819723Y-29755000D01*
X77831684Y-29891724D01*
X77838793Y-29972975D01*
X77838793Y-29972979D01*
X77895422Y-30184322D01*
X77895424Y-30184326D01*
X77895425Y-30184330D01*
X77941661Y-30283484D01*
X77987897Y-30382638D01*
X78012998Y-30418486D01*
X78113402Y-30561877D01*
X78268123Y-30716598D01*
X78447361Y-30842102D01*
X78645670Y-30934575D01*
X78645675Y-30934576D01*
X78645679Y-30934578D01*
X78670749Y-30941295D01*
X78680775Y-30943981D01*
X78683882Y-30944902D01*
X78687944Y-30946221D01*
X78687948Y-30946223D01*
X78695977Y-30948054D01*
X78857023Y-30991207D01*
X78898221Y-30994811D01*
X78906609Y-30996130D01*
X78906869Y-30996190D01*
X78921465Y-30996844D01*
X79053361Y-31008383D01*
X79074998Y-31010277D01*
X79074999Y-31010277D01*
X79074999Y-31010276D01*
X79075000Y-31010277D01*
X79120291Y-31006314D01*
X79128461Y-31006142D01*
X79131194Y-31006265D01*
X79148632Y-31003902D01*
X79151449Y-31003588D01*
X79292977Y-30991207D01*
X79340915Y-30978361D01*
X79348643Y-30976810D01*
X79352343Y-30976308D01*
X79353713Y-30976123D01*
X79373104Y-30969822D01*
X79376116Y-30968929D01*
X79504330Y-30934575D01*
X79553182Y-30911794D01*
X79560193Y-30909032D01*
X79567274Y-30906732D01*
X79586741Y-30896256D01*
X79589827Y-30894706D01*
X79702639Y-30842102D01*
X79702645Y-30842097D01*
X79702647Y-30842097D01*
X79722410Y-30828257D01*
X79750335Y-30808704D01*
X79756496Y-30804908D01*
X79765013Y-30800325D01*
X79783056Y-30785935D01*
X79786059Y-30783690D01*
X79881877Y-30716598D01*
X79926185Y-30672289D01*
X79931338Y-30667684D01*
X79940574Y-30660319D01*
X79955950Y-30642718D01*
X79958741Y-30639733D01*
X80036598Y-30561877D01*
X80075142Y-30506829D01*
X80079209Y-30501638D01*
X80088315Y-30491216D01*
X80100202Y-30471320D01*
X80102611Y-30467600D01*
X80162102Y-30382639D01*
X80192464Y-30317526D01*
X80195409Y-30311970D01*
X80203487Y-30298451D01*
X80211432Y-30277281D01*
X80213261Y-30272926D01*
X80254575Y-30184330D01*
X80274406Y-30110317D01*
X80276239Y-30104603D01*
X80282389Y-30088218D01*
X80286265Y-30066859D01*
X80287366Y-30061949D01*
X80311207Y-29972977D01*
X80318318Y-29891691D01*
X80319073Y-29886068D01*
X80322484Y-29867276D01*
X80323139Y-29838046D01*
X80323354Y-29834128D01*
X80330277Y-29755000D01*
X80323357Y-29675905D01*
X80323138Y-29671924D01*
X80322484Y-29642724D01*
X80319075Y-29623942D01*
X80318315Y-29618275D01*
X80318029Y-29615005D01*
X80311207Y-29537023D01*
X80287372Y-29448073D01*
X80286257Y-29443099D01*
X80282389Y-29421782D01*
X80276241Y-29405402D01*
X80274411Y-29399701D01*
X80256572Y-29333125D01*
X80254576Y-29325673D01*
X80254575Y-29325671D01*
X80254574Y-29325668D01*
X80213264Y-29237079D01*
X80211427Y-29232706D01*
X80203487Y-29211549D01*
X80195411Y-29198033D01*
X80192456Y-29192457D01*
X80162102Y-29127362D01*
X80102619Y-29042411D01*
X80100198Y-29038673D01*
X80088315Y-29018784D01*
X80079224Y-29008378D01*
X80075124Y-29003144D01*
X80036599Y-28948124D01*
X80036596Y-28948121D01*
X79958760Y-28870285D01*
X79955924Y-28867251D01*
X79940575Y-28849682D01*
X79940573Y-28849680D01*
X79931355Y-28842329D01*
X79926177Y-28837702D01*
X79881877Y-28793402D01*
X79881875Y-28793401D01*
X79881872Y-28793398D01*
X79820786Y-28750626D01*
X79786102Y-28726339D01*
X79783011Y-28724028D01*
X79765014Y-28709676D01*
X79765013Y-28709675D01*
X79759875Y-28706910D01*
X79756508Y-28705098D01*
X79750322Y-28701286D01*
X79702645Y-28667902D01*
X79702639Y-28667898D01*
X79589885Y-28615320D01*
X79586707Y-28613725D01*
X79567273Y-28603267D01*
X79560208Y-28600971D01*
X79553165Y-28598196D01*
X79504333Y-28575426D01*
X79504327Y-28575424D01*
X79376164Y-28541082D01*
X79373054Y-28540161D01*
X79366150Y-28537918D01*
X79353713Y-28533877D01*
X79353709Y-28533876D01*
X79353708Y-28533876D01*
X79353707Y-28533875D01*
X79348639Y-28533189D01*
X79340913Y-28531637D01*
X79292982Y-28518794D01*
X79292972Y-28518792D01*
X79151511Y-28506416D01*
X79148594Y-28506091D01*
X79131199Y-28503735D01*
X79131185Y-28503734D01*
X79128450Y-28503857D01*
X79120269Y-28503683D01*
X79075003Y-28499723D01*
X79074997Y-28499723D01*
X78921482Y-28513153D01*
X78907758Y-28513770D01*
X78906869Y-28513810D01*
X78906867Y-28513810D01*
X78906839Y-28513814D01*
X78906551Y-28513880D01*
X78898197Y-28515189D01*
X78857022Y-28518793D01*
X78695996Y-28561940D01*
X78687941Y-28563778D01*
X78683866Y-28565102D01*
X78680767Y-28566020D01*
X78645669Y-28575424D01*
X78447361Y-28667898D01*
X78447357Y-28667900D01*
X78268121Y-28793402D01*
X78113402Y-28948121D01*
X77987900Y-29127357D01*
X77987898Y-29127361D01*
X77895426Y-29325668D01*
X77895422Y-29325677D01*
X77838793Y-29537020D01*
X77838793Y-29537024D01*
X77825410Y-29690000D01*
X77819723Y-29755000D01*
X50687661Y-29755000D01*
X50696965Y-29642724D01*
X50699262Y-29615005D01*
X50699262Y-29614994D01*
X50680246Y-29385515D01*
X50680246Y-29385512D01*
X50623717Y-29162284D01*
X50531217Y-28951405D01*
X50464757Y-28849680D01*
X50405271Y-28758629D01*
X50360206Y-28709676D01*
X50249308Y-28589208D01*
X50178216Y-28533875D01*
X50067591Y-28447772D01*
X49865069Y-28338172D01*
X49865061Y-28338169D01*
X49647274Y-28263402D01*
X49476920Y-28234975D01*
X49420137Y-28225500D01*
X49189863Y-28225500D01*
X49144436Y-28233080D01*
X48962725Y-28263402D01*
X48744938Y-28338169D01*
X48744930Y-28338172D01*
X48542408Y-28447772D01*
X48360694Y-28589206D01*
X48360689Y-28589211D01*
X48204728Y-28758629D01*
X48078782Y-28951405D01*
X47986282Y-29162285D01*
X47929753Y-29385515D01*
X47910738Y-29614994D01*
X47910738Y-29615005D01*
X47929753Y-29844484D01*
X47986282Y-30067714D01*
X48078782Y-30278594D01*
X48204728Y-30471370D01*
X48204731Y-30471373D01*
X48360692Y-30640792D01*
X48421546Y-30688156D01*
X48546459Y-30785380D01*
X48545476Y-30786641D01*
X48586183Y-30834349D01*
X48595600Y-30903581D01*
X48566092Y-30966914D01*
X48546136Y-30984205D01*
X48546459Y-30984620D01*
X48360694Y-31129206D01*
X48360689Y-31129211D01*
X48204728Y-31298629D01*
X48078782Y-31491405D01*
X47986282Y-31702285D01*
X47929753Y-31925515D01*
X47910738Y-32154994D01*
X47910738Y-32155005D01*
X47929753Y-32384484D01*
X47986282Y-32607714D01*
X48078782Y-32818594D01*
X48204728Y-33011370D01*
X48204731Y-33011373D01*
X48360692Y-33180792D01*
X48477591Y-33271778D01*
X48546459Y-33325380D01*
X48545476Y-33326641D01*
X48586183Y-33374349D01*
X48595600Y-33443581D01*
X48566092Y-33506914D01*
X48546136Y-33524205D01*
X48546459Y-33524620D01*
X48360694Y-33669206D01*
X48360689Y-33669211D01*
X48204728Y-33838629D01*
X48078782Y-34031405D01*
X47986282Y-34242285D01*
X47929753Y-34465515D01*
X47910738Y-34694994D01*
X47910738Y-34695005D01*
X47929753Y-34924484D01*
X47986282Y-35147714D01*
X48078782Y-35358594D01*
X48204728Y-35551370D01*
X48204731Y-35551373D01*
X48360692Y-35720792D01*
X48466465Y-35803118D01*
X48546459Y-35865380D01*
X48545476Y-35866641D01*
X48586183Y-35914349D01*
X48595600Y-35983581D01*
X48566092Y-36046914D01*
X48546136Y-36064205D01*
X48546459Y-36064620D01*
X48360694Y-36209206D01*
X48360689Y-36209211D01*
X48204728Y-36378629D01*
X48078782Y-36571405D01*
X47986282Y-36782285D01*
X47929753Y-37005515D01*
X47910738Y-37234994D01*
X47910738Y-37235005D01*
X47929753Y-37464484D01*
X47986282Y-37687714D01*
X48078782Y-37898594D01*
X48204728Y-38091370D01*
X48204731Y-38091373D01*
X48360692Y-38260792D01*
X48470360Y-38346150D01*
X48546459Y-38405380D01*
X48545476Y-38406641D01*
X48586183Y-38454349D01*
X48595600Y-38523581D01*
X48566092Y-38586914D01*
X48546136Y-38604205D01*
X48546459Y-38604620D01*
X48360694Y-38749206D01*
X48360689Y-38749211D01*
X48204728Y-38918629D01*
X48078782Y-39111405D01*
X47986282Y-39322285D01*
X47929753Y-39545515D01*
X47910738Y-39774994D01*
X47910738Y-39775005D01*
X47929753Y-40004484D01*
X47986281Y-40227711D01*
X47986282Y-40227714D01*
X47986283Y-40227716D01*
X47991535Y-40239690D01*
X48000439Y-40308987D01*
X47970464Y-40372100D01*
X47911125Y-40408988D01*
X47877980Y-40413500D01*
X46769452Y-40413500D01*
X46702413Y-40393815D01*
X46681771Y-40377181D01*
X46362045Y-40057455D01*
X46020803Y-39716212D01*
X46010980Y-39703950D01*
X46010759Y-39704134D01*
X46005786Y-39698123D01*
X45987159Y-39680631D01*
X45955364Y-39650773D01*
X45944919Y-39640328D01*
X45934475Y-39629883D01*
X45928986Y-39625625D01*
X45924561Y-39621847D01*
X45890582Y-39589938D01*
X45890580Y-39589936D01*
X45890577Y-39589935D01*
X45873029Y-39580288D01*
X45856763Y-39569604D01*
X45840933Y-39557325D01*
X45798168Y-39538818D01*
X45792922Y-39536248D01*
X45752093Y-39513803D01*
X45752092Y-39513802D01*
X45732693Y-39508822D01*
X45714281Y-39502518D01*
X45695898Y-39494562D01*
X45695892Y-39494560D01*
X45649874Y-39487272D01*
X45644152Y-39486087D01*
X45599021Y-39474500D01*
X45599019Y-39474500D01*
X45578984Y-39474500D01*
X45559586Y-39472973D01*
X45552162Y-39471797D01*
X45539805Y-39469840D01*
X45539804Y-39469840D01*
X45493416Y-39474225D01*
X45487578Y-39474500D01*
X44062737Y-39474500D01*
X44047120Y-39472776D01*
X44047093Y-39473062D01*
X44039331Y-39472327D01*
X43970203Y-39474500D01*
X43940650Y-39474500D01*
X43939929Y-39474590D01*
X43933757Y-39475369D01*
X43927945Y-39475826D01*
X43881373Y-39477290D01*
X43881372Y-39477290D01*
X43862129Y-39482881D01*
X43843079Y-39486825D01*
X43823211Y-39489334D01*
X43823209Y-39489335D01*
X43779884Y-39506488D01*
X43774357Y-39508380D01*
X43729610Y-39521381D01*
X43729609Y-39521382D01*
X43712367Y-39531579D01*
X43694899Y-39540137D01*
X43676269Y-39547513D01*
X43676267Y-39547514D01*
X43638576Y-39574898D01*
X43633694Y-39578105D01*
X43593579Y-39601830D01*
X43579408Y-39616000D01*
X43564623Y-39628628D01*
X43548412Y-39640407D01*
X43518709Y-39676310D01*
X43514777Y-39680631D01*
X42975673Y-40219734D01*
X42914350Y-40253219D01*
X42844658Y-40248235D01*
X42788725Y-40206363D01*
X42771811Y-40175388D01*
X42770798Y-40172674D01*
X42770797Y-40172672D01*
X42770796Y-40172669D01*
X42770794Y-40172666D01*
X42770793Y-40172664D01*
X42684547Y-40057455D01*
X42684544Y-40057452D01*
X42569335Y-39971206D01*
X42569328Y-39971202D01*
X42434482Y-39920908D01*
X42434483Y-39920908D01*
X42374883Y-39914501D01*
X42374881Y-39914500D01*
X42374873Y-39914500D01*
X42374864Y-39914500D01*
X41049129Y-39914500D01*
X41049123Y-39914501D01*
X40989516Y-39920908D01*
X40854671Y-39971202D01*
X40854664Y-39971206D01*
X40739455Y-40057452D01*
X40739452Y-40057455D01*
X40653206Y-40172664D01*
X40653202Y-40172671D01*
X40602908Y-40307517D01*
X40596501Y-40367116D01*
X40596500Y-40367135D01*
X40596500Y-41127547D01*
X40576815Y-41194586D01*
X40524011Y-41240341D01*
X40454853Y-41250285D01*
X40391297Y-41221260D01*
X40384819Y-41215228D01*
X40085803Y-40916212D01*
X40075980Y-40903950D01*
X40075759Y-40904134D01*
X40070786Y-40898123D01*
X40067281Y-40894832D01*
X40020364Y-40850773D01*
X40009919Y-40840328D01*
X39999475Y-40829883D01*
X39993986Y-40825625D01*
X39989561Y-40821847D01*
X39955582Y-40789938D01*
X39955580Y-40789936D01*
X39949271Y-40785353D01*
X39950809Y-40783234D01*
X39910492Y-40742679D01*
X39895499Y-40683573D01*
X39895499Y-40460448D01*
X39915184Y-40393409D01*
X39946614Y-40360130D01*
X40081971Y-40261788D01*
X40208633Y-40121116D01*
X40303279Y-39957184D01*
X40361774Y-39777156D01*
X40381560Y-39588900D01*
X40361774Y-39400644D01*
X40303279Y-39220616D01*
X40208633Y-39056684D01*
X40081971Y-38916012D01*
X40081970Y-38916011D01*
X39923573Y-38800929D01*
X39925259Y-38798607D01*
X39885702Y-38757101D01*
X39872494Y-38688491D01*
X39874997Y-38673347D01*
X39875089Y-38672487D01*
X39875091Y-38672483D01*
X39878367Y-38642009D01*
X39905104Y-38577461D01*
X39962496Y-38537613D01*
X40032321Y-38535119D01*
X40043999Y-38539176D01*
X40044013Y-38539135D01*
X40050197Y-38541144D01*
X40235354Y-38580500D01*
X40235355Y-38580500D01*
X40424642Y-38580500D01*
X40424646Y-38580500D01*
X40441778Y-38576858D01*
X40511441Y-38582173D01*
X40567176Y-38624308D01*
X40586185Y-38665219D01*
X40586198Y-38665215D01*
X40586258Y-38665378D01*
X40588233Y-38669627D01*
X40588906Y-38672477D01*
X40639202Y-38807328D01*
X40639206Y-38807335D01*
X40725452Y-38922544D01*
X40725455Y-38922547D01*
X40840664Y-39008793D01*
X40840671Y-39008797D01*
X40975517Y-39059091D01*
X40975516Y-39059091D01*
X40982444Y-39059835D01*
X41035127Y-39065500D01*
X42360872Y-39065499D01*
X42420483Y-39059091D01*
X42555331Y-39008796D01*
X42670546Y-38922546D01*
X42756796Y-38807331D01*
X42807091Y-38672483D01*
X42813500Y-38612873D01*
X42813499Y-36747128D01*
X42807091Y-36687517D01*
X42807090Y-36687515D01*
X42756797Y-36552671D01*
X42756793Y-36552664D01*
X42670547Y-36437455D01*
X42670544Y-36437452D01*
X42555335Y-36351206D01*
X42555328Y-36351202D01*
X42420482Y-36300908D01*
X42420483Y-36300908D01*
X42360883Y-36294501D01*
X42360881Y-36294500D01*
X42360873Y-36294500D01*
X42360864Y-36294500D01*
X41035129Y-36294500D01*
X41035123Y-36294501D01*
X40975516Y-36300908D01*
X40840671Y-36351202D01*
X40840664Y-36351206D01*
X40725455Y-36437452D01*
X40725452Y-36437455D01*
X40639206Y-36552664D01*
X40639202Y-36552671D01*
X40588909Y-36687515D01*
X40588236Y-36690365D01*
X40587107Y-36692347D01*
X40586198Y-36694785D01*
X40585802Y-36694637D01*
X40553662Y-36751081D01*
X40491751Y-36783467D01*
X40441782Y-36783141D01*
X40424650Y-36779500D01*
X40424646Y-36779500D01*
X40235354Y-36779500D01*
X40216691Y-36783467D01*
X40050197Y-36818855D01*
X40044013Y-36820865D01*
X40043462Y-36819171D01*
X39982826Y-36827294D01*
X39919553Y-36797657D01*
X39882347Y-36738517D01*
X39878366Y-36717984D01*
X39875091Y-36687516D01*
X39824797Y-36552671D01*
X39824793Y-36552664D01*
X39738547Y-36437455D01*
X39738544Y-36437452D01*
X39623335Y-36351206D01*
X39623328Y-36351202D01*
X39496167Y-36303774D01*
X39440233Y-36261903D01*
X39415816Y-36196438D01*
X39415500Y-36187592D01*
X39415500Y-35570122D01*
X39435185Y-35503083D01*
X39487989Y-35457328D01*
X39510985Y-35449445D01*
X39512477Y-35449091D01*
X39512483Y-35449091D01*
X39647331Y-35398796D01*
X39762546Y-35312546D01*
X39848796Y-35197331D01*
X39899091Y-35062483D01*
X39905500Y-35002873D01*
X39905500Y-35002870D01*
X40606500Y-35002870D01*
X40606501Y-35002876D01*
X40612908Y-35062483D01*
X40663202Y-35197328D01*
X40663206Y-35197335D01*
X40749452Y-35312544D01*
X40749455Y-35312547D01*
X40864664Y-35398793D01*
X40864671Y-35398797D01*
X40999517Y-35449091D01*
X40999516Y-35449091D01*
X41006444Y-35449835D01*
X41059127Y-35455500D01*
X42384872Y-35455499D01*
X42444483Y-35449091D01*
X42579331Y-35398796D01*
X42694546Y-35312546D01*
X42780796Y-35197331D01*
X42831091Y-35062483D01*
X42837500Y-35002873D01*
X42837499Y-33137128D01*
X42831091Y-33077517D01*
X42780796Y-32942669D01*
X42780795Y-32942668D01*
X42780793Y-32942664D01*
X42694547Y-32827455D01*
X42694544Y-32827452D01*
X42579335Y-32741206D01*
X42579328Y-32741202D01*
X42444482Y-32690908D01*
X42444483Y-32690908D01*
X42384883Y-32684501D01*
X42384881Y-32684500D01*
X42384873Y-32684500D01*
X42384864Y-32684500D01*
X41059129Y-32684500D01*
X41059123Y-32684501D01*
X40999516Y-32690908D01*
X40864671Y-32741202D01*
X40864664Y-32741206D01*
X40749455Y-32827452D01*
X40749452Y-32827455D01*
X40663206Y-32942664D01*
X40663202Y-32942671D01*
X40612908Y-33077517D01*
X40606501Y-33137116D01*
X40606501Y-33137123D01*
X40606500Y-33137135D01*
X40606500Y-35002870D01*
X39905500Y-35002870D01*
X39905499Y-33137128D01*
X39899091Y-33077517D01*
X39848796Y-32942669D01*
X39848795Y-32942668D01*
X39848793Y-32942664D01*
X39762547Y-32827455D01*
X39762544Y-32827452D01*
X39647335Y-32741206D01*
X39647328Y-32741202D01*
X39512482Y-32690908D01*
X39512483Y-32690908D01*
X39452883Y-32684501D01*
X39452881Y-32684500D01*
X39452873Y-32684500D01*
X39452864Y-32684500D01*
X38127129Y-32684500D01*
X38127123Y-32684501D01*
X38067516Y-32690908D01*
X37932671Y-32741202D01*
X37932664Y-32741206D01*
X37817455Y-32827452D01*
X37817452Y-32827455D01*
X37731206Y-32942664D01*
X37731202Y-32942671D01*
X37680908Y-33077517D01*
X37674501Y-33137116D01*
X37674501Y-33137123D01*
X37674500Y-33137135D01*
X37674500Y-35002870D01*
X37674501Y-35002876D01*
X37680908Y-35062483D01*
X37731202Y-35197328D01*
X37731206Y-35197335D01*
X37817452Y-35312544D01*
X37817455Y-35312547D01*
X37932664Y-35398793D01*
X37932671Y-35398797D01*
X37970848Y-35413035D01*
X38067517Y-35449091D01*
X38067531Y-35449092D01*
X38069003Y-35449441D01*
X38070044Y-35450033D01*
X38074785Y-35451802D01*
X38074498Y-35452569D01*
X38129722Y-35484008D01*
X38162115Y-35545916D01*
X38164500Y-35570121D01*
X38164500Y-36176518D01*
X38144815Y-36243557D01*
X38092011Y-36289312D01*
X38053757Y-36299807D01*
X38043519Y-36300907D01*
X37908671Y-36351202D01*
X37908664Y-36351206D01*
X37793455Y-36437452D01*
X37793452Y-36437455D01*
X37707206Y-36552664D01*
X37707202Y-36552671D01*
X37656908Y-36687517D01*
X37650501Y-36747116D01*
X37650501Y-36747123D01*
X37650500Y-36747135D01*
X37650500Y-38612870D01*
X37650501Y-38612876D01*
X37656908Y-38672483D01*
X37707202Y-38807328D01*
X37707206Y-38807335D01*
X37793452Y-38922544D01*
X37793455Y-38922547D01*
X37908664Y-39008793D01*
X37908671Y-39008797D01*
X38043517Y-39059091D01*
X38043515Y-39059091D01*
X38087472Y-39063817D01*
X38152023Y-39090555D01*
X38182293Y-39130336D01*
X38183411Y-39129675D01*
X38197580Y-39153634D01*
X38206138Y-39171103D01*
X38213514Y-39189732D01*
X38240898Y-39227423D01*
X38244106Y-39232307D01*
X38267827Y-39272416D01*
X38267833Y-39272424D01*
X38281990Y-39286580D01*
X38294628Y-39301376D01*
X38306405Y-39317586D01*
X38306406Y-39317587D01*
X38342309Y-39347288D01*
X38346620Y-39351210D01*
X38465250Y-39469840D01*
X38537984Y-39542574D01*
X38571469Y-39603897D01*
X38573624Y-39617294D01*
X38590466Y-39777539D01*
X38577896Y-39846269D01*
X38530164Y-39897292D01*
X38467145Y-39914500D01*
X38117130Y-39914500D01*
X38117123Y-39914501D01*
X38057516Y-39920908D01*
X37922671Y-39971202D01*
X37922664Y-39971206D01*
X37807455Y-40057452D01*
X37807452Y-40057455D01*
X37721206Y-40172664D01*
X37721202Y-40172671D01*
X37670908Y-40307517D01*
X37664501Y-40367116D01*
X37664500Y-40367135D01*
X37664500Y-42232870D01*
X37664501Y-42232876D01*
X37670908Y-42292483D01*
X37721202Y-42427328D01*
X37721206Y-42427335D01*
X37807452Y-42542544D01*
X37807455Y-42542547D01*
X37922664Y-42628793D01*
X37922671Y-42628797D01*
X38057517Y-42679091D01*
X38057516Y-42679091D01*
X38064444Y-42679835D01*
X38117127Y-42685500D01*
X39442872Y-42685499D01*
X39502483Y-42679091D01*
X39637331Y-42628796D01*
X39752546Y-42542546D01*
X39752548Y-42542542D01*
X39758817Y-42536275D01*
X39761151Y-42538609D01*
X39804160Y-42506369D01*
X39873848Y-42501338D01*
X39935193Y-42534783D01*
X40862621Y-43462211D01*
X40896106Y-43523534D01*
X40891122Y-43593226D01*
X40849252Y-43649158D01*
X40811452Y-43677455D01*
X40725206Y-43792664D01*
X40725202Y-43792671D01*
X40674908Y-43927516D01*
X40671510Y-43959129D01*
X40644772Y-44023680D01*
X40587379Y-44063528D01*
X40522441Y-44067163D01*
X40345246Y-44029500D01*
X40155954Y-44029500D01*
X40110545Y-44039151D01*
X40040880Y-44033835D01*
X39985147Y-43991697D01*
X39963011Y-43935036D01*
X39962876Y-43935068D01*
X39962649Y-43934110D01*
X39961477Y-43931108D01*
X39961091Y-43927517D01*
X39924424Y-43829208D01*
X39910797Y-43792671D01*
X39910793Y-43792664D01*
X39824547Y-43677455D01*
X39824544Y-43677452D01*
X39709335Y-43591206D01*
X39709328Y-43591202D01*
X39574482Y-43540908D01*
X39574483Y-43540908D01*
X39514883Y-43534501D01*
X39514881Y-43534500D01*
X39514873Y-43534500D01*
X39514864Y-43534500D01*
X38189129Y-43534500D01*
X38189123Y-43534501D01*
X38129516Y-43540908D01*
X37994671Y-43591202D01*
X37994664Y-43591206D01*
X37879455Y-43677452D01*
X37879452Y-43677455D01*
X37793206Y-43792664D01*
X37793202Y-43792671D01*
X37742908Y-43927517D01*
X37739510Y-43959129D01*
X37736501Y-43987123D01*
X37736500Y-43987135D01*
X37736500Y-45852870D01*
X37736501Y-45852876D01*
X37742908Y-45912483D01*
X37793202Y-46047328D01*
X37793206Y-46047335D01*
X37879452Y-46162544D01*
X37879455Y-46162547D01*
X37994664Y-46248793D01*
X37994671Y-46248797D01*
X38129517Y-46299091D01*
X38129516Y-46299091D01*
X38136444Y-46299835D01*
X38189127Y-46305500D01*
X39514872Y-46305499D01*
X39574483Y-46299091D01*
X39709331Y-46248796D01*
X39824546Y-46162546D01*
X39910796Y-46047331D01*
X39961091Y-45912483D01*
X39961090Y-45912483D01*
X39963802Y-45905215D01*
X39965113Y-45905704D01*
X39995541Y-45852255D01*
X40057448Y-45819863D01*
X40107434Y-45820186D01*
X40155954Y-45830500D01*
X40155955Y-45830500D01*
X40345244Y-45830500D01*
X40345246Y-45830500D01*
X40524544Y-45792389D01*
X40594208Y-45797705D01*
X40649942Y-45839842D01*
X40673611Y-45900421D01*
X40674907Y-45912480D01*
X40725202Y-46047328D01*
X40725206Y-46047335D01*
X40811452Y-46162544D01*
X40811455Y-46162547D01*
X40926664Y-46248793D01*
X40926671Y-46248797D01*
X41061517Y-46299091D01*
X41061516Y-46299091D01*
X41068444Y-46299835D01*
X41121127Y-46305500D01*
X42446872Y-46305499D01*
X42506483Y-46299091D01*
X42641331Y-46248796D01*
X42756546Y-46162546D01*
X42842796Y-46047331D01*
X42893091Y-45912483D01*
X42899500Y-45852873D01*
X42899500Y-45669500D01*
X42919185Y-45602461D01*
X42971989Y-45556706D01*
X43023500Y-45545500D01*
X46319548Y-45545500D01*
X46386587Y-45565185D01*
X46407229Y-45581819D01*
X47379181Y-46553771D01*
X47412666Y-46615094D01*
X47415500Y-46641452D01*
X47415500Y-50375855D01*
X47413775Y-50391472D01*
X47414061Y-50391499D01*
X47413326Y-50399265D01*
X47415500Y-50468414D01*
X47415500Y-50497943D01*
X47415501Y-50497960D01*
X47416368Y-50504831D01*
X47416826Y-50510650D01*
X47418290Y-50557224D01*
X47418291Y-50557227D01*
X47423880Y-50576467D01*
X47427824Y-50595511D01*
X47429368Y-50607730D01*
X47430336Y-50615391D01*
X47447490Y-50658719D01*
X47449382Y-50664247D01*
X47462381Y-50708988D01*
X47472580Y-50726234D01*
X47481138Y-50743703D01*
X47488514Y-50762332D01*
X47515898Y-50800023D01*
X47519106Y-50804907D01*
X47542827Y-50845016D01*
X47542833Y-50845024D01*
X47556990Y-50859180D01*
X47569628Y-50873976D01*
X47581405Y-50890186D01*
X47581406Y-50890187D01*
X47617309Y-50919888D01*
X47621620Y-50923810D01*
X48216465Y-51518656D01*
X48411997Y-51714188D01*
X48421822Y-51726451D01*
X48422043Y-51726269D01*
X48427014Y-51732278D01*
X48453017Y-51756695D01*
X48477435Y-51779626D01*
X48498329Y-51800520D01*
X48503811Y-51804773D01*
X48508243Y-51808557D01*
X48542218Y-51840462D01*
X48559776Y-51850114D01*
X48576192Y-51860916D01*
X48576374Y-51861058D01*
X48576408Y-51861084D01*
X48617222Y-51917794D01*
X48620897Y-51987567D01*
X48601822Y-52030062D01*
X48531181Y-52130949D01*
X48528473Y-52135640D01*
X48526824Y-52134688D01*
X48486199Y-52180818D01*
X48419003Y-52199963D01*
X48352124Y-52179740D01*
X48313115Y-52134722D01*
X48311527Y-52135640D01*
X48308822Y-52130955D01*
X48308822Y-52130954D01*
X48175038Y-51939891D01*
X48010109Y-51774962D01*
X47819046Y-51641178D01*
X47819042Y-51641176D01*
X47607660Y-51542607D01*
X47607646Y-51542602D01*
X47382362Y-51482238D01*
X47382352Y-51482236D01*
X47150001Y-51461908D01*
X47149999Y-51461908D01*
X46917647Y-51482236D01*
X46917637Y-51482238D01*
X46692353Y-51542602D01*
X46692339Y-51542607D01*
X46480957Y-51641176D01*
X46480955Y-51641177D01*
X46436800Y-51672095D01*
X46289891Y-51774962D01*
X46289889Y-51774963D01*
X46289886Y-51774966D01*
X46124966Y-51939886D01*
X46124963Y-51939889D01*
X46124962Y-51939891D01*
X46041391Y-52059241D01*
X45991177Y-52130955D01*
X45988473Y-52135640D01*
X45986824Y-52134688D01*
X45946199Y-52180818D01*
X45879003Y-52199963D01*
X45812124Y-52179740D01*
X45773115Y-52134722D01*
X45771527Y-52135640D01*
X45768822Y-52130955D01*
X45768822Y-52130954D01*
X45635038Y-51939891D01*
X45470109Y-51774962D01*
X45279046Y-51641178D01*
X45279042Y-51641176D01*
X45067660Y-51542607D01*
X45067646Y-51542602D01*
X44842362Y-51482238D01*
X44842352Y-51482236D01*
X44610001Y-51461908D01*
X44609999Y-51461908D01*
X44377647Y-51482236D01*
X44377637Y-51482238D01*
X44152353Y-51542602D01*
X44152339Y-51542607D01*
X43940957Y-51641176D01*
X43940955Y-51641177D01*
X43896800Y-51672095D01*
X43749891Y-51774962D01*
X43749889Y-51774963D01*
X43749886Y-51774966D01*
X43584966Y-51939886D01*
X43584963Y-51939889D01*
X43584962Y-51939891D01*
X43501391Y-52059241D01*
X43451177Y-52130955D01*
X43451176Y-52130957D01*
X43352607Y-52342339D01*
X43352602Y-52342353D01*
X43292238Y-52567637D01*
X43292236Y-52567647D01*
X43271908Y-52799999D01*
X43271908Y-52800000D01*
X43292236Y-53032352D01*
X43292238Y-53032362D01*
X43352602Y-53257646D01*
X43352606Y-53257656D01*
X43358687Y-53270697D01*
X43369178Y-53339774D01*
X43340657Y-53403558D01*
X43282180Y-53441797D01*
X43246304Y-53447100D01*
X36003037Y-53447100D01*
X35987420Y-53445376D01*
X35987393Y-53445662D01*
X35979631Y-53444927D01*
X35910503Y-53447100D01*
X35880950Y-53447100D01*
X35880229Y-53447190D01*
X35874057Y-53447969D01*
X35868245Y-53448426D01*
X35821673Y-53449890D01*
X35821672Y-53449890D01*
X35802429Y-53455481D01*
X35783379Y-53459425D01*
X35763511Y-53461934D01*
X35763509Y-53461935D01*
X35720184Y-53479088D01*
X35714657Y-53480980D01*
X35669910Y-53493981D01*
X35669909Y-53493982D01*
X35652667Y-53504179D01*
X35635199Y-53512737D01*
X35616569Y-53520113D01*
X35616567Y-53520114D01*
X35578876Y-53547498D01*
X35573994Y-53550705D01*
X35533879Y-53574430D01*
X35519708Y-53588600D01*
X35504923Y-53601228D01*
X35488712Y-53613007D01*
X35459009Y-53648910D01*
X35455077Y-53653231D01*
X30820128Y-58288181D01*
X30758805Y-58321666D01*
X30732447Y-58324500D01*
X30030452Y-58324500D01*
X29963413Y-58304815D01*
X29942771Y-58288181D01*
X28048533Y-56393942D01*
X28015048Y-56332619D01*
X28020032Y-56262927D01*
X28032402Y-56238444D01*
X28093462Y-56144987D01*
X28191035Y-55922543D01*
X28250664Y-55687073D01*
X28270723Y-55445000D01*
X28250664Y-55202927D01*
X28191035Y-54967457D01*
X28093462Y-54745013D01*
X28065895Y-54702819D01*
X27960609Y-54541665D01*
X27941901Y-54521343D01*
X27796094Y-54362954D01*
X27796089Y-54362950D01*
X27796087Y-54362948D01*
X27604417Y-54213765D01*
X27604411Y-54213761D01*
X27390784Y-54098151D01*
X27390779Y-54098149D01*
X27161043Y-54019281D01*
X27001314Y-53992627D01*
X26921451Y-53979300D01*
X26678549Y-53979300D01*
X26618651Y-53989295D01*
X26438956Y-54019281D01*
X26209220Y-54098149D01*
X26209215Y-54098151D01*
X25995588Y-54213761D01*
X25995582Y-54213765D01*
X25803912Y-54362948D01*
X25803909Y-54362951D01*
X25639390Y-54541665D01*
X25506537Y-54745013D01*
X25408965Y-54967455D01*
X25370615Y-55118896D01*
X25335075Y-55179051D01*
X25272654Y-55210443D01*
X25203171Y-55203105D01*
X25148686Y-55159366D01*
X25126497Y-55093113D01*
X25126409Y-55088179D01*
X25136759Y-51000005D01*
X25564556Y-51000005D01*
X25584310Y-51314004D01*
X25584311Y-51314011D01*
X25604495Y-51419816D01*
X25638095Y-51595958D01*
X25643270Y-51623083D01*
X25740497Y-51922316D01*
X25740499Y-51922321D01*
X25874461Y-52207003D01*
X25874464Y-52207009D01*
X26043051Y-52472661D01*
X26043054Y-52472665D01*
X26243606Y-52715090D01*
X26243608Y-52715092D01*
X26243610Y-52715094D01*
X26334026Y-52800000D01*
X26472968Y-52930476D01*
X26472978Y-52930484D01*
X26727504Y-53115408D01*
X26727509Y-53115410D01*
X26727516Y-53115416D01*
X27003234Y-53266994D01*
X27003239Y-53266996D01*
X27003241Y-53266997D01*
X27003242Y-53266998D01*
X27295771Y-53382818D01*
X27295774Y-53382819D01*
X27550943Y-53448335D01*
X27600527Y-53461066D01*
X27633885Y-53465280D01*
X27912670Y-53500499D01*
X27912679Y-53500499D01*
X27912682Y-53500500D01*
X27912684Y-53500500D01*
X28227316Y-53500500D01*
X28227318Y-53500500D01*
X28227321Y-53500499D01*
X28227329Y-53500499D01*
X28413593Y-53476968D01*
X28539473Y-53461066D01*
X28844225Y-53382819D01*
X28844228Y-53382818D01*
X29136757Y-53266998D01*
X29136758Y-53266997D01*
X29136756Y-53266997D01*
X29136766Y-53266994D01*
X29412484Y-53115416D01*
X29667030Y-52930478D01*
X29896390Y-52715094D01*
X30096947Y-52472663D01*
X30265537Y-52207007D01*
X30399503Y-51922315D01*
X30496731Y-51623079D01*
X30555688Y-51314015D01*
X30555689Y-51314004D01*
X30575444Y-51000005D01*
X30575444Y-50999994D01*
X30555689Y-50685995D01*
X30555688Y-50685988D01*
X30555688Y-50685985D01*
X30496731Y-50376921D01*
X30399503Y-50077685D01*
X30265537Y-49792993D01*
X30191206Y-49675866D01*
X30096948Y-49527338D01*
X30096945Y-49527334D01*
X29896393Y-49284909D01*
X29896391Y-49284907D01*
X29876804Y-49266513D01*
X29667030Y-49069522D01*
X29667027Y-49069520D01*
X29667021Y-49069515D01*
X29412495Y-48884591D01*
X29412488Y-48884586D01*
X29412484Y-48884584D01*
X29136766Y-48733006D01*
X29136763Y-48733004D01*
X29136758Y-48733002D01*
X29136757Y-48733001D01*
X28844228Y-48617181D01*
X28844225Y-48617180D01*
X28539476Y-48538934D01*
X28539463Y-48538932D01*
X28227329Y-48499500D01*
X28227318Y-48499500D01*
X27912682Y-48499500D01*
X27912670Y-48499500D01*
X27600536Y-48538932D01*
X27600523Y-48538934D01*
X27295774Y-48617180D01*
X27295771Y-48617181D01*
X27003242Y-48733001D01*
X27003241Y-48733002D01*
X26727516Y-48884584D01*
X26727504Y-48884591D01*
X26472978Y-49069515D01*
X26472968Y-49069523D01*
X26243608Y-49284907D01*
X26243606Y-49284909D01*
X26043054Y-49527334D01*
X26043051Y-49527338D01*
X25874464Y-49792990D01*
X25874461Y-49792996D01*
X25740499Y-50077678D01*
X25740497Y-50077683D01*
X25643270Y-50376916D01*
X25584311Y-50685988D01*
X25584310Y-50685995D01*
X25564556Y-50999994D01*
X25564556Y-51000005D01*
X25136759Y-51000005D01*
X25139962Y-49734873D01*
X25143556Y-49705552D01*
X25293730Y-49095468D01*
X25316043Y-49049254D01*
X25853509Y-48354254D01*
X25910091Y-48313267D01*
X25922047Y-48309686D01*
X26396750Y-48193249D01*
X26423637Y-48189709D01*
X27151502Y-48174223D01*
X27350009Y-48170000D01*
X27350010Y-48170000D01*
X28350000Y-48079090D01*
X28450000Y-48070000D01*
X28913079Y-47989670D01*
X29429991Y-47900002D01*
X29429994Y-47900000D01*
X29430000Y-47900000D01*
X29525124Y-47861246D01*
X30098915Y-47627479D01*
X30240000Y-47570000D01*
X31520000Y-46660000D01*
X32430000Y-45650000D01*
X33020000Y-44610000D01*
X33330000Y-43580000D01*
X33470000Y-42140000D01*
X33260000Y-40390000D01*
X33259999Y-40389998D01*
X33259999Y-40389997D01*
X32520001Y-38990001D01*
X32519998Y-38989997D01*
X32172010Y-38537613D01*
X31720000Y-37950000D01*
X31719996Y-37949997D01*
X31719995Y-37949996D01*
X30711655Y-37231180D01*
X30708437Y-37228723D01*
X30220001Y-36830001D01*
X30220002Y-36830001D01*
X30220000Y-36830000D01*
X29711874Y-36500659D01*
X29666324Y-36447678D01*
X29665165Y-36445032D01*
X29605237Y-36303774D01*
X29406646Y-35835667D01*
X29397821Y-35803118D01*
X29323665Y-35228403D01*
X29329162Y-35172866D01*
X29366434Y-35062483D01*
X29573611Y-34448920D01*
X29592009Y-34414039D01*
X29721242Y-34242285D01*
X31130000Y-32370000D01*
X32338607Y-30891702D01*
X32341524Y-30888386D01*
X32362252Y-30866439D01*
X33528155Y-29631953D01*
X33532013Y-29628210D01*
X34045082Y-29172148D01*
X34102664Y-29143333D01*
X34556911Y-29050630D01*
X34563137Y-29049686D01*
X35039487Y-29002051D01*
X35080076Y-29004698D01*
X35496678Y-29102201D01*
X35554603Y-29133783D01*
X36130000Y-29690000D01*
X37130000Y-30380000D01*
X38130000Y-30820000D01*
X39850000Y-31240000D01*
X41229997Y-31240000D01*
X41230000Y-31240000D01*
X41230004Y-31239999D01*
X41230006Y-31239999D01*
X41532130Y-31182552D01*
X42650000Y-30970000D01*
X44180000Y-30270000D01*
X45300000Y-29430000D01*
X46430000Y-28200000D01*
X47200000Y-26730000D01*
X47660000Y-25100000D01*
X47560000Y-23290000D01*
X47260000Y-21820000D01*
X47144015Y-21085429D01*
X47146441Y-21035073D01*
X47274380Y-20540005D01*
X62675738Y-20540005D01*
X62694753Y-20769484D01*
X62751282Y-20992714D01*
X62843782Y-21203594D01*
X62969728Y-21396370D01*
X62969731Y-21396373D01*
X63125692Y-21565792D01*
X63307411Y-21707229D01*
X63509931Y-21816828D01*
X63565125Y-21835776D01*
X63727725Y-21891597D01*
X63727727Y-21891597D01*
X63727729Y-21891598D01*
X63954863Y-21929500D01*
X63954864Y-21929500D01*
X64185136Y-21929500D01*
X64185137Y-21929500D01*
X64412271Y-21891598D01*
X64630069Y-21816828D01*
X64832589Y-21707229D01*
X65014308Y-21565792D01*
X65170269Y-21396373D01*
X65236191Y-21295472D01*
X65289337Y-21250115D01*
X65358569Y-21240691D01*
X65421905Y-21270193D01*
X65443809Y-21295472D01*
X65509728Y-21396370D01*
X65509731Y-21396373D01*
X65665692Y-21565792D01*
X65847411Y-21707229D01*
X66049931Y-21816828D01*
X66105125Y-21835776D01*
X66267725Y-21891597D01*
X66267727Y-21891597D01*
X66267729Y-21891598D01*
X66494863Y-21929500D01*
X66494864Y-21929500D01*
X66725136Y-21929500D01*
X66725137Y-21929500D01*
X66952271Y-21891598D01*
X67170069Y-21816828D01*
X67372589Y-21707229D01*
X67554308Y-21565792D01*
X67710269Y-21396373D01*
X67776191Y-21295472D01*
X67829337Y-21250115D01*
X67898569Y-21240691D01*
X67961905Y-21270193D01*
X67983809Y-21295472D01*
X68049728Y-21396370D01*
X68049731Y-21396373D01*
X68205692Y-21565792D01*
X68387411Y-21707229D01*
X68589931Y-21816828D01*
X68645125Y-21835776D01*
X68807725Y-21891597D01*
X68807727Y-21891597D01*
X68807729Y-21891598D01*
X69034863Y-21929500D01*
X69034864Y-21929500D01*
X69265136Y-21929500D01*
X69265137Y-21929500D01*
X69492271Y-21891598D01*
X69710069Y-21816828D01*
X69912589Y-21707229D01*
X70094308Y-21565792D01*
X70250269Y-21396373D01*
X70316191Y-21295472D01*
X70369337Y-21250115D01*
X70438569Y-21240691D01*
X70501905Y-21270193D01*
X70523809Y-21295472D01*
X70589728Y-21396370D01*
X70589731Y-21396373D01*
X70745692Y-21565792D01*
X70927411Y-21707229D01*
X71129931Y-21816828D01*
X71185125Y-21835776D01*
X71347725Y-21891597D01*
X71347727Y-21891597D01*
X71347729Y-21891598D01*
X71574863Y-21929500D01*
X71574864Y-21929500D01*
X71805136Y-21929500D01*
X71805137Y-21929500D01*
X72032271Y-21891598D01*
X72250069Y-21816828D01*
X72452589Y-21707229D01*
X72634308Y-21565792D01*
X72790269Y-21396373D01*
X72856191Y-21295472D01*
X72909337Y-21250115D01*
X72978569Y-21240691D01*
X73041905Y-21270193D01*
X73063809Y-21295472D01*
X73129728Y-21396370D01*
X73129731Y-21396373D01*
X73285692Y-21565792D01*
X73467411Y-21707229D01*
X73669931Y-21816828D01*
X73725125Y-21835776D01*
X73887725Y-21891597D01*
X73887727Y-21891597D01*
X73887729Y-21891598D01*
X74114863Y-21929500D01*
X74114864Y-21929500D01*
X74345136Y-21929500D01*
X74345137Y-21929500D01*
X74572271Y-21891598D01*
X74790069Y-21816828D01*
X74992589Y-21707229D01*
X75174308Y-21565792D01*
X75330269Y-21396373D01*
X75456217Y-21203595D01*
X75548717Y-20992716D01*
X75605246Y-20769488D01*
X75613697Y-20667493D01*
X75624262Y-20540005D01*
X75624262Y-20539994D01*
X75605246Y-20310515D01*
X75605246Y-20310512D01*
X75548717Y-20087284D01*
X75456217Y-19876405D01*
X75431980Y-19839308D01*
X75330271Y-19683629D01*
X75263906Y-19611538D01*
X75174308Y-19514208D01*
X75077926Y-19439191D01*
X74992591Y-19372772D01*
X74790069Y-19263172D01*
X74790061Y-19263169D01*
X74572274Y-19188402D01*
X74401920Y-19159975D01*
X74345137Y-19150500D01*
X74114863Y-19150500D01*
X74069436Y-19158080D01*
X73887725Y-19188402D01*
X73669938Y-19263169D01*
X73669930Y-19263172D01*
X73467408Y-19372772D01*
X73285694Y-19514206D01*
X73285689Y-19514211D01*
X73129727Y-19683630D01*
X73063808Y-19784528D01*
X73010662Y-19829884D01*
X72941431Y-19839308D01*
X72878095Y-19809806D01*
X72856192Y-19784528D01*
X72790272Y-19683630D01*
X72723906Y-19611538D01*
X72634308Y-19514208D01*
X72537926Y-19439191D01*
X72452591Y-19372772D01*
X72250069Y-19263172D01*
X72250061Y-19263169D01*
X72032274Y-19188402D01*
X71861920Y-19159975D01*
X71805137Y-19150500D01*
X71574863Y-19150500D01*
X71529436Y-19158080D01*
X71347725Y-19188402D01*
X71129938Y-19263169D01*
X71129930Y-19263172D01*
X70927408Y-19372772D01*
X70745694Y-19514206D01*
X70745689Y-19514211D01*
X70589727Y-19683630D01*
X70523808Y-19784528D01*
X70470662Y-19829884D01*
X70401431Y-19839308D01*
X70338095Y-19809806D01*
X70316192Y-19784528D01*
X70250272Y-19683630D01*
X70183906Y-19611538D01*
X70094308Y-19514208D01*
X69997926Y-19439191D01*
X69912591Y-19372772D01*
X69710069Y-19263172D01*
X69710061Y-19263169D01*
X69492274Y-19188402D01*
X69321920Y-19159975D01*
X69265137Y-19150500D01*
X69034863Y-19150500D01*
X68989436Y-19158080D01*
X68807725Y-19188402D01*
X68589938Y-19263169D01*
X68589930Y-19263172D01*
X68387408Y-19372772D01*
X68205694Y-19514206D01*
X68205689Y-19514211D01*
X68049727Y-19683630D01*
X67983808Y-19784528D01*
X67930662Y-19829884D01*
X67861431Y-19839308D01*
X67798095Y-19809806D01*
X67776192Y-19784528D01*
X67710272Y-19683630D01*
X67643906Y-19611538D01*
X67554308Y-19514208D01*
X67457926Y-19439191D01*
X67372591Y-19372772D01*
X67170069Y-19263172D01*
X67170061Y-19263169D01*
X66952274Y-19188402D01*
X66781920Y-19159975D01*
X66725137Y-19150500D01*
X66494863Y-19150500D01*
X66449436Y-19158080D01*
X66267725Y-19188402D01*
X66049938Y-19263169D01*
X66049930Y-19263172D01*
X65847408Y-19372772D01*
X65665694Y-19514206D01*
X65665689Y-19514211D01*
X65509727Y-19683630D01*
X65443808Y-19784528D01*
X65390662Y-19829884D01*
X65321431Y-19839308D01*
X65258095Y-19809806D01*
X65236192Y-19784528D01*
X65170272Y-19683630D01*
X65103906Y-19611538D01*
X65014308Y-19514208D01*
X64917926Y-19439191D01*
X64832591Y-19372772D01*
X64630069Y-19263172D01*
X64630061Y-19263169D01*
X64412274Y-19188402D01*
X64241920Y-19159975D01*
X64185137Y-19150500D01*
X63954863Y-19150500D01*
X63909436Y-19158080D01*
X63727725Y-19188402D01*
X63509938Y-19263169D01*
X63509930Y-19263172D01*
X63307408Y-19372772D01*
X63125694Y-19514206D01*
X63125689Y-19514211D01*
X62969728Y-19683629D01*
X62843782Y-19876405D01*
X62751282Y-20087285D01*
X62694753Y-20310515D01*
X62675738Y-20539994D01*
X62675738Y-20540005D01*
X47274380Y-20540005D01*
X47360951Y-20205014D01*
X47396453Y-20145340D01*
X47944647Y-19634311D01*
X47979209Y-19611538D01*
X49637628Y-18881045D01*
X49642435Y-18879162D01*
X52748323Y-17810576D01*
X52751710Y-17809519D01*
X55666493Y-16990984D01*
X55673591Y-16989433D01*
X60607935Y-16210325D01*
X60612084Y-16209815D01*
X64106460Y-15900313D01*
X64113542Y-15900093D01*
X68277769Y-16009941D01*
G37*
%TD.AperFunction*%
%TA.AperFunction,Conductor*%
G36*
X83896408Y-75945185D02*
G01*
X83942163Y-75997989D01*
X83952658Y-76062756D01*
X83949500Y-76092119D01*
X83949500Y-78007870D01*
X83949501Y-78007876D01*
X83955908Y-78067483D01*
X84006202Y-78202328D01*
X84010454Y-78210114D01*
X84007419Y-78211770D01*
X84026024Y-78261666D01*
X84011165Y-78329938D01*
X83961755Y-78379338D01*
X83902339Y-78394500D01*
X75510637Y-78394500D01*
X75495020Y-78392776D01*
X75494993Y-78393062D01*
X75487231Y-78392327D01*
X75418103Y-78394500D01*
X75388550Y-78394500D01*
X75387829Y-78394590D01*
X75381657Y-78395369D01*
X75375845Y-78395826D01*
X75329273Y-78397290D01*
X75329272Y-78397290D01*
X75310029Y-78402881D01*
X75290979Y-78406825D01*
X75271111Y-78409334D01*
X75271109Y-78409335D01*
X75227784Y-78426488D01*
X75222257Y-78428380D01*
X75177510Y-78441381D01*
X75177509Y-78441382D01*
X75160267Y-78451579D01*
X75142799Y-78460137D01*
X75124169Y-78467513D01*
X75124167Y-78467514D01*
X75086476Y-78494898D01*
X75081594Y-78498105D01*
X75041479Y-78521830D01*
X75027308Y-78536000D01*
X75012523Y-78548628D01*
X74996312Y-78560407D01*
X74966609Y-78596310D01*
X74962677Y-78600631D01*
X68162328Y-85400981D01*
X68101005Y-85434466D01*
X68074647Y-85437300D01*
X67388002Y-85437300D01*
X67320963Y-85417615D01*
X67300321Y-85400981D01*
X66767020Y-84867680D01*
X66733535Y-84806357D01*
X66735420Y-84780000D01*
X67149952Y-84780000D01*
X67170057Y-84932716D01*
X67229003Y-85075024D01*
X67322773Y-85197227D01*
X67444976Y-85290997D01*
X67587284Y-85349943D01*
X67701656Y-85365000D01*
X67778344Y-85365000D01*
X67892716Y-85349943D01*
X68035024Y-85290997D01*
X68157227Y-85197227D01*
X68250997Y-85075024D01*
X68309943Y-84932716D01*
X68330048Y-84780000D01*
X68309943Y-84627284D01*
X68250997Y-84484976D01*
X68157227Y-84362773D01*
X68035024Y-84269003D01*
X67892716Y-84210057D01*
X67778344Y-84195000D01*
X67701656Y-84195000D01*
X67587284Y-84210057D01*
X67444976Y-84269003D01*
X67322773Y-84362773D01*
X67229003Y-84484976D01*
X67170057Y-84627284D01*
X67149952Y-84780000D01*
X66735420Y-84780000D01*
X66738519Y-84736665D01*
X66767020Y-84692318D01*
X68027851Y-83431486D01*
X67854142Y-83402500D01*
X67761450Y-83402500D01*
X67694411Y-83382815D01*
X67648656Y-83330011D01*
X67638712Y-83260853D01*
X67667737Y-83197297D01*
X67673753Y-83190835D01*
X74902771Y-75961819D01*
X74964094Y-75928334D01*
X74990452Y-75925500D01*
X83829369Y-75925500D01*
X83896408Y-75945185D01*
G37*
%TD.AperFunction*%
%TA.AperFunction,Conductor*%
G36*
X59560283Y-56185185D02*
G01*
X59606038Y-56237989D01*
X59615982Y-56307147D01*
X59611332Y-56327331D01*
X59596982Y-56372123D01*
X59950000Y-56725140D01*
X59950001Y-56725140D01*
X60303016Y-56372123D01*
X60288667Y-56327331D01*
X60286960Y-56257482D01*
X60323287Y-56197799D01*
X60386115Y-56167230D01*
X60406755Y-56165500D01*
X61951773Y-56165500D01*
X62018812Y-56185185D01*
X62064567Y-56237989D01*
X62074511Y-56307147D01*
X62045486Y-56370703D01*
X61992036Y-56406781D01*
X61864343Y-56450618D01*
X61864334Y-56450621D01*
X61652558Y-56565229D01*
X61558869Y-56638151D01*
X61462537Y-56713129D01*
X61462534Y-56713131D01*
X61462534Y-56713132D01*
X61299449Y-56890290D01*
X61167743Y-57091881D01*
X61071017Y-57312394D01*
X61011904Y-57545827D01*
X60992020Y-57785794D01*
X60992020Y-57785805D01*
X61011904Y-58025772D01*
X61071017Y-58259205D01*
X61160923Y-58464171D01*
X61167745Y-58479722D01*
X61299449Y-58681310D01*
X61462537Y-58858471D01*
X61652561Y-59006372D01*
X61864336Y-59120979D01*
X61969690Y-59157147D01*
X62092083Y-59199165D01*
X62092085Y-59199165D01*
X62092087Y-59199166D01*
X62329601Y-59238800D01*
X62329602Y-59238800D01*
X62570398Y-59238800D01*
X62570399Y-59238800D01*
X62807913Y-59199166D01*
X63035664Y-59120979D01*
X63247439Y-59006372D01*
X63437463Y-58858471D01*
X63600551Y-58681310D01*
X63732255Y-58479722D01*
X63828983Y-58259205D01*
X63888095Y-58025776D01*
X63907980Y-57785800D01*
X63904574Y-57744700D01*
X63888095Y-57545827D01*
X63888095Y-57545824D01*
X63828983Y-57312395D01*
X63732255Y-57091878D01*
X63600551Y-56890290D01*
X63437463Y-56713129D01*
X63303358Y-56608751D01*
X63247441Y-56565229D01*
X63035665Y-56450621D01*
X63035656Y-56450618D01*
X62907964Y-56406781D01*
X62850949Y-56366396D01*
X62824818Y-56301596D01*
X62837869Y-56232956D01*
X62885958Y-56182268D01*
X62948227Y-56165500D01*
X71101773Y-56165500D01*
X71168812Y-56185185D01*
X71214567Y-56237989D01*
X71224511Y-56307147D01*
X71195486Y-56370703D01*
X71142036Y-56406781D01*
X71014343Y-56450618D01*
X71014334Y-56450621D01*
X70802558Y-56565229D01*
X70708869Y-56638151D01*
X70612537Y-56713129D01*
X70612534Y-56713131D01*
X70612534Y-56713132D01*
X70449449Y-56890290D01*
X70317743Y-57091881D01*
X70221017Y-57312394D01*
X70161904Y-57545827D01*
X70142020Y-57785794D01*
X70142020Y-57785805D01*
X70161904Y-58025772D01*
X70207961Y-58207651D01*
X70205335Y-58277472D01*
X70175436Y-58325772D01*
X68328828Y-60172381D01*
X68267505Y-60205866D01*
X68241147Y-60208700D01*
X56324543Y-60208700D01*
X56308922Y-60206975D01*
X56308896Y-60207261D01*
X56301134Y-60206527D01*
X56301133Y-60206527D01*
X56231986Y-60208700D01*
X56202449Y-60208700D01*
X56195566Y-60209569D01*
X56189749Y-60210026D01*
X56143173Y-60211490D01*
X56123929Y-60217081D01*
X56104879Y-60221025D01*
X56085011Y-60223534D01*
X56041684Y-60240688D01*
X56036158Y-60242579D01*
X55991414Y-60255579D01*
X55991410Y-60255581D01*
X55974166Y-60265779D01*
X55956705Y-60274333D01*
X55938074Y-60281710D01*
X55938062Y-60281717D01*
X55900370Y-60309102D01*
X55895487Y-60312309D01*
X55855380Y-60336029D01*
X55841214Y-60350195D01*
X55826424Y-60362827D01*
X55810214Y-60374604D01*
X55810211Y-60374607D01*
X55780510Y-60410509D01*
X55776577Y-60414831D01*
X51846208Y-64345199D01*
X51833951Y-64355020D01*
X51834134Y-64355241D01*
X51828123Y-64360213D01*
X51780772Y-64410636D01*
X51759889Y-64431519D01*
X51759877Y-64431532D01*
X51755621Y-64437017D01*
X51751837Y-64441447D01*
X51719937Y-64475418D01*
X51719936Y-64475420D01*
X51710284Y-64492976D01*
X51699610Y-64509226D01*
X51687329Y-64525061D01*
X51687324Y-64525068D01*
X51668815Y-64567838D01*
X51666245Y-64573084D01*
X51643803Y-64613906D01*
X51638822Y-64633307D01*
X51632521Y-64651710D01*
X51624562Y-64670102D01*
X51624561Y-64670105D01*
X51617271Y-64716127D01*
X51616087Y-64721846D01*
X51604501Y-64766972D01*
X51604500Y-64766982D01*
X51604500Y-64787016D01*
X51602973Y-64806415D01*
X51599840Y-64826194D01*
X51599840Y-64826195D01*
X51604225Y-64872583D01*
X51604500Y-64878421D01*
X51604500Y-66786136D01*
X51584815Y-66853175D01*
X51551624Y-66887710D01*
X51369890Y-67014962D01*
X51204966Y-67179886D01*
X51204963Y-67179889D01*
X51204962Y-67179891D01*
X51155406Y-67250664D01*
X51071177Y-67370955D01*
X51068473Y-67375640D01*
X51066824Y-67374688D01*
X51026199Y-67420818D01*
X50959003Y-67439963D01*
X50892124Y-67419740D01*
X50853115Y-67374722D01*
X50851527Y-67375640D01*
X50848822Y-67370955D01*
X50848822Y-67370954D01*
X50715038Y-67179891D01*
X50550109Y-67014962D01*
X50359046Y-66881178D01*
X50359042Y-66881176D01*
X50147660Y-66782607D01*
X50147646Y-66782602D01*
X49922362Y-66722238D01*
X49922352Y-66722236D01*
X49690001Y-66701908D01*
X49689999Y-66701908D01*
X49457647Y-66722236D01*
X49457637Y-66722238D01*
X49232353Y-66782602D01*
X49232339Y-66782607D01*
X49020957Y-66881176D01*
X49020955Y-66881177D01*
X49020954Y-66881178D01*
X48829891Y-67014962D01*
X48829889Y-67014963D01*
X48829886Y-67014966D01*
X48664966Y-67179886D01*
X48664963Y-67179889D01*
X48664962Y-67179891D01*
X48615406Y-67250664D01*
X48531177Y-67370955D01*
X48528473Y-67375640D01*
X48526824Y-67374688D01*
X48486199Y-67420818D01*
X48419003Y-67439963D01*
X48352124Y-67419740D01*
X48313115Y-67374722D01*
X48311527Y-67375640D01*
X48308822Y-67370955D01*
X48308822Y-67370954D01*
X48175038Y-67179891D01*
X48010109Y-67014962D01*
X47819046Y-66881178D01*
X47819042Y-66881176D01*
X47607660Y-66782607D01*
X47607646Y-66782602D01*
X47382362Y-66722238D01*
X47382352Y-66722236D01*
X47150001Y-66701908D01*
X47149999Y-66701908D01*
X46917647Y-66722236D01*
X46917637Y-66722238D01*
X46692353Y-66782602D01*
X46692339Y-66782607D01*
X46480957Y-66881176D01*
X46480955Y-66881177D01*
X46480954Y-66881178D01*
X46289891Y-67014962D01*
X46289889Y-67014963D01*
X46289886Y-67014966D01*
X46124966Y-67179886D01*
X46124963Y-67179889D01*
X46124962Y-67179891D01*
X46075406Y-67250664D01*
X45991177Y-67370955D01*
X45991176Y-67370957D01*
X45892607Y-67582339D01*
X45892602Y-67582353D01*
X45832237Y-67807642D01*
X45829384Y-67840249D01*
X45803931Y-67905317D01*
X45793538Y-67917121D01*
X45670660Y-68040000D01*
X45670660Y-68040001D01*
X45793536Y-68162877D01*
X45827021Y-68224200D01*
X45829383Y-68239746D01*
X45832237Y-68272357D01*
X45892602Y-68497646D01*
X45892607Y-68497660D01*
X45950588Y-68622000D01*
X45991178Y-68709046D01*
X46124962Y-68900109D01*
X46289891Y-69065038D01*
X46480954Y-69198822D01*
X46541492Y-69227051D01*
X46692339Y-69297392D01*
X46692341Y-69297392D01*
X46692346Y-69297395D01*
X46917643Y-69357763D01*
X47103528Y-69374026D01*
X47149999Y-69378092D01*
X47150000Y-69378092D01*
X47150001Y-69378092D01*
X47188726Y-69374703D01*
X47382357Y-69357763D01*
X47607654Y-69297395D01*
X47819046Y-69198822D01*
X48010109Y-69065038D01*
X48175038Y-68900109D01*
X48308822Y-68709046D01*
X48308826Y-68709035D01*
X48311527Y-68704360D01*
X48313179Y-68705313D01*
X48353784Y-68659192D01*
X48420976Y-68640036D01*
X48487859Y-68660248D01*
X48526879Y-68705280D01*
X48528473Y-68704360D01*
X48531176Y-68709042D01*
X48531178Y-68709046D01*
X48664962Y-68900109D01*
X48829891Y-69065038D01*
X49020954Y-69198822D01*
X49081492Y-69227051D01*
X49232339Y-69297392D01*
X49232341Y-69297392D01*
X49232346Y-69297395D01*
X49457643Y-69357763D01*
X49643528Y-69374026D01*
X49689999Y-69378092D01*
X49690000Y-69378092D01*
X49690001Y-69378092D01*
X49728726Y-69374703D01*
X49922357Y-69357763D01*
X50147654Y-69297395D01*
X50359046Y-69198822D01*
X50550109Y-69065038D01*
X50715038Y-68900109D01*
X50848822Y-68709046D01*
X50848826Y-68709035D01*
X50851527Y-68704360D01*
X50853179Y-68705313D01*
X50893784Y-68659192D01*
X50960976Y-68640036D01*
X51027859Y-68660248D01*
X51066879Y-68705280D01*
X51068473Y-68704360D01*
X51071176Y-68709042D01*
X51071178Y-68709046D01*
X51204962Y-68900109D01*
X51369891Y-69065038D01*
X51560954Y-69198822D01*
X51621492Y-69227051D01*
X51772339Y-69297392D01*
X51772341Y-69297392D01*
X51772346Y-69297395D01*
X51997643Y-69357763D01*
X52183528Y-69374026D01*
X52229999Y-69378092D01*
X52230000Y-69378092D01*
X52230001Y-69378092D01*
X52268726Y-69374703D01*
X52462357Y-69357763D01*
X52687654Y-69297395D01*
X52899046Y-69198822D01*
X53090109Y-69065038D01*
X53255038Y-68900109D01*
X53388822Y-68709046D01*
X53388826Y-68709035D01*
X53391527Y-68704360D01*
X53393179Y-68705313D01*
X53433784Y-68659192D01*
X53500976Y-68640036D01*
X53567859Y-68660248D01*
X53606879Y-68705280D01*
X53608473Y-68704360D01*
X53611176Y-68709042D01*
X53611178Y-68709046D01*
X53744962Y-68900109D01*
X53909891Y-69065038D01*
X54100954Y-69198822D01*
X54161492Y-69227051D01*
X54312339Y-69297392D01*
X54312341Y-69297392D01*
X54312346Y-69297395D01*
X54537643Y-69357763D01*
X54723528Y-69374026D01*
X54769999Y-69378092D01*
X54770000Y-69378092D01*
X54770001Y-69378092D01*
X54808726Y-69374703D01*
X55002357Y-69357763D01*
X55227654Y-69297395D01*
X55439046Y-69198822D01*
X55630109Y-69065038D01*
X55795038Y-68900109D01*
X55928822Y-68709046D01*
X55928826Y-68709035D01*
X55931527Y-68704360D01*
X55933179Y-68705313D01*
X55973784Y-68659192D01*
X56040976Y-68640036D01*
X56107859Y-68660248D01*
X56146879Y-68705280D01*
X56148473Y-68704360D01*
X56151176Y-68709042D01*
X56151178Y-68709046D01*
X56284962Y-68900109D01*
X56449891Y-69065038D01*
X56640954Y-69198822D01*
X56701492Y-69227051D01*
X56852339Y-69297392D01*
X56852341Y-69297392D01*
X56852346Y-69297395D01*
X57077643Y-69357763D01*
X57263528Y-69374026D01*
X57309999Y-69378092D01*
X57310000Y-69378092D01*
X57310001Y-69378092D01*
X57348726Y-69374703D01*
X57542357Y-69357763D01*
X57767654Y-69297395D01*
X57979046Y-69198822D01*
X58170109Y-69065038D01*
X58335038Y-68900109D01*
X58468822Y-68709046D01*
X58468826Y-68709035D01*
X58471527Y-68704360D01*
X58473179Y-68705313D01*
X58513784Y-68659192D01*
X58580976Y-68640036D01*
X58647859Y-68660248D01*
X58686879Y-68705280D01*
X58688473Y-68704360D01*
X58691176Y-68709042D01*
X58691178Y-68709046D01*
X58824962Y-68900109D01*
X58989891Y-69065038D01*
X59180954Y-69198822D01*
X59241492Y-69227051D01*
X59392339Y-69297392D01*
X59392341Y-69297392D01*
X59392346Y-69297395D01*
X59617643Y-69357763D01*
X59803528Y-69374026D01*
X59849999Y-69378092D01*
X59850000Y-69378092D01*
X59850001Y-69378092D01*
X59888726Y-69374703D01*
X60082357Y-69357763D01*
X60307654Y-69297395D01*
X60519046Y-69198822D01*
X60710109Y-69065038D01*
X60875038Y-68900109D01*
X61008822Y-68709046D01*
X61008826Y-68709035D01*
X61011527Y-68704360D01*
X61013179Y-68705313D01*
X61053784Y-68659192D01*
X61120976Y-68640036D01*
X61187859Y-68660248D01*
X61226879Y-68705280D01*
X61228473Y-68704360D01*
X61231176Y-68709042D01*
X61231178Y-68709046D01*
X61364962Y-68900109D01*
X61529891Y-69065038D01*
X61720954Y-69198822D01*
X61781492Y-69227051D01*
X61932339Y-69297392D01*
X61932341Y-69297392D01*
X61932346Y-69297395D01*
X62157643Y-69357763D01*
X62343528Y-69374026D01*
X62389999Y-69378092D01*
X62390000Y-69378092D01*
X62390001Y-69378092D01*
X62428726Y-69374703D01*
X62622357Y-69357763D01*
X62847654Y-69297395D01*
X63059046Y-69198822D01*
X63250109Y-69065038D01*
X63415038Y-68900109D01*
X63548822Y-68709046D01*
X63548826Y-68709035D01*
X63551527Y-68704360D01*
X63553179Y-68705313D01*
X63593784Y-68659192D01*
X63660976Y-68640036D01*
X63727859Y-68660248D01*
X63766879Y-68705280D01*
X63768473Y-68704360D01*
X63771176Y-68709042D01*
X63771178Y-68709046D01*
X63904962Y-68900109D01*
X64069891Y-69065038D01*
X64260954Y-69198822D01*
X64321492Y-69227051D01*
X64472339Y-69297392D01*
X64472341Y-69297392D01*
X64472346Y-69297395D01*
X64697643Y-69357763D01*
X64883528Y-69374026D01*
X64929999Y-69378092D01*
X64930000Y-69378092D01*
X64930001Y-69378092D01*
X64968726Y-69374703D01*
X65162357Y-69357763D01*
X65387654Y-69297395D01*
X65599046Y-69198822D01*
X65790109Y-69065038D01*
X65955038Y-68900109D01*
X66088822Y-68709046D01*
X66088826Y-68709035D01*
X66091527Y-68704360D01*
X66093179Y-68705313D01*
X66133784Y-68659192D01*
X66200976Y-68640036D01*
X66267859Y-68660248D01*
X66306879Y-68705280D01*
X66308473Y-68704360D01*
X66311176Y-68709042D01*
X66311178Y-68709046D01*
X66444962Y-68900109D01*
X66609891Y-69065038D01*
X66800954Y-69198822D01*
X66861492Y-69227051D01*
X67012339Y-69297392D01*
X67012341Y-69297392D01*
X67012346Y-69297395D01*
X67237643Y-69357763D01*
X67423528Y-69374026D01*
X67469999Y-69378092D01*
X67470000Y-69378092D01*
X67470001Y-69378092D01*
X67508726Y-69374703D01*
X67702357Y-69357763D01*
X67927654Y-69297395D01*
X68139046Y-69198822D01*
X68330109Y-69065038D01*
X68495038Y-68900109D01*
X68628822Y-68709046D01*
X68628826Y-68709035D01*
X68631527Y-68704360D01*
X68633179Y-68705313D01*
X68673784Y-68659192D01*
X68740976Y-68640036D01*
X68807859Y-68660248D01*
X68846879Y-68705280D01*
X68848473Y-68704360D01*
X68851176Y-68709042D01*
X68851178Y-68709046D01*
X68984962Y-68900109D01*
X69149891Y-69065038D01*
X69340954Y-69198822D01*
X69401492Y-69227051D01*
X69552339Y-69297392D01*
X69552341Y-69297392D01*
X69552346Y-69297395D01*
X69777643Y-69357763D01*
X69963528Y-69374026D01*
X70009999Y-69378092D01*
X70010000Y-69378092D01*
X70010001Y-69378092D01*
X70048726Y-69374703D01*
X70242357Y-69357763D01*
X70467654Y-69297395D01*
X70679046Y-69198822D01*
X70870109Y-69065038D01*
X71035038Y-68900109D01*
X71168822Y-68709046D01*
X71168826Y-68709035D01*
X71171527Y-68704360D01*
X71173179Y-68705313D01*
X71213784Y-68659192D01*
X71280976Y-68640036D01*
X71347859Y-68660248D01*
X71386879Y-68705280D01*
X71388473Y-68704360D01*
X71391176Y-68709042D01*
X71391178Y-68709046D01*
X71524962Y-68900109D01*
X71689891Y-69065038D01*
X71880954Y-69198822D01*
X71941492Y-69227051D01*
X72092339Y-69297392D01*
X72092341Y-69297392D01*
X72092346Y-69297395D01*
X72317643Y-69357763D01*
X72503528Y-69374026D01*
X72549999Y-69378092D01*
X72550000Y-69378092D01*
X72550001Y-69378092D01*
X72588726Y-69374703D01*
X72782357Y-69357763D01*
X73007654Y-69297395D01*
X73219046Y-69198822D01*
X73410109Y-69065038D01*
X73575038Y-68900109D01*
X73708822Y-68709046D01*
X73708826Y-68709035D01*
X73711527Y-68704360D01*
X73713179Y-68705313D01*
X73753784Y-68659192D01*
X73820976Y-68640036D01*
X73887859Y-68660248D01*
X73926879Y-68705280D01*
X73928473Y-68704360D01*
X73931176Y-68709042D01*
X73931178Y-68709046D01*
X74064962Y-68900109D01*
X74229891Y-69065038D01*
X74420954Y-69198822D01*
X74481492Y-69227051D01*
X74632339Y-69297392D01*
X74632341Y-69297392D01*
X74632346Y-69297395D01*
X74632351Y-69297396D01*
X74632353Y-69297397D01*
X74726632Y-69322659D01*
X74786293Y-69359024D01*
X74816822Y-69421871D01*
X74808527Y-69491246D01*
X74782220Y-69530115D01*
X72831208Y-71481127D01*
X72818951Y-71490948D01*
X72819134Y-71491169D01*
X72813123Y-71496141D01*
X72765772Y-71546564D01*
X72744889Y-71567447D01*
X72744877Y-71567460D01*
X72740621Y-71572945D01*
X72736837Y-71577375D01*
X72704937Y-71611346D01*
X72704936Y-71611348D01*
X72695284Y-71628904D01*
X72684610Y-71645154D01*
X72672329Y-71660989D01*
X72672324Y-71660996D01*
X72653815Y-71703766D01*
X72651245Y-71709012D01*
X72628803Y-71749834D01*
X72623822Y-71769235D01*
X72617521Y-71787638D01*
X72609562Y-71806030D01*
X72609561Y-71806033D01*
X72602271Y-71852055D01*
X72601087Y-71857774D01*
X72589501Y-71902900D01*
X72589500Y-71902910D01*
X72589500Y-71922944D01*
X72587973Y-71942343D01*
X72585579Y-71957460D01*
X72584840Y-71962124D01*
X72586483Y-71979500D01*
X72589225Y-72008511D01*
X72589500Y-72014349D01*
X72589500Y-72595849D01*
X72569815Y-72662888D01*
X72553181Y-72683530D01*
X68894636Y-76342074D01*
X68833313Y-76375559D01*
X68763621Y-76370575D01*
X68707688Y-76328703D01*
X68693399Y-76304203D01*
X68666069Y-76241897D01*
X68541165Y-76050716D01*
X68492626Y-75997989D01*
X68386493Y-75882698D01*
X68206278Y-75742431D01*
X68206277Y-75742430D01*
X68206274Y-75742428D01*
X68206272Y-75742427D01*
X68200040Y-75739055D01*
X68150449Y-75689836D01*
X68135341Y-75621619D01*
X68159511Y-75556064D01*
X68200040Y-75520945D01*
X68206272Y-75517572D01*
X68206274Y-75517571D01*
X68206273Y-75517571D01*
X68206278Y-75517569D01*
X68386493Y-75377302D01*
X68541163Y-75209286D01*
X68666069Y-75018103D01*
X68757803Y-74808969D01*
X68813864Y-74587589D01*
X68817614Y-74542335D01*
X68832723Y-74360005D01*
X68832723Y-74359994D01*
X68813865Y-74132419D01*
X68813863Y-74132407D01*
X68796201Y-74062661D01*
X68757803Y-73911031D01*
X68666069Y-73701897D01*
X68656606Y-73687413D01*
X68541165Y-73510716D01*
X68470165Y-73433590D01*
X68386493Y-73342698D01*
X68206278Y-73202431D01*
X68206276Y-73202430D01*
X68206275Y-73202429D01*
X68005435Y-73093739D01*
X68005430Y-73093737D01*
X67789440Y-73019588D01*
X67564184Y-72982000D01*
X67335816Y-72982000D01*
X67110562Y-73019587D01*
X67097125Y-73024200D01*
X67027326Y-73027345D01*
X66969188Y-72994597D01*
X66090803Y-72116212D01*
X66080980Y-72103950D01*
X66080759Y-72104134D01*
X66075786Y-72098123D01*
X66025364Y-72050773D01*
X66010793Y-72036202D01*
X66004475Y-72029883D01*
X65998986Y-72025625D01*
X65994561Y-72021847D01*
X65960582Y-71989938D01*
X65960580Y-71989936D01*
X65960577Y-71989935D01*
X65943029Y-71980288D01*
X65926763Y-71969604D01*
X65917119Y-71962123D01*
X65910936Y-71957327D01*
X65910935Y-71957326D01*
X65910933Y-71957325D01*
X65868168Y-71938818D01*
X65862922Y-71936248D01*
X65822093Y-71913803D01*
X65822092Y-71913802D01*
X65802693Y-71908822D01*
X65784281Y-71902518D01*
X65765898Y-71894562D01*
X65765892Y-71894560D01*
X65719874Y-71887272D01*
X65714152Y-71886087D01*
X65669021Y-71874500D01*
X65669019Y-71874500D01*
X65648984Y-71874500D01*
X65629586Y-71872973D01*
X65622162Y-71871797D01*
X65609805Y-71869840D01*
X65609804Y-71869840D01*
X65563416Y-71874225D01*
X65557578Y-71874500D01*
X60613748Y-71874500D01*
X60546709Y-71854815D01*
X60521600Y-71833474D01*
X60515873Y-71827114D01*
X60515869Y-71827110D01*
X60362734Y-71715851D01*
X60362729Y-71715848D01*
X60189807Y-71638857D01*
X60189802Y-71638855D01*
X60044001Y-71607865D01*
X60004646Y-71599500D01*
X59815354Y-71599500D01*
X59782897Y-71606398D01*
X59630197Y-71638855D01*
X59630192Y-71638857D01*
X59457270Y-71715848D01*
X59457265Y-71715851D01*
X59304129Y-71827111D01*
X59177466Y-71967785D01*
X59082821Y-72131715D01*
X59082818Y-72131722D01*
X59030845Y-72291681D01*
X59024326Y-72311744D01*
X59004540Y-72500000D01*
X59024326Y-72688256D01*
X59024327Y-72688259D01*
X59082818Y-72868277D01*
X59082821Y-72868284D01*
X59177467Y-73032216D01*
X59226507Y-73086680D01*
X59253347Y-73116489D01*
X59283577Y-73179480D01*
X59274952Y-73248816D01*
X59230210Y-73302481D01*
X59201461Y-73316742D01*
X59064566Y-73363739D01*
X59064564Y-73363739D01*
X58863724Y-73472429D01*
X58683508Y-73612697D01*
X58528837Y-73780714D01*
X58453809Y-73895553D01*
X58400662Y-73940909D01*
X58331431Y-73950333D01*
X58268095Y-73920831D01*
X58246191Y-73895553D01*
X58190236Y-73809908D01*
X58171163Y-73780714D01*
X58016493Y-73612698D01*
X57836278Y-73472431D01*
X57836276Y-73472430D01*
X57836275Y-73472429D01*
X57635435Y-73363739D01*
X57635430Y-73363737D01*
X57419440Y-73289588D01*
X57194184Y-73252000D01*
X56965816Y-73252000D01*
X56740559Y-73289588D01*
X56524569Y-73363737D01*
X56524564Y-73363739D01*
X56323724Y-73472429D01*
X56143508Y-73612697D01*
X55988834Y-73780716D01*
X55879334Y-73948321D01*
X55826188Y-73993678D01*
X55775525Y-74004500D01*
X54234744Y-74004500D01*
X54167705Y-73984815D01*
X54151259Y-73970840D01*
X54150701Y-73971461D01*
X54145869Y-73967110D01*
X53992734Y-73855851D01*
X53992729Y-73855848D01*
X53819807Y-73778857D01*
X53819802Y-73778855D01*
X53674001Y-73747865D01*
X53634646Y-73739500D01*
X53445354Y-73739500D01*
X53412897Y-73746398D01*
X53260197Y-73778855D01*
X53260192Y-73778857D01*
X53087270Y-73855848D01*
X53087265Y-73855851D01*
X52934129Y-73967111D01*
X52807466Y-74107785D01*
X52712821Y-74271715D01*
X52712818Y-74271722D01*
X52668707Y-74407483D01*
X52654326Y-74451744D01*
X52634540Y-74640000D01*
X52654326Y-74828256D01*
X52654327Y-74828259D01*
X52712818Y-75008277D01*
X52712821Y-75008284D01*
X52807467Y-75172216D01*
X52931228Y-75309666D01*
X52934129Y-75312888D01*
X53087265Y-75424148D01*
X53087270Y-75424151D01*
X53260192Y-75501142D01*
X53260197Y-75501144D01*
X53445354Y-75540500D01*
X53445355Y-75540500D01*
X53634644Y-75540500D01*
X53634646Y-75540500D01*
X53819803Y-75501144D01*
X53992730Y-75424151D01*
X54145871Y-75312888D01*
X54160603Y-75296527D01*
X54220090Y-75259879D01*
X54252752Y-75255500D01*
X55775525Y-75255500D01*
X55842564Y-75275185D01*
X55879334Y-75311679D01*
X55988834Y-75479283D01*
X55988837Y-75479286D01*
X56143507Y-75647302D01*
X56323722Y-75787569D01*
X56524566Y-75896261D01*
X56524569Y-75896262D01*
X56684881Y-75951297D01*
X56740562Y-75970412D01*
X56965816Y-76008000D01*
X57194184Y-76008000D01*
X57419438Y-75970412D01*
X57635434Y-75896261D01*
X57836278Y-75787569D01*
X58016493Y-75647302D01*
X58171163Y-75479286D01*
X58246191Y-75364446D01*
X58299337Y-75319090D01*
X58368569Y-75309666D01*
X58431904Y-75339168D01*
X58453809Y-75364447D01*
X58528834Y-75479283D01*
X58528837Y-75479286D01*
X58683507Y-75647302D01*
X58863722Y-75787569D01*
X59064566Y-75896261D01*
X59064569Y-75896262D01*
X59224881Y-75951297D01*
X59280562Y-75970412D01*
X59505816Y-76008000D01*
X59734184Y-76008000D01*
X59959438Y-75970412D01*
X60175434Y-75896261D01*
X60376278Y-75787569D01*
X60556493Y-75647302D01*
X60593302Y-75607316D01*
X60653185Y-75571328D01*
X60723023Y-75573427D01*
X60780639Y-75612950D01*
X60800711Y-75647968D01*
X60838702Y-75749828D01*
X60838706Y-75749835D01*
X60924952Y-75865044D01*
X60924955Y-75865047D01*
X61040164Y-75951293D01*
X61040171Y-75951297D01*
X61175017Y-76001591D01*
X61175016Y-76001591D01*
X61181944Y-76002335D01*
X61234627Y-76008000D01*
X63085372Y-76007999D01*
X63144983Y-76001591D01*
X63279831Y-75951296D01*
X63395046Y-75865046D01*
X63481296Y-75749831D01*
X63531591Y-75614983D01*
X63538000Y-75555373D01*
X63537999Y-73704628D01*
X63531591Y-73645017D01*
X63519536Y-73612697D01*
X63481297Y-73510171D01*
X63481293Y-73510164D01*
X63395047Y-73394955D01*
X63353345Y-73363737D01*
X63334993Y-73349998D01*
X63333347Y-73348766D01*
X63291477Y-73292832D01*
X63286493Y-73223141D01*
X63319979Y-73161818D01*
X63381302Y-73128333D01*
X63407659Y-73125500D01*
X65279548Y-73125500D01*
X65346587Y-73145185D01*
X65367229Y-73161819D01*
X66087171Y-73881762D01*
X66120656Y-73943085D01*
X66119696Y-73999883D01*
X66086135Y-74132414D01*
X66067277Y-74359994D01*
X66067277Y-74360005D01*
X66086134Y-74587580D01*
X66086136Y-74587592D01*
X66142196Y-74808967D01*
X66233930Y-75018102D01*
X66358834Y-75209283D01*
X66358837Y-75209286D01*
X66513507Y-75377302D01*
X66693722Y-75517569D01*
X66693725Y-75517571D01*
X66693727Y-75517572D01*
X66699963Y-75520947D01*
X66749552Y-75570168D01*
X66764658Y-75638385D01*
X66740485Y-75703940D01*
X66699963Y-75739053D01*
X66693727Y-75742427D01*
X66693725Y-75742428D01*
X66513508Y-75882697D01*
X66358834Y-76050716D01*
X66233931Y-76241895D01*
X66194711Y-76331309D01*
X66149754Y-76384794D01*
X66083018Y-76405484D01*
X66015691Y-76386809D01*
X66005157Y-76379479D01*
X65995935Y-76372326D01*
X65995933Y-76372325D01*
X65953168Y-76353818D01*
X65947922Y-76351248D01*
X65907093Y-76328803D01*
X65907092Y-76328802D01*
X65887693Y-76323822D01*
X65869281Y-76317518D01*
X65850898Y-76309562D01*
X65850892Y-76309560D01*
X65804874Y-76302272D01*
X65799152Y-76301087D01*
X65754021Y-76289500D01*
X65754019Y-76289500D01*
X65733984Y-76289500D01*
X65714586Y-76287973D01*
X65707162Y-76286797D01*
X65694805Y-76284840D01*
X65694804Y-76284840D01*
X65648416Y-76289225D01*
X65642578Y-76289500D01*
X51706698Y-76289500D01*
X51639659Y-76269815D01*
X51593904Y-76217011D01*
X51583960Y-76147853D01*
X51587432Y-76131565D01*
X51595756Y-76102310D01*
X51615429Y-75890000D01*
X51595756Y-75677690D01*
X51537405Y-75472611D01*
X51537403Y-75472606D01*
X51537403Y-75472605D01*
X51442367Y-75281746D01*
X51313872Y-75111593D01*
X51290733Y-75090499D01*
X51156302Y-74967948D01*
X50975019Y-74855702D01*
X50975017Y-74855701D01*
X50805816Y-74790153D01*
X50776198Y-74778679D01*
X50578026Y-74741634D01*
X50515745Y-74709965D01*
X50480472Y-74649653D01*
X50483406Y-74579845D01*
X50523615Y-74522705D01*
X50578026Y-74497856D01*
X50671201Y-74480438D01*
X50456531Y-74265768D01*
X50443350Y-74274575D01*
X50440315Y-74284913D01*
X50423681Y-74305555D01*
X50248797Y-74480438D01*
X50341973Y-74497856D01*
X50404254Y-74529524D01*
X50439527Y-74589837D01*
X50436593Y-74659645D01*
X50396384Y-74716785D01*
X50341974Y-74741634D01*
X50330398Y-74743798D01*
X50143802Y-74778679D01*
X50143800Y-74778679D01*
X50143798Y-74778680D01*
X49944982Y-74855701D01*
X49944980Y-74855702D01*
X49763699Y-74967947D01*
X49606127Y-75111593D01*
X49477632Y-75281746D01*
X49382596Y-75472605D01*
X49382596Y-75472607D01*
X49324244Y-75677689D01*
X49313471Y-75793951D01*
X49287685Y-75858888D01*
X49243130Y-75890804D01*
X49279503Y-75911668D01*
X49311693Y-75973681D01*
X49313471Y-75986048D01*
X49324244Y-76102310D01*
X49332568Y-76131565D01*
X49331982Y-76201432D01*
X49293716Y-76259891D01*
X49229919Y-76288382D01*
X49213302Y-76289500D01*
X49166698Y-76289500D01*
X49099659Y-76269815D01*
X49053904Y-76217011D01*
X49043960Y-76147853D01*
X49047432Y-76131565D01*
X49055756Y-76102310D01*
X49066529Y-75986047D01*
X49092315Y-75921111D01*
X49136869Y-75889194D01*
X49100497Y-75868331D01*
X49068307Y-75806318D01*
X49066529Y-75793951D01*
X49062441Y-75749835D01*
X49055756Y-75677690D01*
X48997405Y-75472611D01*
X48997403Y-75472606D01*
X48997403Y-75472605D01*
X48902367Y-75281746D01*
X48773872Y-75111593D01*
X48750733Y-75090499D01*
X48616302Y-74967948D01*
X48435019Y-74855702D01*
X48435017Y-74855701D01*
X48265816Y-74790153D01*
X48236198Y-74778679D01*
X48038026Y-74741634D01*
X47975745Y-74709965D01*
X47940472Y-74649653D01*
X47943406Y-74579845D01*
X47983615Y-74522705D01*
X48038026Y-74497856D01*
X48131201Y-74480438D01*
X47916531Y-74265768D01*
X47903350Y-74274575D01*
X47900315Y-74284913D01*
X47883681Y-74305555D01*
X47708797Y-74480438D01*
X47801973Y-74497856D01*
X47864254Y-74529524D01*
X47899527Y-74589837D01*
X47896593Y-74659645D01*
X47856384Y-74716785D01*
X47801974Y-74741634D01*
X47790398Y-74743798D01*
X47603802Y-74778679D01*
X47603800Y-74778679D01*
X47603798Y-74778680D01*
X47404982Y-74855701D01*
X47404980Y-74855702D01*
X47223699Y-74967947D01*
X47066127Y-75111593D01*
X46937632Y-75281746D01*
X46842596Y-75472605D01*
X46842596Y-75472607D01*
X46784244Y-75677689D01*
X46764571Y-75889999D01*
X46764571Y-75890000D01*
X46784244Y-76102310D01*
X46792568Y-76131565D01*
X46791982Y-76201432D01*
X46753716Y-76259891D01*
X46689919Y-76288382D01*
X46673302Y-76289500D01*
X35880452Y-76289500D01*
X35813413Y-76269815D01*
X35792771Y-76253181D01*
X32129595Y-72590005D01*
X40804556Y-72590005D01*
X40824310Y-72904004D01*
X40824311Y-72904011D01*
X40824312Y-72904015D01*
X40881237Y-73202429D01*
X40883270Y-73213083D01*
X40980497Y-73512316D01*
X40980499Y-73512321D01*
X41114461Y-73797003D01*
X41114464Y-73797009D01*
X41283051Y-74062661D01*
X41283054Y-74062665D01*
X41483606Y-74305090D01*
X41483608Y-74305092D01*
X41483610Y-74305094D01*
X41542073Y-74359994D01*
X41712968Y-74520476D01*
X41712978Y-74520484D01*
X41967504Y-74705408D01*
X41967509Y-74705410D01*
X41967516Y-74705416D01*
X42243234Y-74856994D01*
X42243239Y-74856996D01*
X42243241Y-74856997D01*
X42243242Y-74856998D01*
X42535771Y-74972818D01*
X42535774Y-74972819D01*
X42840523Y-75051065D01*
X42840527Y-75051066D01*
X42896793Y-75058174D01*
X43152670Y-75090499D01*
X43152679Y-75090499D01*
X43152682Y-75090500D01*
X43152684Y-75090500D01*
X43467316Y-75090500D01*
X43467318Y-75090500D01*
X43467321Y-75090499D01*
X43467329Y-75090499D01*
X43653593Y-75066968D01*
X43779473Y-75051066D01*
X44084225Y-74972819D01*
X44096528Y-74967948D01*
X44376757Y-74856998D01*
X44376758Y-74856997D01*
X44376756Y-74856997D01*
X44376766Y-74856994D01*
X44652484Y-74705416D01*
X44907030Y-74520478D01*
X45136390Y-74305094D01*
X45336947Y-74062663D01*
X45505537Y-73797007D01*
X45639503Y-73512315D01*
X45692243Y-73350000D01*
X46765073Y-73350000D01*
X46784738Y-73562218D01*
X46785580Y-73565180D01*
X46927433Y-73423327D01*
X47410000Y-73423327D01*
X47451318Y-73564040D01*
X47530605Y-73687413D01*
X47641438Y-73783451D01*
X47774839Y-73844373D01*
X47883527Y-73860000D01*
X47956473Y-73860000D01*
X48065161Y-73844373D01*
X48198562Y-73783451D01*
X48309395Y-73687413D01*
X48388682Y-73564040D01*
X48430000Y-73423327D01*
X48430000Y-73346531D01*
X48835768Y-73346531D01*
X49054418Y-73565180D01*
X49055260Y-73562221D01*
X49055262Y-73562214D01*
X49066528Y-73440628D01*
X49092314Y-73375690D01*
X49127891Y-73350204D01*
X49251534Y-73350204D01*
X49279502Y-73366247D01*
X49311692Y-73428259D01*
X49313470Y-73440626D01*
X49324738Y-73562218D01*
X49325580Y-73565180D01*
X49467433Y-73423327D01*
X49950000Y-73423327D01*
X49991318Y-73564040D01*
X50070605Y-73687413D01*
X50181438Y-73783451D01*
X50314839Y-73844373D01*
X50423527Y-73860000D01*
X50496473Y-73860000D01*
X50605161Y-73844373D01*
X50738562Y-73783451D01*
X50849395Y-73687413D01*
X50928682Y-73564040D01*
X50970000Y-73423327D01*
X50970000Y-73346531D01*
X51375768Y-73346531D01*
X51594418Y-73565180D01*
X51595260Y-73562221D01*
X51595261Y-73562215D01*
X51614926Y-73350000D01*
X51595261Y-73137781D01*
X51595260Y-73137777D01*
X51594418Y-73134819D01*
X51594416Y-73134819D01*
X51415556Y-73313681D01*
X51387471Y-73329016D01*
X51375768Y-73346531D01*
X50970000Y-73346531D01*
X50970000Y-73276673D01*
X50928682Y-73135960D01*
X50849395Y-73012587D01*
X50738562Y-72916549D01*
X50605161Y-72855627D01*
X50496473Y-72840000D01*
X50423527Y-72840000D01*
X50314839Y-72855627D01*
X50181438Y-72916549D01*
X50070605Y-73012587D01*
X49991318Y-73135960D01*
X49950000Y-73276673D01*
X49950000Y-73423327D01*
X49467433Y-73423327D01*
X49540761Y-73349999D01*
X49540760Y-73349998D01*
X49325581Y-73134818D01*
X49324739Y-73137778D01*
X49324738Y-73137784D01*
X49313470Y-73259375D01*
X49287683Y-73324311D01*
X49251534Y-73350204D01*
X49127891Y-73350204D01*
X49128462Y-73349795D01*
X49100495Y-73333752D01*
X49068306Y-73271739D01*
X49066528Y-73259373D01*
X49055261Y-73137781D01*
X49055260Y-73137777D01*
X49054418Y-73134819D01*
X49054416Y-73134819D01*
X48875556Y-73313681D01*
X48847471Y-73329016D01*
X48835768Y-73346531D01*
X48430000Y-73346531D01*
X48430000Y-73276673D01*
X48388682Y-73135960D01*
X48309395Y-73012587D01*
X48198562Y-72916549D01*
X48065161Y-72855627D01*
X47956473Y-72840000D01*
X47883527Y-72840000D01*
X47774839Y-72855627D01*
X47641438Y-72916549D01*
X47530605Y-73012587D01*
X47451318Y-73135960D01*
X47410000Y-73276673D01*
X47410000Y-73423327D01*
X46927433Y-73423327D01*
X47000761Y-73349999D01*
X47000760Y-73349998D01*
X46785581Y-73134818D01*
X46784739Y-73137778D01*
X46784738Y-73137784D01*
X46765073Y-73350000D01*
X45692243Y-73350000D01*
X45736731Y-73213079D01*
X45795688Y-72904015D01*
X45797936Y-72868284D01*
X45815444Y-72590005D01*
X45815444Y-72589994D01*
X45795689Y-72275995D01*
X45795688Y-72275988D01*
X45795688Y-72275985D01*
X45784924Y-72219560D01*
X47708798Y-72219560D01*
X47919999Y-72430761D01*
X47920000Y-72430761D01*
X47920000Y-72430760D01*
X48131200Y-72219560D01*
X50248798Y-72219560D01*
X50459999Y-72430761D01*
X50460000Y-72430761D01*
X50460000Y-72430760D01*
X50671200Y-72219560D01*
X50671200Y-72219559D01*
X50566561Y-72200000D01*
X50353439Y-72200000D01*
X50248798Y-72219559D01*
X50248798Y-72219560D01*
X48131200Y-72219560D01*
X48131200Y-72219559D01*
X48026561Y-72200000D01*
X47813439Y-72200000D01*
X47708798Y-72219559D01*
X47708798Y-72219560D01*
X45784924Y-72219560D01*
X45736731Y-71966921D01*
X45639503Y-71667685D01*
X45636355Y-71660996D01*
X45547092Y-71471302D01*
X45505537Y-71382993D01*
X45433234Y-71269061D01*
X45336948Y-71117338D01*
X45336945Y-71117334D01*
X45136393Y-70874909D01*
X45136391Y-70874907D01*
X44968170Y-70716936D01*
X44907030Y-70659522D01*
X44907027Y-70659520D01*
X44907021Y-70659515D01*
X44652495Y-70474591D01*
X44652488Y-70474586D01*
X44652484Y-70474584D01*
X44376766Y-70323006D01*
X44376763Y-70323004D01*
X44376758Y-70323002D01*
X44376757Y-70323001D01*
X44084228Y-70207181D01*
X44084225Y-70207180D01*
X43779476Y-70128934D01*
X43779463Y-70128932D01*
X43467329Y-70089500D01*
X43467318Y-70089500D01*
X43152682Y-70089500D01*
X43152670Y-70089500D01*
X42840536Y-70128932D01*
X42840523Y-70128934D01*
X42535774Y-70207180D01*
X42535771Y-70207181D01*
X42243242Y-70323001D01*
X42243241Y-70323002D01*
X41967516Y-70474584D01*
X41967504Y-70474591D01*
X41712978Y-70659515D01*
X41712968Y-70659523D01*
X41483608Y-70874907D01*
X41483606Y-70874909D01*
X41283054Y-71117334D01*
X41283051Y-71117338D01*
X41114464Y-71382990D01*
X41114461Y-71382996D01*
X40980499Y-71667678D01*
X40980497Y-71667683D01*
X40883270Y-71966916D01*
X40824311Y-72275988D01*
X40824310Y-72275995D01*
X40804556Y-72589994D01*
X40804556Y-72590005D01*
X32129595Y-72590005D01*
X28891716Y-69352125D01*
X44358533Y-69352125D01*
X44377726Y-69357268D01*
X44609998Y-69377590D01*
X44610002Y-69377590D01*
X44842265Y-69357269D01*
X44861464Y-69352124D01*
X44610001Y-69100660D01*
X44610000Y-69100660D01*
X44358533Y-69352125D01*
X28891716Y-69352125D01*
X28235016Y-68695425D01*
X28201531Y-68634102D01*
X28202491Y-68577304D01*
X28217341Y-68518661D01*
X28250664Y-68387073D01*
X28264160Y-68224200D01*
X28270723Y-68145005D01*
X28270723Y-68144994D01*
X28262022Y-68040001D01*
X43272410Y-68040001D01*
X43292730Y-68272263D01*
X43292733Y-68272280D01*
X43297873Y-68291464D01*
X43297874Y-68291464D01*
X43511109Y-68078231D01*
X44051088Y-68078231D01*
X44082128Y-68227606D01*
X44152319Y-68363067D01*
X44256453Y-68474567D01*
X44386809Y-68553838D01*
X44533717Y-68595000D01*
X44647965Y-68595000D01*
X44761145Y-68579444D01*
X44901080Y-68518661D01*
X45019427Y-68422379D01*
X45107409Y-68297737D01*
X45158501Y-68153980D01*
X45168912Y-68001769D01*
X45137872Y-67852394D01*
X45067681Y-67716933D01*
X44963547Y-67605433D01*
X44833191Y-67526162D01*
X44686283Y-67485000D01*
X44572035Y-67485000D01*
X44458855Y-67500556D01*
X44318920Y-67561339D01*
X44200573Y-67657621D01*
X44112591Y-67782263D01*
X44061499Y-67926020D01*
X44051088Y-68078231D01*
X43511109Y-68078231D01*
X43549340Y-68040000D01*
X43549340Y-68039999D01*
X43297874Y-67788533D01*
X43297873Y-67788533D01*
X43292732Y-67807721D01*
X43292731Y-67807725D01*
X43272410Y-68039998D01*
X43272410Y-68040001D01*
X28262022Y-68040001D01*
X28257350Y-67983618D01*
X28250664Y-67902927D01*
X28191035Y-67667457D01*
X28093462Y-67445013D01*
X28076950Y-67419740D01*
X27960609Y-67241665D01*
X27903737Y-67179886D01*
X27796094Y-67062954D01*
X27796089Y-67062950D01*
X27796087Y-67062948D01*
X27680333Y-66972853D01*
X27639520Y-66916143D01*
X27635845Y-66846370D01*
X27670477Y-66785687D01*
X27680333Y-66777147D01*
X27776999Y-66701908D01*
X27796094Y-66687046D01*
X27960607Y-66508337D01*
X28093462Y-66304987D01*
X28191035Y-66082543D01*
X28250664Y-65847073D01*
X28261708Y-65713794D01*
X28270723Y-65605005D01*
X43109277Y-65605005D01*
X43129335Y-65847069D01*
X43188965Y-66082543D01*
X43286537Y-66304986D01*
X43419390Y-66508334D01*
X43419393Y-66508337D01*
X43583906Y-66687046D01*
X43583909Y-66687048D01*
X43583912Y-66687051D01*
X43775582Y-66836234D01*
X43775588Y-66836238D01*
X43775591Y-66836240D01*
X43989217Y-66951849D01*
X44218959Y-67030719D01*
X44458549Y-67070700D01*
X44458550Y-67070700D01*
X44701450Y-67070700D01*
X44701451Y-67070700D01*
X44941041Y-67030719D01*
X45170783Y-66951849D01*
X45384409Y-66836240D01*
X45576094Y-66687046D01*
X45740607Y-66508337D01*
X45873462Y-66304987D01*
X45971035Y-66082543D01*
X46030664Y-65847073D01*
X46041708Y-65713794D01*
X46050723Y-65605005D01*
X46050723Y-65604994D01*
X46037350Y-65443618D01*
X46030664Y-65362927D01*
X45971035Y-65127457D01*
X45873462Y-64905013D01*
X45854175Y-64875492D01*
X45740609Y-64701665D01*
X45677681Y-64633307D01*
X45576094Y-64522954D01*
X45576089Y-64522950D01*
X45576087Y-64522948D01*
X45460333Y-64432853D01*
X45419520Y-64376143D01*
X45415845Y-64306370D01*
X45450477Y-64245687D01*
X45460333Y-64237147D01*
X45536216Y-64178083D01*
X45576094Y-64147046D01*
X45740607Y-63968337D01*
X45873462Y-63764987D01*
X45971035Y-63542543D01*
X46030664Y-63307073D01*
X46045279Y-63130703D01*
X46050723Y-63065005D01*
X46050723Y-63064994D01*
X46034169Y-62865228D01*
X46030664Y-62822927D01*
X45971035Y-62587457D01*
X45873462Y-62365013D01*
X45863850Y-62350300D01*
X45740609Y-62161665D01*
X45721901Y-62141343D01*
X45576094Y-61982954D01*
X45576089Y-61982950D01*
X45576087Y-61982948D01*
X45460333Y-61892853D01*
X45419520Y-61836143D01*
X45415845Y-61766370D01*
X45450477Y-61705687D01*
X45460333Y-61697147D01*
X45540371Y-61634850D01*
X45576094Y-61607046D01*
X45740607Y-61428337D01*
X45873462Y-61224987D01*
X45971035Y-61002543D01*
X46030664Y-60767073D01*
X46050723Y-60525000D01*
X46042022Y-60420000D01*
X46035064Y-60336029D01*
X46030664Y-60282927D01*
X45971035Y-60047457D01*
X45873462Y-59825013D01*
X45802990Y-59717147D01*
X45740609Y-59621665D01*
X45710530Y-59588991D01*
X45576094Y-59442954D01*
X45576089Y-59442950D01*
X45576087Y-59442948D01*
X45460333Y-59352853D01*
X45419520Y-59296143D01*
X45415845Y-59226370D01*
X45431193Y-59199476D01*
X59596983Y-59199476D01*
X59829643Y-59238300D01*
X60070357Y-59238300D01*
X60303016Y-59199476D01*
X59950001Y-58846460D01*
X59950000Y-58846460D01*
X59596983Y-59199476D01*
X45431193Y-59199476D01*
X45450477Y-59165687D01*
X45460333Y-59157147D01*
X45536216Y-59098083D01*
X45576094Y-59067046D01*
X45740607Y-58888337D01*
X45873462Y-58684987D01*
X45971035Y-58462543D01*
X46030664Y-58227073D01*
X46047344Y-58025776D01*
X46050723Y-57985005D01*
X46050723Y-57984994D01*
X46034217Y-57785805D01*
X58492522Y-57785805D01*
X58512399Y-58025689D01*
X58540092Y-58135047D01*
X58817451Y-57857689D01*
X59450000Y-57857689D01*
X59490507Y-57995644D01*
X59568239Y-58116598D01*
X59676900Y-58210752D01*
X59807685Y-58270480D01*
X59914237Y-58285800D01*
X59985763Y-58285800D01*
X60092315Y-58270480D01*
X60223100Y-58210752D01*
X60331761Y-58116598D01*
X60409493Y-57995644D01*
X60450000Y-57857689D01*
X60450000Y-57713911D01*
X60409493Y-57575956D01*
X60331761Y-57455002D01*
X60223100Y-57360848D01*
X60092315Y-57301120D01*
X59985763Y-57285800D01*
X59914237Y-57285800D01*
X59807685Y-57301120D01*
X59676900Y-57360848D01*
X59568239Y-57455002D01*
X59490507Y-57575956D01*
X59450000Y-57713911D01*
X59450000Y-57857689D01*
X58817451Y-57857689D01*
X58889340Y-57785800D01*
X58889340Y-57785799D01*
X58540092Y-57436551D01*
X58512399Y-57545910D01*
X58492522Y-57785794D01*
X58492522Y-57785805D01*
X46034217Y-57785805D01*
X46030664Y-57742927D01*
X45971035Y-57507457D01*
X45873462Y-57285013D01*
X45818668Y-57201144D01*
X45740609Y-57081665D01*
X45677292Y-57012885D01*
X45576094Y-56902954D01*
X45576089Y-56902950D01*
X45576087Y-56902948D01*
X45384417Y-56753765D01*
X45384411Y-56753761D01*
X45170784Y-56638151D01*
X45170779Y-56638149D01*
X44941043Y-56559281D01*
X44781314Y-56532627D01*
X44701451Y-56519300D01*
X44458549Y-56519300D01*
X44404879Y-56528256D01*
X44218956Y-56559281D01*
X43989220Y-56638149D01*
X43989215Y-56638151D01*
X43775588Y-56753761D01*
X43775582Y-56753765D01*
X43583912Y-56902948D01*
X43583909Y-56902951D01*
X43419390Y-57081665D01*
X43286537Y-57285013D01*
X43188965Y-57507456D01*
X43129335Y-57742930D01*
X43109277Y-57984994D01*
X43109277Y-57985005D01*
X43129335Y-58227069D01*
X43188965Y-58462543D01*
X43286537Y-58684986D01*
X43419390Y-58888334D01*
X43419393Y-58888337D01*
X43583906Y-59067046D01*
X43583909Y-59067048D01*
X43583912Y-59067051D01*
X43699667Y-59157147D01*
X43740480Y-59213857D01*
X43744155Y-59283630D01*
X43709523Y-59344313D01*
X43699667Y-59352853D01*
X43583912Y-59442948D01*
X43583909Y-59442951D01*
X43419390Y-59621665D01*
X43286537Y-59825013D01*
X43188965Y-60047456D01*
X43129335Y-60282930D01*
X43109277Y-60524994D01*
X43109277Y-60525005D01*
X43129335Y-60767069D01*
X43188965Y-61002543D01*
X43286537Y-61224986D01*
X43419390Y-61428334D01*
X43439091Y-61449735D01*
X43583906Y-61607046D01*
X43583909Y-61607048D01*
X43583912Y-61607051D01*
X43699667Y-61697147D01*
X43740480Y-61753857D01*
X43744155Y-61823630D01*
X43709523Y-61884313D01*
X43699667Y-61892853D01*
X43583912Y-61982948D01*
X43583909Y-61982951D01*
X43419390Y-62161665D01*
X43286537Y-62365013D01*
X43188965Y-62587456D01*
X43129335Y-62822930D01*
X43109277Y-63064994D01*
X43109277Y-63065005D01*
X43129335Y-63307069D01*
X43188965Y-63542543D01*
X43286537Y-63764986D01*
X43419390Y-63968334D01*
X43419393Y-63968337D01*
X43583906Y-64147046D01*
X43583909Y-64147048D01*
X43583912Y-64147051D01*
X43699667Y-64237147D01*
X43740480Y-64293857D01*
X43744155Y-64363630D01*
X43709523Y-64424313D01*
X43699667Y-64432853D01*
X43583912Y-64522948D01*
X43583909Y-64522951D01*
X43583906Y-64522953D01*
X43583906Y-64522954D01*
X43581964Y-64525064D01*
X43419390Y-64701665D01*
X43286537Y-64905013D01*
X43188965Y-65127456D01*
X43129335Y-65362930D01*
X43109277Y-65604994D01*
X43109277Y-65605005D01*
X28270723Y-65605005D01*
X28270723Y-65604994D01*
X28257350Y-65443618D01*
X28250664Y-65362927D01*
X28202490Y-65172692D01*
X28205115Y-65102874D01*
X28235013Y-65054575D01*
X28413786Y-64875802D01*
X28426048Y-64865980D01*
X28425865Y-64865759D01*
X28431867Y-64860792D01*
X28431877Y-64860786D01*
X28479241Y-64810348D01*
X28500120Y-64789470D01*
X28504373Y-64783985D01*
X28508140Y-64779573D01*
X28532992Y-64753109D01*
X28545413Y-64739885D01*
X28545430Y-64739901D01*
X28549766Y-64734822D01*
X37082771Y-56201819D01*
X37144094Y-56168334D01*
X37170452Y-56165500D01*
X59493244Y-56165500D01*
X59560283Y-56185185D01*
G37*
%TD.AperFunction*%
%TA.AperFunction,Conductor*%
G36*
X67721587Y-32800185D02*
G01*
X67742229Y-32816819D01*
X82339194Y-47413784D01*
X82349019Y-47426048D01*
X82349240Y-47425866D01*
X82354210Y-47431873D01*
X82354213Y-47431876D01*
X82354214Y-47431877D01*
X82404651Y-47479241D01*
X82425530Y-47500120D01*
X82431004Y-47504366D01*
X82435442Y-47508156D01*
X82469418Y-47540062D01*
X82486973Y-47549713D01*
X82503231Y-47560392D01*
X82519064Y-47572674D01*
X82541015Y-47582172D01*
X82561837Y-47591183D01*
X82567081Y-47593752D01*
X82607908Y-47616197D01*
X82627312Y-47621179D01*
X82645710Y-47627478D01*
X82664105Y-47635438D01*
X82710129Y-47642726D01*
X82715832Y-47643907D01*
X82760981Y-47655500D01*
X82781016Y-47655500D01*
X82800413Y-47657026D01*
X82820196Y-47660160D01*
X82866584Y-47655775D01*
X82872422Y-47655500D01*
X83601005Y-47655500D01*
X83668044Y-47675185D01*
X83713799Y-47727989D01*
X83723743Y-47797147D01*
X83694718Y-47860703D01*
X83672128Y-47881075D01*
X83580475Y-47945250D01*
X83425249Y-48100476D01*
X83299336Y-48280299D01*
X83299334Y-48280303D01*
X83206559Y-48479260D01*
X83206555Y-48479269D01*
X83149741Y-48691303D01*
X83149739Y-48691314D01*
X83130607Y-48909998D01*
X83130607Y-48910001D01*
X83149739Y-49128685D01*
X83149741Y-49128696D01*
X83206555Y-49340730D01*
X83206557Y-49340734D01*
X83206558Y-49340738D01*
X83234639Y-49400957D01*
X83299333Y-49539696D01*
X83323889Y-49574765D01*
X83425249Y-49719522D01*
X83425253Y-49719526D01*
X83428355Y-49723956D01*
X83426329Y-49725374D01*
X83450144Y-49779875D01*
X83439063Y-49848861D01*
X83392446Y-49900904D01*
X83327132Y-49919500D01*
X81095453Y-49919500D01*
X81028414Y-49899815D01*
X81007772Y-49883181D01*
X78520603Y-47396012D01*
X78510780Y-47383750D01*
X78510559Y-47383934D01*
X78505586Y-47377923D01*
X78455164Y-47330573D01*
X78444719Y-47320128D01*
X78434275Y-47309683D01*
X78428786Y-47305425D01*
X78424361Y-47301647D01*
X78390382Y-47269738D01*
X78390380Y-47269736D01*
X78390377Y-47269735D01*
X78372829Y-47260088D01*
X78356563Y-47249404D01*
X78340733Y-47237125D01*
X78297968Y-47218618D01*
X78292722Y-47216048D01*
X78251893Y-47193603D01*
X78251892Y-47193602D01*
X78232493Y-47188622D01*
X78214081Y-47182318D01*
X78195698Y-47174362D01*
X78195692Y-47174360D01*
X78149674Y-47167072D01*
X78143952Y-47165887D01*
X78098821Y-47154300D01*
X78098819Y-47154300D01*
X78078784Y-47154300D01*
X78059386Y-47152773D01*
X78051962Y-47151597D01*
X78039605Y-47149640D01*
X78039604Y-47149640D01*
X77993216Y-47154025D01*
X77987378Y-47154300D01*
X75282785Y-47154300D01*
X75215746Y-47134615D01*
X75169991Y-47081811D01*
X75160047Y-47012653D01*
X75189072Y-46949097D01*
X75191555Y-46946317D01*
X75329874Y-46796061D01*
X75399168Y-46690000D01*
X73604000Y-46690000D01*
X73536961Y-46670315D01*
X73491206Y-46617511D01*
X73480000Y-46566000D01*
X73480000Y-46011889D01*
X73730000Y-46011889D01*
X73770507Y-46149844D01*
X73848239Y-46270798D01*
X73956900Y-46364952D01*
X74087685Y-46424680D01*
X74194237Y-46440000D01*
X74265763Y-46440000D01*
X74372315Y-46424680D01*
X74503100Y-46364952D01*
X74611761Y-46270798D01*
X74689493Y-46149844D01*
X74730000Y-46011889D01*
X74730000Y-45868111D01*
X74689493Y-45730156D01*
X74611761Y-45609202D01*
X74503100Y-45515048D01*
X74372315Y-45455320D01*
X74265763Y-45440000D01*
X74194237Y-45440000D01*
X74087685Y-45455320D01*
X73956900Y-45515048D01*
X73848239Y-45609202D01*
X73770507Y-45730156D01*
X73730000Y-45868111D01*
X73730000Y-46011889D01*
X73480000Y-46011889D01*
X73480000Y-44766525D01*
X74980000Y-44766525D01*
X74980000Y-45190000D01*
X75399168Y-45190000D01*
X75399168Y-45189999D01*
X75329873Y-45083937D01*
X75329869Y-45083932D01*
X75173976Y-44914585D01*
X75173960Y-44914571D01*
X74992315Y-44773191D01*
X74980000Y-44766525D01*
X73480000Y-44766525D01*
X73479999Y-44766525D01*
X73467684Y-44773191D01*
X73286039Y-44914571D01*
X73286029Y-44914580D01*
X73130124Y-45083938D01*
X73064107Y-45184986D01*
X73010961Y-45230342D01*
X72941730Y-45239766D01*
X72878394Y-45210264D01*
X72856490Y-45184986D01*
X72826507Y-45139094D01*
X72790269Y-45083627D01*
X72634308Y-44914208D01*
X72540474Y-44841174D01*
X72452591Y-44772772D01*
X72250069Y-44663172D01*
X72250061Y-44663169D01*
X72032274Y-44588402D01*
X71861920Y-44559975D01*
X71805137Y-44550500D01*
X71574863Y-44550500D01*
X71529436Y-44558080D01*
X71347725Y-44588402D01*
X71129938Y-44663169D01*
X71129930Y-44663172D01*
X70927408Y-44772772D01*
X70745694Y-44914206D01*
X70745689Y-44914211D01*
X70589727Y-45083630D01*
X70523808Y-45184528D01*
X70470662Y-45229884D01*
X70401431Y-45239308D01*
X70338095Y-45209806D01*
X70316192Y-45184528D01*
X70250272Y-45083630D01*
X70150396Y-44975136D01*
X70094308Y-44914208D01*
X70000474Y-44841174D01*
X69912591Y-44772772D01*
X69710069Y-44663172D01*
X69710061Y-44663169D01*
X69492274Y-44588402D01*
X69321920Y-44559975D01*
X69265137Y-44550500D01*
X69034863Y-44550500D01*
X68989436Y-44558080D01*
X68807725Y-44588402D01*
X68589938Y-44663169D01*
X68589930Y-44663172D01*
X68387408Y-44772772D01*
X68205694Y-44914206D01*
X68205689Y-44914211D01*
X68049727Y-45083630D01*
X67983808Y-45184528D01*
X67930662Y-45229884D01*
X67861431Y-45239308D01*
X67798095Y-45209806D01*
X67776192Y-45184528D01*
X67710272Y-45083630D01*
X67610396Y-44975136D01*
X67554308Y-44914208D01*
X67460474Y-44841174D01*
X67372591Y-44772772D01*
X67170069Y-44663172D01*
X67170061Y-44663169D01*
X66952274Y-44588402D01*
X66781920Y-44559975D01*
X66725137Y-44550500D01*
X66494863Y-44550500D01*
X66449436Y-44558080D01*
X66267725Y-44588402D01*
X66049938Y-44663169D01*
X66049930Y-44663172D01*
X65847408Y-44772772D01*
X65847404Y-44772775D01*
X65817898Y-44795740D01*
X65752903Y-44821381D01*
X65684364Y-44807813D01*
X65654057Y-44785566D01*
X64764703Y-43896212D01*
X64754880Y-43883950D01*
X64754659Y-43884134D01*
X64749686Y-43878123D01*
X64699264Y-43830773D01*
X64688819Y-43820328D01*
X64678375Y-43809883D01*
X64672886Y-43805625D01*
X64668461Y-43801847D01*
X64634482Y-43769938D01*
X64634480Y-43769936D01*
X64634477Y-43769935D01*
X64616929Y-43760288D01*
X64600663Y-43749604D01*
X64584833Y-43737325D01*
X64542068Y-43718818D01*
X64536822Y-43716248D01*
X64495993Y-43693803D01*
X64495992Y-43693802D01*
X64476593Y-43688822D01*
X64458181Y-43682518D01*
X64439798Y-43674562D01*
X64439792Y-43674560D01*
X64393774Y-43667272D01*
X64388052Y-43666087D01*
X64342921Y-43654500D01*
X64342919Y-43654500D01*
X64322884Y-43654500D01*
X64303486Y-43652973D01*
X64296062Y-43651797D01*
X64283705Y-43649840D01*
X64283704Y-43649840D01*
X64237316Y-43654225D01*
X64231478Y-43654500D01*
X53368053Y-43654500D01*
X53301014Y-43634815D01*
X53280372Y-43618181D01*
X50432330Y-40770139D01*
X50398845Y-40708816D01*
X50403829Y-40639124D01*
X50416200Y-40614641D01*
X50531217Y-40438595D01*
X50623717Y-40227716D01*
X50680246Y-40004488D01*
X50689129Y-39897292D01*
X50699262Y-39775005D01*
X50699262Y-39774994D01*
X50683841Y-39588900D01*
X50680246Y-39545512D01*
X50623717Y-39322284D01*
X50531217Y-39111405D01*
X50501225Y-39065499D01*
X50405271Y-38918629D01*
X50378355Y-38889390D01*
X50249308Y-38749208D01*
X50141603Y-38665378D01*
X50063541Y-38604620D01*
X50064525Y-38603354D01*
X50023824Y-38555670D01*
X50014396Y-38486439D01*
X50043893Y-38423102D01*
X50063865Y-38405796D01*
X50063541Y-38405380D01*
X50100174Y-38376866D01*
X50249308Y-38260792D01*
X50405269Y-38091373D01*
X50531217Y-37898595D01*
X50623717Y-37687716D01*
X50680246Y-37464488D01*
X50697210Y-37259765D01*
X50699262Y-37235005D01*
X50699262Y-37234994D01*
X50686584Y-37082008D01*
X50680246Y-37005512D01*
X50623717Y-36782284D01*
X50531217Y-36571405D01*
X50530080Y-36569664D01*
X50405271Y-36378629D01*
X50336362Y-36303774D01*
X50249308Y-36209208D01*
X50067589Y-36067771D01*
X50067590Y-36067771D01*
X50063541Y-36064620D01*
X50064525Y-36063354D01*
X50023824Y-36015670D01*
X50014396Y-35946439D01*
X50043893Y-35883102D01*
X50063865Y-35865796D01*
X50063541Y-35865380D01*
X50143535Y-35803118D01*
X50249308Y-35720792D01*
X50405269Y-35551373D01*
X50531217Y-35358595D01*
X50623717Y-35147716D01*
X50680246Y-34924488D01*
X50699262Y-34695000D01*
X50680246Y-34465512D01*
X50623717Y-34242284D01*
X50531217Y-34031405D01*
X50405271Y-33838629D01*
X50378355Y-33809390D01*
X50249308Y-33669208D01*
X50067589Y-33527771D01*
X50067590Y-33527771D01*
X50063541Y-33524620D01*
X50064525Y-33523354D01*
X50023824Y-33475670D01*
X50014396Y-33406439D01*
X50043893Y-33343102D01*
X50063865Y-33325796D01*
X50063541Y-33325380D01*
X50100174Y-33296866D01*
X50249308Y-33180792D01*
X50405269Y-33011373D01*
X50519402Y-32836678D01*
X50572548Y-32791322D01*
X50623211Y-32780500D01*
X67654548Y-32780500D01*
X67721587Y-32800185D01*
G37*
%TD.AperFunction*%
%TD*%
M02*
