%TF.GenerationSoftware,KiCad,Pcbnew,7.0.9*%
%TF.CreationDate,2024-01-17T22:54:14-05:00*%
%TF.ProjectId,payload24,7061796c-6f61-4643-9234-2e6b69636164,2*%
%TF.SameCoordinates,Original*%
%TF.FileFunction,Copper,L6,Bot*%
%TF.FilePolarity,Positive*%
%FSLAX46Y46*%
G04 Gerber Fmt 4.6, Leading zero omitted, Abs format (unit mm)*
G04 Created by KiCad (PCBNEW 7.0.9) date 2024-01-17 22:54:14*
%MOMM*%
%LPD*%
G01*
G04 APERTURE LIST*
G04 Aperture macros list*
%AMRoundRect*
0 Rectangle with rounded corners*
0 $1 Rounding radius*
0 $2 $3 $4 $5 $6 $7 $8 $9 X,Y pos of 4 corners*
0 Add a 4 corners polygon primitive as box body*
4,1,4,$2,$3,$4,$5,$6,$7,$8,$9,$2,$3,0*
0 Add four circle primitives for the rounded corners*
1,1,$1+$1,$2,$3*
1,1,$1+$1,$4,$5*
1,1,$1+$1,$6,$7*
1,1,$1+$1,$8,$9*
0 Add four rect primitives between the rounded corners*
20,1,$1+$1,$2,$3,$4,$5,0*
20,1,$1+$1,$4,$5,$6,$7,0*
20,1,$1+$1,$6,$7,$8,$9,0*
20,1,$1+$1,$8,$9,$2,$3,0*%
%AMRotRect*
0 Rectangle, with rotation*
0 The origin of the aperture is its center*
0 $1 length*
0 $2 width*
0 $3 Rotation angle, in degrees counterclockwise*
0 Add horizontal line*
21,1,$1,$2,0,0,$3*%
G04 Aperture macros list end*
%TA.AperFunction,ComponentPad*%
%ADD10C,1.778000*%
%TD*%
%TA.AperFunction,ComponentPad*%
%ADD11C,3.000000*%
%TD*%
%TA.AperFunction,ComponentPad*%
%ADD12C,1.905000*%
%TD*%
%TA.AperFunction,ComponentPad*%
%ADD13RoundRect,0.875000X0.875000X-2.125000X0.875000X2.125000X-0.875000X2.125000X-0.875000X-2.125000X0*%
%TD*%
%TA.AperFunction,ComponentPad*%
%ADD14C,6.000000*%
%TD*%
%TA.AperFunction,ComponentPad*%
%ADD15RotRect,6.000000X6.000000X206.000000*%
%TD*%
%TA.AperFunction,ComponentPad*%
%ADD16R,1.508000X1.508000*%
%TD*%
%TA.AperFunction,ComponentPad*%
%ADD17C,1.508000*%
%TD*%
%TA.AperFunction,ComponentPad*%
%ADD18C,1.930400*%
%TD*%
%TA.AperFunction,SMDPad,CuDef*%
%ADD19R,1.770000X1.230000*%
%TD*%
%TA.AperFunction,ComponentPad*%
%ADD20C,1.300000*%
%TD*%
%TA.AperFunction,ComponentPad*%
%ADD21RotRect,6.000000X6.000000X357.000000*%
%TD*%
%TA.AperFunction,ComponentPad*%
%ADD22RotRect,1.755000X1.755000X51.000000*%
%TD*%
%TA.AperFunction,ComponentPad*%
%ADD23C,1.755000*%
%TD*%
%TA.AperFunction,ComponentPad*%
%ADD24C,1.665000*%
%TD*%
%TA.AperFunction,ComponentPad*%
%ADD25R,1.755000X1.755000*%
%TD*%
%TA.AperFunction,SMDPad,CuDef*%
%ADD26R,1.770000X1.130000*%
%TD*%
%TA.AperFunction,ViaPad*%
%ADD27C,0.800000*%
%TD*%
%TA.AperFunction,Conductor*%
%ADD28C,0.250000*%
%TD*%
G04 APERTURE END LIST*
D10*
%TO.P,U8,1,Vin*%
%TO.N,3.3V-Teensy*%
X54344518Y-77134565D03*
%TO.P,U8,2,3Vo*%
%TO.N,unconnected-(U8-3Vo-Pad2)*%
X51804518Y-77134565D03*
%TO.P,U8,3,GND*%
%TO.N,GND - NMOS1*%
X49264518Y-77134565D03*
%TO.P,U8,4,SCL*%
%TO.N,SCL1*%
X46724518Y-77134565D03*
%TO.P,U8,5,SDO*%
%TO.N,unconnected-(U8-SDO-Pad5)*%
X44184518Y-77134565D03*
%TO.P,U8,6,SDA*%
%TO.N,SDA1*%
X41644518Y-77134565D03*
%TO.P,U8,7,CS*%
%TO.N,unconnected-(U8-CS-Pad7)*%
X39104518Y-77134565D03*
%TO.P,U8,8,INT*%
%TO.N,unconnected-(U8-INT-Pad8)*%
X36564518Y-77134565D03*
D11*
%TO.P,U8,P$1*%
%TO.N,N/C*%
X37199518Y-88564565D03*
%TD*%
D12*
%TO.P,J4,1,___PWM*%
%TO.N,/Open Signal*%
X51770372Y-62293844D03*
%TO.P,J4,2,___+*%
%TO.N,5V-Power Reg.*%
X54270372Y-62293844D03*
%TO.P,J4,3,___-*%
%TO.N,GND - NMOS1*%
X56770372Y-62293844D03*
%TD*%
D10*
%TO.P,U2,1,Vin*%
%TO.N,3.3V-Trinket*%
X61159000Y-89914000D03*
%TO.P,U2,2,3Vo*%
%TO.N,unconnected-(U2-3Vo-Pad2)*%
X63699000Y-89914000D03*
%TO.P,U2,3,GND*%
%TO.N,GND*%
X66239000Y-89914000D03*
%TO.P,U2,4,SCL*%
%TO.N,SCL3*%
X68779000Y-89914000D03*
%TO.P,U2,5,SDO*%
%TO.N,unconnected-(U2-SDO-Pad5)*%
X71319000Y-89914000D03*
%TO.P,U2,6,SDA*%
%TO.N,SDA3*%
X73859000Y-89914000D03*
%TO.P,U2,7,CS*%
%TO.N,unconnected-(U2-CS-Pad7)*%
X76399000Y-89914000D03*
%TO.P,U2,8,INT*%
%TO.N,unconnected-(U2-INT-Pad8)*%
X78939000Y-89914000D03*
D11*
%TO.P,U2,P$1*%
%TO.N,N/C*%
X78304000Y-78484000D03*
%TD*%
D13*
%TO.P,SW1,1,A*%
%TO.N,/.1in*%
X32532800Y-53950000D03*
%TO.P,SW1,2,B*%
%TO.N,/22.2V*%
X38526413Y-53950000D03*
%TD*%
D14*
%TO.P,U7,N,-*%
%TO.N,GND - NMOS1*%
X65320253Y-60498163D03*
D15*
%TO.P,U7,P,+*%
%TO.N,/22.2V*%
X71791571Y-57341891D03*
%TD*%
D16*
%TO.P,U13,1,BAT*%
%TO.N,5V-Power Reg.*%
X29699294Y-71810130D03*
D17*
%TO.P,U13,2,GND*%
%TO.N,GND*%
X32239294Y-71810130D03*
%TO.P,U13,3,4*%
%TO.N,unconnected-(U13-4-Pad3)*%
X34779294Y-71810130D03*
%TO.P,U13,4,3*%
%TO.N,unconnected-(U13-3-Pad4)*%
X37319294Y-71810130D03*
%TO.P,U13,5,RST*%
%TO.N,unconnected-(U13-RST-Pad5)*%
X39859294Y-71810130D03*
%TO.P,U13,6,USB*%
%TO.N,unconnected-(U13-USB-Pad6)*%
X29699294Y-59135130D03*
%TO.P,U13,7,0*%
%TO.N,SDA3*%
X32239294Y-59135130D03*
%TO.P,U13,8,1*%
%TO.N,SCL3*%
X34779294Y-59135130D03*
%TO.P,U13,9,2*%
%TO.N,Power Signal*%
X37319294Y-59135130D03*
D16*
%TO.P,U13,10,3V*%
%TO.N,3.3V-Trinket*%
X39859294Y-59135130D03*
%TD*%
D12*
%TO.P,J3,1,1*%
%TO.N,GND - NMOS2*%
X72610880Y-71074127D03*
%TO.P,J3,2,2*%
%TO.N,5V-Power Reg.*%
X75110880Y-71074127D03*
%TD*%
D10*
%TO.P,U3,1,PPS*%
%TO.N,unconnected-(U3-PPS-Pad1)*%
X72577881Y-40236034D03*
%TO.P,U3,2,VIN*%
%TO.N,3.3V-Teensy1*%
X74860817Y-39122571D03*
%TO.P,U3,3,GND*%
%TO.N,GND - NMOS1*%
X77143754Y-38009108D03*
%TO.P,U3,4,RX*%
%TO.N,RX1*%
X79426691Y-36895646D03*
%TO.P,U3,5,TX*%
%TO.N,TX1*%
X81709628Y-35782183D03*
%TO.P,U3,6,FIX*%
%TO.N,unconnected-(U3-FIX-Pad6)*%
X83992565Y-34668720D03*
%TO.P,U3,7,VBAT*%
%TO.N,unconnected-(U3-VBAT-Pad7)*%
X86275502Y-33555258D03*
%TO.P,U3,8,EN*%
%TO.N,EN1*%
X88558439Y-32441795D03*
%TO.P,U3,9,3.3V*%
%TO.N,unconnected-(U3-3.3V-Pad9)*%
X90841376Y-31328332D03*
%TD*%
%TO.P,U14,1,Vin*%
%TO.N,3.3V-Teensy*%
X62259239Y-39521461D03*
%TO.P,U14,2,3v*%
%TO.N,unconnected-(U14-3v-Pad2)*%
X62259239Y-36981461D03*
%TO.P,U14,3,GND*%
%TO.N,GND - NMOS1*%
X62259239Y-34441461D03*
%TO.P,U14,4,SCL*%
%TO.N,SCL2*%
X62259239Y-31901461D03*
%TO.P,U14,5,SDA*%
%TO.N,SDA2*%
X62259239Y-29361461D03*
%TO.P,U14,6,RST*%
%TO.N,RST2*%
X62259239Y-26821461D03*
D18*
%TO.P,U14,7,INT*%
%TO.N,unconnected-(U14-INT-Pad7)*%
X47019239Y-36981461D03*
%TO.P,U14,8,ADR*%
%TO.N,unconnected-(U14-ADR-Pad8)*%
X47019239Y-34441461D03*
%TO.P,U14,9,PS0*%
%TO.N,unconnected-(U14-PS0-Pad9)*%
X47019239Y-31901461D03*
%TO.P,U14,10,PS1*%
%TO.N,unconnected-(U14-PS1-Pad10)*%
X47019239Y-29361461D03*
%TD*%
D12*
%TO.P,J1,1,___PWM*%
%TO.N,/Retention  Signal*%
X56826723Y-54902201D03*
%TO.P,J1,2,___+*%
%TO.N,5V-Power Reg.*%
X54326723Y-54902201D03*
%TO.P,J1,3,___-*%
%TO.N,GND - NMOS1*%
X51826723Y-54902201D03*
%TD*%
%TO.P,J2,1,___PWM*%
%TO.N,/Open Signal*%
X62148487Y-71024550D03*
%TO.P,J2,2,___+*%
%TO.N,5V-Power Reg.*%
X64648487Y-71024550D03*
%TO.P,J2,3,___-*%
%TO.N,GND - NMOS1*%
X67148487Y-71024550D03*
%TD*%
D19*
%TO.P,R3,1*%
%TO.N,GND*%
X85745768Y-45368260D03*
%TO.P,R3,2*%
%TO.N,Net-(Q2-Pad1)*%
X85745768Y-42436260D03*
%TD*%
D10*
%TO.P,U4,1,VIN*%
%TO.N,5V-Power Reg.*%
X83252577Y-71461024D03*
%TO.P,U4,2,GND*%
%TO.N,GND - NMOS1*%
X83252577Y-74001024D03*
%TO.P,U4,3,EN*%
%TO.N,EN2*%
X83252577Y-76541024D03*
%TO.P,U4,4,G0*%
%TO.N,G0*%
X83252577Y-79081024D03*
%TO.P,U4,5,SCK*%
%TO.N,SCK*%
X83252577Y-81621024D03*
%TO.P,U4,6,MISO*%
%TO.N,MISO*%
X83252577Y-84161024D03*
%TO.P,U4,7,MOSI*%
%TO.N,MOSI*%
X83252577Y-86701024D03*
%TO.P,U4,8,CS*%
%TO.N,CS*%
X83252577Y-89241024D03*
%TO.P,U4,9,RST*%
%TO.N,RST3*%
X83252577Y-91781024D03*
%TO.P,U4,10,G1*%
%TO.N,unconnected-(U4-G1-Pad10)*%
X57852577Y-71461024D03*
%TO.P,U4,11,G2*%
%TO.N,unconnected-(U4-G2-Pad11)*%
X57852577Y-74001024D03*
%TO.P,U4,12,G3*%
%TO.N,unconnected-(U4-G3-Pad12)*%
X57852577Y-76541024D03*
%TO.P,U4,13,G4*%
%TO.N,unconnected-(U4-G4-Pad13)*%
X57852577Y-79081024D03*
%TO.P,U4,14,G5*%
%TO.N,unconnected-(U4-G5-Pad14)*%
X57852577Y-81621024D03*
%TD*%
D20*
%TO.P,U5,1,PG*%
%TO.N,unconnected-(U5-PG-Pad1)*%
X62029875Y-43918660D03*
%TO.P,U5,2,EN*%
%TO.N,unconnected-(U5-EN-Pad2)*%
X62029875Y-46458660D03*
%TO.P,U5,3,VRP*%
%TO.N,unconnected-(U5-VRP-Pad3)*%
X59489875Y-46458660D03*
X59489875Y-43918660D03*
%TO.P,U5,4,VIN*%
%TO.N,/.1in*%
X56949875Y-46458660D03*
X56949875Y-43918660D03*
%TO.P,U5,5,GND*%
%TO.N,GND*%
X54409875Y-46458660D03*
X54409875Y-43918660D03*
X51869875Y-46458660D03*
X51869875Y-43918660D03*
%TO.P,U5,6,VOUT*%
%TO.N,5V-Power Reg.*%
X49329875Y-46458660D03*
X49329875Y-43918660D03*
%TD*%
D19*
%TO.P,R4,1*%
%TO.N,GND*%
X81169488Y-45389675D03*
%TO.P,R4,2*%
%TO.N,Net-(Q1-Pad1)*%
X81169488Y-42457675D03*
%TD*%
%TO.P,R2,1*%
%TO.N,PixHawk Signal*%
X90297625Y-45366932D03*
%TO.P,R2,2*%
%TO.N,Net-(Q2-Pad1)*%
X90297625Y-42434932D03*
%TD*%
D14*
%TO.P,U6,N,-*%
%TO.N,GND*%
X66491412Y-99531528D03*
D21*
%TO.P,U6,P,+*%
%TO.N,/22.2V*%
X59301280Y-99154710D03*
%TD*%
D22*
%TO.P,Q2,1*%
%TO.N,Net-(Q2-Pad1)*%
X33094386Y-35601866D03*
D23*
%TO.P,Q2,2*%
%TO.N,GND - NMOS2*%
X34692860Y-33627915D03*
%TO.P,Q2,3*%
%TO.N,GND*%
X36291334Y-31653964D03*
%TD*%
D24*
%TO.P,U1,0,PWM|CRX2|CS1|RX1*%
%TO.N,RX1*%
X44517848Y-50719301D03*
%TO.P,U1,1,PWM|CTX2|MISO1|TX1*%
%TO.N,TX1*%
X47057848Y-50719301D03*
%TO.P,U1,2,PWM|OUT2*%
%TO.N,RST3*%
X49597848Y-50719301D03*
%TO.P,U1,3,PWM|LRCLK2*%
%TO.N,unconnected-(U1-PWM|LRCLK2-Pad3)*%
X52137848Y-50719301D03*
%TO.P,U1,3.3V1,3.3V*%
%TO.N,3.3V-Teensy*%
X77537848Y-50719301D03*
%TO.P,U1,3.3V2,3.3V(250mA_max)*%
%TO.N,3.3V-Teensy1*%
X47057848Y-65959301D03*
%TO.P,U1,4,PWM|BCLK2*%
%TO.N,unconnected-(U1-PWM|BCLK2-Pad4)*%
X54677848Y-50719301D03*
%TO.P,U1,5,PWM|IN2*%
%TO.N,unconnected-(U1-PWM|IN2-Pad5)*%
X57217848Y-50719301D03*
%TO.P,U1,6,PWM|OUT1D*%
%TO.N,unconnected-(U1-PWM|OUT1D-Pad6)*%
X59757848Y-50719301D03*
%TO.P,U1,7,PWM|OUT1A|RX2*%
%TO.N,unconnected-(U1-PWM|OUT1A|RX2-Pad7)*%
X62297848Y-50719301D03*
%TO.P,U1,8,PWM|IN1|TX2*%
%TO.N,unconnected-(U1-PWM|IN1|TX2-Pad8)*%
X64837848Y-50719301D03*
%TO.P,U1,9,PWM|OUT1C*%
%TO.N,unconnected-(U1-PWM|OUT1C-Pad9)*%
X67377848Y-50719301D03*
%TO.P,U1,10,PWM|MQSR|CS*%
%TO.N,EN2*%
X69917848Y-50719301D03*
%TO.P,U1,11,PWM|CTX1|MOSI*%
%TO.N,MOSI*%
X72457848Y-50719301D03*
%TO.P,U1,12,PWM|MQSL|MISO*%
%TO.N,MISO*%
X74997848Y-50719301D03*
%TO.P,U1,13,(LED)SCK*%
%TO.N,SCK*%
X74997848Y-65959301D03*
%TO.P,U1,14,A0|TX3|S/PDIF_OUT|PWM*%
%TO.N,/Open Signal*%
X72457848Y-65959301D03*
%TO.P,U1,15,A1|RX3|S/PDIF_IN|PWM*%
%TO.N,unconnected-(U1-A1|RX3|S{slash}PDIF_IN|PWM-Pad15)*%
X69917848Y-65959301D03*
%TO.P,U1,16,A2|RX4|SCL1*%
%TO.N,SCL1*%
X67377848Y-65959301D03*
%TO.P,U1,17,A3|TX4|SDA1*%
%TO.N,SDA1*%
X64837848Y-65959301D03*
%TO.P,U1,18,A4|SDA|PWM*%
%TO.N,unconnected-(U1-A4|SDA|PWM-Pad18)*%
X62297848Y-65959301D03*
%TO.P,U1,19,A5|SCL|PWM*%
%TO.N,unconnected-(U1-A5|SCL|PWM-Pad19)*%
X59757848Y-65959301D03*
%TO.P,U1,20,A6|TX5|LRCLK1*%
%TO.N,unconnected-(U1-A6|TX5|LRCLK1-Pad20)*%
X57217848Y-65959301D03*
%TO.P,U1,21,A7|RX5|BCLK1*%
%TO.N,unconnected-(U1-A7|RX5|BCLK1-Pad21)*%
X54677848Y-65959301D03*
%TO.P,U1,22,A8|CTX1|PWM*%
%TO.N,unconnected-(U1-A8|CTX1|PWM-Pad22)*%
X52137848Y-65959301D03*
%TO.P,U1,23,A9|CRX1|MCLK1|PWM*%
%TO.N,/Retention  Signal*%
X49597848Y-65959301D03*
%TO.P,U1,24,PWM|SCL2|TX6|A10*%
%TO.N,SCL2*%
X80077848Y-50719301D03*
%TO.P,U1,25,PWM|SDA2|RX6|A11*%
%TO.N,SDA2*%
X82617848Y-50719301D03*
%TO.P,U1,26,MOSI1|A12*%
%TO.N,unconnected-(U1-MOSI1|A12-Pad26)*%
X85157848Y-50719301D03*
%TO.P,U1,27,SCK1|A13*%
%TO.N,unconnected-(U1-SCK1|A13-Pad27)*%
X87697848Y-50719301D03*
%TO.P,U1,28,PWM|RX7*%
%TO.N,PixHawk Signal*%
X90237848Y-50719301D03*
%TO.P,U1,29,PWM|TX7*%
%TO.N,unconnected-(U1-PWM|TX7-Pad29)*%
X92777848Y-50719301D03*
%TO.P,U1,30,CRX3*%
%TO.N,G0*%
X95317848Y-50719301D03*
%TO.P,U1,31,CTX3*%
%TO.N,EN1*%
X97857848Y-50719301D03*
%TO.P,U1,32,OUT1B*%
%TO.N,unconnected-(U1-OUT1B-Pad32)*%
X100397848Y-50719301D03*
%TO.P,U1,33,MCLK2|PWM*%
%TO.N,unconnected-(U1-MCLK2|PWM-Pad33)*%
X100397848Y-65959301D03*
%TO.P,U1,34,RX8*%
%TO.N,unconnected-(U1-RX8-Pad34)*%
X97857848Y-65959301D03*
%TO.P,U1,35,TX8*%
%TO.N,unconnected-(U1-TX8-Pad35)*%
X95317848Y-65959301D03*
%TO.P,U1,36,CS|PWM*%
%TO.N,CS*%
X92777848Y-65959301D03*
%TO.P,U1,37,CS|PWM*%
%TO.N,unconnected-(U1-CS|PWM-Pad37)*%
X90237848Y-65959301D03*
%TO.P,U1,38,A14|CS1|IN1*%
%TO.N,unconnected-(U1-A14|CS1|IN1-Pad38)*%
X87697848Y-65959301D03*
%TO.P,U1,39,A15|MISO1|OUT1A*%
%TO.N,unconnected-(U1-A15|MISO1|OUT1A-Pad39)*%
X85157848Y-65959301D03*
%TO.P,U1,40,A16*%
%TO.N,unconnected-(U1-A16-Pad40)*%
X82617848Y-65959301D03*
%TO.P,U1,41,A17*%
%TO.N,RST2*%
X80077848Y-65959301D03*
%TO.P,U1,GND1,GND*%
%TO.N,GND - NMOS1*%
X41977848Y-50719301D03*
%TO.P,U1,GND2,GND*%
X77537848Y-65959301D03*
%TO.P,U1,GND3,GND*%
X44517848Y-65959301D03*
%TO.P,U1,Vin,Vin(3.6to5.5volts)*%
%TO.N,5V-Power Reg.*%
X41977848Y-65959301D03*
%TD*%
D25*
%TO.P,Q1,1*%
%TO.N,Net-(Q1-Pad1)*%
X72010000Y-32190000D03*
D23*
%TO.P,Q1,2*%
%TO.N,GND - NMOS1*%
X72010000Y-29650000D03*
%TO.P,Q1,3*%
%TO.N,GND*%
X72010000Y-27110000D03*
%TD*%
D26*
%TO.P,R1,1*%
%TO.N,Power Signal*%
X94911910Y-45420621D03*
%TO.P,R1,2*%
%TO.N,Net-(Q1-Pad1)*%
X94911910Y-42480621D03*
%TD*%
D27*
%TO.N,GND - NMOS1*%
X58082333Y-85317667D03*
%TO.N,Net-(Q1-Pad1)*%
X78690000Y-42242175D03*
X77980000Y-40750000D03*
%TO.N,Net-(Q2-Pad1)*%
X86340000Y-39140000D03*
X83500000Y-42350000D03*
%TO.N,PixHawk Signal*%
X88440000Y-47570000D03*
X88470000Y-45410000D03*
%TO.N,RX1*%
X38410000Y-38440000D03*
X36390000Y-40420000D03*
%TO.N,TX1*%
X80990000Y-37910000D03*
%TO.N,3.3V-Teensy*%
X61130000Y-57890000D03*
%TO.N,3.3V-Teensy1*%
X63690000Y-47605500D03*
X59002214Y-57857786D03*
%TO.N,MISO*%
X79714742Y-52104504D03*
X89070000Y-58470000D03*
%TO.N,SDA1*%
X48425998Y-70214002D03*
X58603707Y-70175940D03*
%TO.N,SCL1*%
X55420000Y-72005500D03*
X51820000Y-74080000D03*
%TO.N,SDA2*%
X73020000Y-47230000D03*
X66310000Y-41160000D03*
X58590000Y-33990000D03*
%TO.N,RST2*%
X68110000Y-39790000D03*
X80000000Y-57200000D03*
X80150000Y-60890000D03*
%TO.N,SCL3*%
X54100000Y-72010000D03*
%TD*%
D28*
%TO.N,5V-Power Reg.*%
X66240000Y-74840000D02*
X64648487Y-73248487D01*
X64648487Y-73248487D02*
X64648487Y-71024550D01*
X75110880Y-71074127D02*
X71345007Y-74840000D01*
X71345007Y-74840000D02*
X66240000Y-74840000D01*
X82865680Y-71074127D02*
X83252577Y-71461024D01*
X75110880Y-71074127D02*
X82865680Y-71074127D01*
%TO.N,GND - NMOS1*%
X49264518Y-77134565D02*
X57447620Y-85317667D01*
X57447620Y-85317667D02*
X58082333Y-85317667D01*
%TO.N,/Open Signal*%
X63425987Y-69704013D02*
X64880000Y-68250000D01*
X62148487Y-71024550D02*
X63425987Y-69747050D01*
X70167149Y-68250000D02*
X72457848Y-65959301D01*
X63425987Y-69747050D02*
X63425987Y-69704013D01*
X64880000Y-68250000D02*
X70167149Y-68250000D01*
%TO.N,Net-(Q1-Pad1)*%
X78690000Y-42242175D02*
X78905500Y-42457675D01*
X91507625Y-44172375D02*
X93199379Y-42480621D01*
X91507625Y-46306932D02*
X91507625Y-44172375D01*
X93199379Y-42480621D02*
X94911910Y-42480621D01*
X79959488Y-46329675D02*
X80449813Y-46820000D01*
X79959488Y-43667675D02*
X79959488Y-46329675D01*
X78905500Y-42457675D02*
X81169488Y-42457675D01*
X80449813Y-46820000D02*
X90994557Y-46820000D01*
X76074817Y-38844817D02*
X77980000Y-40750000D01*
X76074817Y-38619715D02*
X76074817Y-38844817D01*
X90994557Y-46820000D02*
X91507625Y-46306932D01*
X72010000Y-34554898D02*
X76074817Y-38619715D01*
X72010000Y-32190000D02*
X72010000Y-34554898D01*
X78690000Y-42398187D02*
X79959488Y-43667675D01*
X78690000Y-42242175D02*
X78690000Y-42398187D01*
%TO.N,GND*%
X80495628Y-36247727D02*
X80495628Y-36285039D01*
X87650000Y-45220000D02*
X87650000Y-45614028D01*
X83319675Y-45389675D02*
X81169488Y-45389675D01*
X86894028Y-46370000D02*
X84300000Y-46370000D01*
X72010000Y-27110000D02*
X72010000Y-27762099D01*
X84828264Y-40617675D02*
X86713579Y-40617675D01*
X80495628Y-36285039D02*
X84828264Y-40617675D01*
X86713579Y-40617675D02*
X87650000Y-41554096D01*
X86530424Y-45220000D02*
X86063966Y-45686458D01*
X72010000Y-27762099D02*
X80495628Y-36247727D01*
X84300000Y-46370000D02*
X83319675Y-45389675D01*
X87650000Y-45614028D02*
X86894028Y-46370000D01*
X87650000Y-45220000D02*
X86530424Y-45220000D01*
X87650000Y-41554096D02*
X87650000Y-45220000D01*
%TO.N,Net-(Q2-Pad1)*%
X82778565Y-35171576D02*
X86340000Y-38733011D01*
X83586260Y-42436260D02*
X83500000Y-42350000D01*
X72672150Y-25027850D02*
X82778565Y-35134264D01*
X90297625Y-41257625D02*
X90297625Y-42434932D01*
X70000000Y-24850000D02*
X72494300Y-24850000D01*
X82778565Y-35134264D02*
X82778565Y-35171576D01*
X66410000Y-21260000D02*
X70000000Y-24850000D01*
X72636974Y-24992673D02*
X72672150Y-25027850D01*
X72494300Y-24850000D02*
X72672150Y-25027850D01*
X33094386Y-35601866D02*
X36818134Y-35601866D01*
X85745768Y-42436260D02*
X83586260Y-42436260D01*
X87960000Y-40760000D02*
X89800000Y-40760000D01*
X86340000Y-39140000D02*
X87960000Y-40760000D01*
X51070000Y-21350000D02*
X51070000Y-21260000D01*
X86340000Y-38733011D02*
X86340000Y-39140000D01*
X36818134Y-35601866D02*
X51070000Y-21350000D01*
X89800000Y-40760000D02*
X90297625Y-41257625D01*
X51070000Y-21260000D02*
X66410000Y-21260000D01*
%TO.N,Power Signal*%
X94911910Y-45420621D02*
X94911910Y-46948090D01*
X38414424Y-58040000D02*
X37319294Y-59135130D01*
X94911910Y-46948090D02*
X91395348Y-50464652D01*
X91395348Y-51198754D02*
X89664102Y-52930000D01*
X89664102Y-52930000D02*
X44250767Y-52930000D01*
X44250767Y-52930000D02*
X39140767Y-58040000D01*
X91395348Y-50464652D02*
X91395348Y-51198754D01*
X39140767Y-58040000D02*
X38414424Y-58040000D01*
%TO.N,PixHawk Signal*%
X90237848Y-49367848D02*
X88440000Y-47570000D01*
X88470000Y-45410000D02*
X90254557Y-45410000D01*
X90237848Y-50719301D02*
X90237848Y-49367848D01*
X90254557Y-45410000D02*
X90297625Y-45366932D01*
%TO.N,RX1*%
X70435000Y-30987500D02*
X73518545Y-30987500D01*
X36390000Y-40420000D02*
X44517848Y-48547848D01*
X65054961Y-25607461D02*
X70435000Y-30987500D01*
X48923844Y-38440000D02*
X38410000Y-38440000D01*
X61756383Y-25607461D02*
X48923844Y-38440000D01*
X61756383Y-25607461D02*
X65054961Y-25607461D01*
X73518545Y-30987500D02*
X79426691Y-36895646D01*
X44517848Y-48547848D02*
X44517848Y-50719301D01*
%TO.N,TX1*%
X80445000Y-39461870D02*
X80445000Y-38455000D01*
X49447149Y-48330000D02*
X70300000Y-48330000D01*
X78263435Y-41643435D02*
X80445000Y-39461870D01*
X47057848Y-50719301D02*
X49447149Y-48330000D01*
X80445000Y-38455000D02*
X80990000Y-37910000D01*
X76986565Y-41643435D02*
X78263435Y-41643435D01*
X70300000Y-48330000D02*
X76986565Y-41643435D01*
%TO.N,3.3V-Teensy*%
X61380000Y-59680331D02*
X61380000Y-58140000D01*
X54344518Y-73279823D02*
X53340000Y-72275305D01*
X54168199Y-64801801D02*
X56258530Y-64801801D01*
X53340000Y-65630000D02*
X54168199Y-64801801D01*
X61380000Y-58140000D02*
X61130000Y-57890000D01*
X56258530Y-64801801D02*
X61380000Y-59680331D01*
X54344518Y-77134565D02*
X54344518Y-73279823D01*
X53340000Y-72275305D02*
X53340000Y-65630000D01*
%TO.N,3.3V-Teensy1*%
X73971818Y-38233572D02*
X72856428Y-38233572D01*
X47057848Y-65199710D02*
X47057848Y-65959301D01*
X63690000Y-47400000D02*
X63690000Y-47605500D01*
X74860817Y-39122571D02*
X73971818Y-38233572D01*
X59002214Y-57857786D02*
X54399772Y-57857786D01*
X72856428Y-38233572D02*
X63690000Y-47400000D01*
X54399772Y-57857786D02*
X47057848Y-65199710D01*
X74860817Y-39122571D02*
X74860817Y-39533992D01*
%TO.N,MISO*%
X87380000Y-80033601D02*
X87380000Y-67914102D01*
X83252577Y-84161024D02*
X87380000Y-80033601D01*
X89070000Y-66224102D02*
X89070000Y-58470000D01*
X87380000Y-67914102D02*
X89070000Y-66224102D01*
X79714742Y-52104504D02*
X76383051Y-52104504D01*
X76383051Y-52104504D02*
X74997848Y-50719301D01*
%TO.N,SDA1*%
X48425998Y-70353085D02*
X48425998Y-70214002D01*
X41644518Y-77134565D02*
X48425998Y-70353085D01*
X58603707Y-70175940D02*
X60621209Y-70175940D01*
X60621209Y-70175940D02*
X64837848Y-65959301D01*
%TO.N,SCL1*%
X67377848Y-65959301D02*
X65768547Y-64350000D01*
X58600348Y-64589652D02*
X58600348Y-68825152D01*
X58840000Y-64350000D02*
X58600348Y-64589652D01*
X65768547Y-64350000D02*
X58840000Y-64350000D01*
X58600348Y-68825152D02*
X55420000Y-72005500D01*
X49779083Y-74080000D02*
X46724518Y-77134565D01*
X51820000Y-74080000D02*
X49779083Y-74080000D01*
%TO.N,SDA2*%
X79168547Y-47270000D02*
X82617848Y-50719301D01*
X58590000Y-35029078D02*
X61756383Y-38195461D01*
X73020000Y-47230000D02*
X73060000Y-47270000D01*
X73060000Y-47270000D02*
X79168547Y-47270000D01*
X61756383Y-38195461D02*
X63345461Y-38195461D01*
X63345461Y-38195461D02*
X66310000Y-41160000D01*
X58590000Y-33990000D02*
X58590000Y-35029078D01*
%TO.N,G0*%
X95317848Y-50719301D02*
X86330000Y-59707149D01*
X86330000Y-59707149D02*
X86330000Y-76003601D01*
X86330000Y-76003601D02*
X83252577Y-79081024D01*
%TO.N,CS*%
X88120000Y-83590000D02*
X83252577Y-88457423D01*
X83252577Y-88457423D02*
X83252577Y-89241024D01*
X88120000Y-70617149D02*
X88120000Y-83590000D01*
X92777848Y-65959301D02*
X88120000Y-70617149D01*
%TO.N,RST2*%
X62259239Y-26821461D02*
X68110000Y-32672222D01*
X80000000Y-57200000D02*
X80150000Y-57350000D01*
X80150000Y-57350000D02*
X80150000Y-60890000D01*
X68110000Y-32672222D02*
X68110000Y-39790000D01*
%TO.N,3.3V-Trinket*%
X53131224Y-79341253D02*
X53130518Y-79341253D01*
X53130518Y-79341253D02*
X53130518Y-73893924D01*
X61159000Y-89914000D02*
X61159000Y-87369029D01*
X53130518Y-73893924D02*
X45675348Y-66438754D01*
X45675348Y-64951184D02*
X39859294Y-59135130D01*
X45675348Y-66438754D02*
X45675348Y-64951184D01*
X61159000Y-87369029D02*
X53131224Y-79341253D01*
%TO.N,SCL3*%
X54820000Y-72730000D02*
X54100000Y-72010000D01*
X68779000Y-89914000D02*
X68779000Y-83210591D01*
X68779000Y-83210591D02*
X58298409Y-72730000D01*
X58298409Y-72730000D02*
X54820000Y-72730000D01*
%TO.N,SDA3*%
X32239294Y-59135130D02*
X33318294Y-60214130D01*
X33318294Y-60214130D02*
X33318294Y-72171485D01*
X37778518Y-77538518D02*
X53550000Y-93310000D01*
X33318294Y-72171485D02*
X37778518Y-76631709D01*
X37778518Y-76631709D02*
X37778518Y-77538518D01*
X70463000Y-93310000D02*
X73859000Y-89914000D01*
X53550000Y-93310000D02*
X70463000Y-93310000D01*
%TO.N,unconnected-(U5-VRP-Pad3)*%
X59489875Y-46458660D02*
X59489875Y-43918660D01*
%TD*%
M02*
