%TF.GenerationSoftware,KiCad,Pcbnew,7.0.9*%
%TF.CreationDate,2024-01-17T22:54:14-05:00*%
%TF.ProjectId,payload24,7061796c-6f61-4643-9234-2e6b69636164,2*%
%TF.SameCoordinates,Original*%
%TF.FileFunction,Legend,Bot*%
%TF.FilePolarity,Positive*%
%FSLAX46Y46*%
G04 Gerber Fmt 4.6, Leading zero omitted, Abs format (unit mm)*
G04 Created by KiCad (PCBNEW 7.0.9) date 2024-01-17 22:54:14*
%MOMM*%
%LPD*%
G01*
G04 APERTURE LIST*
G04 Aperture macros list*
%AMRoundRect*
0 Rectangle with rounded corners*
0 $1 Rounding radius*
0 $2 $3 $4 $5 $6 $7 $8 $9 X,Y pos of 4 corners*
0 Add a 4 corners polygon primitive as box body*
4,1,4,$2,$3,$4,$5,$6,$7,$8,$9,$2,$3,0*
0 Add four circle primitives for the rounded corners*
1,1,$1+$1,$2,$3*
1,1,$1+$1,$4,$5*
1,1,$1+$1,$6,$7*
1,1,$1+$1,$8,$9*
0 Add four rect primitives between the rounded corners*
20,1,$1+$1,$2,$3,$4,$5,0*
20,1,$1+$1,$4,$5,$6,$7,0*
20,1,$1+$1,$6,$7,$8,$9,0*
20,1,$1+$1,$8,$9,$2,$3,0*%
G04 Aperture macros list end*
%ADD10C,0.150000*%
%ADD11C,0.100000*%
%ADD12C,0.098425*%
%ADD13C,0.152400*%
%ADD14C,0.223520*%
%ADD15C,0.254000*%
%ADD16C,0.250000*%
%ADD17C,0.127000*%
%ADD18C,0.200000*%
%ADD19C,1.879600*%
%ADD20C,3.101600*%
%ADD21C,1.905000*%
%ADD22RoundRect,0.875000X0.875000X-2.125000X0.875000X2.125000X-0.875000X2.125000X-0.875000X-2.125000X0*%
%ADD23C,6.204000*%
%ADD24RoundRect,0.102000X1.381269X4.011496X-4.011496X1.381269X-1.381269X-4.011496X4.011496X-1.381269X0*%
%ADD25RoundRect,0.102000X-0.754000X0.754000X-0.754000X-0.754000X0.754000X-0.754000X0.754000X0.754000X0*%
%ADD26C,1.712000*%
%ADD27C,2.032000*%
%ADD28RoundRect,0.102000X0.885000X-0.615000X0.885000X0.615000X-0.885000X0.615000X-0.885000X-0.615000X0*%
%ADD29C,1.300000*%
%ADD30RoundRect,0.102000X-3.152896X-2.838881X2.838881X-3.152896X3.152896X2.838881X-2.838881X3.152896X0*%
%ADD31RoundRect,0.102000X0.129717X-1.234174X1.234174X0.129717X-0.129717X1.234174X-1.234174X-0.129717X0*%
%ADD32C,1.959000*%
%ADD33C,1.665000*%
%ADD34RoundRect,0.102000X0.877500X-0.877500X0.877500X0.877500X-0.877500X0.877500X-0.877500X-0.877500X0*%
%ADD35RoundRect,0.102000X0.885000X-0.565000X0.885000X0.565000X-0.885000X0.565000X-0.885000X-0.565000X0*%
G04 APERTURE END LIST*
D10*
X79999638Y-46568585D02*
X81649638Y-46569739D01*
X82249637Y-46570159D02*
X82249637Y-46570159D01*
X82849637Y-46570578D02*
X82849637Y-46570578D01*
X83449637Y-46570998D02*
X85099637Y-46572152D01*
X85699637Y-46572571D02*
X85699637Y-46572571D01*
X86299636Y-46572991D02*
X86299636Y-46572991D01*
X86899636Y-46573411D02*
X88549636Y-46574565D01*
X89149636Y-46574984D02*
X89149636Y-46574984D01*
X89749636Y-46575404D02*
X89749636Y-46575404D01*
X90349635Y-46575824D02*
X91999635Y-46576977D01*
X92599635Y-46577397D02*
X92599635Y-46577397D01*
X93199635Y-46577817D02*
X93199635Y-46577817D01*
X93799635Y-46578236D02*
X95449634Y-46579390D01*
X96049634Y-46579810D02*
X96049634Y-46579810D01*
X80116762Y-38195473D02*
X81766762Y-38196627D01*
X82366761Y-38197047D02*
X82366761Y-38197047D01*
X82966761Y-38197466D02*
X82966761Y-38197466D01*
X83566761Y-38197886D02*
X85216761Y-38199040D01*
X85816761Y-38199459D02*
X85816761Y-38199459D01*
X86416760Y-38199879D02*
X86416760Y-38199879D01*
X87016760Y-38200299D02*
X88666760Y-38201453D01*
X89266760Y-38201872D02*
X89266760Y-38201872D01*
X89866760Y-38202292D02*
X89866760Y-38202292D01*
X90466759Y-38202712D02*
X92116759Y-38203865D01*
X92716759Y-38204285D02*
X92716759Y-38204285D01*
X93316759Y-38204705D02*
X93316759Y-38204705D01*
X93916759Y-38205124D02*
X95566758Y-38206278D01*
X96166758Y-38206698D02*
X96166758Y-38206698D01*
D11*
X54803169Y-19856859D02*
X54803169Y-19047336D01*
X54803169Y-19047336D02*
X54850788Y-18952098D01*
X54850788Y-18952098D02*
X54898407Y-18904479D01*
X54898407Y-18904479D02*
X54993645Y-18856859D01*
X54993645Y-18856859D02*
X55184121Y-18856859D01*
X55184121Y-18856859D02*
X55279359Y-18904479D01*
X55279359Y-18904479D02*
X55326978Y-18952098D01*
X55326978Y-18952098D02*
X55374597Y-19047336D01*
X55374597Y-19047336D02*
X55374597Y-19856859D01*
X56374597Y-18856859D02*
X55803169Y-18856859D01*
X56088883Y-18856859D02*
X56088883Y-19856859D01*
X56088883Y-19856859D02*
X55993645Y-19714002D01*
X55993645Y-19714002D02*
X55898407Y-19618764D01*
X55898407Y-19618764D02*
X55803169Y-19571145D01*
X57231740Y-19523526D02*
X57231740Y-18856859D01*
X56993645Y-19904479D02*
X56755550Y-19190193D01*
X56755550Y-19190193D02*
X57374597Y-19190193D01*
D12*
X87402782Y-44916643D02*
X87215306Y-44785409D01*
X87402782Y-44691671D02*
X87009081Y-44691671D01*
X87009081Y-44691671D02*
X87009081Y-44841652D01*
X87009081Y-44841652D02*
X87027829Y-44879148D01*
X87027829Y-44879148D02*
X87046577Y-44897895D01*
X87046577Y-44897895D02*
X87084072Y-44916643D01*
X87084072Y-44916643D02*
X87140315Y-44916643D01*
X87140315Y-44916643D02*
X87177810Y-44897895D01*
X87177810Y-44897895D02*
X87196558Y-44879148D01*
X87196558Y-44879148D02*
X87215306Y-44841652D01*
X87215306Y-44841652D02*
X87215306Y-44691671D01*
X87009081Y-45047877D02*
X87009081Y-45291596D01*
X87009081Y-45291596D02*
X87159063Y-45160363D01*
X87159063Y-45160363D02*
X87159063Y-45216606D01*
X87159063Y-45216606D02*
X87177810Y-45254101D01*
X87177810Y-45254101D02*
X87196558Y-45272849D01*
X87196558Y-45272849D02*
X87234053Y-45291596D01*
X87234053Y-45291596D02*
X87327792Y-45291596D01*
X87327792Y-45291596D02*
X87365287Y-45272849D01*
X87365287Y-45272849D02*
X87384035Y-45254101D01*
X87384035Y-45254101D02*
X87402782Y-45216606D01*
X87402782Y-45216606D02*
X87402782Y-45104120D01*
X87402782Y-45104120D02*
X87384035Y-45066624D01*
X87384035Y-45066624D02*
X87365287Y-45047877D01*
D11*
X85428107Y-40718518D02*
X85428107Y-41289946D01*
X85428107Y-41004232D02*
X86428107Y-41004232D01*
X86428107Y-41004232D02*
X86285250Y-41099470D01*
X86285250Y-41099470D02*
X86190012Y-41194708D01*
X86190012Y-41194708D02*
X86142393Y-41289946D01*
X86428107Y-40099470D02*
X86428107Y-40004232D01*
X86428107Y-40004232D02*
X86380488Y-39908994D01*
X86380488Y-39908994D02*
X86332869Y-39861375D01*
X86332869Y-39861375D02*
X86237631Y-39813756D01*
X86237631Y-39813756D02*
X86047155Y-39766137D01*
X86047155Y-39766137D02*
X85809060Y-39766137D01*
X85809060Y-39766137D02*
X85618584Y-39813756D01*
X85618584Y-39813756D02*
X85523346Y-39861375D01*
X85523346Y-39861375D02*
X85475727Y-39908994D01*
X85475727Y-39908994D02*
X85428107Y-40004232D01*
X85428107Y-40004232D02*
X85428107Y-40099470D01*
X85428107Y-40099470D02*
X85475727Y-40194708D01*
X85475727Y-40194708D02*
X85523346Y-40242327D01*
X85523346Y-40242327D02*
X85618584Y-40289946D01*
X85618584Y-40289946D02*
X85809060Y-40337565D01*
X85809060Y-40337565D02*
X86047155Y-40337565D01*
X86047155Y-40337565D02*
X86237631Y-40289946D01*
X86237631Y-40289946D02*
X86332869Y-40242327D01*
X86332869Y-40242327D02*
X86380488Y-40194708D01*
X86380488Y-40194708D02*
X86428107Y-40099470D01*
X85428107Y-39337565D02*
X86428107Y-39337565D01*
X85428107Y-38766137D02*
X85999536Y-39194708D01*
X86428107Y-38766137D02*
X85856679Y-39337565D01*
D13*
X58990694Y-81245966D02*
X58949570Y-81163719D01*
X58949570Y-81163719D02*
X58949570Y-81040347D01*
X58949570Y-81040347D02*
X58990694Y-80916976D01*
X58990694Y-80916976D02*
X59072942Y-80834728D01*
X59072942Y-80834728D02*
X59155189Y-80793605D01*
X59155189Y-80793605D02*
X59319685Y-80752481D01*
X59319685Y-80752481D02*
X59443056Y-80752481D01*
X59443056Y-80752481D02*
X59607551Y-80793605D01*
X59607551Y-80793605D02*
X59689799Y-80834728D01*
X59689799Y-80834728D02*
X59772047Y-80916976D01*
X59772047Y-80916976D02*
X59813170Y-81040347D01*
X59813170Y-81040347D02*
X59813170Y-81122595D01*
X59813170Y-81122595D02*
X59772047Y-81245966D01*
X59772047Y-81245966D02*
X59730923Y-81287090D01*
X59730923Y-81287090D02*
X59443056Y-81287090D01*
X59443056Y-81287090D02*
X59443056Y-81122595D01*
X58949570Y-82068443D02*
X58949570Y-81657205D01*
X58949570Y-81657205D02*
X59360808Y-81616081D01*
X59360808Y-81616081D02*
X59319685Y-81657205D01*
X59319685Y-81657205D02*
X59278561Y-81739452D01*
X59278561Y-81739452D02*
X59278561Y-81945071D01*
X59278561Y-81945071D02*
X59319685Y-82027319D01*
X59319685Y-82027319D02*
X59360808Y-82068443D01*
X59360808Y-82068443D02*
X59443056Y-82109566D01*
X59443056Y-82109566D02*
X59648675Y-82109566D01*
X59648675Y-82109566D02*
X59730923Y-82068443D01*
X59730923Y-82068443D02*
X59772047Y-82027319D01*
X59772047Y-82027319D02*
X59813170Y-81945071D01*
X59813170Y-81945071D02*
X59813170Y-81739452D01*
X59813170Y-81739452D02*
X59772047Y-81657205D01*
X59772047Y-81657205D02*
X59730923Y-81616081D01*
X58990694Y-78705966D02*
X58949570Y-78623719D01*
X58949570Y-78623719D02*
X58949570Y-78500347D01*
X58949570Y-78500347D02*
X58990694Y-78376976D01*
X58990694Y-78376976D02*
X59072942Y-78294728D01*
X59072942Y-78294728D02*
X59155189Y-78253605D01*
X59155189Y-78253605D02*
X59319685Y-78212481D01*
X59319685Y-78212481D02*
X59443056Y-78212481D01*
X59443056Y-78212481D02*
X59607551Y-78253605D01*
X59607551Y-78253605D02*
X59689799Y-78294728D01*
X59689799Y-78294728D02*
X59772047Y-78376976D01*
X59772047Y-78376976D02*
X59813170Y-78500347D01*
X59813170Y-78500347D02*
X59813170Y-78582595D01*
X59813170Y-78582595D02*
X59772047Y-78705966D01*
X59772047Y-78705966D02*
X59730923Y-78747090D01*
X59730923Y-78747090D02*
X59443056Y-78747090D01*
X59443056Y-78747090D02*
X59443056Y-78582595D01*
X59237437Y-79487319D02*
X59813170Y-79487319D01*
X58908447Y-79281700D02*
X59525304Y-79076081D01*
X59525304Y-79076081D02*
X59525304Y-79610690D01*
X58990695Y-76165966D02*
X58949571Y-76083719D01*
X58949571Y-76083719D02*
X58949571Y-75960347D01*
X58949571Y-75960347D02*
X58990695Y-75836976D01*
X58990695Y-75836976D02*
X59072943Y-75754728D01*
X59072943Y-75754728D02*
X59155190Y-75713605D01*
X59155190Y-75713605D02*
X59319686Y-75672481D01*
X59319686Y-75672481D02*
X59443057Y-75672481D01*
X59443057Y-75672481D02*
X59607552Y-75713605D01*
X59607552Y-75713605D02*
X59689800Y-75754728D01*
X59689800Y-75754728D02*
X59772048Y-75836976D01*
X59772048Y-75836976D02*
X59813171Y-75960347D01*
X59813171Y-75960347D02*
X59813171Y-76042595D01*
X59813171Y-76042595D02*
X59772048Y-76165966D01*
X59772048Y-76165966D02*
X59730924Y-76207090D01*
X59730924Y-76207090D02*
X59443057Y-76207090D01*
X59443057Y-76207090D02*
X59443057Y-76042595D01*
X58949571Y-76494957D02*
X58949571Y-77029566D01*
X58949571Y-77029566D02*
X59278562Y-76741700D01*
X59278562Y-76741700D02*
X59278562Y-76865071D01*
X59278562Y-76865071D02*
X59319686Y-76947319D01*
X59319686Y-76947319D02*
X59360809Y-76988443D01*
X59360809Y-76988443D02*
X59443057Y-77029566D01*
X59443057Y-77029566D02*
X59648676Y-77029566D01*
X59648676Y-77029566D02*
X59730924Y-76988443D01*
X59730924Y-76988443D02*
X59772048Y-76947319D01*
X59772048Y-76947319D02*
X59813171Y-76865071D01*
X59813171Y-76865071D02*
X59813171Y-76618328D01*
X59813171Y-76618328D02*
X59772048Y-76536081D01*
X59772048Y-76536081D02*
X59730924Y-76494957D01*
D14*
X77811178Y-93646275D02*
X78202338Y-93087475D01*
X78481738Y-93646275D02*
X78481738Y-92472795D01*
X78481738Y-92472795D02*
X78034698Y-92472795D01*
X78034698Y-92472795D02*
X77922938Y-92528675D01*
X77922938Y-92528675D02*
X77867058Y-92584555D01*
X77867058Y-92584555D02*
X77811178Y-92696315D01*
X77811178Y-92696315D02*
X77811178Y-92863955D01*
X77811178Y-92863955D02*
X77867058Y-92975715D01*
X77867058Y-92975715D02*
X77922938Y-93031595D01*
X77922938Y-93031595D02*
X78034698Y-93087475D01*
X78034698Y-93087475D02*
X78481738Y-93087475D01*
X76917098Y-93031595D02*
X77308258Y-93031595D01*
X77308258Y-93646275D02*
X77308258Y-92472795D01*
X77308258Y-92472795D02*
X76749458Y-92472795D01*
X76302418Y-93646275D02*
X76302418Y-92472795D01*
X76302418Y-92472795D02*
X75911258Y-93310995D01*
X75911258Y-93310995D02*
X75520098Y-92472795D01*
X75520098Y-92472795D02*
X75520098Y-93646275D01*
X74458378Y-92472795D02*
X74681898Y-92472795D01*
X74681898Y-92472795D02*
X74793658Y-92528675D01*
X74793658Y-92528675D02*
X74849538Y-92584555D01*
X74849538Y-92584555D02*
X74961298Y-92752195D01*
X74961298Y-92752195D02*
X75017178Y-92975715D01*
X75017178Y-92975715D02*
X75017178Y-93422755D01*
X75017178Y-93422755D02*
X74961298Y-93534515D01*
X74961298Y-93534515D02*
X74905418Y-93590395D01*
X74905418Y-93590395D02*
X74793658Y-93646275D01*
X74793658Y-93646275D02*
X74570138Y-93646275D01*
X74570138Y-93646275D02*
X74458378Y-93590395D01*
X74458378Y-93590395D02*
X74402498Y-93534515D01*
X74402498Y-93534515D02*
X74346618Y-93422755D01*
X74346618Y-93422755D02*
X74346618Y-93143355D01*
X74346618Y-93143355D02*
X74402498Y-93031595D01*
X74402498Y-93031595D02*
X74458378Y-92975715D01*
X74458378Y-92975715D02*
X74570138Y-92919835D01*
X74570138Y-92919835D02*
X74793658Y-92919835D01*
X74793658Y-92919835D02*
X74905418Y-92975715D01*
X74905418Y-92975715D02*
X74961298Y-93031595D01*
X74961298Y-93031595D02*
X75017178Y-93143355D01*
X73787818Y-93646275D02*
X73564298Y-93646275D01*
X73564298Y-93646275D02*
X73452538Y-93590395D01*
X73452538Y-93590395D02*
X73396658Y-93534515D01*
X73396658Y-93534515D02*
X73284898Y-93366875D01*
X73284898Y-93366875D02*
X73229018Y-93143355D01*
X73229018Y-93143355D02*
X73229018Y-92696315D01*
X73229018Y-92696315D02*
X73284898Y-92584555D01*
X73284898Y-92584555D02*
X73340778Y-92528675D01*
X73340778Y-92528675D02*
X73452538Y-92472795D01*
X73452538Y-92472795D02*
X73676058Y-92472795D01*
X73676058Y-92472795D02*
X73787818Y-92528675D01*
X73787818Y-92528675D02*
X73843698Y-92584555D01*
X73843698Y-92584555D02*
X73899578Y-92696315D01*
X73899578Y-92696315D02*
X73899578Y-92975715D01*
X73899578Y-92975715D02*
X73843698Y-93087475D01*
X73843698Y-93087475D02*
X73787818Y-93143355D01*
X73787818Y-93143355D02*
X73676058Y-93199235D01*
X73676058Y-93199235D02*
X73452538Y-93199235D01*
X73452538Y-93199235D02*
X73340778Y-93143355D01*
X73340778Y-93143355D02*
X73284898Y-93087475D01*
X73284898Y-93087475D02*
X73229018Y-92975715D01*
X72726098Y-93646275D02*
X72726098Y-92472795D01*
X72726098Y-93031595D02*
X72055538Y-93031595D01*
X72055538Y-93646275D02*
X72055538Y-92472795D01*
X70826178Y-93534515D02*
X70882058Y-93590395D01*
X70882058Y-93590395D02*
X71049698Y-93646275D01*
X71049698Y-93646275D02*
X71161458Y-93646275D01*
X71161458Y-93646275D02*
X71329098Y-93590395D01*
X71329098Y-93590395D02*
X71440858Y-93478635D01*
X71440858Y-93478635D02*
X71496738Y-93366875D01*
X71496738Y-93366875D02*
X71552618Y-93143355D01*
X71552618Y-93143355D02*
X71552618Y-92975715D01*
X71552618Y-92975715D02*
X71496738Y-92752195D01*
X71496738Y-92752195D02*
X71440858Y-92640435D01*
X71440858Y-92640435D02*
X71329098Y-92528675D01*
X71329098Y-92528675D02*
X71161458Y-92472795D01*
X71161458Y-92472795D02*
X71049698Y-92472795D01*
X71049698Y-92472795D02*
X70882058Y-92528675D01*
X70882058Y-92528675D02*
X70826178Y-92584555D01*
X70435018Y-92472795D02*
X70155618Y-93646275D01*
X70155618Y-93646275D02*
X69932098Y-92808075D01*
X69932098Y-92808075D02*
X69708578Y-93646275D01*
X69708578Y-93646275D02*
X69429178Y-92472795D01*
X67417498Y-93646275D02*
X67808658Y-93087475D01*
X68088058Y-93646275D02*
X68088058Y-92472795D01*
X68088058Y-92472795D02*
X67641018Y-92472795D01*
X67641018Y-92472795D02*
X67529258Y-92528675D01*
X67529258Y-92528675D02*
X67473378Y-92584555D01*
X67473378Y-92584555D02*
X67417498Y-92696315D01*
X67417498Y-92696315D02*
X67417498Y-92863955D01*
X67417498Y-92863955D02*
X67473378Y-92975715D01*
X67473378Y-92975715D02*
X67529258Y-93031595D01*
X67529258Y-93031595D02*
X67641018Y-93087475D01*
X67641018Y-93087475D02*
X68088058Y-93087475D01*
X66411658Y-93646275D02*
X66411658Y-93031595D01*
X66411658Y-93031595D02*
X66467538Y-92919835D01*
X66467538Y-92919835D02*
X66579298Y-92863955D01*
X66579298Y-92863955D02*
X66802818Y-92863955D01*
X66802818Y-92863955D02*
X66914578Y-92919835D01*
X66411658Y-93590395D02*
X66523418Y-93646275D01*
X66523418Y-93646275D02*
X66802818Y-93646275D01*
X66802818Y-93646275D02*
X66914578Y-93590395D01*
X66914578Y-93590395D02*
X66970458Y-93478635D01*
X66970458Y-93478635D02*
X66970458Y-93366875D01*
X66970458Y-93366875D02*
X66914578Y-93255115D01*
X66914578Y-93255115D02*
X66802818Y-93199235D01*
X66802818Y-93199235D02*
X66523418Y-93199235D01*
X66523418Y-93199235D02*
X66411658Y-93143355D01*
X65349938Y-93646275D02*
X65349938Y-92472795D01*
X65349938Y-93590395D02*
X65461698Y-93646275D01*
X65461698Y-93646275D02*
X65685218Y-93646275D01*
X65685218Y-93646275D02*
X65796978Y-93590395D01*
X65796978Y-93590395D02*
X65852858Y-93534515D01*
X65852858Y-93534515D02*
X65908738Y-93422755D01*
X65908738Y-93422755D02*
X65908738Y-93087475D01*
X65908738Y-93087475D02*
X65852858Y-92975715D01*
X65852858Y-92975715D02*
X65796978Y-92919835D01*
X65796978Y-92919835D02*
X65685218Y-92863955D01*
X65685218Y-92863955D02*
X65461698Y-92863955D01*
X65461698Y-92863955D02*
X65349938Y-92919835D01*
X64791138Y-93646275D02*
X64791138Y-92863955D01*
X64791138Y-92472795D02*
X64847018Y-92528675D01*
X64847018Y-92528675D02*
X64791138Y-92584555D01*
X64791138Y-92584555D02*
X64735258Y-92528675D01*
X64735258Y-92528675D02*
X64791138Y-92472795D01*
X64791138Y-92472795D02*
X64791138Y-92584555D01*
X64064698Y-93646275D02*
X64176458Y-93590395D01*
X64176458Y-93590395D02*
X64232338Y-93534515D01*
X64232338Y-93534515D02*
X64288218Y-93422755D01*
X64288218Y-93422755D02*
X64288218Y-93087475D01*
X64288218Y-93087475D02*
X64232338Y-92975715D01*
X64232338Y-92975715D02*
X64176458Y-92919835D01*
X64176458Y-92919835D02*
X64064698Y-92863955D01*
X64064698Y-92863955D02*
X63897058Y-92863955D01*
X63897058Y-92863955D02*
X63785298Y-92919835D01*
X63785298Y-92919835D02*
X63729418Y-92975715D01*
X63729418Y-92975715D02*
X63673538Y-93087475D01*
X63673538Y-93087475D02*
X63673538Y-93422755D01*
X63673538Y-93422755D02*
X63729418Y-93534515D01*
X63729418Y-93534515D02*
X63785298Y-93590395D01*
X63785298Y-93590395D02*
X63897058Y-93646275D01*
X63897058Y-93646275D02*
X64064698Y-93646275D01*
D13*
X85130923Y-89161090D02*
X85172047Y-89119966D01*
X85172047Y-89119966D02*
X85213170Y-88996595D01*
X85213170Y-88996595D02*
X85213170Y-88914347D01*
X85213170Y-88914347D02*
X85172047Y-88790976D01*
X85172047Y-88790976D02*
X85089799Y-88708728D01*
X85089799Y-88708728D02*
X85007551Y-88667605D01*
X85007551Y-88667605D02*
X84843056Y-88626481D01*
X84843056Y-88626481D02*
X84719685Y-88626481D01*
X84719685Y-88626481D02*
X84555189Y-88667605D01*
X84555189Y-88667605D02*
X84472942Y-88708728D01*
X84472942Y-88708728D02*
X84390694Y-88790976D01*
X84390694Y-88790976D02*
X84349570Y-88914347D01*
X84349570Y-88914347D02*
X84349570Y-88996595D01*
X84349570Y-88996595D02*
X84390694Y-89119966D01*
X84390694Y-89119966D02*
X84431818Y-89161090D01*
X85172047Y-89490081D02*
X85213170Y-89613452D01*
X85213170Y-89613452D02*
X85213170Y-89819071D01*
X85213170Y-89819071D02*
X85172047Y-89901319D01*
X85172047Y-89901319D02*
X85130923Y-89942443D01*
X85130923Y-89942443D02*
X85048675Y-89983566D01*
X85048675Y-89983566D02*
X84966427Y-89983566D01*
X84966427Y-89983566D02*
X84884180Y-89942443D01*
X84884180Y-89942443D02*
X84843056Y-89901319D01*
X84843056Y-89901319D02*
X84801932Y-89819071D01*
X84801932Y-89819071D02*
X84760808Y-89654576D01*
X84760808Y-89654576D02*
X84719685Y-89572328D01*
X84719685Y-89572328D02*
X84678561Y-89531205D01*
X84678561Y-89531205D02*
X84596313Y-89490081D01*
X84596313Y-89490081D02*
X84514066Y-89490081D01*
X84514066Y-89490081D02*
X84431818Y-89531205D01*
X84431818Y-89531205D02*
X84390694Y-89572328D01*
X84390694Y-89572328D02*
X84349570Y-89654576D01*
X84349570Y-89654576D02*
X84349570Y-89860195D01*
X84349570Y-89860195D02*
X84390694Y-89983566D01*
X81784170Y-85153939D02*
X80920570Y-85153939D01*
X80920570Y-85153939D02*
X81537427Y-85441805D01*
X81537427Y-85441805D02*
X80920570Y-85729672D01*
X80920570Y-85729672D02*
X81784170Y-85729672D01*
X80920570Y-86305405D02*
X80920570Y-86469900D01*
X80920570Y-86469900D02*
X80961694Y-86552148D01*
X80961694Y-86552148D02*
X81043942Y-86634395D01*
X81043942Y-86634395D02*
X81208437Y-86675519D01*
X81208437Y-86675519D02*
X81496304Y-86675519D01*
X81496304Y-86675519D02*
X81660799Y-86634395D01*
X81660799Y-86634395D02*
X81743047Y-86552148D01*
X81743047Y-86552148D02*
X81784170Y-86469900D01*
X81784170Y-86469900D02*
X81784170Y-86305405D01*
X81784170Y-86305405D02*
X81743047Y-86223157D01*
X81743047Y-86223157D02*
X81660799Y-86140910D01*
X81660799Y-86140910D02*
X81496304Y-86099786D01*
X81496304Y-86099786D02*
X81208437Y-86099786D01*
X81208437Y-86099786D02*
X81043942Y-86140910D01*
X81043942Y-86140910D02*
X80961694Y-86223157D01*
X80961694Y-86223157D02*
X80920570Y-86305405D01*
X81743047Y-87004510D02*
X81784170Y-87127881D01*
X81784170Y-87127881D02*
X81784170Y-87333500D01*
X81784170Y-87333500D02*
X81743047Y-87415748D01*
X81743047Y-87415748D02*
X81701923Y-87456872D01*
X81701923Y-87456872D02*
X81619675Y-87497995D01*
X81619675Y-87497995D02*
X81537427Y-87497995D01*
X81537427Y-87497995D02*
X81455180Y-87456872D01*
X81455180Y-87456872D02*
X81414056Y-87415748D01*
X81414056Y-87415748D02*
X81372932Y-87333500D01*
X81372932Y-87333500D02*
X81331808Y-87169005D01*
X81331808Y-87169005D02*
X81290685Y-87086757D01*
X81290685Y-87086757D02*
X81249561Y-87045634D01*
X81249561Y-87045634D02*
X81167313Y-87004510D01*
X81167313Y-87004510D02*
X81085066Y-87004510D01*
X81085066Y-87004510D02*
X81002818Y-87045634D01*
X81002818Y-87045634D02*
X80961694Y-87086757D01*
X80961694Y-87086757D02*
X80920570Y-87169005D01*
X80920570Y-87169005D02*
X80920570Y-87374624D01*
X80920570Y-87374624D02*
X80961694Y-87497995D01*
X81784170Y-87868110D02*
X80920570Y-87868110D01*
X81743047Y-80320681D02*
X81784170Y-80444052D01*
X81784170Y-80444052D02*
X81784170Y-80649671D01*
X81784170Y-80649671D02*
X81743047Y-80731919D01*
X81743047Y-80731919D02*
X81701923Y-80773043D01*
X81701923Y-80773043D02*
X81619675Y-80814166D01*
X81619675Y-80814166D02*
X81537427Y-80814166D01*
X81537427Y-80814166D02*
X81455180Y-80773043D01*
X81455180Y-80773043D02*
X81414056Y-80731919D01*
X81414056Y-80731919D02*
X81372932Y-80649671D01*
X81372932Y-80649671D02*
X81331808Y-80485176D01*
X81331808Y-80485176D02*
X81290685Y-80402928D01*
X81290685Y-80402928D02*
X81249561Y-80361805D01*
X81249561Y-80361805D02*
X81167313Y-80320681D01*
X81167313Y-80320681D02*
X81085066Y-80320681D01*
X81085066Y-80320681D02*
X81002818Y-80361805D01*
X81002818Y-80361805D02*
X80961694Y-80402928D01*
X80961694Y-80402928D02*
X80920570Y-80485176D01*
X80920570Y-80485176D02*
X80920570Y-80690795D01*
X80920570Y-80690795D02*
X80961694Y-80814166D01*
X81701923Y-81677766D02*
X81743047Y-81636642D01*
X81743047Y-81636642D02*
X81784170Y-81513271D01*
X81784170Y-81513271D02*
X81784170Y-81431023D01*
X81784170Y-81431023D02*
X81743047Y-81307652D01*
X81743047Y-81307652D02*
X81660799Y-81225404D01*
X81660799Y-81225404D02*
X81578551Y-81184281D01*
X81578551Y-81184281D02*
X81414056Y-81143157D01*
X81414056Y-81143157D02*
X81290685Y-81143157D01*
X81290685Y-81143157D02*
X81126189Y-81184281D01*
X81126189Y-81184281D02*
X81043942Y-81225404D01*
X81043942Y-81225404D02*
X80961694Y-81307652D01*
X80961694Y-81307652D02*
X80920570Y-81431023D01*
X80920570Y-81431023D02*
X80920570Y-81513271D01*
X80920570Y-81513271D02*
X80961694Y-81636642D01*
X80961694Y-81636642D02*
X81002818Y-81677766D01*
X81784170Y-82047881D02*
X80920570Y-82047881D01*
X81784170Y-82541366D02*
X81290685Y-82171252D01*
X80920570Y-82541366D02*
X81414056Y-82047881D01*
X58990694Y-73625966D02*
X58949570Y-73543719D01*
X58949570Y-73543719D02*
X58949570Y-73420347D01*
X58949570Y-73420347D02*
X58990694Y-73296976D01*
X58990694Y-73296976D02*
X59072942Y-73214728D01*
X59072942Y-73214728D02*
X59155189Y-73173605D01*
X59155189Y-73173605D02*
X59319685Y-73132481D01*
X59319685Y-73132481D02*
X59443056Y-73132481D01*
X59443056Y-73132481D02*
X59607551Y-73173605D01*
X59607551Y-73173605D02*
X59689799Y-73214728D01*
X59689799Y-73214728D02*
X59772047Y-73296976D01*
X59772047Y-73296976D02*
X59813170Y-73420347D01*
X59813170Y-73420347D02*
X59813170Y-73502595D01*
X59813170Y-73502595D02*
X59772047Y-73625966D01*
X59772047Y-73625966D02*
X59730923Y-73667090D01*
X59730923Y-73667090D02*
X59443056Y-73667090D01*
X59443056Y-73667090D02*
X59443056Y-73502595D01*
X59031818Y-73996081D02*
X58990694Y-74037205D01*
X58990694Y-74037205D02*
X58949570Y-74119452D01*
X58949570Y-74119452D02*
X58949570Y-74325071D01*
X58949570Y-74325071D02*
X58990694Y-74407319D01*
X58990694Y-74407319D02*
X59031818Y-74448443D01*
X59031818Y-74448443D02*
X59114066Y-74489566D01*
X59114066Y-74489566D02*
X59196313Y-74489566D01*
X59196313Y-74489566D02*
X59319685Y-74448443D01*
X59319685Y-74448443D02*
X59813170Y-73954957D01*
X59813170Y-73954957D02*
X59813170Y-74489566D01*
X84390694Y-78832966D02*
X84349570Y-78750719D01*
X84349570Y-78750719D02*
X84349570Y-78627347D01*
X84349570Y-78627347D02*
X84390694Y-78503976D01*
X84390694Y-78503976D02*
X84472942Y-78421728D01*
X84472942Y-78421728D02*
X84555189Y-78380605D01*
X84555189Y-78380605D02*
X84719685Y-78339481D01*
X84719685Y-78339481D02*
X84843056Y-78339481D01*
X84843056Y-78339481D02*
X85007551Y-78380605D01*
X85007551Y-78380605D02*
X85089799Y-78421728D01*
X85089799Y-78421728D02*
X85172047Y-78503976D01*
X85172047Y-78503976D02*
X85213170Y-78627347D01*
X85213170Y-78627347D02*
X85213170Y-78709595D01*
X85213170Y-78709595D02*
X85172047Y-78832966D01*
X85172047Y-78832966D02*
X85130923Y-78874090D01*
X85130923Y-78874090D02*
X84843056Y-78874090D01*
X84843056Y-78874090D02*
X84843056Y-78709595D01*
X84349570Y-79408700D02*
X84349570Y-79490947D01*
X84349570Y-79490947D02*
X84390694Y-79573195D01*
X84390694Y-79573195D02*
X84431818Y-79614319D01*
X84431818Y-79614319D02*
X84514066Y-79655443D01*
X84514066Y-79655443D02*
X84678561Y-79696566D01*
X84678561Y-79696566D02*
X84884180Y-79696566D01*
X84884180Y-79696566D02*
X85048675Y-79655443D01*
X85048675Y-79655443D02*
X85130923Y-79614319D01*
X85130923Y-79614319D02*
X85172047Y-79573195D01*
X85172047Y-79573195D02*
X85213170Y-79490947D01*
X85213170Y-79490947D02*
X85213170Y-79408700D01*
X85213170Y-79408700D02*
X85172047Y-79326452D01*
X85172047Y-79326452D02*
X85130923Y-79285328D01*
X85130923Y-79285328D02*
X85048675Y-79244205D01*
X85048675Y-79244205D02*
X84884180Y-79203081D01*
X84884180Y-79203081D02*
X84678561Y-79203081D01*
X84678561Y-79203081D02*
X84514066Y-79244205D01*
X84514066Y-79244205D02*
X84431818Y-79285328D01*
X84431818Y-79285328D02*
X84390694Y-79326452D01*
X84390694Y-79326452D02*
X84349570Y-79408700D01*
X81784170Y-91118100D02*
X81372932Y-90830234D01*
X81784170Y-90624615D02*
X80920570Y-90624615D01*
X80920570Y-90624615D02*
X80920570Y-90953605D01*
X80920570Y-90953605D02*
X80961694Y-91035853D01*
X80961694Y-91035853D02*
X81002818Y-91076976D01*
X81002818Y-91076976D02*
X81085066Y-91118100D01*
X81085066Y-91118100D02*
X81208437Y-91118100D01*
X81208437Y-91118100D02*
X81290685Y-91076976D01*
X81290685Y-91076976D02*
X81331808Y-91035853D01*
X81331808Y-91035853D02*
X81372932Y-90953605D01*
X81372932Y-90953605D02*
X81372932Y-90624615D01*
X81743047Y-91447091D02*
X81784170Y-91570462D01*
X81784170Y-91570462D02*
X81784170Y-91776081D01*
X81784170Y-91776081D02*
X81743047Y-91858329D01*
X81743047Y-91858329D02*
X81701923Y-91899453D01*
X81701923Y-91899453D02*
X81619675Y-91940576D01*
X81619675Y-91940576D02*
X81537427Y-91940576D01*
X81537427Y-91940576D02*
X81455180Y-91899453D01*
X81455180Y-91899453D02*
X81414056Y-91858329D01*
X81414056Y-91858329D02*
X81372932Y-91776081D01*
X81372932Y-91776081D02*
X81331808Y-91611586D01*
X81331808Y-91611586D02*
X81290685Y-91529338D01*
X81290685Y-91529338D02*
X81249561Y-91488215D01*
X81249561Y-91488215D02*
X81167313Y-91447091D01*
X81167313Y-91447091D02*
X81085066Y-91447091D01*
X81085066Y-91447091D02*
X81002818Y-91488215D01*
X81002818Y-91488215D02*
X80961694Y-91529338D01*
X80961694Y-91529338D02*
X80920570Y-91611586D01*
X80920570Y-91611586D02*
X80920570Y-91817205D01*
X80920570Y-91817205D02*
X80961694Y-91940576D01*
X80920570Y-92187319D02*
X80920570Y-92680805D01*
X81784170Y-92434062D02*
X80920570Y-92434062D01*
X84390693Y-73280042D02*
X84349569Y-73197795D01*
X84349569Y-73197795D02*
X84349569Y-73074423D01*
X84349569Y-73074423D02*
X84390693Y-72951052D01*
X84390693Y-72951052D02*
X84472941Y-72868804D01*
X84472941Y-72868804D02*
X84555188Y-72827681D01*
X84555188Y-72827681D02*
X84719684Y-72786557D01*
X84719684Y-72786557D02*
X84843055Y-72786557D01*
X84843055Y-72786557D02*
X85007550Y-72827681D01*
X85007550Y-72827681D02*
X85089798Y-72868804D01*
X85089798Y-72868804D02*
X85172046Y-72951052D01*
X85172046Y-72951052D02*
X85213169Y-73074423D01*
X85213169Y-73074423D02*
X85213169Y-73156671D01*
X85213169Y-73156671D02*
X85172046Y-73280042D01*
X85172046Y-73280042D02*
X85130922Y-73321166D01*
X85130922Y-73321166D02*
X84843055Y-73321166D01*
X84843055Y-73321166D02*
X84843055Y-73156671D01*
X85213169Y-73691281D02*
X84349569Y-73691281D01*
X84349569Y-73691281D02*
X85213169Y-74184766D01*
X85213169Y-74184766D02*
X84349569Y-74184766D01*
X85213169Y-74596005D02*
X84349569Y-74596005D01*
X84349569Y-74596005D02*
X84349569Y-74801624D01*
X84349569Y-74801624D02*
X84390693Y-74924995D01*
X84390693Y-74924995D02*
X84472941Y-75007243D01*
X84472941Y-75007243D02*
X84555188Y-75048366D01*
X84555188Y-75048366D02*
X84719684Y-75089490D01*
X84719684Y-75089490D02*
X84843055Y-75089490D01*
X84843055Y-75089490D02*
X85007550Y-75048366D01*
X85007550Y-75048366D02*
X85089798Y-75007243D01*
X85089798Y-75007243D02*
X85172046Y-74924995D01*
X85172046Y-74924995D02*
X85213169Y-74801624D01*
X85213169Y-74801624D02*
X85213169Y-74596005D01*
X58990694Y-71085966D02*
X58949570Y-71003719D01*
X58949570Y-71003719D02*
X58949570Y-70880347D01*
X58949570Y-70880347D02*
X58990694Y-70756976D01*
X58990694Y-70756976D02*
X59072942Y-70674728D01*
X59072942Y-70674728D02*
X59155189Y-70633605D01*
X59155189Y-70633605D02*
X59319685Y-70592481D01*
X59319685Y-70592481D02*
X59443056Y-70592481D01*
X59443056Y-70592481D02*
X59607551Y-70633605D01*
X59607551Y-70633605D02*
X59689799Y-70674728D01*
X59689799Y-70674728D02*
X59772047Y-70756976D01*
X59772047Y-70756976D02*
X59813170Y-70880347D01*
X59813170Y-70880347D02*
X59813170Y-70962595D01*
X59813170Y-70962595D02*
X59772047Y-71085966D01*
X59772047Y-71085966D02*
X59730923Y-71127090D01*
X59730923Y-71127090D02*
X59443056Y-71127090D01*
X59443056Y-71127090D02*
X59443056Y-70962595D01*
X59813170Y-71949566D02*
X59813170Y-71456081D01*
X59813170Y-71702824D02*
X58949570Y-71702824D01*
X58949570Y-71702824D02*
X59072942Y-71620576D01*
X59072942Y-71620576D02*
X59155189Y-71538328D01*
X59155189Y-71538328D02*
X59196313Y-71456081D01*
X80920570Y-70325176D02*
X81784170Y-70613043D01*
X81784170Y-70613043D02*
X80920570Y-70900909D01*
X81784170Y-71188777D02*
X80920570Y-71188777D01*
X81784170Y-71600015D02*
X80920570Y-71600015D01*
X80920570Y-71600015D02*
X81784170Y-72093500D01*
X81784170Y-72093500D02*
X80920570Y-72093500D01*
X81331808Y-75840605D02*
X81331808Y-76128471D01*
X81784170Y-76251843D02*
X81784170Y-75840605D01*
X81784170Y-75840605D02*
X80920570Y-75840605D01*
X80920570Y-75840605D02*
X80920570Y-76251843D01*
X81784170Y-76621957D02*
X80920570Y-76621957D01*
X80920570Y-76621957D02*
X81784170Y-77115442D01*
X81784170Y-77115442D02*
X80920570Y-77115442D01*
X85213170Y-82867940D02*
X84349570Y-82867940D01*
X84349570Y-82867940D02*
X84966427Y-83155806D01*
X84966427Y-83155806D02*
X84349570Y-83443673D01*
X84349570Y-83443673D02*
X85213170Y-83443673D01*
X85213170Y-83854911D02*
X84349570Y-83854911D01*
X85172047Y-84225025D02*
X85213170Y-84348396D01*
X85213170Y-84348396D02*
X85213170Y-84554015D01*
X85213170Y-84554015D02*
X85172047Y-84636263D01*
X85172047Y-84636263D02*
X85130923Y-84677387D01*
X85130923Y-84677387D02*
X85048675Y-84718510D01*
X85048675Y-84718510D02*
X84966427Y-84718510D01*
X84966427Y-84718510D02*
X84884180Y-84677387D01*
X84884180Y-84677387D02*
X84843056Y-84636263D01*
X84843056Y-84636263D02*
X84801932Y-84554015D01*
X84801932Y-84554015D02*
X84760808Y-84389520D01*
X84760808Y-84389520D02*
X84719685Y-84307272D01*
X84719685Y-84307272D02*
X84678561Y-84266149D01*
X84678561Y-84266149D02*
X84596313Y-84225025D01*
X84596313Y-84225025D02*
X84514066Y-84225025D01*
X84514066Y-84225025D02*
X84431818Y-84266149D01*
X84431818Y-84266149D02*
X84390694Y-84307272D01*
X84390694Y-84307272D02*
X84349570Y-84389520D01*
X84349570Y-84389520D02*
X84349570Y-84595139D01*
X84349570Y-84595139D02*
X84390694Y-84718510D01*
X84349570Y-85253120D02*
X84349570Y-85417615D01*
X84349570Y-85417615D02*
X84390694Y-85499863D01*
X84390694Y-85499863D02*
X84472942Y-85582110D01*
X84472942Y-85582110D02*
X84637437Y-85623234D01*
X84637437Y-85623234D02*
X84925304Y-85623234D01*
X84925304Y-85623234D02*
X85089799Y-85582110D01*
X85089799Y-85582110D02*
X85172047Y-85499863D01*
X85172047Y-85499863D02*
X85213170Y-85417615D01*
X85213170Y-85417615D02*
X85213170Y-85253120D01*
X85213170Y-85253120D02*
X85172047Y-85170872D01*
X85172047Y-85170872D02*
X85089799Y-85088625D01*
X85089799Y-85088625D02*
X84925304Y-85047501D01*
X84925304Y-85047501D02*
X84637437Y-85047501D01*
X84637437Y-85047501D02*
X84472942Y-85088625D01*
X84472942Y-85088625D02*
X84390694Y-85170872D01*
X84390694Y-85170872D02*
X84349570Y-85253120D01*
D11*
X60455990Y-29821079D02*
X60455990Y-28821079D01*
X60455990Y-28821079D02*
X60075038Y-28821079D01*
X60075038Y-28821079D02*
X59979800Y-28868698D01*
X59979800Y-28868698D02*
X59932181Y-28916317D01*
X59932181Y-28916317D02*
X59884562Y-29011555D01*
X59884562Y-29011555D02*
X59884562Y-29154412D01*
X59884562Y-29154412D02*
X59932181Y-29249650D01*
X59932181Y-29249650D02*
X59979800Y-29297269D01*
X59979800Y-29297269D02*
X60075038Y-29344888D01*
X60075038Y-29344888D02*
X60455990Y-29344888D01*
X59313133Y-29821079D02*
X59408371Y-29773460D01*
X59408371Y-29773460D02*
X59455990Y-29725840D01*
X59455990Y-29725840D02*
X59503609Y-29630602D01*
X59503609Y-29630602D02*
X59503609Y-29344888D01*
X59503609Y-29344888D02*
X59455990Y-29249650D01*
X59455990Y-29249650D02*
X59408371Y-29202031D01*
X59408371Y-29202031D02*
X59313133Y-29154412D01*
X59313133Y-29154412D02*
X59170276Y-29154412D01*
X59170276Y-29154412D02*
X59075038Y-29202031D01*
X59075038Y-29202031D02*
X59027419Y-29249650D01*
X59027419Y-29249650D02*
X58979800Y-29344888D01*
X58979800Y-29344888D02*
X58979800Y-29630602D01*
X58979800Y-29630602D02*
X59027419Y-29725840D01*
X59027419Y-29725840D02*
X59075038Y-29773460D01*
X59075038Y-29773460D02*
X59170276Y-29821079D01*
X59170276Y-29821079D02*
X59313133Y-29821079D01*
X58646466Y-29154412D02*
X58455990Y-29821079D01*
X58455990Y-29821079D02*
X58265514Y-29344888D01*
X58265514Y-29344888D02*
X58075038Y-29821079D01*
X58075038Y-29821079D02*
X57884562Y-29154412D01*
X57122657Y-29773460D02*
X57217895Y-29821079D01*
X57217895Y-29821079D02*
X57408371Y-29821079D01*
X57408371Y-29821079D02*
X57503609Y-29773460D01*
X57503609Y-29773460D02*
X57551228Y-29678221D01*
X57551228Y-29678221D02*
X57551228Y-29297269D01*
X57551228Y-29297269D02*
X57503609Y-29202031D01*
X57503609Y-29202031D02*
X57408371Y-29154412D01*
X57408371Y-29154412D02*
X57217895Y-29154412D01*
X57217895Y-29154412D02*
X57122657Y-29202031D01*
X57122657Y-29202031D02*
X57075038Y-29297269D01*
X57075038Y-29297269D02*
X57075038Y-29392507D01*
X57075038Y-29392507D02*
X57551228Y-29487745D01*
X56646466Y-29821079D02*
X56646466Y-29154412D01*
X56646466Y-29344888D02*
X56598847Y-29249650D01*
X56598847Y-29249650D02*
X56551228Y-29202031D01*
X56551228Y-29202031D02*
X56455990Y-29154412D01*
X56455990Y-29154412D02*
X56360752Y-29154412D01*
X54694085Y-29821079D02*
X55027418Y-29344888D01*
X55265513Y-29821079D02*
X55265513Y-28821079D01*
X55265513Y-28821079D02*
X54884561Y-28821079D01*
X54884561Y-28821079D02*
X54789323Y-28868698D01*
X54789323Y-28868698D02*
X54741704Y-28916317D01*
X54741704Y-28916317D02*
X54694085Y-29011555D01*
X54694085Y-29011555D02*
X54694085Y-29154412D01*
X54694085Y-29154412D02*
X54741704Y-29249650D01*
X54741704Y-29249650D02*
X54789323Y-29297269D01*
X54789323Y-29297269D02*
X54884561Y-29344888D01*
X54884561Y-29344888D02*
X55265513Y-29344888D01*
X53884561Y-29773460D02*
X53979799Y-29821079D01*
X53979799Y-29821079D02*
X54170275Y-29821079D01*
X54170275Y-29821079D02*
X54265513Y-29773460D01*
X54265513Y-29773460D02*
X54313132Y-29678221D01*
X54313132Y-29678221D02*
X54313132Y-29297269D01*
X54313132Y-29297269D02*
X54265513Y-29202031D01*
X54265513Y-29202031D02*
X54170275Y-29154412D01*
X54170275Y-29154412D02*
X53979799Y-29154412D01*
X53979799Y-29154412D02*
X53884561Y-29202031D01*
X53884561Y-29202031D02*
X53836942Y-29297269D01*
X53836942Y-29297269D02*
X53836942Y-29392507D01*
X53836942Y-29392507D02*
X54313132Y-29487745D01*
X52979799Y-29154412D02*
X52979799Y-29963936D01*
X52979799Y-29963936D02*
X53027418Y-30059174D01*
X53027418Y-30059174D02*
X53075037Y-30106793D01*
X53075037Y-30106793D02*
X53170275Y-30154412D01*
X53170275Y-30154412D02*
X53313132Y-30154412D01*
X53313132Y-30154412D02*
X53408370Y-30106793D01*
X52979799Y-29773460D02*
X53075037Y-29821079D01*
X53075037Y-29821079D02*
X53265513Y-29821079D01*
X53265513Y-29821079D02*
X53360751Y-29773460D01*
X53360751Y-29773460D02*
X53408370Y-29725840D01*
X53408370Y-29725840D02*
X53455989Y-29630602D01*
X53455989Y-29630602D02*
X53455989Y-29344888D01*
X53455989Y-29344888D02*
X53408370Y-29249650D01*
X53408370Y-29249650D02*
X53360751Y-29202031D01*
X53360751Y-29202031D02*
X53265513Y-29154412D01*
X53265513Y-29154412D02*
X53075037Y-29154412D01*
X53075037Y-29154412D02*
X52979799Y-29202031D01*
X52075037Y-29154412D02*
X52075037Y-29821079D01*
X52503608Y-29154412D02*
X52503608Y-29678221D01*
X52503608Y-29678221D02*
X52455989Y-29773460D01*
X52455989Y-29773460D02*
X52360751Y-29821079D01*
X52360751Y-29821079D02*
X52217894Y-29821079D01*
X52217894Y-29821079D02*
X52122656Y-29773460D01*
X52122656Y-29773460D02*
X52075037Y-29725840D01*
X51455989Y-29821079D02*
X51551227Y-29773460D01*
X51551227Y-29773460D02*
X51598846Y-29678221D01*
X51598846Y-29678221D02*
X51598846Y-28821079D01*
X50646465Y-29821079D02*
X50646465Y-29297269D01*
X50646465Y-29297269D02*
X50694084Y-29202031D01*
X50694084Y-29202031D02*
X50789322Y-29154412D01*
X50789322Y-29154412D02*
X50979798Y-29154412D01*
X50979798Y-29154412D02*
X51075036Y-29202031D01*
X50646465Y-29773460D02*
X50741703Y-29821079D01*
X50741703Y-29821079D02*
X50979798Y-29821079D01*
X50979798Y-29821079D02*
X51075036Y-29773460D01*
X51075036Y-29773460D02*
X51122655Y-29678221D01*
X51122655Y-29678221D02*
X51122655Y-29582983D01*
X51122655Y-29582983D02*
X51075036Y-29487745D01*
X51075036Y-29487745D02*
X50979798Y-29440126D01*
X50979798Y-29440126D02*
X50741703Y-29440126D01*
X50741703Y-29440126D02*
X50646465Y-29392507D01*
X50313131Y-29154412D02*
X49932179Y-29154412D01*
X50170274Y-28821079D02*
X50170274Y-29678221D01*
X50170274Y-29678221D02*
X50122655Y-29773460D01*
X50122655Y-29773460D02*
X50027417Y-29821079D01*
X50027417Y-29821079D02*
X49932179Y-29821079D01*
X49455988Y-29821079D02*
X49551226Y-29773460D01*
X49551226Y-29773460D02*
X49598845Y-29725840D01*
X49598845Y-29725840D02*
X49646464Y-29630602D01*
X49646464Y-29630602D02*
X49646464Y-29344888D01*
X49646464Y-29344888D02*
X49598845Y-29249650D01*
X49598845Y-29249650D02*
X49551226Y-29202031D01*
X49551226Y-29202031D02*
X49455988Y-29154412D01*
X49455988Y-29154412D02*
X49313131Y-29154412D01*
X49313131Y-29154412D02*
X49217893Y-29202031D01*
X49217893Y-29202031D02*
X49170274Y-29249650D01*
X49170274Y-29249650D02*
X49122655Y-29344888D01*
X49122655Y-29344888D02*
X49122655Y-29630602D01*
X49122655Y-29630602D02*
X49170274Y-29725840D01*
X49170274Y-29725840D02*
X49217893Y-29773460D01*
X49217893Y-29773460D02*
X49313131Y-29821079D01*
X49313131Y-29821079D02*
X49455988Y-29821079D01*
X48694083Y-29821079D02*
X48694083Y-29154412D01*
X48694083Y-29344888D02*
X48646464Y-29249650D01*
X48646464Y-29249650D02*
X48598845Y-29202031D01*
X48598845Y-29202031D02*
X48503607Y-29154412D01*
X48503607Y-29154412D02*
X48408369Y-29154412D01*
D12*
X82826502Y-44938058D02*
X82639026Y-44806824D01*
X82826502Y-44713086D02*
X82432801Y-44713086D01*
X82432801Y-44713086D02*
X82432801Y-44863067D01*
X82432801Y-44863067D02*
X82451549Y-44900563D01*
X82451549Y-44900563D02*
X82470297Y-44919310D01*
X82470297Y-44919310D02*
X82507792Y-44938058D01*
X82507792Y-44938058D02*
X82564035Y-44938058D01*
X82564035Y-44938058D02*
X82601530Y-44919310D01*
X82601530Y-44919310D02*
X82620278Y-44900563D01*
X82620278Y-44900563D02*
X82639026Y-44863067D01*
X82639026Y-44863067D02*
X82639026Y-44713086D01*
X82564035Y-45275516D02*
X82826502Y-45275516D01*
X82414054Y-45181778D02*
X82695269Y-45088039D01*
X82695269Y-45088039D02*
X82695269Y-45331759D01*
D11*
X80790060Y-40705512D02*
X80790060Y-41276940D01*
X80790060Y-40991226D02*
X81790060Y-40991226D01*
X81790060Y-40991226D02*
X81647203Y-41086464D01*
X81647203Y-41086464D02*
X81551965Y-41181702D01*
X81551965Y-41181702D02*
X81504346Y-41276940D01*
X81790060Y-40086464D02*
X81790060Y-39991226D01*
X81790060Y-39991226D02*
X81742441Y-39895988D01*
X81742441Y-39895988D02*
X81694822Y-39848369D01*
X81694822Y-39848369D02*
X81599584Y-39800750D01*
X81599584Y-39800750D02*
X81409108Y-39753131D01*
X81409108Y-39753131D02*
X81171013Y-39753131D01*
X81171013Y-39753131D02*
X80980537Y-39800750D01*
X80980537Y-39800750D02*
X80885299Y-39848369D01*
X80885299Y-39848369D02*
X80837680Y-39895988D01*
X80837680Y-39895988D02*
X80790060Y-39991226D01*
X80790060Y-39991226D02*
X80790060Y-40086464D01*
X80790060Y-40086464D02*
X80837680Y-40181702D01*
X80837680Y-40181702D02*
X80885299Y-40229321D01*
X80885299Y-40229321D02*
X80980537Y-40276940D01*
X80980537Y-40276940D02*
X81171013Y-40324559D01*
X81171013Y-40324559D02*
X81409108Y-40324559D01*
X81409108Y-40324559D02*
X81599584Y-40276940D01*
X81599584Y-40276940D02*
X81694822Y-40229321D01*
X81694822Y-40229321D02*
X81742441Y-40181702D01*
X81742441Y-40181702D02*
X81790060Y-40086464D01*
X80790060Y-39324559D02*
X81790060Y-39324559D01*
X80790060Y-38753131D02*
X81361489Y-39181702D01*
X81790060Y-38753131D02*
X81218632Y-39324559D01*
D12*
X91954639Y-44915315D02*
X91767163Y-44784081D01*
X91954639Y-44690343D02*
X91560938Y-44690343D01*
X91560938Y-44690343D02*
X91560938Y-44840324D01*
X91560938Y-44840324D02*
X91579686Y-44877820D01*
X91579686Y-44877820D02*
X91598434Y-44896567D01*
X91598434Y-44896567D02*
X91635929Y-44915315D01*
X91635929Y-44915315D02*
X91692172Y-44915315D01*
X91692172Y-44915315D02*
X91729667Y-44896567D01*
X91729667Y-44896567D02*
X91748415Y-44877820D01*
X91748415Y-44877820D02*
X91767163Y-44840324D01*
X91767163Y-44840324D02*
X91767163Y-44690343D01*
X91598434Y-45065296D02*
X91579686Y-45084044D01*
X91579686Y-45084044D02*
X91560938Y-45121539D01*
X91560938Y-45121539D02*
X91560938Y-45215278D01*
X91560938Y-45215278D02*
X91579686Y-45252773D01*
X91579686Y-45252773D02*
X91598434Y-45271521D01*
X91598434Y-45271521D02*
X91635929Y-45290268D01*
X91635929Y-45290268D02*
X91673424Y-45290268D01*
X91673424Y-45290268D02*
X91729667Y-45271521D01*
X91729667Y-45271521D02*
X91954639Y-45046549D01*
X91954639Y-45046549D02*
X91954639Y-45290268D01*
D11*
X89838009Y-40653456D02*
X89838009Y-41224884D01*
X89838009Y-40939170D02*
X90838009Y-40939170D01*
X90838009Y-40939170D02*
X90695152Y-41034408D01*
X90695152Y-41034408D02*
X90599914Y-41129646D01*
X90599914Y-41129646D02*
X90552295Y-41224884D01*
X89838009Y-40224884D02*
X90838009Y-40224884D01*
X89838009Y-39653456D02*
X90409438Y-40082027D01*
X90838009Y-39653456D02*
X90266581Y-40224884D01*
D10*
X58556738Y-104512905D02*
X58514370Y-105321319D01*
X58514370Y-105321319D02*
X58461832Y-105413934D01*
X58461832Y-105413934D02*
X58411786Y-105458996D01*
X58411786Y-105458996D02*
X58314187Y-105501565D01*
X58314187Y-105501565D02*
X58123971Y-105491597D01*
X58123971Y-105491597D02*
X58031356Y-105439059D01*
X58031356Y-105439059D02*
X57986294Y-105389013D01*
X57986294Y-105389013D02*
X57943725Y-105291413D01*
X57943725Y-105291413D02*
X57986092Y-104482998D01*
X57082570Y-104435647D02*
X57272785Y-104445616D01*
X57272785Y-104445616D02*
X57365401Y-104498154D01*
X57365401Y-104498154D02*
X57410462Y-104548200D01*
X57410462Y-104548200D02*
X57498093Y-104695846D01*
X57498093Y-104695846D02*
X57535678Y-104888553D01*
X57535678Y-104888553D02*
X57515741Y-105268983D01*
X57515741Y-105268983D02*
X57463203Y-105361599D01*
X57463203Y-105361599D02*
X57413157Y-105406660D01*
X57413157Y-105406660D02*
X57315557Y-105449230D01*
X57315557Y-105449230D02*
X57125342Y-105439261D01*
X57125342Y-105439261D02*
X57032727Y-105386723D01*
X57032727Y-105386723D02*
X56987665Y-105336677D01*
X56987665Y-105336677D02*
X56945096Y-105239077D01*
X56945096Y-105239077D02*
X56957556Y-105001308D01*
X56957556Y-105001308D02*
X57010095Y-104908693D01*
X57010095Y-104908693D02*
X57060141Y-104863631D01*
X57060141Y-104863631D02*
X57157740Y-104821062D01*
X57157740Y-104821062D02*
X57347956Y-104831030D01*
X57347956Y-104831030D02*
X57440571Y-104883568D01*
X57440571Y-104883568D02*
X57485633Y-104933614D01*
X57485633Y-104933614D02*
X57528202Y-105031214D01*
X36876954Y-38164073D02*
X36899883Y-38060091D01*
X36899883Y-38060091D02*
X36885804Y-37926142D01*
X36885804Y-37926142D02*
X36864686Y-37725218D01*
X36864686Y-37725218D02*
X36887615Y-37621237D01*
X36887615Y-37621237D02*
X36947550Y-37547223D01*
X37102617Y-37734068D02*
X37125545Y-37630086D01*
X37125545Y-37630086D02*
X37111467Y-37496137D01*
X37111467Y-37496137D02*
X36993406Y-37339260D01*
X36993406Y-37339260D02*
X36734358Y-37129486D01*
X36734358Y-37129486D02*
X36556362Y-37046623D01*
X36556362Y-37046623D02*
X36422413Y-37060701D01*
X36422413Y-37060701D02*
X36325471Y-37104748D01*
X36325471Y-37104748D02*
X36205600Y-37252775D01*
X36205600Y-37252775D02*
X36182672Y-37356757D01*
X36182672Y-37356757D02*
X36196751Y-37490706D01*
X36196751Y-37490706D02*
X36314811Y-37647584D01*
X36314811Y-37647584D02*
X36573860Y-37857357D01*
X36573860Y-37857357D02*
X36751855Y-37940221D01*
X36751855Y-37940221D02*
X36885804Y-37926142D01*
X36885804Y-37926142D02*
X36982746Y-37882096D01*
X36982746Y-37882096D02*
X37102617Y-37734068D01*
X35890035Y-37793801D02*
X35823060Y-37800840D01*
X35823060Y-37800840D02*
X35726118Y-37844887D01*
X35726118Y-37844887D02*
X35576280Y-38029921D01*
X35576280Y-38029921D02*
X35553352Y-38133903D01*
X35553352Y-38133903D02*
X35560391Y-38200877D01*
X35560391Y-38200877D02*
X35604437Y-38297820D01*
X35604437Y-38297820D02*
X35678451Y-38357755D01*
X35678451Y-38357755D02*
X35819440Y-38410651D01*
X35819440Y-38410651D02*
X36623135Y-38326179D01*
X36623135Y-38326179D02*
X36233555Y-38807270D01*
D11*
X34211903Y-36442624D02*
X34989049Y-37071945D01*
X34989049Y-37071945D02*
X34643718Y-36363382D01*
X34643718Y-36363382D02*
X35408596Y-36553847D01*
X35408596Y-36553847D02*
X34631450Y-35924527D01*
X35828143Y-36035750D02*
X35948013Y-35887722D01*
X35948013Y-35887722D02*
X35970942Y-35783741D01*
X35970942Y-35783741D02*
X35956863Y-35649792D01*
X35956863Y-35649792D02*
X35838803Y-35492914D01*
X35838803Y-35492914D02*
X35579754Y-35283141D01*
X35579754Y-35283141D02*
X35401759Y-35200277D01*
X35401759Y-35200277D02*
X35267810Y-35214356D01*
X35267810Y-35214356D02*
X35170867Y-35258402D01*
X35170867Y-35258402D02*
X35050997Y-35406430D01*
X35050997Y-35406430D02*
X35028069Y-35510411D01*
X35028069Y-35510411D02*
X35042147Y-35644361D01*
X35042147Y-35644361D02*
X35160207Y-35801238D01*
X35160207Y-35801238D02*
X35419256Y-36011012D01*
X35419256Y-36011012D02*
X35597251Y-36093875D01*
X35597251Y-36093875D02*
X35731201Y-36079797D01*
X35731201Y-36079797D02*
X35828143Y-36035750D01*
X35597454Y-34807279D02*
X35650350Y-34666291D01*
X35650350Y-34666291D02*
X35800188Y-34481256D01*
X35800188Y-34481256D02*
X35897130Y-34437210D01*
X35897130Y-34437210D02*
X35964105Y-34430171D01*
X35964105Y-34430171D02*
X36068086Y-34453099D01*
X36068086Y-34453099D02*
X36142100Y-34513034D01*
X36142100Y-34513034D02*
X36186146Y-34609976D01*
X36186146Y-34609976D02*
X36193186Y-34676951D01*
X36193186Y-34676951D02*
X36170257Y-34780933D01*
X36170257Y-34780933D02*
X36087394Y-34958928D01*
X36087394Y-34958928D02*
X36064465Y-35062910D01*
X36064465Y-35062910D02*
X36071505Y-35129884D01*
X36071505Y-35129884D02*
X36115551Y-35226826D01*
X36115551Y-35226826D02*
X36189565Y-35286762D01*
X36189565Y-35286762D02*
X36293546Y-35309690D01*
X36293546Y-35309690D02*
X36360521Y-35302651D01*
X36360521Y-35302651D02*
X36457463Y-35258604D01*
X36457463Y-35258604D02*
X36607301Y-35073570D01*
X36607301Y-35073570D02*
X36660197Y-34932581D01*
X36806617Y-34070761D02*
X36596844Y-34329810D01*
X36189767Y-34000166D02*
X36966913Y-34629486D01*
X36966913Y-34629486D02*
X37266589Y-34259417D01*
X37136261Y-33663685D02*
X37346035Y-33404636D01*
X37028861Y-32963971D02*
X36729185Y-33334041D01*
X36729185Y-33334041D02*
X37506331Y-33963361D01*
X37506331Y-33963361D02*
X37806007Y-33593291D01*
X37985813Y-33371250D02*
X38345425Y-32927166D01*
X37388473Y-32519888D02*
X38165619Y-33149208D01*
D15*
X72155467Y-57643619D02*
X72155467Y-58671714D01*
X72155467Y-58671714D02*
X72094990Y-58792666D01*
X72094990Y-58792666D02*
X72034514Y-58853143D01*
X72034514Y-58853143D02*
X71913562Y-58913619D01*
X71913562Y-58913619D02*
X71671657Y-58913619D01*
X71671657Y-58913619D02*
X71550705Y-58853143D01*
X71550705Y-58853143D02*
X71490228Y-58792666D01*
X71490228Y-58792666D02*
X71429752Y-58671714D01*
X71429752Y-58671714D02*
X71429752Y-57643619D01*
X70159752Y-58913619D02*
X70885467Y-58913619D01*
X70522610Y-58913619D02*
X70522610Y-57643619D01*
X70522610Y-57643619D02*
X70643562Y-57825047D01*
X70643562Y-57825047D02*
X70764514Y-57946000D01*
X70764514Y-57946000D02*
X70885467Y-58006476D01*
D16*
X66616372Y-55283681D02*
X67187800Y-55283681D01*
X66902086Y-54283681D02*
X66902086Y-55283681D01*
X67521134Y-54807491D02*
X67854467Y-54807491D01*
X67997324Y-54283681D02*
X67521134Y-54283681D01*
X67521134Y-54283681D02*
X67521134Y-55283681D01*
X67521134Y-55283681D02*
X67997324Y-55283681D01*
X68425896Y-54807491D02*
X68759229Y-54807491D01*
X68902086Y-54283681D02*
X68425896Y-54283681D01*
X68425896Y-54283681D02*
X68425896Y-55283681D01*
X68425896Y-55283681D02*
X68902086Y-55283681D01*
X69330658Y-54283681D02*
X69330658Y-55283681D01*
X69330658Y-55283681D02*
X69902086Y-54283681D01*
X69902086Y-54283681D02*
X69902086Y-55283681D01*
X70330658Y-54331301D02*
X70473515Y-54283681D01*
X70473515Y-54283681D02*
X70711610Y-54283681D01*
X70711610Y-54283681D02*
X70806848Y-54331301D01*
X70806848Y-54331301D02*
X70854467Y-54378920D01*
X70854467Y-54378920D02*
X70902086Y-54474158D01*
X70902086Y-54474158D02*
X70902086Y-54569396D01*
X70902086Y-54569396D02*
X70854467Y-54664634D01*
X70854467Y-54664634D02*
X70806848Y-54712253D01*
X70806848Y-54712253D02*
X70711610Y-54759872D01*
X70711610Y-54759872D02*
X70521134Y-54807491D01*
X70521134Y-54807491D02*
X70425896Y-54855110D01*
X70425896Y-54855110D02*
X70378277Y-54902729D01*
X70378277Y-54902729D02*
X70330658Y-54997967D01*
X70330658Y-54997967D02*
X70330658Y-55093205D01*
X70330658Y-55093205D02*
X70378277Y-55188443D01*
X70378277Y-55188443D02*
X70425896Y-55236062D01*
X70425896Y-55236062D02*
X70521134Y-55283681D01*
X70521134Y-55283681D02*
X70759229Y-55283681D01*
X70759229Y-55283681D02*
X70902086Y-55236062D01*
X71521134Y-54759872D02*
X71521134Y-54283681D01*
X71187801Y-55283681D02*
X71521134Y-54759872D01*
X71521134Y-54759872D02*
X71854467Y-55283681D01*
X73378277Y-54950348D02*
X73378277Y-54283681D01*
X73140182Y-55331301D02*
X72902087Y-54617015D01*
X72902087Y-54617015D02*
X73521134Y-54617015D01*
X73902087Y-54378920D02*
X73949706Y-54331301D01*
X73949706Y-54331301D02*
X73902087Y-54283681D01*
X73902087Y-54283681D02*
X73854468Y-54331301D01*
X73854468Y-54331301D02*
X73902087Y-54378920D01*
X73902087Y-54378920D02*
X73902087Y-54283681D01*
X74902086Y-54283681D02*
X74330658Y-54283681D01*
X74616372Y-54283681D02*
X74616372Y-55283681D01*
X74616372Y-55283681D02*
X74521134Y-55140824D01*
X74521134Y-55140824D02*
X74425896Y-55045586D01*
X74425896Y-55045586D02*
X74330658Y-54997967D01*
D10*
X76562057Y-31800761D02*
X76514438Y-31705523D01*
X76514438Y-31705523D02*
X76419200Y-31610285D01*
X76419200Y-31610285D02*
X76276342Y-31467428D01*
X76276342Y-31467428D02*
X76228723Y-31372190D01*
X76228723Y-31372190D02*
X76228723Y-31276952D01*
X76466819Y-31324571D02*
X76419200Y-31229333D01*
X76419200Y-31229333D02*
X76323961Y-31134095D01*
X76323961Y-31134095D02*
X76133485Y-31086476D01*
X76133485Y-31086476D02*
X75800152Y-31086476D01*
X75800152Y-31086476D02*
X75609676Y-31134095D01*
X75609676Y-31134095D02*
X75514438Y-31229333D01*
X75514438Y-31229333D02*
X75466819Y-31324571D01*
X75466819Y-31324571D02*
X75466819Y-31515047D01*
X75466819Y-31515047D02*
X75514438Y-31610285D01*
X75514438Y-31610285D02*
X75609676Y-31705523D01*
X75609676Y-31705523D02*
X75800152Y-31753142D01*
X75800152Y-31753142D02*
X76133485Y-31753142D01*
X76133485Y-31753142D02*
X76323961Y-31705523D01*
X76323961Y-31705523D02*
X76419200Y-31610285D01*
X76419200Y-31610285D02*
X76466819Y-31515047D01*
X76466819Y-31515047D02*
X76466819Y-31324571D01*
X76466819Y-32705523D02*
X76466819Y-32134095D01*
X76466819Y-32419809D02*
X75466819Y-32419809D01*
X75466819Y-32419809D02*
X75609676Y-32324571D01*
X75609676Y-32324571D02*
X75704914Y-32229333D01*
X75704914Y-32229333D02*
X75752533Y-32134095D01*
D11*
X73407580Y-32140115D02*
X74407580Y-32140115D01*
X74407580Y-32140115D02*
X73693295Y-31806782D01*
X73693295Y-31806782D02*
X74407580Y-31473449D01*
X74407580Y-31473449D02*
X73407580Y-31473449D01*
X74407580Y-30806782D02*
X74407580Y-30616306D01*
X74407580Y-30616306D02*
X74359961Y-30521068D01*
X74359961Y-30521068D02*
X74264723Y-30425830D01*
X74264723Y-30425830D02*
X74074247Y-30378211D01*
X74074247Y-30378211D02*
X73740914Y-30378211D01*
X73740914Y-30378211D02*
X73550438Y-30425830D01*
X73550438Y-30425830D02*
X73455200Y-30521068D01*
X73455200Y-30521068D02*
X73407580Y-30616306D01*
X73407580Y-30616306D02*
X73407580Y-30806782D01*
X73407580Y-30806782D02*
X73455200Y-30902020D01*
X73455200Y-30902020D02*
X73550438Y-30997258D01*
X73550438Y-30997258D02*
X73740914Y-31044877D01*
X73740914Y-31044877D02*
X74074247Y-31044877D01*
X74074247Y-31044877D02*
X74264723Y-30997258D01*
X74264723Y-30997258D02*
X74359961Y-30902020D01*
X74359961Y-30902020D02*
X74407580Y-30806782D01*
X73455200Y-29997258D02*
X73407580Y-29854401D01*
X73407580Y-29854401D02*
X73407580Y-29616306D01*
X73407580Y-29616306D02*
X73455200Y-29521068D01*
X73455200Y-29521068D02*
X73502819Y-29473449D01*
X73502819Y-29473449D02*
X73598057Y-29425830D01*
X73598057Y-29425830D02*
X73693295Y-29425830D01*
X73693295Y-29425830D02*
X73788533Y-29473449D01*
X73788533Y-29473449D02*
X73836152Y-29521068D01*
X73836152Y-29521068D02*
X73883771Y-29616306D01*
X73883771Y-29616306D02*
X73931390Y-29806782D01*
X73931390Y-29806782D02*
X73979009Y-29902020D01*
X73979009Y-29902020D02*
X74026628Y-29949639D01*
X74026628Y-29949639D02*
X74121866Y-29997258D01*
X74121866Y-29997258D02*
X74217104Y-29997258D01*
X74217104Y-29997258D02*
X74312342Y-29949639D01*
X74312342Y-29949639D02*
X74359961Y-29902020D01*
X74359961Y-29902020D02*
X74407580Y-29806782D01*
X74407580Y-29806782D02*
X74407580Y-29568687D01*
X74407580Y-29568687D02*
X74359961Y-29425830D01*
X73931390Y-28663925D02*
X73931390Y-28997258D01*
X73407580Y-28997258D02*
X74407580Y-28997258D01*
X74407580Y-28997258D02*
X74407580Y-28521068D01*
X73931390Y-28140115D02*
X73931390Y-27806782D01*
X73407580Y-27663925D02*
X73407580Y-28140115D01*
X73407580Y-28140115D02*
X74407580Y-28140115D01*
X74407580Y-28140115D02*
X74407580Y-27663925D01*
X74407580Y-27378210D02*
X74407580Y-26806782D01*
X73407580Y-27092496D02*
X74407580Y-27092496D01*
D12*
X96568924Y-44925004D02*
X96381448Y-44793770D01*
X96568924Y-44700032D02*
X96175223Y-44700032D01*
X96175223Y-44700032D02*
X96175223Y-44850013D01*
X96175223Y-44850013D02*
X96193971Y-44887509D01*
X96193971Y-44887509D02*
X96212719Y-44906256D01*
X96212719Y-44906256D02*
X96250214Y-44925004D01*
X96250214Y-44925004D02*
X96306457Y-44925004D01*
X96306457Y-44925004D02*
X96343952Y-44906256D01*
X96343952Y-44906256D02*
X96362700Y-44887509D01*
X96362700Y-44887509D02*
X96381448Y-44850013D01*
X96381448Y-44850013D02*
X96381448Y-44700032D01*
X96568924Y-45299957D02*
X96568924Y-45074985D01*
X96568924Y-45187471D02*
X96175223Y-45187471D01*
X96175223Y-45187471D02*
X96231466Y-45149976D01*
X96231466Y-45149976D02*
X96268962Y-45112481D01*
X96268962Y-45112481D02*
X96287709Y-45074985D01*
D11*
X95719448Y-40860027D02*
X95719448Y-41336217D01*
X95719448Y-41336217D02*
X95243258Y-41383836D01*
X95243258Y-41383836D02*
X95290877Y-41336217D01*
X95290877Y-41336217D02*
X95338496Y-41240979D01*
X95338496Y-41240979D02*
X95338496Y-41002884D01*
X95338496Y-41002884D02*
X95290877Y-40907646D01*
X95290877Y-40907646D02*
X95243258Y-40860027D01*
X95243258Y-40860027D02*
X95148020Y-40812408D01*
X95148020Y-40812408D02*
X94909925Y-40812408D01*
X94909925Y-40812408D02*
X94814687Y-40860027D01*
X94814687Y-40860027D02*
X94767068Y-40907646D01*
X94767068Y-40907646D02*
X94719448Y-41002884D01*
X94719448Y-41002884D02*
X94719448Y-41240979D01*
X94719448Y-41240979D02*
X94767068Y-41336217D01*
X94767068Y-41336217D02*
X94814687Y-41383836D01*
X95719448Y-40193360D02*
X95719448Y-40098122D01*
X95719448Y-40098122D02*
X95671829Y-40002884D01*
X95671829Y-40002884D02*
X95624210Y-39955265D01*
X95624210Y-39955265D02*
X95528972Y-39907646D01*
X95528972Y-39907646D02*
X95338496Y-39860027D01*
X95338496Y-39860027D02*
X95100401Y-39860027D01*
X95100401Y-39860027D02*
X94909925Y-39907646D01*
X94909925Y-39907646D02*
X94814687Y-39955265D01*
X94814687Y-39955265D02*
X94767068Y-40002884D01*
X94767068Y-40002884D02*
X94719448Y-40098122D01*
X94719448Y-40098122D02*
X94719448Y-40193360D01*
X94719448Y-40193360D02*
X94767068Y-40288598D01*
X94767068Y-40288598D02*
X94814687Y-40336217D01*
X94814687Y-40336217D02*
X94909925Y-40383836D01*
X94909925Y-40383836D02*
X95100401Y-40431455D01*
X95100401Y-40431455D02*
X95338496Y-40431455D01*
X95338496Y-40431455D02*
X95528972Y-40383836D01*
X95528972Y-40383836D02*
X95624210Y-40336217D01*
X95624210Y-40336217D02*
X95671829Y-40288598D01*
X95671829Y-40288598D02*
X95719448Y-40193360D01*
X95719448Y-39240979D02*
X95719448Y-39145741D01*
X95719448Y-39145741D02*
X95671829Y-39050503D01*
X95671829Y-39050503D02*
X95624210Y-39002884D01*
X95624210Y-39002884D02*
X95528972Y-38955265D01*
X95528972Y-38955265D02*
X95338496Y-38907646D01*
X95338496Y-38907646D02*
X95100401Y-38907646D01*
X95100401Y-38907646D02*
X94909925Y-38955265D01*
X94909925Y-38955265D02*
X94814687Y-39002884D01*
X94814687Y-39002884D02*
X94767068Y-39050503D01*
X94767068Y-39050503D02*
X94719448Y-39145741D01*
X94719448Y-39145741D02*
X94719448Y-39240979D01*
X94719448Y-39240979D02*
X94767068Y-39336217D01*
X94767068Y-39336217D02*
X94814687Y-39383836D01*
X94814687Y-39383836D02*
X94909925Y-39431455D01*
X94909925Y-39431455D02*
X95100401Y-39479074D01*
X95100401Y-39479074D02*
X95338496Y-39479074D01*
X95338496Y-39479074D02*
X95528972Y-39431455D01*
X95528972Y-39431455D02*
X95624210Y-39383836D01*
X95624210Y-39383836D02*
X95671829Y-39336217D01*
X95671829Y-39336217D02*
X95719448Y-39240979D01*
D17*
%TO.C,R3*%
X84865768Y-44432260D02*
X84865768Y-43372260D01*
X86625768Y-44432260D02*
X86625768Y-43372260D01*
D11*
%TO.C,U4*%
X56082577Y-69071024D02*
X85822577Y-69071024D01*
X85822577Y-69071024D02*
X85822577Y-94051024D01*
X85822577Y-94051024D02*
X56082577Y-94051024D01*
X56082577Y-94051024D02*
X56082577Y-69071024D01*
%TO.C,U5*%
X68379875Y-22328660D02*
X42979875Y-22328660D01*
X42979875Y-22328660D02*
X42979875Y-47728660D01*
X42979875Y-47728660D02*
X68379875Y-47728660D01*
X68379875Y-47728660D02*
X68379875Y-22328660D01*
D17*
%TO.C,R4*%
X80289488Y-44453675D02*
X80289488Y-43393675D01*
X82049488Y-44453675D02*
X82049488Y-43393675D01*
%TO.C,R2*%
X89417625Y-44430932D02*
X89417625Y-43370932D01*
X91177625Y-44430932D02*
X91177625Y-43370932D01*
%TO.C,U6*%
X53409365Y-98845927D02*
X54407995Y-98898263D01*
X53882512Y-99371410D02*
X53934848Y-98372781D01*
X55368928Y-94893066D02*
X54945006Y-102981965D01*
X54945006Y-102981965D02*
X67627602Y-103646632D01*
X68051523Y-95557732D02*
X55368928Y-94893066D01*
X67627602Y-103646632D02*
X70551987Y-101346530D01*
X70719462Y-98150915D02*
X68051523Y-95557732D01*
X70551987Y-101346530D02*
X70719462Y-98150915D01*
X71384697Y-99787975D02*
X72383327Y-99840311D01*
%TO.C,Q2*%
X30026346Y-36514461D02*
X36546105Y-28463229D01*
X33678932Y-39472267D02*
X30026346Y-36514461D01*
X36546105Y-28463229D02*
X40198691Y-31421035D01*
X40198691Y-31421035D02*
X33678932Y-39472267D01*
D18*
X31304524Y-38253454D02*
G75*
G03*
X31304524Y-38253454I-100000J0D01*
G01*
%TO.C,U1*%
X40707848Y-49449301D02*
X101667848Y-49449301D01*
X40707848Y-67229301D02*
X40707848Y-49449301D01*
X47057848Y-48819301D02*
X47057848Y-48819301D01*
X47057848Y-48819301D02*
X47057848Y-48819301D01*
X47157848Y-48819301D02*
X47157848Y-48819301D01*
X101667848Y-49449301D02*
X101667848Y-67229301D01*
X101667848Y-67229301D02*
X40707848Y-67229301D01*
D11*
X40707848Y-61133301D02*
X46041848Y-61133301D01*
X46041848Y-61133301D02*
X46041848Y-55799301D01*
X46041848Y-55799301D02*
X40707848Y-55799301D01*
X40707848Y-55799301D02*
X40707848Y-61133301D01*
X101667848Y-64816301D02*
X89348848Y-64816301D01*
X89348848Y-64816301D02*
X89348848Y-51862301D01*
X89348848Y-51862301D02*
X101667848Y-51862301D01*
X101667848Y-51862301D02*
X101667848Y-64816301D01*
D18*
X47157848Y-48819301D02*
G75*
G03*
X47057848Y-48819301I-50000J0D01*
G01*
X47157848Y-48819301D02*
G75*
G03*
X47057848Y-48819301I-50000J0D01*
G01*
X47057848Y-48819301D02*
G75*
G03*
X47157848Y-48819301I50000J0D01*
G01*
D17*
%TO.C,Q1*%
X70200000Y-34830000D02*
X70200000Y-24470000D01*
X74900000Y-34830000D02*
X70200000Y-34830000D01*
X70200000Y-24470000D02*
X74900000Y-24470000D01*
X74900000Y-24470000D02*
X74900000Y-34830000D01*
D18*
X72310000Y-35440000D02*
G75*
G03*
X72310000Y-35440000I-100000J0D01*
G01*
D17*
%TO.C,R1*%
X94031910Y-44530621D02*
X94031910Y-43370621D01*
X95791910Y-44530621D02*
X95791910Y-43370621D01*
%TD*%
%LPC*%
D19*
%TO.C,U8*%
X54344518Y-77134565D03*
X51804518Y-77134565D03*
X49264518Y-77134565D03*
X46724518Y-77134565D03*
X44184518Y-77134565D03*
X41644518Y-77134565D03*
X39104518Y-77134565D03*
X36564518Y-77134565D03*
D20*
X37199518Y-88564565D03*
%TD*%
D21*
%TO.C,J4*%
X51770372Y-62293844D03*
X54270372Y-62293844D03*
X56770372Y-62293844D03*
%TD*%
D19*
%TO.C,U2*%
X61159000Y-89914000D03*
X63699000Y-89914000D03*
X66239000Y-89914000D03*
X68779000Y-89914000D03*
X71319000Y-89914000D03*
X73859000Y-89914000D03*
X76399000Y-89914000D03*
X78939000Y-89914000D03*
D20*
X78304000Y-78484000D03*
%TD*%
D22*
%TO.C,SW1*%
X32532800Y-53950000D03*
X38526413Y-53950000D03*
%TD*%
D23*
%TO.C,U7*%
X65320253Y-60498163D03*
D24*
X71791571Y-57341891D03*
%TD*%
D25*
%TO.C,U13*%
X29699294Y-71810130D03*
D26*
X32239294Y-71810130D03*
X34779294Y-71810130D03*
X37319294Y-71810130D03*
X39859294Y-71810130D03*
X29699294Y-59135130D03*
X32239294Y-59135130D03*
X34779294Y-59135130D03*
X37319294Y-59135130D03*
D25*
X39859294Y-59135130D03*
%TD*%
D21*
%TO.C,J3*%
X72610880Y-71074127D03*
X75110880Y-71074127D03*
%TD*%
D19*
%TO.C,U3*%
X72577881Y-40236034D03*
X74860817Y-39122571D03*
X77143754Y-38009108D03*
X79426691Y-36895646D03*
X81709628Y-35782183D03*
X83992565Y-34668720D03*
X86275502Y-33555258D03*
X88558439Y-32441795D03*
X90841376Y-31328332D03*
%TD*%
%TO.C,U14*%
X62259239Y-39521461D03*
X62259239Y-36981461D03*
X62259239Y-34441461D03*
X62259239Y-31901461D03*
X62259239Y-29361461D03*
X62259239Y-26821461D03*
D27*
X47019239Y-36981461D03*
X47019239Y-34441461D03*
X47019239Y-31901461D03*
X47019239Y-29361461D03*
%TD*%
D21*
%TO.C,J1*%
X56826723Y-54902201D03*
X54326723Y-54902201D03*
X51826723Y-54902201D03*
%TD*%
%TO.C,J2*%
X62148487Y-71024550D03*
X64648487Y-71024550D03*
X67148487Y-71024550D03*
%TD*%
D28*
%TO.C,R3*%
X85745768Y-45368260D03*
X85745768Y-42436260D03*
%TD*%
D19*
%TO.C,U4*%
X83252577Y-71461024D03*
X83252577Y-74001024D03*
X83252577Y-76541024D03*
X83252577Y-79081024D03*
X83252577Y-81621024D03*
X83252577Y-84161024D03*
X83252577Y-86701024D03*
X83252577Y-89241024D03*
X83252577Y-91781024D03*
X57852577Y-71461024D03*
X57852577Y-74001024D03*
X57852577Y-76541024D03*
X57852577Y-79081024D03*
X57852577Y-81621024D03*
%TD*%
D29*
%TO.C,U5*%
X62029875Y-43918660D03*
X62029875Y-46458660D03*
X59489875Y-46458660D03*
X59489875Y-43918660D03*
X56949875Y-46458660D03*
X56949875Y-43918660D03*
X54409875Y-46458660D03*
X54409875Y-43918660D03*
X51869875Y-46458660D03*
X51869875Y-43918660D03*
X49329875Y-46458660D03*
X49329875Y-43918660D03*
%TD*%
D28*
%TO.C,R4*%
X81169488Y-45389675D03*
X81169488Y-42457675D03*
%TD*%
%TO.C,R2*%
X90297625Y-45366932D03*
X90297625Y-42434932D03*
%TD*%
D23*
%TO.C,U6*%
X66491412Y-99531528D03*
D30*
X59301280Y-99154710D03*
%TD*%
D31*
%TO.C,Q2*%
X33094386Y-35601866D03*
D32*
X34692860Y-33627915D03*
X36291334Y-31653964D03*
%TD*%
D33*
%TO.C,U1*%
X44517848Y-50719301D03*
X47057848Y-50719301D03*
X49597848Y-50719301D03*
X52137848Y-50719301D03*
X77537848Y-50719301D03*
X47057848Y-65959301D03*
X54677848Y-50719301D03*
X57217848Y-50719301D03*
X59757848Y-50719301D03*
X62297848Y-50719301D03*
X64837848Y-50719301D03*
X67377848Y-50719301D03*
X69917848Y-50719301D03*
X72457848Y-50719301D03*
X74997848Y-50719301D03*
X74997848Y-65959301D03*
X72457848Y-65959301D03*
X69917848Y-65959301D03*
X67377848Y-65959301D03*
X64837848Y-65959301D03*
X62297848Y-65959301D03*
X59757848Y-65959301D03*
X57217848Y-65959301D03*
X54677848Y-65959301D03*
X52137848Y-65959301D03*
X49597848Y-65959301D03*
X80077848Y-50719301D03*
X82617848Y-50719301D03*
X85157848Y-50719301D03*
X87697848Y-50719301D03*
X90237848Y-50719301D03*
X92777848Y-50719301D03*
X95317848Y-50719301D03*
X97857848Y-50719301D03*
X100397848Y-50719301D03*
X100397848Y-65959301D03*
X97857848Y-65959301D03*
X95317848Y-65959301D03*
X92777848Y-65959301D03*
X90237848Y-65959301D03*
X87697848Y-65959301D03*
X85157848Y-65959301D03*
X82617848Y-65959301D03*
X80077848Y-65959301D03*
X41977848Y-50719301D03*
X77537848Y-65959301D03*
X44517848Y-65959301D03*
X41977848Y-65959301D03*
%TD*%
D34*
%TO.C,Q1*%
X72010000Y-32190000D03*
D32*
X72010000Y-29650000D03*
X72010000Y-27110000D03*
%TD*%
D35*
%TO.C,R1*%
X94911910Y-45420621D03*
X94911910Y-42480621D03*
%TD*%
%LPD*%
M02*
