M48
; DRILL file {KiCad 7.0.9} date Wed Feb 14 22:00:51 2024
; FORMAT={-:-/ absolute / metric / decimal}
; #@! TF.CreationDate,2024-02-14T22:00:51-05:00
; #@! TF.GenerationSoftware,Kicad,Pcbnew,7.0.9
; #@! TF.FileFunction,Plated,1,2,PTH
FMAT,2
METRIC
; #@! TA.AperFunction,Plated,PTH,ViaDrill
T1C0.400
; #@! TA.AperFunction,Plated,PTH,ComponentDrill
T2C1.000
; #@! TA.AperFunction,Plated,PTH,ComponentDrill
T3C1.020
; #@! TA.AperFunction,Plated,PTH,ComponentDrill
T4C1.067
; #@! TA.AperFunction,Plated,PTH,ComponentDrill
T5C1.110
; #@! TA.AperFunction,Plated,PTH,ComponentDrill
T6C1.170
; #@! TA.AperFunction,Plated,PTH,ComponentDrill
T7C1.750
; #@! TA.AperFunction,Plated,PTH,ComponentDrill
T8C2.500
; #@! TA.AperFunction,Plated,PTH,ComponentDrill
T9C4.550
%
G90
G05
T1
X39.476Y-39.589
X40.251Y-44.93
X40.33Y-37.68
X53.5Y-51.33
X53.54Y-74.64
X59.91Y-72.5
X66.1Y-59.74
X79.28Y-56.34
X81.79Y-56.34
X84.043Y-55.577
X86.392Y-80.692
X86.417Y-73.39
X86.53Y-77.05
X88.74Y-65.42
X91.63Y-69.81
T2
X26.8Y-55.445
X26.8Y-57.985
X26.8Y-60.525
X26.8Y-63.065
X26.8Y-65.605
X26.8Y-68.145
X44.58Y-57.985
X44.58Y-60.525
X44.58Y-63.065
X44.58Y-65.605
X49.305Y-29.615
X49.305Y-32.155
X49.305Y-34.695
X49.305Y-37.235
X49.305Y-39.775
X49.305Y-42.315
X49.305Y-44.855
X49.305Y-47.395
X49.305Y-49.935
X53.91Y-45.94
X54.9Y-64.086
X56.45Y-45.94
X57.4Y-64.086
X58.99Y-45.94
X59.9Y-64.086
X59.95Y-57.786
X61.53Y-45.94
X62.4Y-64.086
X62.45Y-57.786
X64.07Y-20.54
X64.07Y-45.94
X66.61Y-20.54
X66.61Y-45.94
X69.15Y-20.54
X69.15Y-45.94
X71.6Y-57.786
X71.6Y-64.086
X71.69Y-20.54
X71.69Y-45.94
X74.1Y-57.786
X74.1Y-64.086
X74.23Y-20.54
X74.23Y-45.94
X76.46Y-85.5
X76.6Y-57.786
X76.6Y-64.086
X79.0Y-85.5
X79.1Y-64.086
X81.54Y-85.5
X84.08Y-85.5
X86.62Y-85.5
X89.16Y-85.5
X91.7Y-85.5
X94.24Y-85.5
T3
X47.92Y-73.35
X47.92Y-75.89
X47.92Y-78.43
X47.92Y-80.97
X47.92Y-83.51
X47.92Y-86.05
X50.46Y-73.35
X50.46Y-75.89
X50.46Y-78.43
X50.46Y-80.97
X50.46Y-83.51
X50.46Y-86.05
T4
X96.17Y-60.42
X101.17Y-60.42
T5
X44.61Y-52.8
X44.61Y-68.04
X47.15Y-52.8
X47.15Y-68.04
X49.69Y-52.8
X49.69Y-68.04
X52.23Y-52.8
X52.23Y-68.04
X54.77Y-52.8
X54.77Y-68.04
X57.31Y-52.8
X57.31Y-68.04
X59.85Y-52.8
X59.85Y-68.04
X62.39Y-52.8
X62.39Y-68.04
X64.93Y-52.8
X64.93Y-68.04
X67.47Y-52.8
X67.47Y-68.04
X70.01Y-52.8
X70.01Y-68.04
X72.55Y-52.8
X72.55Y-68.04
X75.09Y-52.8
X75.09Y-68.04
X77.63Y-52.8
X77.63Y-68.04
X80.17Y-52.8
X80.17Y-68.04
X82.71Y-52.8
X82.71Y-68.04
X85.25Y-52.8
X85.25Y-68.04
X87.79Y-52.8
X87.79Y-68.04
X90.33Y-52.8
X90.33Y-68.04
X92.87Y-52.8
X92.87Y-68.04
X95.41Y-52.8
X95.41Y-68.04
X97.95Y-52.8
X97.95Y-68.04
X100.49Y-52.8
X100.49Y-68.04
X103.03Y-52.8
X103.03Y-68.04
T6
X57.08Y-74.63
X57.29Y-79.95
X57.29Y-82.49
X57.29Y-85.03
X59.62Y-74.63
X62.16Y-74.63
X62.66Y-84.78
X65.2Y-84.78
X67.45Y-74.36
X67.45Y-76.9
X67.45Y-79.44
X67.74Y-84.78
T8
X28.07Y-51.0
X43.31Y-72.59
X75.19Y-72.8
X95.51Y-72.8
T9
X60.8Y-99.125
X68.0Y-99.125
T7
X77.873Y-92.398G85X75.524Y-93.253
G05
X79.923Y-98.03G85X77.574Y-98.885
G05
T0
M30
